<svg width="63" height="59" viewBox="0 0 63 59" fill="none" xmlns="http://www.w3.org/2000/svg">
<rect x="62.1704" y="0.132812" width="58.7753" height="61.2898" rx="3.14306" transform="rotate(90 62.1704 0.132812)" fill="url(#paint0_linear_1957_12273)"/>
<path d="M14.356 16.8184L15.4875 10.2179H15.9213L14.7898 16.8184H14.356ZM10.9804 14.9231V14.5176H16.3644V14.9231H10.9804ZM11.763 16.8184L12.8945 10.2179H13.3282L12.1967 16.8184H11.763ZM11.3387 12.4149V12H16.7133V12.4149H11.3387ZM18.0673 16.8184V10.2179H18.5576V16.8184H18.0673ZM18.303 13.7444V13.2636H21.4618V13.7444H18.303ZM18.3125 10.6988V10.2179H21.9616V10.6988H18.3125ZM23.3569 16.8184L23.2155 16.4695L25.6954 13.7727C25.796 13.6659 25.906 13.5401 26.0254 13.3956C26.1448 13.251 26.258 13.0938 26.3648 12.9241C26.4717 12.7544 26.5566 12.5815 26.6194 12.4055C26.6886 12.2232 26.7232 12.0409 26.7232 11.8586C26.7232 11.6134 26.6572 11.3966 26.5251 11.208C26.3994 11.0131 26.2234 10.8623 25.9971 10.7554C25.7771 10.6422 25.5194 10.5857 25.2239 10.5857C25.0039 10.5857 24.7807 10.6391 24.5544 10.746C24.3281 10.8528 24.1207 11.0163 23.9321 11.2363C23.7435 11.4563 23.5958 11.7486 23.4889 12.1132L23.0835 11.8775C23.2029 11.4814 23.3664 11.1546 23.5738 10.8968C23.7875 10.6391 24.039 10.4474 24.3281 10.3216C24.6236 10.1896 24.941 10.1236 25.2805 10.1236C25.6514 10.1236 25.9814 10.1959 26.2706 10.3405C26.566 10.4851 26.7986 10.6862 26.9683 10.944C27.1443 11.2017 27.2323 11.494 27.2323 11.8209C27.2323 12.022 27.2009 12.2201 27.138 12.4149C27.0815 12.6098 27.0029 12.8015 26.9023 12.9901C26.8017 13.1787 26.6823 13.3641 26.544 13.5464C26.4057 13.7287 26.2548 13.9079 26.0914 14.0839L23.7907 16.5449L23.7152 16.3375H27.3738V16.8184H23.3569ZM28.7396 16.8184V10.2179H31.3421C31.7192 10.2179 32.0398 10.2871 32.3038 10.4254C32.5741 10.5637 32.7816 10.7554 32.9262 11.0005C33.0707 11.2394 33.143 11.516 33.143 11.8303C33.143 12.2201 33.0173 12.5564 32.7659 12.8392C32.5207 13.1221 32.1907 13.3044 31.7758 13.3861L31.7381 13.2353C32.1153 13.273 32.4327 13.3736 32.6904 13.537C32.9545 13.6942 33.1525 13.8953 33.2845 14.1405C33.4228 14.3793 33.4919 14.6528 33.4919 14.9608C33.4919 15.2374 33.4479 15.4888 33.3599 15.7151C33.2782 15.9414 33.1462 16.1363 32.9639 16.2998C32.7879 16.4632 32.5647 16.5921 32.2944 16.6864C32.0241 16.7744 31.7035 16.8184 31.3326 16.8184H28.7396ZM29.2299 16.3375H31.3232C31.9078 16.3375 32.329 16.2117 32.5867 15.9603C32.8507 15.7026 32.9827 15.3788 32.9827 14.9891C32.9827 14.7125 32.9167 14.4736 32.7847 14.2725C32.6527 14.0713 32.4641 13.9142 32.219 13.801C31.9801 13.6816 31.6847 13.6219 31.3326 13.6219H29.2299V16.3375ZM29.2299 13.141H31.2855C31.5432 13.141 31.7727 13.0875 31.9738 12.9807C32.1813 12.8675 32.3447 12.7198 32.4641 12.5375C32.5836 12.3489 32.6433 12.1352 32.6433 11.8963C32.6433 11.5443 32.5207 11.2583 32.2756 11.0383C32.0304 10.812 31.6941 10.6988 31.2666 10.6988H29.2299V13.141ZM34.9828 16.8184V10.2179H37.5852C37.9624 10.2179 38.283 10.2871 38.547 10.4254C38.8173 10.5637 39.0247 10.7554 39.1693 11.0005C39.3139 11.2394 39.3862 11.516 39.3862 11.8303C39.3862 12.2201 39.2605 12.5564 39.009 12.8392C38.7639 13.1221 38.4338 13.3044 38.019 13.3861L37.9812 13.2353C38.3584 13.273 38.6759 13.3736 38.9336 13.537C39.1976 13.6942 39.3956 13.8953 39.5276 14.1405C39.6659 14.3793 39.7351 14.6528 39.7351 14.9608C39.7351 15.2374 39.6911 15.4888 39.6031 15.7151C39.5213 15.9414 39.3893 16.1363 39.207 16.2998C39.031 16.4632 38.8079 16.5921 38.5376 16.6864C38.2673 16.7744 37.9467 16.8184 37.5758 16.8184H34.9828ZM35.4731 16.3375H37.5664C38.151 16.3375 38.5721 16.2117 38.8299 15.9603C39.0939 15.7026 39.2259 15.3788 39.2259 14.9891C39.2259 14.7125 39.1599 14.4736 39.0279 14.2725C38.8959 14.0713 38.7073 13.9142 38.4621 13.801C38.2233 13.6816 37.9278 13.6219 37.5758 13.6219H35.4731V16.3375ZM35.4731 13.141H37.5286C37.7864 13.141 38.0158 13.0875 38.217 12.9807C38.4244 12.8675 38.5879 12.7198 38.7073 12.5375C38.8267 12.3489 38.8864 12.1352 38.8864 11.8963C38.8864 11.5443 38.7639 11.2583 38.5187 11.0383C38.2735 10.812 37.9372 10.6988 37.5098 10.6988H35.4731V13.141ZM42.6497 16.9032C42.216 16.9032 41.8231 16.8026 41.4711 16.6015C41.1253 16.4003 40.833 16.1112 40.5942 15.734L40.9148 15.404C41.1599 15.7623 41.4302 16.0232 41.7257 16.1866C42.0274 16.35 42.3386 16.4318 42.6592 16.4318C43.0112 16.4318 43.3286 16.35 43.6115 16.1866C43.8944 16.0232 44.1175 15.8031 44.281 15.5266C44.4444 15.2437 44.5261 14.9325 44.5261 14.5931C44.5261 14.2788 44.4507 13.9959 44.2998 13.7444C44.1553 13.4867 43.9541 13.2824 43.6964 13.1315C43.4449 12.9744 43.1558 12.8958 42.8289 12.8958C42.634 12.8958 42.4423 12.921 42.2537 12.9712C42.0651 13.0153 41.8765 13.0844 41.6879 13.1787C41.4994 13.273 41.3108 13.3893 41.1222 13.5276L40.8488 13.1787L41.2731 10.2179H44.8184V10.68H41.5182L41.6879 10.5479L41.3014 13.1881L41.1599 13.0373C41.2982 12.9241 41.4616 12.8235 41.6502 12.7355C41.8388 12.6412 42.0368 12.5689 42.2443 12.5186C42.458 12.4621 42.6717 12.4338 42.8855 12.4338C43.2941 12.4338 43.6586 12.5249 43.9792 12.7072C44.2998 12.8895 44.5513 13.1441 44.7336 13.471C44.9222 13.7916 45.0165 14.1625 45.0165 14.5836C45.0165 15.0174 44.9127 15.4103 44.7053 15.7623C44.4978 16.1143 44.215 16.394 43.8567 16.6015C43.5046 16.8026 43.1023 16.9032 42.6497 16.9032ZM47.4054 16.6015V10.6234L47.5563 10.7271L46.2456 11.5286L46.1136 11.0948L47.66 10.1236H47.8957V16.6015H47.4054ZM46.3116 16.8184V16.3375H48.999V16.8184H46.3116Z" fill="#666666"/>
<path d="M14.356 48.252L15.4875 41.6515H15.9213L14.7898 48.252H14.356ZM10.9804 46.3567V45.9512H16.3644V46.3567H10.9804ZM11.763 48.252L12.8945 41.6515H13.3282L12.1967 48.252H11.763ZM11.3387 43.8485V43.4336H16.7133V43.8485H11.3387ZM18.0673 48.252V41.6515H21.9238V42.1324H18.5576V47.7711H21.8767V48.252H18.0673ZM18.3125 45.0837V44.6029H21.3864V45.0837H18.3125ZM25.2996 48.2802C24.891 48.2802 24.5169 48.1985 24.1775 48.0351C23.8443 47.8654 23.5772 47.6391 23.376 47.3562C23.1811 47.0733 23.0837 46.759 23.0837 46.4133C23.0837 46.1995 23.1151 45.9984 23.178 45.8098C23.2471 45.6212 23.3477 45.4515 23.4797 45.3006C23.6117 45.1435 23.7689 45.0083 23.9512 44.8952C24.1335 44.7757 24.3441 44.6814 24.5829 44.6123L24.5924 44.7537C24.3284 44.6971 24.1021 44.5997 23.9135 44.4614C23.7249 44.3168 23.5803 44.144 23.4797 43.9428C23.3792 43.7417 23.3289 43.5342 23.3289 43.3205C23.3289 42.9873 23.4169 42.6919 23.5929 42.4341C23.7689 42.1701 24.0046 41.9627 24.3001 41.8118C24.6018 41.6609 24.935 41.5855 25.2996 41.5855C25.6642 41.5855 25.9942 41.6609 26.2896 41.8118C26.5914 41.9627 26.8302 42.1701 27.0063 42.4341C27.1885 42.6919 27.2797 42.9873 27.2797 43.3205C27.2797 43.5342 27.2294 43.7385 27.1288 43.9334C27.0283 44.1283 26.8805 44.298 26.6857 44.4426C26.4971 44.5809 26.2676 44.6846 25.9973 44.7537L26.0162 44.6311C26.3116 44.7129 26.5725 44.8417 26.7988 45.0177C27.0251 45.1875 27.2011 45.3918 27.3268 45.6306C27.4589 45.8632 27.5249 46.1241 27.5249 46.4133C27.5249 46.7653 27.4243 47.0827 27.2231 47.3656C27.0283 47.6485 26.7611 47.8716 26.4216 48.0351C26.0885 48.1985 25.7145 48.2802 25.2996 48.2802ZM25.2996 47.8182C25.6202 47.8182 25.9093 47.7522 26.1671 47.6202C26.4311 47.4882 26.6385 47.3185 26.7894 47.111C26.9465 46.8973 27.0251 46.6616 27.0251 46.4038C27.0251 46.121 26.9497 45.8695 26.7988 45.6495C26.6542 45.4295 26.4499 45.2566 26.1859 45.1309C25.9282 45.0052 25.6327 44.9423 25.2996 44.9423C24.9727 44.9423 24.6772 45.0052 24.4132 45.1309C24.1555 45.2566 23.9512 45.4295 23.8003 45.6495C23.6495 45.8695 23.574 46.121 23.574 46.4038C23.574 46.6553 23.6495 46.8879 23.8003 47.1016C23.9575 47.3153 24.1649 47.4882 24.4227 47.6202C24.6867 47.7522 24.979 47.8182 25.2996 47.8182ZM25.2996 44.5086C25.5824 44.5086 25.8339 44.4583 26.0539 44.3577C26.2802 44.2508 26.4562 44.1063 26.5819 43.924C26.7139 43.7417 26.78 43.5311 26.78 43.2922C26.78 43.0596 26.7139 42.8522 26.5819 42.6699C26.4562 42.4813 26.2802 42.3336 26.0539 42.2267C25.8339 42.1135 25.5824 42.057 25.2996 42.057C25.0104 42.057 24.7558 42.1135 24.5358 42.2267C24.3158 42.3336 24.1398 42.4813 24.0078 42.6699C23.882 42.8522 23.8192 43.0596 23.8192 43.2922C23.8192 43.5248 23.882 43.7322 24.0078 43.9145C24.1398 44.0968 24.3158 44.2414 24.5358 44.3483C24.7558 44.4551 25.0104 44.5086 25.2996 44.5086ZM29.0343 48.252V41.6515H31.4481C31.8756 41.6515 32.2748 41.7332 32.6456 41.8967C33.0228 42.0601 33.3497 42.2896 33.6263 42.585C33.9092 42.8742 34.1292 43.2199 34.2863 43.6222C34.4435 44.0245 34.5221 44.4677 34.5221 44.9517C34.5221 45.4295 34.4435 45.8695 34.2863 46.2718C34.1292 46.6741 33.9092 47.023 33.6263 47.3185C33.3497 47.6139 33.0228 47.8434 32.6456 48.0068C32.2748 48.1702 31.8756 48.252 31.4481 48.252H29.0343ZM29.5246 47.8559L29.4586 47.7711H31.401C31.7656 47.7711 32.105 47.7019 32.4193 47.5636C32.7399 47.4253 33.0197 47.2305 33.2585 46.979C33.4974 46.7276 33.6829 46.429 33.8149 46.0832C33.9532 45.7375 34.0223 45.3603 34.0223 44.9517C34.0223 44.5431 33.9532 44.166 33.8149 43.8202C33.6829 43.4745 33.4974 43.1759 33.2585 42.9245C33.0197 42.673 32.7399 42.4781 32.4193 42.3398C32.105 42.2016 31.7656 42.1324 31.401 42.1324H29.4397L29.5246 42.0381V47.8559ZM35.7972 48.252L35.6558 47.9031L38.1356 45.2063C38.2362 45.0995 38.3462 44.9737 38.4657 44.8292C38.5851 44.6846 38.6983 44.5274 38.8051 44.3577C38.912 44.188 38.9968 44.0151 39.0597 43.8391C39.1289 43.6568 39.1634 43.4745 39.1634 43.2922C39.1634 43.047 39.0974 42.8302 38.9654 42.6416C38.8397 42.4467 38.6637 42.2958 38.4374 42.189C38.2174 42.0758 37.9596 42.0193 37.6642 42.0193C37.4442 42.0193 37.221 42.0727 36.9947 42.1796C36.7684 42.2864 36.561 42.4499 36.3724 42.6699C36.1838 42.8899 36.0361 43.1822 35.9292 43.5468L35.5238 43.3111C35.6432 42.915 35.8066 42.5882 36.0141 42.3304C36.2278 42.0727 36.4793 41.881 36.7684 41.7552C37.0639 41.6232 37.3813 41.5572 37.7208 41.5572C38.0916 41.5572 38.4217 41.6295 38.7108 41.7741C39.0063 41.9187 39.2389 42.1198 39.4086 42.3776C39.5846 42.6353 39.6726 42.9276 39.6726 43.2545C39.6726 43.4556 39.6412 43.6536 39.5783 43.8485C39.5217 44.0434 39.4432 44.2351 39.3426 44.4237C39.242 44.6123 39.1226 44.7977 38.9843 44.98C38.846 45.1623 38.6951 45.3415 38.5317 45.5175L36.2309 47.9785L36.1555 47.7711H39.814V48.252H35.7972ZM42.6037 48.3368C42.1699 48.3368 41.7771 48.2362 41.425 48.0351C41.0793 47.8339 40.787 47.5448 40.5481 47.1676L40.8687 46.8376C41.1139 47.1959 41.3842 47.4568 41.6796 47.6202C41.9814 47.7836 42.2925 47.8654 42.6131 47.8654C42.9651 47.8654 43.2826 47.7836 43.5655 47.6202C43.8483 47.4568 44.0715 47.2367 44.2349 46.9602C44.3984 46.6773 44.4801 46.3661 44.4801 46.0267C44.4801 45.7124 44.4047 45.4295 44.2538 45.178C44.1092 44.9203 43.9081 44.716 43.6503 44.5651C43.3989 44.408 43.1097 44.3294 42.7828 44.3294C42.588 44.3294 42.3962 44.3546 42.2077 44.4048C42.0191 44.4488 41.8305 44.518 41.6419 44.6123C41.4533 44.7066 41.2647 44.8229 41.0762 44.9612L40.8027 44.6123L41.227 41.6515H44.7724V42.1135H41.4722L41.6419 41.9815L41.2553 44.6217L41.1139 44.4708C41.2522 44.3577 41.4156 44.2571 41.6042 44.1691C41.7928 44.0748 41.9908 44.0025 42.1982 43.9522C42.412 43.8957 42.6257 43.8674 42.8394 43.8674C43.248 43.8674 43.6126 43.9585 43.9332 44.1408C44.2538 44.3231 44.5052 44.5777 44.6875 44.9046C44.8761 45.2252 44.9704 45.5961 44.9704 46.0172C44.9704 46.451 44.8667 46.8439 44.6592 47.1959C44.4518 47.5479 44.1689 47.8276 43.8106 48.0351C43.4586 48.2362 43.0563 48.3368 42.6037 48.3368ZM45.747 48.252L48.2834 41.6515H48.8586L51.3951 48.252H50.8482L49.1415 43.7731C49.1226 43.7291 49.0881 43.6379 49.0378 43.4996C48.9938 43.3551 48.9372 43.1916 48.8681 43.0093C48.7989 42.8207 48.7298 42.6353 48.6606 42.453C48.5915 42.2644 48.5317 42.1041 48.4815 41.9721L48.6229 41.9815C48.5852 42.0947 48.5349 42.2361 48.472 42.4059C48.4155 42.5756 48.3526 42.7516 48.2834 42.9339C48.2143 43.1162 48.1514 43.2859 48.0949 43.4431C48.0383 43.5939 47.9943 43.7102 47.9629 43.7919L46.275 48.252H45.747ZM46.7559 46.2718L46.9351 45.7815H50.1693L50.3767 46.2718H46.7559Z" fill="#666666"/>
<defs>
<linearGradient id="paint0_linear_1957_12273" x1="62.1704" y1="0.132812" x2="123.015" y2="0.395786" gradientUnits="userSpaceOnUse">
<stop stop-color="#F2BB51"/>
<stop offset="1" stop-color="#E8D25A"/>
</linearGradient>
</defs>
</svg>
