<svg width="62" height="60" viewBox="0 0 62 60" fill="none" xmlns="http://www.w3.org/2000/svg">
<rect x="61.8374" y="0.818359" width="59.0896" height="61.6041" rx="3.14306" transform="rotate(90 61.8374 0.818359)" fill="url(#paint0_linear_1957_12275)"/>
<path d="M15.2828 17.8184L16.4143 11.2179H16.848L15.7165 17.8184H15.2828ZM11.9071 15.9231V15.5176H17.2912V15.9231H11.9071ZM12.6898 17.8184L13.8213 11.2179H14.255L13.1235 17.8184H12.6898ZM12.2654 13.4149V13H17.6401V13.4149H12.2654ZM20.399 17.8184L20.3802 17.7524L22.3509 13.9712L22.3791 14.2258C22.2283 14.5087 22.0523 14.7476 21.8511 14.9425C21.6562 15.131 21.4425 15.2725 21.2099 15.3668C20.9773 15.4611 20.7322 15.5082 20.4744 15.5082C20.091 15.5082 19.739 15.4139 19.4184 15.2253C19.1041 15.0305 18.8526 14.7727 18.664 14.4521C18.4755 14.1253 18.3812 13.7607 18.3812 13.3584C18.3812 12.9372 18.4786 12.5569 18.6735 12.2174C18.8683 11.878 19.1324 11.6108 19.4655 11.4159C19.7987 11.2211 20.1727 11.1236 20.5876 11.1236C20.8893 11.1236 21.1722 11.1802 21.4362 11.2934C21.7002 11.4002 21.9297 11.5511 22.1246 11.746C22.3257 11.9408 22.4829 12.1734 22.596 12.4437C22.7154 12.714 22.7752 13.0095 22.7752 13.3301C22.7752 13.5249 22.7532 13.7229 22.7092 13.9241C22.6652 14.1253 22.6023 14.3358 22.5206 14.5559C22.4389 14.7759 22.3414 15.0085 22.2283 15.2536C22.1151 15.4925 21.9863 15.7502 21.8417 16.0268L20.8893 17.8184H20.399ZM20.531 15.0462C20.8579 15.0462 21.1502 14.9707 21.4079 14.8199C21.6657 14.6627 21.87 14.4553 22.0208 14.1975C22.1717 13.9335 22.2471 13.6412 22.2471 13.3206C22.2471 12.9938 22.1717 12.7014 22.0208 12.4437C21.87 12.1797 21.6657 11.9723 21.4079 11.8214C21.1565 11.6642 20.8673 11.5857 20.5404 11.5857C20.2387 11.5857 19.9621 11.6642 19.7107 11.8214C19.4592 11.9723 19.2581 12.1766 19.1072 12.4343C18.9626 12.692 18.8903 12.9875 18.8903 13.3206C18.8903 13.6412 18.9626 13.9335 19.1072 14.1975C19.2581 14.4553 19.4592 14.6627 19.7107 14.8199C19.9621 14.9707 20.2356 15.0462 20.531 15.0462ZM26.0738 17.9127C25.5583 17.9127 25.1183 17.7806 24.7537 17.5166C24.3891 17.2526 24.1125 16.8692 23.9239 16.3663C23.7353 15.8571 23.641 15.241 23.641 14.5181C23.641 13.7952 23.7353 13.1823 23.9239 12.6794C24.1125 12.1703 24.3891 11.7837 24.7537 11.5197C25.1183 11.2556 25.5583 11.1236 26.0738 11.1236C26.5955 11.1236 27.0355 11.2556 27.3939 11.5197C27.7584 11.7837 28.035 12.1703 28.2236 12.6794C28.4122 13.1823 28.5065 13.7952 28.5065 14.5181C28.5065 15.241 28.4122 15.8571 28.2236 16.3663C28.035 16.8692 27.7584 17.2526 27.3939 17.5166C27.0355 17.7806 26.5955 17.9127 26.0738 17.9127ZM26.0738 17.4506C26.6961 17.4506 27.1738 17.196 27.507 16.6869C27.8402 16.1777 28.0067 15.4548 28.0067 14.5181C28.0067 13.5752 27.8402 12.8523 27.507 12.3494C27.1738 11.8403 26.6961 11.5857 26.0738 11.5857C25.4514 11.5857 24.9705 11.8403 24.6311 12.3494C24.2979 12.8523 24.1314 13.5752 24.1314 14.5181C24.1314 15.4548 24.2979 16.1777 24.6311 16.6869C24.9705 17.196 25.4514 17.4506 26.0738 17.4506ZM31.7052 17.8466C31.2966 17.8466 30.9226 17.7649 30.5831 17.6015C30.25 17.4318 29.9828 17.2055 29.7816 16.9226C29.5868 16.6397 29.4893 16.3254 29.4893 15.9797C29.4893 15.7659 29.5208 15.5648 29.5836 15.3762C29.6528 15.1876 29.7534 15.0179 29.8854 14.867C30.0174 14.7099 30.1745 14.5747 30.3568 14.4616C30.5391 14.3421 30.7497 14.2478 30.9886 14.1787L30.998 14.3201C30.734 14.2636 30.5077 14.1661 30.3191 14.0278C30.1305 13.8832 29.9859 13.7104 29.8854 13.5092C29.7848 13.3081 29.7345 13.1006 29.7345 12.8869C29.7345 12.5537 29.8225 12.2583 29.9985 12.0005C30.1745 11.7365 30.4103 11.5291 30.7057 11.3782C31.0074 11.2274 31.3406 11.1519 31.7052 11.1519C32.0698 11.1519 32.3998 11.2274 32.6953 11.3782C32.997 11.5291 33.2359 11.7365 33.4119 12.0005C33.5942 12.2583 33.6853 12.5537 33.6853 12.8869C33.6853 13.1006 33.635 13.3049 33.5345 13.4998C33.4339 13.6947 33.2862 13.8644 33.0913 14.009C32.9027 14.1473 32.6733 14.251 32.403 14.3201L32.4218 14.1975C32.7173 14.2793 32.9781 14.4081 33.2044 14.5841C33.4307 14.7539 33.6068 14.9582 33.7325 15.197C33.8645 15.4296 33.9305 15.6905 33.9305 15.9797C33.9305 16.3317 33.8299 16.6491 33.6288 16.932C33.4339 17.2149 33.1667 17.438 32.8273 17.6015C32.4941 17.7649 32.1201 17.8466 31.7052 17.8466ZM31.7052 17.3846C32.0258 17.3846 32.315 17.3186 32.5727 17.1866C32.8367 17.0546 33.0441 16.8849 33.195 16.6774C33.3522 16.4637 33.4307 16.228 33.4307 15.9702C33.4307 15.6874 33.3553 15.4359 33.2044 15.2159C33.0599 14.9959 32.8556 14.823 32.5915 14.6973C32.3338 14.5716 32.0384 14.5087 31.7052 14.5087C31.3783 14.5087 31.0829 14.5716 30.8189 14.6973C30.5611 14.823 30.3568 14.9959 30.206 15.2159C30.0551 15.4359 29.9797 15.6874 29.9797 15.9702C29.9797 16.2217 30.0551 16.4543 30.206 16.668C30.3631 16.8817 30.5706 17.0546 30.8283 17.1866C31.0923 17.3186 31.3846 17.3846 31.7052 17.3846ZM31.7052 14.075C31.9881 14.075 32.2395 14.0247 32.4595 13.9241C32.6858 13.8172 32.8619 13.6727 32.9876 13.4904C33.1196 13.3081 33.1856 13.0975 33.1856 12.8586C33.1856 12.626 33.1196 12.4186 32.9876 12.2363C32.8619 12.0477 32.6858 11.9 32.4595 11.7931C32.2395 11.68 31.9881 11.6234 31.7052 11.6234C31.416 11.6234 31.1615 11.68 30.9414 11.7931C30.7214 11.9 30.5454 12.0477 30.4134 12.2363C30.2877 12.4186 30.2248 12.626 30.2248 12.8586C30.2248 13.0912 30.2877 13.2986 30.4134 13.4809C30.5454 13.6632 30.7214 13.8078 30.9414 13.9147C31.1615 14.0215 31.416 14.075 31.7052 14.075ZM35.4399 17.8184V11.2179H39.2964V11.6988H35.9302V17.3375H39.2493V17.8184H35.4399ZM35.6851 14.6502V14.1693H38.759V14.6502H35.6851ZM42.6722 17.8466C42.2636 17.8466 41.8895 17.7649 41.5501 17.6015C41.2169 17.4318 40.9498 17.2055 40.7486 16.9226C40.5537 16.6397 40.4563 16.3254 40.4563 15.9797C40.4563 15.7659 40.4877 15.5648 40.5506 15.3762C40.6197 15.1876 40.7203 15.0179 40.8523 14.867C40.9843 14.7099 41.1415 14.5747 41.3238 14.4616C41.5061 14.3421 41.7167 14.2478 41.9555 14.1787L41.965 14.3201C41.701 14.2636 41.4747 14.1661 41.2861 14.0278C41.0975 13.8832 40.9529 13.7104 40.8523 13.5092C40.7518 13.3081 40.7015 13.1006 40.7015 12.8869C40.7015 12.5537 40.7895 12.2583 40.9655 12.0005C41.1415 11.7365 41.3772 11.5291 41.6727 11.3782C41.9744 11.2274 42.3076 11.1519 42.6722 11.1519C43.0368 11.1519 43.3668 11.2274 43.6622 11.3782C43.964 11.5291 44.2028 11.7365 44.3788 12.0005C44.5611 12.2583 44.6523 12.5537 44.6523 12.8869C44.6523 13.1006 44.602 13.3049 44.5014 13.4998C44.4009 13.6947 44.2531 13.8644 44.0583 14.009C43.8697 14.1473 43.6402 14.251 43.3699 14.3201L43.3888 14.1975C43.6842 14.2793 43.9451 14.4081 44.1714 14.5841C44.3977 14.7539 44.5737 14.9582 44.6994 15.197C44.8314 15.4296 44.8975 15.6905 44.8975 15.9797C44.8975 16.3317 44.7969 16.6491 44.5957 16.932C44.4009 17.2149 44.1337 17.438 43.7942 17.6015C43.4611 17.7649 43.087 17.8466 42.6722 17.8466ZM42.6722 17.3846C42.9928 17.3846 43.2819 17.3186 43.5397 17.1866C43.8037 17.0546 44.0111 16.8849 44.162 16.6774C44.3191 16.4637 44.3977 16.228 44.3977 15.9702C44.3977 15.6874 44.3223 15.4359 44.1714 15.2159C44.0268 14.9959 43.8225 14.823 43.5585 14.6973C43.3008 14.5716 43.0053 14.5087 42.6722 14.5087C42.3453 14.5087 42.0498 14.5716 41.7858 14.6973C41.5281 14.823 41.3238 14.9959 41.1729 15.2159C41.0221 15.4359 40.9466 15.6874 40.9466 15.9702C40.9466 16.2217 41.0221 16.4543 41.1729 16.668C41.3301 16.8817 41.5375 17.0546 41.7952 17.1866C42.0593 17.3186 42.3516 17.3846 42.6722 17.3846ZM42.6722 14.075C42.955 14.075 43.2065 14.0247 43.4265 13.9241C43.6528 13.8172 43.8288 13.6727 43.9545 13.4904C44.0865 13.3081 44.1525 13.0975 44.1525 12.8586C44.1525 12.626 44.0865 12.4186 43.9545 12.2363C43.8288 12.0477 43.6528 11.9 43.4265 11.7931C43.2065 11.68 42.955 11.6234 42.6722 11.6234C42.383 11.6234 42.1284 11.68 41.9084 11.7931C41.6884 11.9 41.5124 12.0477 41.3804 12.2363C41.2546 12.4186 41.1918 12.626 41.1918 12.8586C41.1918 13.0912 41.2546 13.2986 41.3804 13.4809C41.5124 13.6632 41.6884 13.8078 41.9084 13.9147C42.1284 14.0215 42.383 14.075 42.6722 14.075ZM48.1513 17.8844C47.8432 17.8844 47.5541 17.8278 47.2838 17.7146C47.0198 17.6015 46.7872 17.4412 46.586 17.2337C46.3911 17.0263 46.2371 16.7843 46.124 16.5077C46.0108 16.2248 45.9543 15.9137 45.9543 15.5742C45.948 15.3416 45.9763 15.0839 46.0391 14.801C46.1083 14.5181 46.212 14.2196 46.3503 13.9052C46.4949 13.5847 46.674 13.2515 46.8878 12.9057L47.991 11.1802H48.4719L48.5096 11.2462L47.3592 13.0472C47.1769 13.3238 47.0166 13.5909 46.8783 13.8487C46.7463 14.1064 46.6394 14.3421 46.5577 14.5559C46.4823 14.7696 46.4351 14.9519 46.4163 15.1028L46.2937 14.7444C46.4509 14.4427 46.6269 14.1944 46.8217 13.9995C47.0229 13.8047 47.2429 13.6601 47.4818 13.5658C47.7207 13.4652 47.9721 13.4149 48.2361 13.4149C48.6259 13.4149 48.9779 13.5124 49.2922 13.7072C49.6128 13.9021 49.8674 14.1661 50.056 14.4993C50.2445 14.8262 50.3388 15.1908 50.3388 15.5931C50.3388 16.0268 50.2414 16.4166 50.0465 16.7623C49.8579 17.108 49.5971 17.3815 49.2639 17.5826C48.937 17.7838 48.5661 17.8844 48.1513 17.8844ZM48.1701 17.4129C48.4844 17.4129 48.7673 17.3375 49.0187 17.1866C49.2765 17.0295 49.4776 16.8157 49.6222 16.5454C49.7731 16.2751 49.8485 15.9702 49.8485 15.6308C49.8485 15.3102 49.7731 15.0179 49.6222 14.7539C49.4714 14.4836 49.2702 14.2698 49.0187 14.1127C48.7673 13.9555 48.4844 13.877 48.1701 13.877C47.8432 13.877 47.5478 13.9555 47.2838 14.1127C47.026 14.2698 46.8217 14.4804 46.6709 14.7444C46.52 15.0085 46.4446 15.3071 46.4446 15.6402C46.4446 15.9734 46.52 16.2751 46.6709 16.5454C46.8217 16.8094 47.026 17.02 47.2838 17.1772C47.5478 17.3343 47.8432 17.4129 48.1701 17.4129Z" fill="#EAEAEA"/>
<path d="M15.2828 49.252L16.4143 42.6515H16.848L15.7165 49.252H15.2828ZM11.9071 47.3567V46.9512H17.2912V47.3567H11.9071ZM12.6898 49.252L13.8213 42.6515H14.255L13.1235 49.252H12.6898ZM12.2654 44.8485V44.4336H17.6401V44.8485H12.2654ZM18.202 49.252L20.7385 42.6515H21.3136L23.8501 49.252H23.3032L21.5965 44.7731C21.5777 44.7291 21.5431 44.6379 21.4928 44.4996C21.4488 44.3551 21.3922 44.1916 21.3231 44.0093C21.2539 43.8207 21.1848 43.6353 21.1156 43.453C21.0465 43.2644 20.9868 43.1041 20.9365 42.9721L21.0779 42.9815C21.0402 43.0947 20.9899 43.2361 20.927 43.4059C20.8705 43.5756 20.8076 43.7516 20.7385 43.9339C20.6693 44.1162 20.6065 44.2859 20.5499 44.4431C20.4933 44.5939 20.4493 44.7102 20.4179 44.7919L18.73 49.252H18.202ZM19.2109 47.2718L19.3901 46.7815H22.6243L22.8317 47.2718H19.2109ZM26.788 49.2802C26.3794 49.2802 26.0054 49.1985 25.666 49.0351C25.3328 48.8654 25.0656 48.6391 24.8645 48.3562C24.6696 48.0733 24.5722 47.759 24.5722 47.4133C24.5722 47.1995 24.6036 46.9984 24.6665 46.8098C24.7356 46.6212 24.8362 46.4515 24.9682 46.3006C25.1002 46.1435 25.2574 46.0083 25.4397 45.8952C25.6219 45.7757 25.8325 45.6814 26.0714 45.6123L26.0808 45.7537C25.8168 45.6971 25.5905 45.5997 25.4019 45.4614C25.2134 45.3168 25.0688 45.144 24.9682 44.9428C24.8676 44.7417 24.8173 44.5342 24.8173 44.3205C24.8173 43.9873 24.9053 43.6919 25.0813 43.4341C25.2574 43.1701 25.4931 42.9627 25.7885 42.8118C26.0903 42.6609 26.4234 42.5855 26.788 42.5855C27.1526 42.5855 27.4826 42.6609 27.7781 42.8118C28.0798 42.9627 28.3187 43.1701 28.4947 43.4341C28.677 43.6919 28.7682 43.9873 28.7682 44.3205C28.7682 44.5342 28.7179 44.7385 28.6173 44.9334C28.5167 45.1283 28.369 45.298 28.1741 45.4426C27.9855 45.5809 27.7561 45.6846 27.4858 45.7537L27.5046 45.6311C27.8001 45.7129 28.061 45.8417 28.2873 46.0177C28.5136 46.1875 28.6896 46.3918 28.8153 46.6306C28.9473 46.8632 29.0133 47.1241 29.0133 47.4133C29.0133 47.7653 28.9127 48.0827 28.7116 48.3656C28.5167 48.6485 28.2496 48.8716 27.9101 49.0351C27.5769 49.1985 27.2029 49.2802 26.788 49.2802ZM26.788 48.8182C27.1086 48.8182 27.3978 48.7522 27.6555 48.6202C27.9195 48.4882 28.127 48.3185 28.2778 48.111C28.435 47.8973 28.5136 47.6616 28.5136 47.4038C28.5136 47.121 28.4381 46.8695 28.2873 46.6495C28.1427 46.4295 27.9384 46.2566 27.6744 46.1309C27.4166 46.0052 27.1212 45.9423 26.788 45.9423C26.4611 45.9423 26.1657 46.0052 25.9017 46.1309C25.6439 46.2566 25.4397 46.4295 25.2888 46.6495C25.1379 46.8695 25.0625 47.121 25.0625 47.4038C25.0625 47.6553 25.1379 47.8879 25.2888 48.1016C25.4459 48.3153 25.6534 48.4882 25.9111 48.6202C26.1751 48.7522 26.4674 48.8182 26.788 48.8182ZM26.788 45.5086C27.0709 45.5086 27.3223 45.4583 27.5424 45.3577C27.7687 45.2508 27.9447 45.1063 28.0704 44.924C28.2024 44.7417 28.2684 44.5311 28.2684 44.2922C28.2684 44.0596 28.2024 43.8522 28.0704 43.6699C27.9447 43.4813 27.7687 43.3336 27.5424 43.2267C27.3223 43.1135 27.0709 43.057 26.788 43.057C26.4989 43.057 26.2443 43.1135 26.0243 43.2267C25.8042 43.3336 25.6282 43.4813 25.4962 43.6699C25.3705 43.8522 25.3076 44.0596 25.3076 44.2922C25.3076 44.5248 25.3705 44.7322 25.4962 44.9145C25.6282 45.0968 25.8042 45.2414 26.0243 45.3483C26.2443 45.4551 26.4989 45.5086 26.788 45.5086ZM29.7307 49.252L32.2671 42.6515H32.8423L35.3788 49.252H34.8319L33.1252 44.7731C33.1063 44.7291 33.0717 44.6379 33.0215 44.4996C32.9775 44.3551 32.9209 44.1916 32.8517 44.0093C32.7826 43.8207 32.7134 43.6353 32.6443 43.453C32.5751 43.2644 32.5154 43.1041 32.4651 42.9721L32.6066 42.9815C32.5689 43.0947 32.5186 43.2361 32.4557 43.4059C32.3991 43.5756 32.3363 43.7516 32.2671 43.9339C32.198 44.1162 32.1351 44.2859 32.0785 44.4431C32.022 44.5939 31.978 44.7102 31.9465 44.7919L30.2587 49.252H29.7307ZM30.7396 47.2718L30.9187 46.7815H34.153L34.3604 47.2718H30.7396ZM38.0055 49.3368C37.5718 49.3368 37.1789 49.2362 36.8269 49.0351C36.4811 48.8339 36.1888 48.5448 35.95 48.1676L36.2706 47.8376C36.5157 48.1959 36.786 48.4568 37.0815 48.6202C37.3832 48.7836 37.6944 48.8654 38.015 48.8654C38.367 48.8654 38.6844 48.7836 38.9673 48.6202C39.2502 48.4568 39.4733 48.2367 39.6368 47.9602C39.8002 47.6773 39.8819 47.3661 39.8819 47.0267C39.8819 46.7124 39.8065 46.4295 39.6556 46.178C39.5111 45.9203 39.3099 45.716 39.0522 45.5651C38.8007 45.408 38.5116 45.3294 38.1847 45.3294C37.9898 45.3294 37.7981 45.3546 37.6095 45.4048C37.4209 45.4488 37.2323 45.518 37.0437 45.6123C36.8552 45.7066 36.6666 45.8229 36.478 45.9612L36.2045 45.6123L36.6289 42.6515H40.1742V43.1135H36.874L37.0437 42.9815L36.6572 45.6217L36.5157 45.4708C36.654 45.3577 36.8174 45.2571 37.006 45.1691C37.1946 45.0748 37.3926 45.0025 37.6001 44.9522C37.8138 44.8957 38.0275 44.8674 38.2413 44.8674C38.6499 44.8674 39.0144 44.9585 39.335 45.1408C39.6556 45.3231 39.9071 45.5777 40.0894 45.9046C40.278 46.2252 40.3723 46.5961 40.3723 47.0172C40.3723 47.451 40.2685 47.8439 40.0611 48.1959C39.8536 48.5479 39.5708 48.8276 39.2125 49.0351C38.8604 49.2362 38.4581 49.3368 38.0055 49.3368ZM43.3458 49.252L43.327 49.1859L45.2977 45.4048L45.326 45.6594C45.1751 45.9423 44.9991 46.1812 44.7979 46.376C44.6031 46.5646 44.3893 46.7061 44.1567 46.8004C43.9242 46.8947 43.679 46.9418 43.4213 46.9418C43.0378 46.9418 42.6858 46.8475 42.3652 46.6589C42.0509 46.4641 41.7994 46.2063 41.6109 45.8857C41.4223 45.5589 41.328 45.1943 41.328 44.7919C41.328 44.3708 41.4254 43.9905 41.6203 43.651C41.8152 43.3116 42.0792 43.0444 42.4123 42.8495C42.7455 42.6547 43.1195 42.5572 43.5344 42.5572C43.8362 42.5572 44.119 42.6138 44.383 42.727C44.6471 42.8338 44.8765 42.9847 45.0714 43.1796C45.2725 43.3744 45.4297 43.607 45.5428 43.8773C45.6623 44.1476 45.722 44.4431 45.722 44.7637C45.722 44.9585 45.7 45.1565 45.656 45.3577C45.612 45.5589 45.5491 45.7694 45.4674 45.9895C45.3857 46.2095 45.2882 46.4421 45.1751 46.6872C45.0619 46.9261 44.9331 47.1838 44.7885 47.4604L43.8362 49.252H43.3458ZM43.4778 46.4798C43.8047 46.4798 44.097 46.4043 44.3548 46.2535C44.6125 46.0963 44.8168 45.8889 44.9677 45.6311C45.1185 45.3671 45.194 45.0748 45.194 44.7542C45.194 44.4273 45.1185 44.135 44.9677 43.8773C44.8168 43.6133 44.6125 43.4059 44.3548 43.255C44.1033 43.0978 43.8142 43.0193 43.4873 43.0193C43.1855 43.0193 42.9089 43.0978 42.6575 43.255C42.4061 43.4059 42.2049 43.6102 42.054 43.8679C41.9095 44.1256 41.8372 44.4211 41.8372 44.7542C41.8372 45.0748 41.9095 45.3671 42.054 45.6311C42.2049 45.8889 42.4061 46.0963 42.6575 46.2535C42.9089 46.4043 43.1824 46.4798 43.4778 46.4798ZM46.3238 49.252L48.8603 42.6515H49.4355L51.9719 49.252H51.425L49.7184 44.7731C49.6995 44.7291 49.6649 44.6379 49.6146 44.4996C49.5706 44.3551 49.5141 44.1916 49.4449 44.0093C49.3758 43.8207 49.3066 43.6353 49.2375 43.453C49.1683 43.2644 49.1086 43.1041 49.0583 42.9721L49.1997 42.9815C49.162 43.0947 49.1117 43.2361 49.0489 43.4059C48.9923 43.5756 48.9294 43.7516 48.8603 43.9339C48.7911 44.1162 48.7283 44.2859 48.6717 44.4431C48.6151 44.5939 48.5711 44.7102 48.5397 44.7919L46.8519 49.252H46.3238ZM47.3328 47.2718L47.5119 46.7815H50.7461L50.9536 47.2718H47.3328Z" fill="#EAEAEA"/>
<defs>
<linearGradient id="paint0_linear_1957_12275" x1="61.8374" y1="31.6205" x2="120.927" y2="31.6205" gradientUnits="userSpaceOnUse">
<stop stop-color="#918E86"/>
<stop offset="1" stop-color="#A8A59A"/>
</linearGradient>
</defs>
</svg>
