<svg width="62" height="60" viewBox="0 0 62 60" fill="none" xmlns="http://www.w3.org/2000/svg">
<rect x="61.9941" y="0.818359" width="59.0896" height="61.6041" rx="3.14306" transform="rotate(90 61.9941 0.818359)" fill="url(#paint0_linear_1957_12272)"/>
<path d="M13.8668 17.8184L14.9983 11.2179H15.432L14.3005 17.8184H13.8668ZM10.4911 15.9231V15.5176H15.8752V15.9231H10.4911ZM11.2737 17.8184L12.4052 11.2179H12.839L11.7075 17.8184H11.2737ZM10.8494 13.4149V13H16.2241V13.4149H10.8494ZM17.578 17.8184V11.2179H21.4346V11.6988H18.0684V17.3375H21.3874V17.8184H17.578ZM17.8232 14.6502V14.1693H20.8971V14.6502H17.8232ZM23.0753 17.8184V11.2179H23.5657V17.8184H23.0753ZM23.3111 14.7444V14.2636H26.4698V14.7444H23.3111ZM23.3205 11.6988V11.2179H26.9696V11.6988H23.3205ZM28.5818 17.8184V11.2179H32.4384V11.6988H29.0722V17.3375H32.3912V17.8184H28.5818ZM28.827 14.6502V14.1693H31.9009V14.6502H28.827ZM34.0791 17.8184V11.2179H36.6816C37.0588 11.2179 37.3794 11.2871 37.6434 11.4254C37.9137 11.5637 38.1211 11.7554 38.2657 12.0005C38.4103 12.2394 38.4826 12.516 38.4826 12.8303C38.4826 13.2201 38.3568 13.5564 38.1054 13.8392C37.8602 14.1221 37.5302 14.3044 37.1153 14.3861L37.0776 14.2353C37.4548 14.273 37.7722 14.3736 38.03 14.537C38.294 14.6942 38.492 14.8953 38.624 15.1405C38.7623 15.3793 38.8314 15.6528 38.8314 15.9608C38.8314 16.2374 38.7874 16.4888 38.6994 16.7151C38.6177 16.9414 38.4857 17.1363 38.3034 17.2998C38.1274 17.4632 37.9042 17.5921 37.6339 17.6864C37.3636 17.7744 37.043 17.8184 36.6722 17.8184H34.0791ZM34.5695 17.3375H36.6627C37.2473 17.3375 37.6685 17.2117 37.9262 16.9603C38.1903 16.7026 38.3223 16.3788 38.3223 15.9891C38.3223 15.7125 38.2563 15.4736 38.1243 15.2725C37.9922 15.0713 37.8037 14.9142 37.5585 14.801C37.3196 14.6816 37.0242 14.6219 36.6722 14.6219H34.5695V17.3375ZM34.5695 14.141H36.625C36.8827 14.141 37.1122 14.0875 37.3133 13.9807C37.5208 13.8675 37.6842 13.7198 37.8037 13.5375C37.9231 13.3489 37.9828 13.1352 37.9828 12.8963C37.9828 12.5443 37.8602 12.2583 37.6151 12.0383C37.3699 11.812 37.0336 11.6988 36.6062 11.6988H34.5695V14.141ZM40.3223 17.8184V11.2179H42.7362C43.1636 11.2179 43.5628 11.2996 43.9337 11.4631C44.3108 11.6265 44.6377 11.856 44.9143 12.1514C45.1972 12.4406 45.4172 12.7863 45.5744 13.1886C45.7315 13.5909 45.8101 14.0341 45.8101 14.5181C45.8101 14.9959 45.7315 15.4359 45.5744 15.8382C45.4172 16.2405 45.1972 16.5894 44.9143 16.8849C44.6377 17.1803 44.3108 17.4098 43.9337 17.5732C43.5628 17.7366 43.1636 17.8184 42.7362 17.8184H40.3223ZM40.8126 17.4223L40.7466 17.3375H42.689C43.0536 17.3375 43.3931 17.2683 43.7074 17.13C44.028 16.9917 44.3077 16.7969 44.5466 16.5454C44.7854 16.294 44.9709 15.9954 45.1029 15.6496C45.2412 15.3039 45.3103 14.9267 45.3103 14.5181C45.3103 14.1095 45.2412 13.7324 45.1029 13.3866C44.9709 13.0409 44.7854 12.7423 44.5466 12.4909C44.3077 12.2394 44.028 12.0445 43.7074 11.9063C43.3931 11.768 43.0536 11.6988 42.689 11.6988H40.7277L40.8126 11.6045V17.4223ZM48.7448 17.9127C48.2859 17.9127 47.871 17.8089 47.5001 17.6015C47.1292 17.3878 46.7929 17.0263 46.4912 16.5171L46.8966 16.2625C47.0852 16.5643 47.2801 16.8031 47.4813 16.9792C47.6824 17.1552 47.8899 17.2809 48.1036 17.3563C48.3236 17.4255 48.553 17.46 48.7919 17.46C49.1062 17.46 49.3891 17.3846 49.6405 17.2337C49.8983 17.0766 50.0994 16.866 50.244 16.602C50.3886 16.338 50.4609 16.0457 50.4609 15.7251C50.4609 15.4045 50.3917 15.1248 50.2534 14.8859C50.1214 14.6407 49.9391 14.449 49.7065 14.3107C49.474 14.1661 49.2099 14.0938 48.9145 14.0938C48.7888 14.0938 48.6568 14.1064 48.5185 14.1315C48.3865 14.1504 48.2482 14.1944 48.1036 14.2636C47.9653 14.3264 47.8176 14.4301 47.6604 14.5747L47.4813 14.1787L50.1309 11.5291L50.2063 11.68H47.0381V11.2179H50.5929L50.7343 11.4914L48.2073 14.0278L48.0564 13.9052C48.1822 13.8172 48.3173 13.7481 48.4619 13.6978C48.6065 13.6475 48.7699 13.6224 48.9522 13.6224C49.2414 13.6224 49.5054 13.6758 49.7443 13.7827C49.9894 13.8832 50.2 14.0278 50.376 14.2164C50.5583 14.3987 50.6998 14.6187 50.8003 14.8765C50.9009 15.1342 50.9512 15.4108 50.9512 15.7062C50.9512 16.1211 50.8538 16.4951 50.6589 16.8283C50.4703 17.1615 50.2094 17.4255 49.8763 17.6203C49.5431 17.8152 49.1659 17.9127 48.7448 17.9127Z" fill="#999999"/>
<path d="M13.8668 49.252L14.9983 42.6515H15.432L14.3005 49.252H13.8668ZM10.4911 47.3567V46.9512H15.8752V47.3567H10.4911ZM11.2737 49.252L12.4052 42.6515H12.839L11.7075 49.252H11.2737ZM10.8494 44.8485V44.4336H16.2241V44.8485H10.8494ZM17.578 49.252V42.6515H18.0684V49.252H17.578ZM17.8138 46.178V45.6971H20.9726V46.178H17.8138ZM17.8232 43.1324V42.6515H21.4723V43.1324H17.8232ZM24.5084 49.3368C24.0746 49.3368 23.6817 49.2362 23.3297 49.0351C22.984 48.8339 22.6917 48.5448 22.4528 48.1676L22.7734 47.8376C23.0185 48.1959 23.2888 48.4568 23.5843 48.6202C23.886 48.7836 24.1972 48.8654 24.5178 48.8654C24.8698 48.8654 25.1873 48.7836 25.4701 48.6202C25.753 48.4568 25.9762 48.2367 26.1396 47.9602C26.303 47.6773 26.3848 47.3661 26.3848 47.0267C26.3848 46.7124 26.3093 46.4295 26.1585 46.178C26.0139 45.9203 25.8127 45.716 25.555 45.5651C25.3036 45.408 25.0144 45.3294 24.6875 45.3294C24.4926 45.3294 24.3009 45.3546 24.1123 45.4048C23.9237 45.4488 23.7352 45.518 23.5466 45.6123C23.358 45.7066 23.1694 45.8229 22.9808 45.9612L22.7074 45.6123L23.1317 42.6515H26.6771V43.1135H23.3769L23.5466 42.9815L23.16 45.6217L23.0185 45.4708C23.1568 45.3577 23.3203 45.2571 23.5089 45.1691C23.6974 45.0748 23.8955 45.0025 24.1029 44.9522C24.3166 44.8957 24.5304 44.8674 24.7441 44.8674C25.1527 44.8674 25.5173 44.9585 25.8379 45.1408C26.1585 45.3231 26.4099 45.5777 26.5922 45.9046C26.7808 46.2252 26.8751 46.5961 26.8751 47.0172C26.8751 47.451 26.7714 47.8439 26.5639 48.1959C26.3565 48.5479 26.0736 48.8276 25.7153 49.0351C25.3633 49.2362 24.961 49.3368 24.5084 49.3368ZM28.4437 49.252V42.6515H28.934V49.252H28.4437ZM28.6794 46.178V45.6971H31.8382V46.178H28.6794ZM28.6889 43.1324V42.6515H32.338V43.1324H28.6889ZM35.374 49.3368C34.9403 49.3368 34.5474 49.2362 34.1954 49.0351C33.8496 48.8339 33.5573 48.5448 33.3185 48.1676L33.6391 47.8376C33.8842 48.1959 34.1545 48.4568 34.45 48.6202C34.7517 48.7836 35.0629 48.8654 35.3835 48.8654C35.7355 48.8654 36.0529 48.7836 36.3358 48.6202C36.6187 48.4568 36.8418 48.2367 37.0053 47.9602C37.1687 47.6773 37.2504 47.3661 37.2504 47.0267C37.2504 46.7124 37.175 46.4295 37.0241 46.178C36.8796 45.9203 36.6784 45.716 36.4207 45.5651C36.1692 45.408 35.8801 45.3294 35.5532 45.3294C35.3583 45.3294 35.1666 45.3546 34.978 45.4048C34.7894 45.4488 34.6008 45.518 34.4122 45.6123C34.2237 45.7066 34.0351 45.8229 33.8465 45.9612L33.5731 45.6123L33.9974 42.6515H37.5427V43.1135H34.2425L34.4122 42.9815L34.0257 45.6217L33.8842 45.4708C34.0225 45.3577 34.1859 45.2571 34.3745 45.1691C34.5631 45.0748 34.7611 45.0025 34.9686 44.9522C35.1823 44.8957 35.396 44.8674 35.6098 44.8674C36.0184 44.8674 36.383 44.9585 36.7035 45.1408C37.0241 45.3231 37.2756 45.5777 37.4579 45.9046C37.6465 46.2252 37.7408 46.5961 37.7408 47.0172C37.7408 47.451 37.637 47.8439 37.4296 48.1959C37.2221 48.5479 36.9393 48.8276 36.581 49.0351C36.2289 49.2362 35.8266 49.3368 35.374 49.3368ZM39.3094 49.252V42.6515H39.7997V49.252H39.3094ZM39.5451 46.178V45.6971H42.7039V46.178H39.5451ZM39.5545 43.1324V42.6515H43.2036V43.1324H39.5545ZM46.2397 49.3368C45.806 49.3368 45.4131 49.2362 45.061 49.0351C44.7153 48.8339 44.423 48.5448 44.1841 48.1676L44.5047 47.8376C44.7499 48.1959 45.0202 48.4568 45.3156 48.6202C45.6174 48.7836 45.9285 48.8654 46.2491 48.8654C46.6012 48.8654 46.9186 48.7836 47.2015 48.6202C47.4844 48.4568 47.7075 48.2367 47.8709 47.9602C48.0344 47.6773 48.1161 47.3661 48.1161 47.0267C48.1161 46.7124 48.0407 46.4295 47.8898 46.178C47.7452 45.9203 47.5441 45.716 47.2863 45.5651C47.0349 45.408 46.7457 45.3294 46.4189 45.3294C46.224 45.3294 46.0323 45.3546 45.8437 45.4048C45.6551 45.4488 45.4665 45.518 45.2779 45.6123C45.0893 45.7066 44.9008 45.8229 44.7122 45.9612L44.4387 45.6123L44.863 42.6515H48.4084V43.1135H45.1082L45.2779 42.9815L44.8913 45.6217L44.7499 45.4708C44.8882 45.3577 45.0516 45.2571 45.2402 45.1691C45.4288 45.0748 45.6268 45.0025 45.8342 44.9522C46.048 44.8957 46.2617 44.8674 46.4754 44.8674C46.884 44.8674 47.2486 44.9585 47.5692 45.1408C47.8898 45.3231 48.1413 45.5777 48.3235 45.9046C48.5121 46.2252 48.6064 46.5961 48.6064 47.0172C48.6064 47.451 48.5027 47.8439 48.2953 48.1959C48.0878 48.5479 47.8049 48.8276 47.4466 49.0351C47.0946 49.2362 46.6923 49.3368 46.2397 49.3368Z" fill="#999999"/>
<defs>
<linearGradient id="paint0_linear_1957_12272" x1="61.9941" y1="0.818359" x2="123.164" y2="1.0828" gradientUnits="userSpaceOnUse">
<stop stop-color="#EFEBD3"/>
<stop offset="1" stop-color="#F5F5F5"/>
</linearGradient>
</defs>
</svg>
