<svg width="63" height="60" viewBox="0 0 63 60" fill="none" xmlns="http://www.w3.org/2000/svg">
<rect x="62.5034" y="0.974609" width="58.7753" height="61.6041" rx="3.14306" transform="rotate(90 62.5034 0.974609)" fill="url(#paint0_linear_1957_12274)"/>
<path d="M15.1632 17.8184L16.2947 11.2179H16.7284L15.5969 17.8184H15.1632ZM11.7875 15.9231V15.5176H17.1716V15.9231H11.7875ZM12.5701 17.8184L13.7016 11.2179H14.1354L13.0039 17.8184H12.5701ZM12.1458 13.4149V13H17.5205V13.4149H12.1458ZM20.6094 17.8466C20.2008 17.8466 19.8268 17.7649 19.4873 17.6015C19.1542 17.4318 18.887 17.2055 18.6858 16.9226C18.491 16.6397 18.3935 16.3254 18.3935 15.9797C18.3935 15.7659 18.425 15.5648 18.4878 15.3762C18.557 15.1876 18.6576 15.0179 18.7896 14.867C18.9216 14.7099 19.0787 14.5747 19.261 14.4616C19.4433 14.3421 19.6539 14.2478 19.8928 14.1787L19.9022 14.3201C19.6382 14.2636 19.4119 14.1661 19.2233 14.0278C19.0347 13.8832 18.8901 13.7104 18.7896 13.5092C18.689 13.3081 18.6387 13.1006 18.6387 12.8869C18.6387 12.5537 18.7267 12.2583 18.9027 12.0005C19.0787 11.7365 19.3145 11.5291 19.6099 11.3782C19.9116 11.2274 20.2448 11.1519 20.6094 11.1519C20.974 11.1519 21.304 11.2274 21.5995 11.3782C21.9012 11.5291 22.1401 11.7365 22.3161 12.0005C22.4984 12.2583 22.5895 12.5537 22.5895 12.8869C22.5895 13.1006 22.5392 13.3049 22.4387 13.4998C22.3381 13.6947 22.1904 13.8644 21.9955 14.009C21.8069 14.1473 21.5775 14.251 21.3072 14.3201L21.326 14.1975C21.6215 14.2793 21.8823 14.4081 22.1086 14.5841C22.3349 14.7539 22.511 14.9582 22.6367 15.197C22.7687 15.4296 22.8347 15.6905 22.8347 15.9797C22.8347 16.3317 22.7341 16.6491 22.533 16.932C22.3381 17.2149 22.0709 17.438 21.7315 17.6015C21.3983 17.7649 21.0243 17.8466 20.6094 17.8466ZM20.6094 17.3846C20.93 17.3846 21.2192 17.3186 21.4769 17.1866C21.7409 17.0546 21.9483 16.8849 22.0992 16.6774C22.2564 16.4637 22.3349 16.228 22.3349 15.9702C22.3349 15.6874 22.2595 15.4359 22.1086 15.2159C21.9641 14.9959 21.7598 14.823 21.4957 14.6973C21.238 14.5716 20.9426 14.5087 20.6094 14.5087C20.2825 14.5087 19.9871 14.5716 19.7231 14.6973C19.4653 14.823 19.261 14.9959 19.1102 15.2159C18.9593 15.4359 18.8839 15.6874 18.8839 15.9702C18.8839 16.2217 18.9593 16.4543 19.1102 16.668C19.2673 16.8817 19.4748 17.0546 19.7325 17.1866C19.9965 17.3186 20.2888 17.3846 20.6094 17.3846ZM20.6094 14.075C20.8923 14.075 21.1437 14.0247 21.3637 13.9241C21.59 13.8172 21.7661 13.6727 21.8918 13.4904C22.0238 13.3081 22.0898 13.0975 22.0898 12.8586C22.0898 12.626 22.0238 12.4186 21.8918 12.2363C21.7661 12.0477 21.59 11.9 21.3637 11.7931C21.1437 11.68 20.8923 11.6234 20.6094 11.6234C20.3202 11.6234 20.0657 11.68 19.8456 11.7931C19.6256 11.9 19.4496 12.0477 19.3176 12.2363C19.1919 12.4186 19.129 12.626 19.129 12.8586C19.129 13.0912 19.1919 13.2986 19.3176 13.4809C19.4496 13.6632 19.6256 13.8078 19.8456 13.9147C20.0657 14.0215 20.3202 14.075 20.6094 14.075ZM23.552 17.8184L26.0885 11.2179H26.6637L29.2001 17.8184H28.6532L26.9466 13.3395C26.9277 13.2955 26.8931 13.2043 26.8428 13.066C26.7988 12.9215 26.7423 12.758 26.6731 12.5757C26.604 12.3871 26.5348 12.2017 26.4657 12.0194C26.3965 11.8308 26.3368 11.6705 26.2865 11.5385L26.428 11.5479C26.3902 11.6611 26.3399 11.8025 26.2771 11.9723C26.2205 12.142 26.1576 12.318 26.0885 12.5003C26.0194 12.6826 25.9565 12.8523 25.8999 13.0095C25.8433 13.1603 25.7993 13.2766 25.7679 13.3584L24.0801 17.8184H23.552ZM24.561 15.8382L24.7401 15.3479H27.9743L28.1818 15.8382H24.561ZM31.808 17.8184L31.7892 17.7524L33.7599 13.9712L33.7882 14.2258C33.6373 14.5087 33.4613 14.7476 33.2601 14.9425C33.0653 15.131 32.8515 15.2725 32.619 15.3668C32.3864 15.4611 32.1412 15.5082 31.8835 15.5082C31.5 15.5082 31.148 15.4139 30.8274 15.2253C30.5131 15.0305 30.2617 14.7727 30.0731 14.4521C29.8845 14.1253 29.7902 13.7607 29.7902 13.3584C29.7902 12.9372 29.8876 12.5569 30.0825 12.2174C30.2774 11.878 30.5414 11.6108 30.8746 11.4159C31.2077 11.2211 31.5817 11.1236 31.9966 11.1236C32.2984 11.1236 32.5812 11.1802 32.8453 11.2934C33.1093 11.4002 33.3387 11.5511 33.5336 11.746C33.7347 11.9408 33.8919 12.1734 34.005 12.4437C34.1245 12.714 34.1842 13.0095 34.1842 13.3301C34.1842 13.5249 34.1622 13.7229 34.1182 13.9241C34.0742 14.1253 34.0113 14.3358 33.9296 14.5559C33.8479 14.7759 33.7505 15.0085 33.6373 15.2536C33.5242 15.4925 33.3953 15.7502 33.2507 16.0268L32.2984 17.8184H31.808ZM31.9401 15.0462C32.2669 15.0462 32.5592 14.9707 32.817 14.8199C33.0747 14.6627 33.279 14.4553 33.4299 14.1975C33.5807 13.9335 33.6562 13.6412 33.6562 13.3206C33.6562 12.9938 33.5807 12.7014 33.4299 12.4437C33.279 12.1797 33.0747 11.9723 32.817 11.8214C32.5655 11.6642 32.2764 11.5857 31.9495 11.5857C31.6477 11.5857 31.3712 11.6642 31.1197 11.8214C30.8683 11.9723 30.6671 12.1766 30.5162 12.4343C30.3717 12.692 30.2994 12.9875 30.2994 13.3206C30.2994 13.6412 30.3717 13.9335 30.5162 14.1975C30.6671 14.4553 30.8683 14.6627 31.1197 14.8199C31.3712 14.9707 31.6446 15.0462 31.9401 15.0462ZM35.5781 17.8184V11.2179H36.0684V17.8184H35.5781ZM35.8138 14.7444V14.2636H38.9726V14.7444H35.8138ZM35.8233 11.6988V11.2179H39.4724V11.6988H35.8233ZM41.0846 17.8184V11.2179H44.9411V11.6988H41.5749V17.3375H44.894V17.8184H41.0846ZM41.3298 14.6502V14.1693H44.4037V14.6502H41.3298ZM48.3169 17.8466C47.9083 17.8466 47.5342 17.7649 47.1948 17.6015C46.8616 17.4318 46.5945 17.2055 46.3933 16.9226C46.1984 16.6397 46.101 16.3254 46.101 15.9797C46.101 15.7659 46.1324 15.5648 46.1953 15.3762C46.2644 15.1876 46.365 15.0179 46.497 14.867C46.629 14.7099 46.7862 14.5747 46.9685 14.4616C47.1508 14.3421 47.3614 14.2478 47.6002 14.1787L47.6097 14.3201C47.3457 14.2636 47.1194 14.1661 46.9308 14.0278C46.7422 13.8832 46.5976 13.7104 46.497 13.5092C46.3965 13.3081 46.3462 13.1006 46.3462 12.8869C46.3462 12.5537 46.4342 12.2583 46.6102 12.0005C46.7862 11.7365 47.0219 11.5291 47.3174 11.3782C47.6191 11.2274 47.9523 11.1519 48.3169 11.1519C48.6815 11.1519 49.0115 11.2274 49.3069 11.3782C49.6087 11.5291 49.8475 11.7365 50.0236 12.0005C50.2058 12.2583 50.297 12.5537 50.297 12.8869C50.297 13.1006 50.2467 13.3049 50.1461 13.4998C50.0456 13.6947 49.8978 13.8644 49.703 14.009C49.5144 14.1473 49.2849 14.251 49.0146 14.3201L49.0335 14.1975C49.3289 14.2793 49.5898 14.4081 49.8161 14.5841C50.0424 14.7539 50.2184 14.9582 50.3441 15.197C50.4762 15.4296 50.5422 15.6905 50.5422 15.9797C50.5422 16.3317 50.4416 16.6491 50.2404 16.932C50.0456 17.2149 49.7784 17.438 49.4389 17.6015C49.1058 17.7649 48.7318 17.8466 48.3169 17.8466ZM48.3169 17.3846C48.6375 17.3846 48.9266 17.3186 49.1844 17.1866C49.4484 17.0546 49.6558 16.8849 49.8067 16.6774C49.9638 16.4637 50.0424 16.228 50.0424 15.9702C50.0424 15.6874 49.967 15.4359 49.8161 15.2159C49.6715 14.9959 49.4672 14.823 49.2032 14.6973C48.9455 14.5716 48.65 14.5087 48.3169 14.5087C47.99 14.5087 47.6945 14.5716 47.4305 14.6973C47.1728 14.823 46.9685 14.9959 46.8176 15.2159C46.6668 15.4359 46.5913 15.6874 46.5913 15.9702C46.5913 16.2217 46.6668 16.4543 46.8176 16.668C46.9748 16.8817 47.1822 17.0546 47.44 17.1866C47.704 17.3186 47.9963 17.3846 48.3169 17.3846ZM48.3169 14.075C48.5997 14.075 48.8512 14.0247 49.0712 13.9241C49.2975 13.8172 49.4735 13.6727 49.5992 13.4904C49.7312 13.3081 49.7973 13.0975 49.7973 12.8586C49.7973 12.626 49.7312 12.4186 49.5992 12.2363C49.4735 12.0477 49.2975 11.9 49.0712 11.7931C48.8512 11.68 48.5997 11.6234 48.3169 11.6234C48.0277 11.6234 47.7731 11.68 47.5531 11.7931C47.3331 11.9 47.1571 12.0477 47.0251 12.2363C46.8993 12.4186 46.8365 12.626 46.8365 12.8586C46.8365 13.0912 46.8993 13.2986 47.0251 13.4809C47.1571 13.6632 47.3331 13.8078 47.5531 13.9147C47.7731 14.0215 48.0277 14.075 48.3169 14.075Z" fill="#666666"/>
<path d="M15.1632 49.252L16.2947 42.6515H16.7284L15.5969 49.252H15.1632ZM11.7875 47.3567V46.9512H17.1716V47.3567H11.7875ZM12.5701 49.252L13.7016 42.6515H14.1354L13.0039 49.252H12.5701ZM12.1458 44.8485V44.4336H17.5205V44.8485H12.1458ZM20.6094 49.2802C20.2008 49.2802 19.8268 49.1985 19.4873 49.0351C19.1542 48.8654 18.887 48.6391 18.6858 48.3562C18.491 48.0733 18.3935 47.759 18.3935 47.4133C18.3935 47.1995 18.425 46.9984 18.4878 46.8098C18.557 46.6212 18.6576 46.4515 18.7896 46.3006C18.9216 46.1435 19.0787 46.0083 19.261 45.8952C19.4433 45.7757 19.6539 45.6814 19.8928 45.6123L19.9022 45.7537C19.6382 45.6971 19.4119 45.5997 19.2233 45.4614C19.0347 45.3168 18.8901 45.144 18.7896 44.9428C18.689 44.7417 18.6387 44.5342 18.6387 44.3205C18.6387 43.9873 18.7267 43.6919 18.9027 43.4341C19.0787 43.1701 19.3145 42.9627 19.6099 42.8118C19.9116 42.6609 20.2448 42.5855 20.6094 42.5855C20.974 42.5855 21.304 42.6609 21.5995 42.8118C21.9012 42.9627 22.1401 43.1701 22.3161 43.4341C22.4984 43.6919 22.5895 43.9873 22.5895 44.3205C22.5895 44.5342 22.5392 44.7385 22.4387 44.9334C22.3381 45.1283 22.1904 45.298 21.9955 45.4426C21.8069 45.5809 21.5775 45.6846 21.3072 45.7537L21.326 45.6311C21.6215 45.7129 21.8823 45.8417 22.1086 46.0177C22.3349 46.1875 22.511 46.3918 22.6367 46.6306C22.7687 46.8632 22.8347 47.1241 22.8347 47.4133C22.8347 47.7653 22.7341 48.0827 22.533 48.3656C22.3381 48.6485 22.0709 48.8716 21.7315 49.0351C21.3983 49.1985 21.0243 49.2802 20.6094 49.2802ZM20.6094 48.8182C20.93 48.8182 21.2192 48.7522 21.4769 48.6202C21.7409 48.4882 21.9483 48.3185 22.0992 48.111C22.2564 47.8973 22.3349 47.6616 22.3349 47.4038C22.3349 47.121 22.2595 46.8695 22.1086 46.6495C21.9641 46.4295 21.7598 46.2566 21.4957 46.1309C21.238 46.0052 20.9426 45.9423 20.6094 45.9423C20.2825 45.9423 19.9871 46.0052 19.7231 46.1309C19.4653 46.2566 19.261 46.4295 19.1102 46.6495C18.9593 46.8695 18.8839 47.121 18.8839 47.4038C18.8839 47.6553 18.9593 47.8879 19.1102 48.1016C19.2673 48.3153 19.4748 48.4882 19.7325 48.6202C19.9965 48.7522 20.2888 48.8182 20.6094 48.8182ZM20.6094 45.5086C20.8923 45.5086 21.1437 45.4583 21.3637 45.3577C21.59 45.2508 21.7661 45.1063 21.8918 44.924C22.0238 44.7417 22.0898 44.5311 22.0898 44.2922C22.0898 44.0596 22.0238 43.8522 21.8918 43.6699C21.7661 43.4813 21.59 43.3336 21.3637 43.2267C21.1437 43.1135 20.8923 43.057 20.6094 43.057C20.3202 43.057 20.0657 43.1135 19.8456 43.2267C19.6256 43.3336 19.4496 43.4813 19.3176 43.6699C19.1919 43.8522 19.129 44.0596 19.129 44.2922C19.129 44.5248 19.1919 44.7322 19.3176 44.9145C19.4496 45.0968 19.6256 45.2414 19.8456 45.3483C20.0657 45.4551 20.3202 45.5086 20.6094 45.5086ZM23.552 49.252L26.0885 42.6515H26.6637L29.2001 49.252H28.6532L26.9466 44.7731C26.9277 44.7291 26.8931 44.6379 26.8428 44.4996C26.7988 44.3551 26.7423 44.1916 26.6731 44.0093C26.604 43.8207 26.5348 43.6353 26.4657 43.453C26.3965 43.2644 26.3368 43.1041 26.2865 42.9721L26.428 42.9815C26.3902 43.0947 26.3399 43.2361 26.2771 43.4059C26.2205 43.5756 26.1576 43.7516 26.0885 43.9339C26.0194 44.1162 25.9565 44.2859 25.8999 44.4431C25.8433 44.5939 25.7993 44.7102 25.7679 44.7919L24.0801 49.252H23.552ZM24.561 47.2718L24.7401 46.7815H27.9743L28.1818 47.2718H24.561ZM30.4031 49.252V42.6515H32.817C33.2444 42.6515 33.6436 42.7332 34.0145 42.8967C34.3916 43.0601 34.7185 43.2896 34.9951 43.585C35.278 43.8742 35.498 44.2199 35.6552 44.6222C35.8123 45.0245 35.8909 45.4677 35.8909 45.9517C35.8909 46.4295 35.8123 46.8695 35.6552 47.2718C35.498 47.6741 35.278 48.023 34.9951 48.3185C34.7185 48.6139 34.3916 48.8434 34.0145 49.0068C33.6436 49.1702 33.2444 49.252 32.817 49.252H30.4031ZM30.8934 48.8559L30.8274 48.7711H32.7698C33.1344 48.7711 33.4739 48.7019 33.7882 48.5636C34.1088 48.4253 34.3885 48.2305 34.6274 47.979C34.8662 47.7276 35.0517 47.429 35.1837 47.0832C35.322 46.7375 35.3911 46.3603 35.3911 45.9517C35.3911 45.5431 35.322 45.166 35.1837 44.8202C35.0517 44.4745 34.8662 44.1759 34.6274 43.9245C34.3885 43.673 34.1088 43.4781 33.7882 43.3398C33.4739 43.2016 33.1344 43.1324 32.7698 43.1324H30.8085L30.8934 43.0381V48.8559ZM37.166 49.252L37.0246 48.9031L39.5045 46.2063C39.6051 46.0995 39.7151 45.9737 39.8345 45.8292C39.9539 45.6846 40.0671 45.5274 40.1739 45.3577C40.2808 45.188 40.3657 45.0151 40.4285 44.8391C40.4977 44.6568 40.5323 44.4745 40.5323 44.2922C40.5323 44.047 40.4663 43.8302 40.3342 43.6416C40.2085 43.4467 40.0325 43.2958 39.8062 43.189C39.5862 43.0758 39.3285 43.0193 39.033 43.0193C38.813 43.0193 38.5898 43.0727 38.3635 43.1796C38.1372 43.2864 37.9298 43.4499 37.7412 43.6699C37.5526 43.8899 37.4049 44.1822 37.298 44.5468L36.8926 44.3111C37.012 43.915 37.1755 43.5882 37.3829 43.3304C37.5966 43.0727 37.8481 42.881 38.1372 42.7552C38.4327 42.6232 38.7501 42.5572 39.0896 42.5572C39.4605 42.5572 39.7905 42.6295 40.0797 42.7741C40.3751 42.9187 40.6077 43.1198 40.7774 43.3776C40.9534 43.6353 41.0414 43.9276 41.0414 44.2545C41.0414 44.4556 41.01 44.6536 40.9471 44.8485C40.8906 45.0434 40.812 45.2351 40.7114 45.4237C40.6108 45.6123 40.4914 45.7977 40.3531 45.98C40.2148 46.1623 40.0639 46.3415 39.9005 46.5175L37.5998 48.9785L37.5243 48.7711H41.1829V49.252H37.166ZM42.5487 49.252V42.6515H43.039V49.252H42.5487ZM42.7844 46.178V45.6971H45.9432V46.178H42.7844ZM42.7939 43.1324V42.6515H46.443V43.1324H42.7939ZM49.9599 49.3462C49.4444 49.3462 49.0044 49.2142 48.6398 48.9502C48.2752 48.6862 47.9986 48.3027 47.81 47.7999C47.6215 47.2907 47.5272 46.6746 47.5272 45.9517C47.5272 45.2288 47.6215 44.6159 47.81 44.113C47.9986 43.6039 48.2752 43.2173 48.6398 42.9533C49.0044 42.6892 49.4444 42.5572 49.9599 42.5572C50.4817 42.5572 50.9217 42.6892 51.28 42.9533C51.6446 43.2173 51.9212 43.6039 52.1098 44.113C52.2983 44.6159 52.3926 45.2288 52.3926 45.9517C52.3926 46.6746 52.2983 47.2907 52.1098 47.7999C51.9212 48.3027 51.6446 48.6862 51.28 48.9502C50.9217 49.2142 50.4817 49.3462 49.9599 49.3462ZM49.9599 48.8842C50.5822 48.8842 51.06 48.6296 51.3931 48.1204C51.7263 47.6113 51.8929 46.8884 51.8929 45.9517C51.8929 45.0088 51.7263 44.2859 51.3931 43.783C51.06 43.2738 50.5822 43.0193 49.9599 43.0193C49.3376 43.0193 48.8567 43.2738 48.5172 43.783C48.1841 44.2859 48.0175 45.0088 48.0175 45.9517C48.0175 46.8884 48.1841 47.6113 48.5172 48.1204C48.8567 48.6296 49.3376 48.8842 49.9599 48.8842Z" fill="#666666"/>
<defs>
<linearGradient id="paint0_linear_1957_12274" x1="62.5034" y1="31.7768" x2="121.279" y2="31.7768" gradientUnits="userSpaceOnUse">
<stop stop-color="#8A9FE8"/>
<stop offset="1" stop-color="#8AD2F0"/>
</linearGradient>
</defs>
</svg>
