<svg width="133" height="608" viewBox="0 0 133 608" fill="none" xmlns="http://www.w3.org/2000/svg">
<path d="M122.427 285.664L128.731 282.025L128.731 289.303L122.427 285.664ZM57.0698 407.599L128.564 407.599L128.564 408.86L57.0698 408.859L57.0698 407.599ZM131.716 404.447L131.716 289.446L132.976 289.446L132.976 404.447L131.716 404.447ZM128.564 286.294L128.101 286.294L128.101 285.034L128.564 285.034L128.564 286.294ZM131.716 289.446C131.716 287.706 130.305 286.294 128.564 286.294L128.564 285.034C131.001 285.034 132.976 287.009 132.976 289.446L131.716 289.446ZM128.564 407.599C130.305 407.599 131.716 406.188 131.716 404.447L132.976 404.447C132.976 406.884 131.001 408.86 128.564 408.86L128.564 407.599Z" fill="#BDBDBD"/>
<path d="M79.144 -6.81542e-07C93.0695 -3.05137e-07 104.358 11.2888 104.358 25.2143L104.358 139.814C104.358 153.74 93.0695 165.029 79.144 165.029L57.0695 165.029L57.0695 -1.27821e-06L79.144 -6.81542e-07Z" fill="url(#paint0_linear_1742_10772)"/>
<path d="M79.144 203.633C93.0695 203.633 104.358 214.922 104.358 228.847L104.358 343.447C104.358 357.372 93.0695 368.661 79.144 368.661L57.0695 368.661L57.0695 203.633L79.144 203.633Z" fill="url(#paint1_linear_1742_10772)"/>
<path d="M25.3442 233.551C11.4187 233.551 0.129885 222.262 0.129888 208.336L0.129897 167.083C0.129899 153.157 11.4187 141.868 25.3442 141.868L47.4188 141.868L47.4188 233.551L25.3442 233.551Z" fill="url(#paint2_linear_1742_10772)"/>
<path d="M25.3442 471.922C11.4187 471.922 0.129885 460.633 0.129888 446.708L0.129904 369.746C0.129907 355.82 11.4188 344.531 25.3443 344.531L47.4188 344.531L47.4187 471.922L25.3442 471.922Z" fill="url(#paint3_linear_1742_10772)"/>
<path d="M79.144 452.621C93.0695 452.621 104.358 463.91 104.358 477.835L104.358 582.785C104.358 596.71 93.0695 607.999 79.144 607.999L57.0695 607.999L57.0696 452.621L79.144 452.621Z" fill="url(#paint4_linear_1742_10772)"/>
<path d="M115.574 323.363L124.687 323.363L124.687 324.8L115.574 324.8L115.574 323.363ZM115.921 330.328C115.861 330.208 115.797 330.058 115.728 329.878C115.66 329.699 115.6 329.493 115.549 329.262C115.497 329.04 115.472 328.809 115.472 328.569C115.472 328.278 115.523 328.009 115.626 327.761C115.728 327.512 115.891 327.311 116.113 327.157C116.344 327.012 116.64 326.939 116.999 326.939L121.196 326.939L121.196 326.053L122.287 326.053L122.287 326.939L124.495 326.939L124.495 328.351L122.287 328.351L122.287 329.814L121.196 329.814L121.196 328.351L117.448 328.351C117.217 328.368 117.046 328.441 116.935 328.569C116.824 328.706 116.768 328.873 116.768 329.07C116.768 329.267 116.802 329.455 116.871 329.635C116.939 329.814 116.995 329.947 117.037 330.032L115.921 330.328ZM115.446 334.26C115.446 333.738 115.536 333.263 115.715 332.835C115.904 332.416 116.156 332.052 116.473 331.744C116.798 331.436 117.166 331.196 117.577 331.025C117.996 330.863 118.441 330.781 118.911 330.781C119.545 330.781 120.122 330.927 120.644 331.218C121.175 331.509 121.598 331.915 121.915 332.437C122.24 332.959 122.403 333.571 122.403 334.273C122.403 334.974 122.24 335.578 121.915 336.083C121.598 336.596 121.179 336.994 120.657 337.276C120.135 337.559 119.575 337.7 118.976 337.7C118.873 337.7 118.775 337.696 118.68 337.687C118.595 337.678 118.522 337.67 118.462 337.661L118.462 332.283C118.069 332.309 117.722 332.416 117.423 332.604C117.132 332.801 116.901 333.049 116.729 333.349C116.567 333.648 116.486 333.969 116.486 334.311C116.486 334.688 116.58 335.043 116.768 335.377C116.956 335.719 117.204 335.95 117.512 336.07L117.166 337.276C116.841 337.131 116.545 336.908 116.28 336.609C116.023 336.318 115.818 335.971 115.664 335.569C115.519 335.167 115.446 334.73 115.446 334.26ZM119.399 332.245L119.399 336.301C119.784 336.275 120.122 336.164 120.413 335.967C120.713 335.779 120.944 335.535 121.106 335.235C121.277 334.944 121.363 334.619 121.363 334.26C121.363 333.909 121.277 333.584 121.106 333.284C120.944 332.993 120.713 332.754 120.413 332.566C120.122 332.377 119.784 332.27 119.399 332.245ZM121.068 342.625C121.059 342.077 120.935 341.59 120.696 341.162C120.456 340.743 120.118 340.443 119.682 340.263L115.574 340.263L115.574 338.851L122.287 338.851L122.287 340.161L120.785 340.161C121.248 340.392 121.615 340.696 121.889 341.072C122.172 341.449 122.326 341.846 122.351 342.266C122.351 342.351 122.351 342.42 122.351 342.471C122.351 342.531 122.347 342.582 122.339 342.625L121.068 342.625ZM117.538 343.152C117.966 343.152 118.338 343.272 118.655 343.511C118.98 343.76 119.228 344.098 119.399 344.525C119.579 344.953 119.669 345.45 119.669 346.014C119.669 346.314 119.647 346.618 119.605 346.926C119.562 347.242 119.493 347.52 119.399 347.76L119.823 347.76C120.293 347.76 120.661 347.619 120.927 347.336C121.192 347.054 121.325 346.648 121.325 346.117C121.325 345.74 121.256 345.385 121.119 345.052C120.991 344.718 120.807 344.363 120.567 343.986L121.517 343.511C121.817 343.956 122.039 344.401 122.185 344.846C122.33 345.3 122.403 345.775 122.403 346.271C122.403 347.17 122.163 347.875 121.684 348.389C121.213 348.911 120.542 349.172 119.669 349.172L117.166 349.172C117.003 349.172 116.888 349.198 116.819 349.249C116.751 349.309 116.712 349.407 116.704 349.544L115.574 349.544C115.549 349.416 115.531 349.3 115.523 349.198C115.514 349.095 115.51 349.009 115.51 348.941C115.51 348.641 115.583 348.415 115.728 348.261C115.874 348.107 116.045 348.017 116.242 347.991L116.627 347.952C116.25 347.662 115.959 347.289 115.754 346.836C115.549 346.382 115.446 345.924 115.446 345.462C115.446 345.017 115.536 344.62 115.715 344.269C115.904 343.918 116.156 343.644 116.473 343.447C116.789 343.25 117.144 343.152 117.538 343.152ZM117.127 347.426C117.239 347.529 117.35 347.61 117.461 347.67C117.572 347.73 117.671 347.76 117.756 347.76L118.526 347.76C118.621 347.52 118.689 347.268 118.732 347.003C118.783 346.737 118.809 346.476 118.809 346.22C118.809 345.706 118.706 345.287 118.501 344.962C118.295 344.645 118.013 344.487 117.654 344.487C117.457 344.487 117.269 344.538 117.089 344.641C116.909 344.752 116.764 344.906 116.652 345.103C116.541 345.308 116.486 345.561 116.486 345.86C116.486 346.168 116.545 346.464 116.665 346.746C116.785 347.028 116.939 347.255 117.127 347.426ZM115.921 354.57C115.861 354.45 115.797 354.3 115.728 354.121C115.66 353.941 115.6 353.736 115.549 353.504C115.497 353.282 115.472 353.051 115.472 352.811C115.472 352.52 115.523 352.251 115.626 352.003C115.728 351.755 115.891 351.553 116.113 351.399C116.344 351.254 116.64 351.181 116.999 351.181L121.196 351.181L121.196 350.296L122.287 350.296L122.287 351.181L124.495 351.181L124.495 352.593L122.287 352.593L122.287 354.056L121.196 354.056L121.196 352.593L117.448 352.593C117.217 352.61 117.046 352.683 116.935 352.811C116.824 352.948 116.768 353.115 116.768 353.312C116.768 353.509 116.802 353.697 116.871 353.877C116.939 354.056 116.995 354.189 117.037 354.275L115.921 354.57ZM115.574 355.548L122.287 355.548L122.287 356.96L115.574 356.96L115.574 355.548ZM123.391 355.548L124.944 355.548L124.944 356.96L123.391 356.96L123.391 355.548ZM115.446 361.673C115.446 361.142 115.536 360.667 115.715 360.248C115.904 359.829 116.16 359.465 116.486 359.157C116.811 358.857 117.179 358.626 117.589 358.464C118.009 358.301 118.454 358.22 118.924 358.22C119.395 358.22 119.84 358.301 120.259 358.464C120.678 358.626 121.046 358.857 121.363 359.157C121.688 359.465 121.941 359.829 122.12 360.248C122.309 360.676 122.403 361.151 122.403 361.673C122.403 362.195 122.309 362.665 122.12 363.085C121.941 363.512 121.688 363.876 121.363 364.176C121.046 364.484 120.678 364.719 120.259 364.882C119.84 365.044 119.395 365.125 118.924 365.125C118.454 365.125 118.009 365.044 117.589 364.882C117.179 364.719 116.811 364.484 116.486 364.176C116.16 363.876 115.904 363.512 115.715 363.085C115.536 362.665 115.446 362.195 115.446 361.673ZM118.911 359.67C118.484 359.67 118.099 359.76 117.756 359.94C117.414 360.12 117.144 360.359 116.948 360.659C116.751 360.958 116.652 361.296 116.652 361.673C116.652 362.041 116.751 362.374 116.948 362.674C117.153 362.982 117.427 363.226 117.769 363.405C118.12 363.585 118.505 363.675 118.924 363.675C119.352 363.675 119.737 363.585 120.079 363.405C120.422 363.226 120.691 362.982 120.888 362.674C121.094 362.374 121.196 362.041 121.196 361.673C121.196 361.296 121.094 360.958 120.888 360.659C120.683 360.359 120.409 360.12 120.067 359.94C119.733 359.76 119.348 359.67 118.911 359.67ZM115.574 372.398L115.574 370.986L119.335 370.986C119.96 370.986 120.417 370.883 120.708 370.678C120.999 370.481 121.145 370.186 121.145 369.792C121.145 369.518 121.076 369.244 120.939 368.97C120.803 368.705 120.614 368.466 120.375 368.252C120.144 368.038 119.874 367.884 119.566 367.79L115.574 367.79L115.574 366.378L122.287 366.378L122.287 367.661L120.939 367.661C121.239 367.832 121.496 368.055 121.71 368.329C121.932 368.611 122.103 368.928 122.223 369.279C122.343 369.629 122.403 370.002 122.403 370.395C122.403 370.797 122.33 371.127 122.185 371.384C122.039 371.649 121.838 371.854 121.581 372C121.333 372.154 121.042 372.256 120.708 372.308C120.383 372.368 120.037 372.398 119.669 372.398L115.574 372.398ZM115.446 376.424C115.446 375.859 115.536 375.324 115.715 374.819C115.904 374.315 116.182 373.882 116.55 373.523L117.5 374.049C117.157 374.434 116.909 374.819 116.755 375.204C116.601 375.598 116.524 375.987 116.524 376.372C116.524 376.766 116.597 377.087 116.742 377.335C116.896 377.583 117.119 377.707 117.41 377.707C117.624 377.707 117.782 377.643 117.885 377.515C117.987 377.387 118.077 377.198 118.154 376.95C118.231 376.711 118.317 376.42 118.411 376.077C118.556 375.598 118.706 375.196 118.86 374.871C119.023 374.546 119.22 374.302 119.451 374.139C119.682 373.977 119.977 373.895 120.336 373.895C120.773 373.895 121.145 374.006 121.453 374.229C121.761 374.451 121.996 374.759 122.159 375.153C122.321 375.555 122.403 376.017 122.403 376.539C122.403 377.027 122.326 377.476 122.172 377.887C122.026 378.306 121.795 378.674 121.479 378.991L120.542 378.388C120.815 378.088 121.016 377.78 121.145 377.464C121.273 377.155 121.337 376.822 121.337 376.462C121.337 376.257 121.312 376.06 121.26 375.872C121.218 375.684 121.132 375.525 121.004 375.397C120.884 375.277 120.713 375.217 120.49 375.217C120.311 375.217 120.165 375.269 120.054 375.371C119.943 375.474 119.848 375.628 119.771 375.833C119.694 376.039 119.609 376.291 119.515 376.591C119.361 377.113 119.207 377.558 119.053 377.926C118.907 378.294 118.715 378.576 118.475 378.773C118.244 378.978 117.923 379.081 117.512 379.081C116.862 379.081 116.353 378.837 115.985 378.349C115.626 377.87 115.446 377.228 115.446 376.424Z" fill="#666666"/>
<defs>
<linearGradient id="paint0_linear_1742_10772" x1="73.8332" y1="-6.4062e-07" x2="75.5966" y2="489.927" gradientUnits="userSpaceOnUse">
<stop stop-color="#FBD97F"/>
<stop offset="1" stop-color="#FFEEC3"/>
</linearGradient>
<linearGradient id="paint1_linear_1742_10772" x1="80.5888" y1="-31.3188" x2="80.5888" y2="453.988" gradientUnits="userSpaceOnUse">
<stop stop-color="#FBD97F"/>
<stop offset="1" stop-color="#FFEAB4"/>
</linearGradient>
<linearGradient id="paint2_linear_1742_10772" x1="47.4189" y1="60.7248" x2="48.0463" y2="364.668" gradientUnits="userSpaceOnUse">
<stop stop-color="#FBD97F"/>
<stop offset="1" stop-color="#FFEFC4"/>
</linearGradient>
<linearGradient id="paint3_linear_1742_10772" x1="47.4189" y1="231.785" x2="48.6302" y2="654.104" gradientUnits="userSpaceOnUse">
<stop stop-color="#FBD97F"/>
<stop offset="1" stop-color="#FFEFC4"/>
</linearGradient>
<linearGradient id="paint4_linear_1742_10772" x1="57.0692" y1="1198.71" x2="57.0694" y2="452.621" gradientUnits="userSpaceOnUse">
<stop stop-color="#FBD97F"/>
<stop offset="1" stop-color="#FFEAB4"/>
</linearGradient>
</defs>
</svg>
