<svg width="1200" height="276" viewBox="0 0 1200 276" fill="none" xmlns="http://www.w3.org/2000/svg">
<path d="M550.464 49.0153L545.927 41.1577L555 41.1577L550.464 49.0153ZM811.181 205.383V29.9998H812.753V205.383H811.181ZM807.252 26.071H555.178V24.4994H807.252V26.071ZM551.25 29.9998L551.25 41.9434L549.678 41.9434L549.678 29.9998L551.25 29.9998ZM555.178 26.071C553.009 26.071 551.25 27.83 551.25 29.9998L549.678 29.9998C549.678 26.962 552.141 24.4994 555.178 24.4994V26.071ZM811.181 29.9998C811.181 27.83 809.422 26.071 807.252 26.071V24.4994C810.29 24.4994 812.753 26.962 812.753 29.9998H811.181Z" fill="#BDBDBD"/>
<path d="M0 177.419C0 160.06 14.072 145.988 31.4306 145.988H289.476C306.835 145.988 320.907 160.06 320.907 177.419V205.392H0V177.419Z" fill="url(#paint0_linear_1734_10712)"/>
<path d="M406.199 177.419C406.199 160.06 420.271 145.988 437.629 145.988H699.447C716.805 145.988 730.877 160.06 730.877 177.419V205.392H406.199V177.419Z" fill="url(#paint1_linear_1734_10712)"/>
<path d="M459.241 244.362C459.241 261.721 445.169 275.793 427.81 275.793L307.431 275.793C290.072 275.793 276 261.721 276 244.362L276 216.389L459.241 216.389L459.241 244.362Z" fill="url(#paint2_linear_1734_10712)"/>
<path d="M935.491 244.362C935.491 261.721 921.419 275.793 904.061 275.793L715.162 275.793C697.804 275.793 683.732 261.721 683.732 244.362L683.732 216.389L935.491 216.389L935.491 244.362Z" fill="url(#paint3_linear_1734_10712)"/>
<path d="M893 177.419C893 160.06 907.072 145.988 924.431 145.988L1168.33 145.988C1185.69 145.988 1199.76 160.06 1199.76 177.419L1199.76 205.392L893 205.392L893 177.419Z" fill="url(#paint4_linear_1734_10712)"/>
<path d="M640.694 15V3.64H642.486V15H640.694ZM649.376 14.568C649.227 14.6427 649.04 14.7227 648.816 14.808C648.592 14.8933 648.336 14.968 648.048 15.032C647.771 15.096 647.483 15.128 647.184 15.128C646.821 15.128 646.485 15.064 646.176 14.936C645.867 14.808 645.616 14.6053 645.424 14.328C645.243 14.04 645.152 13.672 645.152 13.224V7.992H644.048V6.632H645.152V3.88H646.912V6.632H648.736V7.992H646.912V12.664C646.933 12.952 647.024 13.1653 647.184 13.304C647.355 13.4427 647.563 13.512 647.808 13.512C648.053 13.512 648.288 13.4693 648.512 13.384C648.736 13.2987 648.901 13.2293 649.008 13.176L649.376 14.568ZM654.278 15.16C653.627 15.16 653.035 15.048 652.502 14.824C651.979 14.5893 651.526 14.2747 651.142 13.88C650.758 13.4747 650.459 13.016 650.246 12.504C650.043 11.9813 649.942 11.4267 649.942 10.84C649.942 10.0507 650.123 9.33067 650.486 8.68C650.848 8.01867 651.355 7.49067 652.006 7.096C652.656 6.69067 653.419 6.488 654.294 6.488C655.168 6.488 655.92 6.69067 656.55 7.096C657.19 7.49067 657.686 8.01333 658.038 8.664C658.39 9.31467 658.566 10.0133 658.566 10.76C658.566 10.888 658.56 11.0107 658.55 11.128C658.539 11.2347 658.528 11.3253 658.518 11.4H651.814C651.846 11.8907 651.979 12.3227 652.214 12.696C652.459 13.0587 652.768 13.3467 653.142 13.56C653.515 13.7627 653.915 13.864 654.342 13.864C654.811 13.864 655.254 13.7467 655.67 13.512C656.096 13.2773 656.384 12.968 656.534 12.584L658.038 13.016C657.856 13.4213 657.579 13.7893 657.206 14.12C656.843 14.44 656.411 14.696 655.91 14.888C655.408 15.0693 654.864 15.16 654.278 15.16ZM651.766 10.232H656.822C656.79 9.752 656.651 9.33067 656.406 8.968C656.171 8.59467 655.867 8.30667 655.494 8.104C655.131 7.89067 654.726 7.784 654.278 7.784C653.84 7.784 653.435 7.89067 653.062 8.104C652.699 8.30667 652.4 8.59467 652.166 8.968C651.931 9.33067 651.798 9.752 651.766 10.232ZM664.705 8.152C664.023 8.16267 663.415 8.31733 662.881 8.616C662.359 8.91467 661.985 9.336 661.761 9.88V15H660.001V6.632H661.633V8.504C661.921 7.928 662.3 7.46933 662.769 7.128C663.239 6.776 663.735 6.584 664.257 6.552C664.364 6.552 664.449 6.552 664.513 6.552C664.588 6.552 664.652 6.55733 664.705 6.568V8.152ZM665.362 12.552C665.362 12.0187 665.511 11.5547 665.81 11.16C666.119 10.7547 666.541 10.4453 667.074 10.232C667.607 10.008 668.226 9.896 668.93 9.896C669.303 9.896 669.682 9.92267 670.066 9.976C670.461 10.0293 670.807 10.1147 671.106 10.232V9.704C671.106 9.11733 670.93 8.65867 670.578 8.328C670.226 7.99733 669.719 7.832 669.058 7.832C668.589 7.832 668.146 7.91733 667.73 8.088C667.314 8.248 666.871 8.47733 666.402 8.776L665.81 7.592C666.365 7.21867 666.919 6.94133 667.474 6.76C668.039 6.57867 668.631 6.488 669.25 6.488C670.37 6.488 671.25 6.78667 671.89 7.384C672.541 7.97067 672.866 8.808 672.866 9.896V13.016C672.866 13.2187 672.898 13.3627 672.962 13.448C673.037 13.5333 673.159 13.5813 673.33 13.592V15C673.17 15.032 673.026 15.0533 672.898 15.064C672.77 15.0747 672.663 15.08 672.578 15.08C672.205 15.08 671.922 14.9893 671.73 14.808C671.538 14.6267 671.426 14.4133 671.394 14.168L671.346 13.688C670.983 14.1573 670.519 14.52 669.954 14.776C669.389 15.032 668.818 15.16 668.242 15.16C667.687 15.16 667.191 15.048 666.754 14.824C666.317 14.5893 665.975 14.2747 665.73 13.88C665.485 13.4853 665.362 13.0427 665.362 12.552ZM670.69 13.064C670.818 12.9253 670.919 12.7867 670.994 12.648C671.069 12.5093 671.106 12.3867 671.106 12.28V11.32C670.807 11.2027 670.493 11.1173 670.162 11.064C669.831 11 669.506 10.968 669.186 10.968C668.546 10.968 668.023 11.096 667.618 11.352C667.223 11.608 667.026 11.96 667.026 12.408C667.026 12.6533 667.09 12.888 667.218 13.112C667.357 13.336 667.549 13.5173 667.794 13.656C668.05 13.7947 668.365 13.864 668.738 13.864C669.122 13.864 669.49 13.7893 669.842 13.64C670.194 13.4907 670.477 13.2987 670.69 13.064ZM679.595 14.568C679.445 14.6427 679.259 14.7227 679.035 14.808C678.811 14.8933 678.555 14.968 678.267 15.032C677.989 15.096 677.701 15.128 677.403 15.128C677.04 15.128 676.704 15.064 676.395 14.936C676.085 14.808 675.835 14.6053 675.643 14.328C675.461 14.04 675.371 13.672 675.371 13.224V7.992H674.267V6.632H675.371V3.88H677.131V6.632H678.955V7.992H677.131V12.664C677.152 12.952 677.243 13.1653 677.403 13.304C677.573 13.4427 677.781 13.512 678.027 13.512C678.272 13.512 678.507 13.4693 678.731 13.384C678.955 13.2987 679.12 13.2293 679.227 13.176L679.595 14.568ZM680.814 15V6.632H682.574V15H680.814ZM680.814 5.256V3.32H682.574V5.256H680.814ZM688.449 15.16C687.787 15.16 687.195 15.048 686.673 14.824C686.15 14.5893 685.697 14.2693 685.313 13.864C684.939 13.4587 684.651 13 684.449 12.488C684.246 11.9653 684.145 11.4107 684.145 10.824C684.145 10.2373 684.246 9.68267 684.449 9.16C684.651 8.63733 684.939 8.17867 685.313 7.784C685.697 7.37867 686.15 7.064 686.673 6.84C687.206 6.60533 687.798 6.488 688.449 6.488C689.099 6.488 689.686 6.60533 690.209 6.84C690.742 7.064 691.195 7.37867 691.569 7.784C691.953 8.17867 692.246 8.63733 692.449 9.16C692.651 9.68267 692.753 10.2373 692.753 10.824C692.753 11.4107 692.651 11.9653 692.449 12.488C692.246 13 691.953 13.4587 691.569 13.864C691.195 14.2693 690.742 14.5893 690.209 14.824C689.686 15.048 689.099 15.16 688.449 15.16ZM685.953 10.84C685.953 11.3733 686.065 11.8533 686.289 12.28C686.513 12.7067 686.811 13.0427 687.185 13.288C687.558 13.5333 687.979 13.656 688.449 13.656C688.907 13.656 689.323 13.5333 689.697 13.288C690.081 13.032 690.385 12.6907 690.609 12.264C690.833 11.8267 690.945 11.3467 690.945 10.824C690.945 10.2907 690.833 9.81067 690.609 9.384C690.385 8.95733 690.081 8.62133 689.697 8.376C689.323 8.12 688.907 7.992 688.449 7.992C687.979 7.992 687.558 8.12 687.185 8.376C686.811 8.632 686.513 8.97333 686.289 9.4C686.065 9.816 685.953 10.296 685.953 10.84ZM701.818 15H700.058V10.312C700.058 9.53333 699.93 8.96267 699.674 8.6C699.428 8.23733 699.06 8.056 698.57 8.056C698.228 8.056 697.887 8.14133 697.546 8.312C697.215 8.48267 696.916 8.71733 696.65 9.016C696.383 9.304 696.191 9.64 696.074 10.024V15H694.314V6.632H695.914V8.312C696.127 7.93867 696.404 7.61867 696.746 7.352C697.098 7.07467 697.492 6.86133 697.93 6.712C698.367 6.56267 698.831 6.488 699.322 6.488C699.823 6.488 700.234 6.57867 700.554 6.76C700.884 6.94133 701.14 7.192 701.322 7.512C701.514 7.82133 701.642 8.184 701.706 8.6C701.78 9.00533 701.818 9.43733 701.818 9.896V15ZM706.837 15.16C706.133 15.16 705.466 15.048 704.837 14.824C704.207 14.5893 703.669 14.2427 703.221 13.784L703.877 12.6C704.357 13.0267 704.837 13.336 705.317 13.528C705.807 13.72 706.293 13.816 706.773 13.816C707.263 13.816 707.663 13.7253 707.973 13.544C708.282 13.352 708.437 13.0747 708.437 12.712C708.437 12.4453 708.357 12.248 708.197 12.12C708.037 11.992 707.802 11.88 707.493 11.784C707.194 11.688 706.831 11.5813 706.405 11.464C705.807 11.2827 705.306 11.096 704.901 10.904C704.495 10.7013 704.191 10.456 703.989 10.168C703.786 9.88 703.685 9.512 703.685 9.064C703.685 8.52 703.823 8.056 704.101 7.672C704.378 7.288 704.762 6.99467 705.253 6.792C705.754 6.58933 706.33 6.488 706.981 6.488C707.589 6.488 708.149 6.584 708.661 6.776C709.183 6.95733 709.642 7.24533 710.037 7.64L709.285 8.808C708.911 8.46667 708.527 8.216 708.133 8.056C707.749 7.896 707.333 7.816 706.885 7.816C706.629 7.816 706.383 7.848 706.149 7.912C705.914 7.96533 705.717 8.072 705.557 8.232C705.407 8.38133 705.333 8.59467 705.333 8.872C705.333 9.096 705.397 9.27733 705.525 9.416C705.653 9.55467 705.845 9.672 706.101 9.768C706.357 9.864 706.671 9.97067 707.045 10.088C707.695 10.28 708.25 10.472 708.709 10.664C709.167 10.8453 709.519 11.0853 709.765 11.384C710.021 11.672 710.149 12.072 710.149 12.584C710.149 13.3947 709.845 14.0293 709.237 14.488C708.639 14.936 707.839 15.16 706.837 15.16Z" fill="#666666"/>
<defs>
<linearGradient id="paint0_linear_1734_10712" x1="3.58716e-07" y1="184.334" x2="952.672" y2="179.026" gradientUnits="userSpaceOnUse">
<stop stop-color="#FBD97F"/>
<stop offset="1" stop-color="#FFEEC3"/>
</linearGradient>
<linearGradient id="paint1_linear_1734_10712" x1="-56.047" y1="175.847" x2="898.749" y2="175.847" gradientUnits="userSpaceOnUse">
<stop stop-color="#FBD97F"/>
<stop offset="1" stop-color="#FFEAB4"/>
</linearGradient>
<linearGradient id="paint2_linear_1734_10712" x1="113.823" y1="216.389" x2="721.293" y2="214.394" gradientUnits="userSpaceOnUse">
<stop stop-color="#FBD97F"/>
<stop offset="1" stop-color="#FFEFC4"/>
</linearGradient>
<linearGradient id="paint3_linear_1734_10712" x1="460.913" y1="216.389" x2="1295.52" y2="212.623" gradientUnits="userSpaceOnUse">
<stop stop-color="#FBD97F"/>
<stop offset="1" stop-color="#FFEFC4"/>
</linearGradient>
<linearGradient id="paint4_linear_1734_10712" x1="2366" y1="205.393" x2="893" y2="205.392" gradientUnits="userSpaceOnUse">
<stop stop-color="#FBD97F"/>
<stop offset="1" stop-color="#FFEAB4"/>
</linearGradient>
</defs>
</svg>
