<svg width="38" height="38" viewBox="0 0 38 38" fill="none" xmlns="http://www.w3.org/2000/svg">
<path d="M21.5 34C21.5 32.6193 20.3807 31.5 19 31.5C17.6193 31.5 16.5 32.6193 16.5 34L21.5 34ZM17.2322 36.7678C18.2085 37.7441 19.7915 37.7441 20.7678 36.7678L36.6777 20.8578C37.654 19.8815 37.654 18.2986 36.6776 17.3223C35.7013 16.346 34.1184 16.346 33.1421 17.3223L19 31.4645L4.85784 17.3223C3.88153 16.346 2.29862 16.346 1.32231 17.3224C0.346001 18.2987 0.346003 19.8816 1.32231 20.8579L17.2322 36.7678ZM16.5 34L16.5 35L21.5 35L21.5 34L16.5 34Z" fill="white"/>
<path d="M21.5 18C21.5 16.6193 20.3807 15.5 19 15.5C17.6193 15.5 16.5 16.6193 16.5 18L21.5 18ZM17.2322 20.7678C18.2085 21.7441 19.7915 21.7441 20.7678 20.7678L36.6777 4.85784C37.654 3.88153 37.654 2.29862 36.6776 1.32231C35.7013 0.346 34.1184 0.346002 33.1421 1.32231L19 15.4645L4.85784 1.32235C3.88153 0.346038 2.29862 0.346039 1.32231 1.32235C0.346001 2.29866 0.346003 3.88158 1.32231 4.85789L17.2322 20.7678ZM16.5 18L16.5 19L21.5 19L21.5 18L16.5 18Z" fill="white" fill-opacity="0.35"/>
</svg>
