<svg width="418" height="414" viewBox="0 0 418 414" fill="none" xmlns="http://www.w3.org/2000/svg">
<path d="M104.35 197.706C104.35 189.374 111.105 182.619 119.437 182.619H367.276C375.608 182.619 382.363 189.374 382.363 197.706V204.313C382.363 212.645 375.608 219.4 367.276 219.4H265.584H240.37H217.148H119.437C111.105 219.4 104.35 212.645 104.35 204.313V197.706Z" stroke="url(#paint0_linear_1870_2225)" stroke-opacity="0.7" stroke-width="1.57153" stroke-miterlimit="1.41421" stroke-linecap="round" stroke-dasharray="5.03 5.03"/>
<path d="M381.644 209.281L380.962 208.891L380.182 210.255L380.865 210.645L381.644 209.281ZM416.067 230.761C416.444 230.976 416.924 230.845 417.139 230.468C417.354 230.092 417.223 229.612 416.847 229.396L416.067 230.761ZM383.065 211.902C383.441 212.118 383.921 211.987 384.137 211.61C384.352 211.233 384.221 210.753 383.844 210.538L383.065 211.902ZM388.245 213.052C387.868 212.837 387.388 212.968 387.173 213.345C386.957 213.722 387.088 214.201 387.465 214.417L388.245 213.052ZM391.865 216.931C392.242 217.147 392.722 217.016 392.937 216.639C393.153 216.262 393.022 215.782 392.645 215.567L391.865 216.931ZM397.045 218.081C396.668 217.866 396.188 217.997 395.973 218.374C395.758 218.75 395.889 219.23 396.266 219.446L397.045 218.081ZM400.666 221.96C401.043 222.175 401.523 222.045 401.738 221.668C401.953 221.291 401.822 220.811 401.446 220.596L400.666 221.96ZM405.846 223.11C405.469 222.895 404.989 223.026 404.774 223.403C404.558 223.779 404.689 224.259 405.066 224.475L405.846 223.11ZM409.466 226.989C409.843 227.204 410.323 227.073 410.539 226.697C410.754 226.32 410.623 225.84 410.246 225.625L409.466 226.989ZM414.646 228.139C414.27 227.924 413.79 228.055 413.574 228.431C413.359 228.808 413.49 229.288 413.867 229.504L414.646 228.139ZM380.865 210.645L383.065 211.902L383.844 210.538L381.644 209.281L380.865 210.645ZM387.465 214.417L391.865 216.931L392.645 215.567L388.245 213.052L387.465 214.417ZM396.266 219.446L400.666 221.96L401.446 220.596L397.045 218.081L396.266 219.446ZM405.066 224.475L409.466 226.989L410.246 225.625L405.846 223.11L405.066 224.475ZM413.867 229.504L416.067 230.761L416.847 229.396L414.646 228.139L413.867 229.504Z" fill="url(#paint1_linear_1870_2225)"/>
<path d="M380.31 272.191L415.512 293.879" stroke="url(#paint2_linear_1870_2225)" stroke-width="1.57153" stroke-linecap="round"/>
<path d="M104.349 257.417C104.349 249.085 111.104 242.33 119.436 242.33H367.275C375.607 242.33 382.362 249.085 382.362 257.417V264.024C382.362 272.356 375.607 279.111 367.275 279.111H265.583H240.37H217.147H119.436C111.104 279.111 104.349 272.356 104.349 264.024V257.417Z" stroke="url(#paint3_linear_1870_2225)" stroke-opacity="0.7" stroke-width="1.57153" stroke-miterlimit="1.41421" stroke-linecap="round"/>
<path d="M381.88 390.678L413.94 411.736" stroke="url(#paint4_linear_1870_2225)" stroke-width="4.08598" stroke-linecap="round"/>
<path d="M104.348 323.418C104.348 313.697 112.228 305.816 121.949 305.816H364.759C374.48 305.816 382.361 313.697 382.361 323.418V379.977C382.361 389.698 374.48 397.579 364.759 397.579H265.582H240.369H217.146H121.949C112.228 397.579 104.348 389.698 104.348 379.977V323.418Z" stroke="url(#paint5_linear_1870_2225)" stroke-opacity="0.7" stroke-width="4.08598" stroke-miterlimit="1.41421" stroke-linecap="round"/>
<defs>
<linearGradient id="paint0_linear_1870_2225" x1="275.56" y1="169.718" x2="231.062" y2="261.766" gradientUnits="userSpaceOnUse">
<stop stop-color="white"/>
<stop offset="1" stop-color="white" stop-opacity="0.49"/>
</linearGradient>
<linearGradient id="paint1_linear_1870_2225" x1="388.024" y1="205.821" x2="428.491" y2="227.871" gradientUnits="userSpaceOnUse">
<stop stop-color="white"/>
<stop offset="1" stop-color="white" stop-opacity="0"/>
</linearGradient>
<linearGradient id="paint2_linear_1870_2225" x1="387.079" y1="267.726" x2="428.883" y2="288.854" gradientUnits="userSpaceOnUse">
<stop stop-color="white"/>
<stop offset="1" stop-color="white" stop-opacity="0"/>
</linearGradient>
<linearGradient id="paint3_linear_1870_2225" x1="275.559" y1="229.429" x2="231.061" y2="321.477" gradientUnits="userSpaceOnUse">
<stop stop-color="white"/>
<stop offset="1" stop-color="white" stop-opacity="0.49"/>
</linearGradient>
<linearGradient id="paint4_linear_1870_2225" x1="389.972" y1="386.229" x2="435.841" y2="414.04" gradientUnits="userSpaceOnUse">
<stop stop-color="#E7E7E7"/>
<stop offset="1" stop-color="white" stop-opacity="0"/>
</linearGradient>
<linearGradient id="paint5_linear_1870_2225" x1="275.558" y1="273.631" x2="136.353" y2="389.051" gradientUnits="userSpaceOnUse">
<stop stop-color="white"/>
<stop offset="1" stop-color="white" stop-opacity="0.49"/>
</linearGradient>
</defs>
</svg>
