<svg width="27" height="26" viewBox="0 0 27 26" fill="none" xmlns="http://www.w3.org/2000/svg">
<g clip-path="url(#clip0_1734_9457)">
<circle cx="13.359" cy="12.7315" r="12.4151" fill="#F9BC1A"/>
<path d="M13.5152 27.3447C14.5702 27.3447 15.4668 26.7799 16.1733 25.9954C16.8801 25.2107 17.4734 24.1282 17.9524 22.871C18.9127 20.3499 19.4871 16.9308 19.4871 13.2009C19.4871 9.47097 18.9127 6.05181 17.9524 3.53077C17.4734 2.27352 16.8801 1.19107 16.1733 0.40635C15.4668 -0.378149 14.5702 -0.942919 13.5152 -0.942919C12.4603 -0.942919 11.5637 -0.378149 10.8571 0.40635C10.1503 1.19107 9.55707 2.27352 9.07811 3.53077C8.11772 6.05181 7.54341 9.47097 7.54341 13.2009C7.54341 16.9308 8.11772 20.3499 9.07811 22.871C9.55707 24.1282 10.1503 25.2107 10.8571 25.9954C11.5637 26.7799 12.4603 27.3447 13.5152 27.3447Z" stroke="#FFDE87" stroke-width="1.88584"/>
<line x1="26.0874" y1="8.64695" x2="-3.82431e-05" y2="8.64694" stroke="#FFDE87" stroke-width="2.20015"/>
<line x1="26.0874" y1="17.1313" x2="-3.82431e-05" y2="17.1313" stroke="#FFDE87" stroke-width="2.20015"/>
</g>
<defs>
<clipPath id="clip0_1734_9457">
<rect width="27" height="26" fill="white"/>
</clipPath>
</defs>
</svg>
