<svg width="584" height="108" viewBox="0 0 584 108" fill="none" xmlns="http://www.w3.org/2000/svg">
<path d="M380.315 10.8446C379.448 10.8093 378.773 10.0777 378.809 9.21044C378.844 8.34323 379.576 7.66882 380.443 7.7041L380.315 10.8446ZM423.124 99.166C423.124 94.537 426.876 90.7845 431.505 90.7845C436.134 90.7845 439.887 94.537 439.887 99.166C439.887 103.795 436.134 107.548 431.505 107.548C426.876 107.548 423.124 103.795 423.124 99.166ZM418.935 37.1659L420.246 36.2986L418.935 37.1659ZM387.189 9.0937C388.018 9.35215 388.48 10.2333 388.222 11.0619C387.963 11.8905 387.082 12.3526 386.253 12.0942L387.189 9.0937ZM396.372 16.7343C395.63 16.284 395.393 15.3175 395.843 14.5755C396.294 13.8335 397.26 13.597 398.002 14.0473L396.372 16.7343ZM408.531 22.1598C409.16 22.7575 409.186 23.7522 408.588 24.3815C407.991 25.0109 406.996 25.0365 406.367 24.4389L408.531 22.1598ZM413.911 32.8379C413.381 32.1511 413.507 31.1642 414.194 30.6334C414.881 30.1027 415.867 30.2292 416.398 30.916L413.911 32.8379ZM424.43 43.9598C424.787 44.7509 424.435 45.6817 423.644 46.0388C422.853 46.3958 421.923 46.044 421.565 45.2529L424.43 43.9598ZM426.259 59.27C426.054 58.4267 426.571 57.5768 427.415 57.3717C428.258 57.1667 429.108 57.6841 429.313 58.5275L426.259 59.27ZM432.199 75.4612C432.292 76.3241 431.669 77.0993 430.806 77.1926C429.943 77.286 429.168 76.6622 429.074 75.7993L432.199 75.4612ZM430.009 90.719C429.993 89.8512 430.683 89.1344 431.551 89.1179C432.419 89.1015 433.135 89.7916 433.152 90.6594L430.009 90.719ZM380.379 9.27434C380.443 7.7041 380.443 7.70412 380.443 7.70413C380.444 7.70414 380.444 7.70415 380.444 7.70416C380.445 7.70418 380.445 7.70421 380.446 7.70423C380.447 7.70428 380.448 7.70434 380.45 7.70441C380.453 7.70454 380.456 7.7047 380.461 7.7049C380.469 7.70529 380.48 7.70583 380.493 7.70654C380.519 7.70796 380.554 7.71007 380.599 7.71313C380.688 7.71924 380.813 7.72913 380.973 7.74483C381.293 7.77622 381.751 7.83086 382.333 7.92497C383.497 8.11318 385.156 8.45939 387.189 9.0937L386.253 12.0942C384.373 11.5077 382.861 11.1941 381.832 11.0277C381.317 10.9445 380.924 10.8982 380.666 10.8729C380.537 10.8602 380.442 10.8529 380.383 10.8488C380.354 10.8468 380.333 10.8456 380.322 10.8449C380.316 10.8446 380.312 10.8445 380.311 10.8444C380.311 10.8444 380.311 10.8444 380.311 10.8444C380.312 10.8444 380.312 10.8445 380.313 10.8445C380.313 10.8445 380.313 10.8445 380.314 10.8445C380.314 10.8445 380.314 10.8445 380.314 10.8445C380.315 10.8446 380.315 10.8446 380.379 9.27434ZM398.002 14.0473C401.31 16.0547 404.881 18.6933 408.531 22.1598L406.367 24.4389C402.883 21.1301 399.491 18.6275 396.372 16.7343L398.002 14.0473ZM416.398 30.916C417.69 32.5879 418.975 34.3793 420.246 36.2986L417.625 38.0333C416.396 36.177 415.156 34.4482 413.911 32.8379L416.398 30.916ZM420.246 36.2986C421.828 38.6896 423.215 41.267 424.43 43.9598L421.565 45.2529C420.408 42.6897 419.101 40.2635 417.625 38.0333L420.246 36.2986ZM429.313 58.5275C430.715 64.2952 431.62 70.1104 432.199 75.4612L429.074 75.7993C428.506 70.5492 427.621 64.8739 426.259 59.27L429.313 58.5275ZM433.152 90.6594C433.202 93.2824 433.183 95.4228 433.151 96.9106C433.135 97.6545 433.116 98.2355 433.101 98.6324C433.094 98.8308 433.087 98.9832 433.082 99.0869C433.08 99.1387 433.078 99.1784 433.077 99.2056C433.076 99.2192 433.075 99.2297 433.075 99.237C433.075 99.2406 433.075 99.2435 433.075 99.2456C433.075 99.2466 433.075 99.2474 433.075 99.2481C433.075 99.2484 433.074 99.2487 433.074 99.2489C433.074 99.249 433.074 99.2491 433.074 99.2492C433.074 99.2493 433.074 99.2494 431.505 99.166C429.936 99.0827 429.936 99.0827 429.936 99.0828C429.936 99.0828 429.936 99.0828 429.936 99.0829C429.936 99.0829 429.936 99.0828 429.936 99.0828C429.936 99.0826 429.936 99.0822 429.936 99.0817C429.936 99.0805 429.936 99.0786 429.936 99.0759C429.936 99.0705 429.937 99.0619 429.937 99.0502C429.939 99.0269 429.94 98.9911 429.943 98.9431C429.947 98.8473 429.953 98.703 429.96 98.5129C429.975 98.1326 429.993 97.5692 430.009 96.8438C430.039 95.3929 430.058 93.2949 430.009 90.719L433.152 90.6594Z" fill="white" fill-opacity="0.85"/>
<path d="M1.63818 7.70191C0.77025 7.70191 0.0666515 8.4055 0.0666516 9.27344C0.0666517 10.1414 0.770251 10.845 1.63818 10.845L1.63818 7.70191ZM567.18 9.27339C567.18 13.9024 570.933 17.6549 575.562 17.6549C580.191 17.6549 583.943 13.9024 583.943 9.27339C583.943 4.64441 580.191 0.891883 575.562 0.891883C570.933 0.891884 567.18 4.64441 567.18 9.27339ZM7.87648 10.845C8.74442 10.845 9.44802 10.1414 9.44802 9.27344C9.44802 8.4055 8.74442 7.7019 7.87648 7.7019L7.87648 10.845ZM20.3531 7.7019C19.4852 7.7019 18.7816 8.4055 18.7816 9.27344C18.7816 10.1414 19.4852 10.845 20.3531 10.845L20.3531 7.7019ZM32.8297 10.845C33.6976 10.845 34.4012 10.1414 34.4012 9.27343C34.4012 8.4055 33.6976 7.7019 32.8297 7.7019L32.8297 10.845ZM45.3063 7.7019C44.4384 7.7019 43.7348 8.4055 43.7348 9.27343C43.7348 10.1414 44.4384 10.845 45.3063 10.845L45.3063 7.7019ZM57.7829 10.845C58.6508 10.845 59.3544 10.1414 59.3544 9.27343C59.3544 8.4055 58.6508 7.7019 57.7829 7.7019L57.7829 10.845ZM70.2595 7.7019C69.3916 7.7019 68.688 8.4055 68.688 9.27343C68.688 10.1414 69.3916 10.845 70.2595 10.845L70.2595 7.7019ZM82.7361 10.845C83.604 10.845 84.3076 10.1414 84.3076 9.27343C84.3076 8.4055 83.604 7.7019 82.7361 7.7019L82.7361 10.845ZM95.2127 7.7019C94.3448 7.7019 93.6412 8.4055 93.6412 9.27343C93.6412 10.1414 94.3448 10.845 95.2127 10.845L95.2127 7.7019ZM107.689 10.845C108.557 10.845 109.261 10.1414 109.261 9.27343C109.261 8.40549 108.557 7.7019 107.689 7.7019L107.689 10.845ZM120.166 7.7019C119.298 7.7019 118.594 8.40549 118.594 9.27343C118.594 10.1414 119.298 10.845 120.166 10.845L120.166 7.7019ZM132.642 10.845C133.51 10.845 134.214 10.1414 134.214 9.27343C134.214 8.40549 133.51 7.70189 132.642 7.70189L132.642 10.845ZM145.119 7.70189C144.251 7.70189 143.548 8.40549 143.548 9.27343C143.548 10.1414 144.251 10.845 145.119 10.845L145.119 7.70189ZM157.596 10.845C158.464 10.845 159.167 10.1414 159.167 9.27342C159.167 8.40549 158.464 7.70189 157.596 7.70189L157.596 10.845ZM170.072 7.70189C169.204 7.70189 168.501 8.40549 168.501 9.27342C168.501 10.1414 169.204 10.845 170.072 10.845L170.072 7.70189ZM182.549 10.845C183.417 10.845 184.12 10.1414 184.12 9.27342C184.12 8.40549 183.417 7.70189 182.549 7.70189L182.549 10.845ZM195.026 7.70189C194.158 7.70189 193.454 8.40549 193.454 9.27342C193.454 10.1414 194.158 10.845 195.026 10.845L195.026 7.70189ZM207.502 10.845C208.37 10.845 209.074 10.1414 209.074 9.27342C209.074 8.40549 208.37 7.70189 207.502 7.70189L207.502 10.845ZM219.979 7.70189C219.111 7.70189 218.407 8.40549 218.407 9.27342C218.407 10.1414 219.111 10.845 219.979 10.845L219.979 7.70189ZM232.455 10.8449C233.323 10.8449 234.027 10.1414 234.027 9.27342C234.027 8.40548 233.323 7.70189 232.455 7.70189L232.455 10.8449ZM244.932 7.70188C244.064 7.70188 243.36 8.40548 243.36 9.27342C243.36 10.1413 244.064 10.8449 244.932 10.8449L244.932 7.70188ZM257.409 10.8449C258.277 10.8449 258.98 10.1413 258.98 9.27342C258.98 8.40548 258.277 7.70188 257.409 7.70188L257.409 10.8449ZM269.885 7.70188C269.017 7.70188 268.314 8.40548 268.314 9.27341C268.314 10.1413 269.017 10.8449 269.885 10.8449L269.885 7.70188ZM282.362 10.8449C283.23 10.8449 283.933 10.1413 283.933 9.27341C283.933 8.40548 283.23 7.70188 282.362 7.70188L282.362 10.8449ZM294.838 7.70188C293.97 7.70188 293.267 8.40548 293.267 9.27341C293.267 10.1413 293.97 10.8449 294.838 10.8449L294.838 7.70188ZM307.315 10.8449C308.183 10.8449 308.886 10.1413 308.886 9.27341C308.886 8.40548 308.183 7.70188 307.315 7.70188L307.315 10.8449ZM319.792 7.70188C318.924 7.70188 318.22 8.40548 318.22 9.27341C318.22 10.1413 318.924 10.8449 319.792 10.8449L319.792 7.70188ZM332.268 10.8449C333.136 10.8449 333.84 10.1413 333.84 9.27341C333.84 8.40548 333.136 7.70188 332.268 7.70188L332.268 10.8449ZM344.745 7.70188C343.877 7.70188 343.173 8.40547 343.173 9.27341C343.173 10.1413 343.877 10.8449 344.745 10.8449L344.745 7.70188ZM357.221 10.8449C358.089 10.8449 358.793 10.1413 358.793 9.27341C358.793 8.40547 358.089 7.70187 357.221 7.70187L357.221 10.8449ZM369.698 7.70187C368.83 7.70187 368.126 8.40547 368.126 9.27341C368.126 10.1413 368.83 10.8449 369.698 10.8449L369.698 7.70187ZM382.175 10.8449C383.042 10.8449 383.746 10.1413 383.746 9.2734C383.746 8.40547 383.042 7.70187 382.175 7.70187L382.175 10.8449ZM394.651 7.70187C393.783 7.70187 393.08 8.40547 393.08 9.2734C393.08 10.1413 393.783 10.8449 394.651 10.8449L394.651 7.70187ZM407.128 10.8449C407.996 10.8449 408.699 10.1413 408.699 9.2734C408.699 8.40547 407.996 7.70187 407.128 7.70187L407.128 10.8449ZM419.604 7.70187C418.736 7.70187 418.033 8.40547 418.033 9.2734C418.033 10.1413 418.736 10.8449 419.604 10.8449L419.604 7.70187ZM432.081 10.8449C432.949 10.8449 433.652 10.1413 433.652 9.2734C433.652 8.40547 432.949 7.70187 432.081 7.70187L432.081 10.8449ZM444.557 7.70187C443.69 7.70187 442.986 8.40547 442.986 9.2734C442.986 10.1413 443.69 10.8449 444.557 10.8449L444.557 7.70187ZM457.034 10.8449C457.902 10.8449 458.606 10.1413 458.606 9.2734C458.606 8.40546 457.902 7.70187 457.034 7.70187L457.034 10.8449ZM469.511 7.70186C468.643 7.70186 467.939 8.40546 467.939 9.2734C467.939 10.1413 468.643 10.8449 469.511 10.8449L469.511 7.70186ZM481.987 10.8449C482.855 10.8449 483.559 10.1413 483.559 9.2734C483.559 8.40546 482.855 7.70186 481.987 7.70186L481.987 10.8449ZM494.464 7.70186C493.596 7.70186 492.892 8.40546 492.892 9.27339C492.892 10.1413 493.596 10.8449 494.464 10.8449L494.464 7.70186ZM506.94 10.8449C507.808 10.8449 508.512 10.1413 508.512 9.27339C508.512 8.40546 507.808 7.70186 506.94 7.70186L506.94 10.8449ZM519.417 7.70186C518.549 7.70186 517.846 8.40546 517.846 9.27339C517.846 10.1413 518.549 10.8449 519.417 10.8449L519.417 7.70186ZM531.894 10.8449C532.762 10.8449 533.465 10.1413 533.465 9.27339C533.465 8.40546 532.762 7.70186 531.894 7.70186L531.894 10.8449ZM544.37 7.70186C543.502 7.70186 542.799 8.40546 542.799 9.27339C542.799 10.1413 543.502 10.8449 544.37 10.8449L544.37 7.70186ZM556.847 10.8449C557.715 10.8449 558.418 10.1413 558.418 9.27339C558.418 8.40546 557.715 7.70186 556.847 7.70186L556.847 10.8449ZM569.324 7.70186C568.456 7.70186 567.752 8.40545 567.752 9.27339C567.752 10.1413 568.456 10.8449 569.324 10.8449L569.324 7.70186ZM1.63818 10.845L7.87648 10.845L7.87648 7.7019L1.63818 7.70191L1.63818 10.845ZM20.3531 10.845L32.8297 10.845L32.8297 7.7019L20.3531 7.7019L20.3531 10.845ZM45.3063 10.845L57.7829 10.845L57.7829 7.7019L45.3063 7.7019L45.3063 10.845ZM70.2595 10.845L82.7361 10.845L82.7361 7.7019L70.2595 7.7019L70.2595 10.845ZM95.2127 10.845L107.689 10.845L107.689 7.7019L95.2127 7.7019L95.2127 10.845ZM120.166 10.845L132.642 10.845L132.642 7.70189L120.166 7.7019L120.166 10.845ZM145.119 10.845L157.596 10.845L157.596 7.70189L145.119 7.70189L145.119 10.845ZM170.072 10.845L182.549 10.845L182.549 7.70189L170.072 7.70189L170.072 10.845ZM195.026 10.845L207.502 10.845L207.502 7.70189L195.026 7.70189L195.026 10.845ZM219.979 10.845L232.455 10.8449L232.455 7.70189L219.979 7.70189L219.979 10.845ZM244.932 10.8449L257.409 10.8449L257.409 7.70188L244.932 7.70188L244.932 10.8449ZM269.885 10.8449L282.362 10.8449L282.362 7.70188L269.885 7.70188L269.885 10.8449ZM294.838 10.8449L307.315 10.8449L307.315 7.70188L294.838 7.70188L294.838 10.8449ZM319.792 10.8449L332.268 10.8449L332.268 7.70188L319.792 7.70188L319.792 10.8449ZM344.745 10.8449L357.221 10.8449L357.221 7.70187L344.745 7.70188L344.745 10.8449ZM369.698 10.8449L382.175 10.8449L382.175 7.70187L369.698 7.70187L369.698 10.8449ZM394.651 10.8449L407.128 10.8449L407.128 7.70187L394.651 7.70187L394.651 10.8449ZM419.604 10.8449L432.081 10.8449L432.081 7.70187L419.604 7.70187L419.604 10.8449ZM444.557 10.8449L457.034 10.8449L457.034 7.70187L444.557 7.70187L444.557 10.8449ZM469.511 10.8449L481.987 10.8449L481.987 7.70186L469.511 7.70186L469.511 10.8449ZM494.464 10.8449L506.94 10.8449L506.94 7.70186L494.464 7.70186L494.464 10.8449ZM519.417 10.8449L531.894 10.8449L531.894 7.70186L519.417 7.70186L519.417 10.8449ZM544.37 10.8449L556.847 10.8449L556.847 7.70186L544.37 7.70186L544.37 10.8449ZM569.324 10.8449L575.562 10.8449L575.562 7.70186L569.324 7.70186L569.324 10.8449Z" fill="white" fill-opacity="0.85"/>
</svg>
