<svg width="149" height="18" viewBox="0 0 149 18" fill="none" xmlns="http://www.w3.org/2000/svg">
<path d="M1.63463 7.45582C0.766697 7.45778 0.064692 8.16297 0.0666556 9.0309C0.0686193 9.89883 0.773808 10.6008 1.64174 10.5989L1.63463 7.45582ZM132.18 8.732C132.191 13.361 135.952 17.105 140.581 17.0945C145.21 17.084 148.954 13.323 148.943 8.69407C148.933 4.06511 145.172 0.321082 140.543 0.331555C135.914 0.342027 132.17 4.10303 132.18 8.732ZM7.43022 10.5858C8.29815 10.5838 9.00015 9.87862 8.99819 9.01069C8.99623 8.14276 8.29104 7.44076 7.42311 7.44272L7.43022 10.5858ZM19.0001 7.41653C18.1321 7.41849 17.4301 8.12368 17.4321 8.99161C17.4341 9.85954 18.1392 10.5615 19.0072 10.5596L19.0001 7.41653ZM30.5841 10.5334C31.4521 10.5314 32.1541 9.82624 32.1521 8.95831C32.1501 8.09038 31.4449 7.38837 30.577 7.39034L30.5841 10.5334ZM42.154 7.36414C41.286 7.36611 40.584 8.0713 40.586 8.93923C40.588 9.80716 41.2932 10.5092 42.1611 10.5072L42.154 7.36414ZM53.738 10.481C54.606 10.479 55.308 9.77385 55.306 8.90592C55.304 8.03799 54.5989 7.33599 53.7309 7.33795L53.738 10.481ZM65.3079 7.31176C64.4399 7.31372 63.7379 8.01891 63.7399 8.88684C63.7419 9.75477 64.4471 10.4568 65.315 10.4548L65.3079 7.31176ZM76.8919 10.4286C77.7599 10.4267 78.4619 9.72147 78.4599 8.85354C78.458 7.98561 77.7528 7.2836 76.8848 7.28557L76.8919 10.4286ZM88.4618 7.25937C87.5939 7.26134 86.8919 7.96653 86.8938 8.83446C86.8958 9.70239 87.601 10.4044 88.4689 10.4024L88.4618 7.25937ZM100.046 10.3762C100.914 10.3743 101.616 9.66909 101.614 8.80115C101.612 7.93322 100.907 7.23122 100.039 7.23318L100.046 10.3762ZM111.616 7.20699C110.748 7.20895 110.046 7.91414 110.048 8.78207C110.05 9.65 110.755 10.352 111.623 10.35L111.616 7.20699ZM123.2 10.3239C124.068 10.3219 124.77 9.6167 124.768 8.74877C124.766 7.88084 124.061 7.17883 123.193 7.1808L123.2 10.3239ZM134.77 7.15461C133.902 7.15657 133.2 7.86176 133.202 8.72969C133.204 9.59762 133.909 10.2996 134.777 10.2977L134.77 7.15461ZM1.64174 10.5989L7.43022 10.5858L7.42311 7.44272L1.63463 7.45582L1.64174 10.5989ZM19.0072 10.5596L30.5841 10.5334L30.577 7.39034L19.0001 7.41653L19.0072 10.5596ZM42.1611 10.5072L53.738 10.481L53.7309 7.33795L42.154 7.36414L42.1611 10.5072ZM65.315 10.4548L76.8919 10.4286L76.8848 7.28557L65.3079 7.31176L65.315 10.4548ZM88.4689 10.4024L100.046 10.3762L100.039 7.23318L88.4618 7.25937L88.4689 10.4024ZM111.623 10.35L123.2 10.3239L123.193 7.1808L111.616 7.20699L111.623 10.35ZM134.777 10.2977L140.565 10.2846L140.558 7.14151L134.77 7.15461L134.777 10.2977Z" fill="white" fill-opacity="0.85"/>
</svg>
