<svg width="27" height="26" viewBox="0 0 27 26" fill="none" xmlns="http://www.w3.org/2000/svg">
<path d="M18.2866 15.7777C18.2866 13.8682 19.8345 12.3203 21.744 12.3203H23.3168C25.2262 12.3203 26.7742 13.8682 26.7742 15.7777V20.8081C26.7742 21.676 26.0706 22.3796 25.2026 22.3796H19.8582C18.9902 22.3796 18.2866 21.676 18.2866 20.8081V15.7777Z" fill="#F9BC1A"/>
<path d="M1 15.7777C1 13.8682 2.54792 12.3203 4.45737 12.3203H6.03017C7.93963 12.3203 9.48755 13.8682 9.48755 15.7777V20.8081C9.48755 21.676 8.78395 22.3796 7.91601 22.3796H2.57153C1.7036 22.3796 1 21.676 1 20.8081V15.7777Z" fill="#F9BC1A"/>
<path d="M11.3709 9.16646C8.94073 9.16646 6.97065 11.1365 6.97065 13.5667V20.7976C6.97065 22.1863 8.09641 23.3121 9.48511 23.3121H17.9731C19.3618 23.3121 20.4876 22.1863 20.4876 20.7976V13.5667C20.4876 11.1365 18.5175 9.16646 16.0873 9.16646H11.3709Z" fill="#F9BC1A" stroke="#FFDE87" stroke-width="1.88584"/>
<circle cx="13.5729" cy="5.08705" r="4.08705" fill="#F9BC1A"/>
<ellipse cx="22.6876" cy="8.37847" rx="3.14318" ry="3.30034" fill="#F9BC1A"/>
<ellipse cx="4.77209" cy="8.37847" rx="3.14318" ry="3.30034" fill="#F9BC1A"/>
</svg>
