<svg width="36" height="29" viewBox="0 0 36 29" fill="none" xmlns="http://www.w3.org/2000/svg">
<path d="M8.80273 10.2179C8.80273 9.336 9.51764 8.62109 10.3995 8.62109H25.0953C25.9772 8.62109 26.6921 9.336 26.6921 10.2179V17.4656C26.6921 18.3475 25.9772 19.0624 25.0953 19.0624H13.8892C13.5636 19.0624 13.2458 19.1619 12.9783 19.3477L10.3074 21.2028C9.67205 21.6441 8.80273 21.1895 8.80273 20.4159V19.0624V10.2179Z" fill="#FBD266"/>
<path d="M17.3025 0.430909C17.5502 0.190783 17.9438 0.190783 18.1916 0.430909L22.6399 4.74271C23.0519 5.14211 22.7692 5.84005 22.1953 5.84005H13.2987C12.7249 5.84005 12.4421 5.14211 12.8542 4.74271L17.3025 0.430909Z" fill="#FBD266"/>
<path d="M0.458831 15.0508C0.206212 14.8008 0.206212 14.3927 0.45883 14.1427L4.87516 9.77275C5.2785 9.37365 5.96313 9.65935 5.96313 10.2268L5.96313 18.9668C5.96313 19.5342 5.2785 19.8199 4.87516 19.4208L0.458831 15.0508Z" fill="#FBD266"/>
<path d="M18.1912 28.491C17.9434 28.7311 17.5498 28.7311 17.3021 28.491L12.8538 24.1792C12.4417 23.7798 12.7245 23.0818 13.2983 23.0818L22.1949 23.0818C22.7688 23.0818 23.0515 23.7798 22.6395 24.1792L18.1912 28.491Z" fill="#FBD266"/>
<path d="M35.32 14.1445C35.5726 14.3945 35.5726 14.8026 35.32 15.0526L30.9036 19.4226C30.5003 19.8217 29.8157 19.536 29.8157 18.9685L29.8157 10.2285C29.8157 9.66114 30.5003 9.37543 30.9036 9.77453L35.32 14.1445Z" fill="#FBD266"/>
</svg>
