<svg width="25" height="24" viewBox="0 0 25 24" fill="none" xmlns="http://www.w3.org/2000/svg">
<ellipse cx="12.2283" cy="11.9759" rx="12.2283" ry="11.9759" fill="#E1E1E1"/>
<path d="M7.74733 9.09841C7.69623 8.76628 7.67069 8.42776 7.67069 8.08286C7.68346 7.73795 7.74733 7.39943 7.8623 7.0673C8.00282 6.63297 8.23276 6.24974 8.55212 5.91761C8.87147 5.58547 9.23554 5.3236 9.64432 5.13198C10.0786 4.92759 10.5194 4.78708 10.9665 4.71043C11.4263 4.62101 11.8734 4.60185 12.3078 4.65295C12.7549 4.70404 13.1828 4.81901 13.5916 4.99785C14.0131 5.16392 14.4091 5.40663 14.7796 5.72599C15.1756 6.0709 15.4694 6.47329 15.661 6.93317C15.8654 7.38027 15.974 7.84653 15.9868 8.33196C16.0123 8.81738 15.9548 9.3028 15.8143 9.78823C15.6866 10.2609 15.4886 10.7016 15.2203 11.1104C15.2203 11.1104 15.2139 11.1231 15.2012 11.1487C14.984 11.4425 14.7349 11.7108 14.4539 11.9535C14.1728 12.1834 13.9109 12.4325 13.6682 12.7008C13.3872 12.9946 13.2211 13.2948 13.17 13.6014C13.1189 13.8952 13.0678 14.2273 13.0167 14.5978C12.9784 14.9554 12.8826 15.2684 12.7293 15.5367C12.5888 15.7922 12.3205 15.9135 11.9245 15.9007C11.6563 15.888 11.4519 15.8049 11.3114 15.6516C11.1836 15.4856 11.0878 15.294 11.0239 15.0768C10.9729 14.8469 10.9537 14.6105 10.9665 14.3678C10.9792 14.1123 10.9984 13.8888 11.0239 13.6972C11.1006 13.2501 11.2411 12.8285 11.4455 12.4325C11.6499 12.0237 11.899 11.6405 12.1928 11.2828C12.3589 11.0912 12.5249 10.9188 12.691 10.7655C12.8571 10.5994 13.0104 10.4269 13.1509 10.2481C13.2914 10.0693 13.4127 9.87765 13.5149 9.67326C13.6171 9.46887 13.6874 9.23255 13.7257 8.96428C13.764 8.72157 13.7449 8.47886 13.6682 8.23615C13.5916 7.98066 13.4766 7.75711 13.3233 7.56549C13.17 7.3611 12.9848 7.19504 12.7676 7.0673C12.5505 6.92678 12.3142 6.85013 12.0587 6.83736C11.8287 6.82458 11.586 6.85652 11.3305 6.93317C11.075 6.99704 10.8387 7.10562 10.6216 7.25891C10.4044 7.39943 10.2256 7.57188 10.085 7.77627C9.95729 7.98066 9.89981 8.2106 9.91258 8.46609C9.92536 8.61938 9.9509 8.77906 9.98923 8.94512C10.0403 9.09841 10.0723 9.25171 10.085 9.405C10.1106 9.54552 10.1042 9.68603 10.0659 9.82655C10.0403 9.96707 9.95729 10.1012 9.81677 10.2289C9.58684 10.4461 9.3569 10.5547 9.12696 10.5547C8.89702 10.5419 8.68625 10.4653 8.49463 10.3248C8.30302 10.1842 8.13695 10.0054 7.99643 9.78823C7.86869 9.55829 7.78566 9.32835 7.74733 9.09841ZM13.2658 18.66C13.2658 19.0305 13.1253 19.3626 12.8443 19.6564C12.576 19.9374 12.2631 20.078 11.9054 20.078C11.5605 20.078 11.2539 19.9374 10.9856 19.6564C10.7174 19.3498 10.5832 19.0177 10.5832 18.66C10.5832 18.264 10.7174 17.9319 10.9856 17.6636C11.2539 17.3698 11.5605 17.2229 11.9054 17.2229C12.2631 17.2229 12.576 17.3698 12.8443 17.6636C13.1253 17.9446 13.2658 18.2768 13.2658 18.66Z" fill="#5C8AFF"/>
</svg>
