<svg width="32" height="29" viewBox="0 0 32 29" fill="none" xmlns="http://www.w3.org/2000/svg">
<path d="M7.15363 5.8955L9.6574 5.91786C9.91075 5.87315 10.097 5.88805 10.2163 5.96257C10.3504 6.03708 10.5218 6.15631 10.7304 6.32025C10.9391 6.48419 11.0434 6.71519 11.0434 7.01326C11.0434 7.16229 11.0136 7.31878 10.954 7.48271C10.9093 7.64665 10.8422 7.76588 10.7528 7.8404C10.6336 7.95962 10.5069 8.04904 10.3728 8.10866C10.2386 8.15337 10.1045 8.19062 9.97037 8.22043C9.85114 8.23533 9.74682 8.24279 9.6574 8.24279C9.58288 8.24279 9.53817 8.24279 9.52327 8.24279H7.15363V10.836C7.19834 11.0893 7.18343 11.3501 7.10892 11.6184C7.0344 11.8718 6.91517 12.1028 6.75123 12.3114C6.5873 12.5201 6.3563 12.6244 6.05823 12.6244C5.90919 12.6244 5.71545 12.602 5.477 12.5573C5.23854 12.4977 5.08206 12.4232 5.00754 12.3338C4.88831 12.2145 4.79889 12.0655 4.73928 11.8867C4.69457 11.6929 4.65731 11.5066 4.6275 11.3278C4.6126 11.1489 4.60515 10.9999 4.60515 10.8807C4.60515 10.7466 4.60515 10.672 4.60515 10.6571L4.58279 8.26514H2.70497C2.54103 8.26514 2.39945 8.27259 2.28022 8.2875C2.17589 8.2875 2.07157 8.28004 1.96725 8.26514C1.87783 8.23533 1.78841 8.19808 1.69899 8.15337C1.60957 8.10866 1.50524 8.03414 1.38602 7.92981C1.07304 7.70626 0.916558 7.43055 0.916558 7.10268C0.916558 6.89403 0.976172 6.69283 1.0954 6.49909C1.22953 6.29044 1.41582 6.14886 1.65428 6.07434C1.80331 6.02963 1.92254 5.99237 2.01196 5.96257C2.11628 5.93276 2.2057 5.91041 2.28022 5.8955C2.36964 5.8806 2.45906 5.87315 2.54848 5.87315C2.6528 5.85824 2.78693 5.85079 2.95087 5.85079L4.58279 5.87315V4.15181C4.56789 3.80903 4.56789 3.4588 4.58279 3.10112C4.5977 2.72853 4.70947 2.41556 4.91812 2.1622C5.03735 1.99827 5.20128 1.87159 5.40993 1.78217C5.61858 1.69275 5.80487 1.64804 5.96881 1.64804C6.17745 1.64804 6.37865 1.72255 6.57239 1.87159C6.78104 2.00572 6.92262 2.19201 6.99714 2.43046C7.10146 2.74344 7.14617 3.06386 7.13127 3.39173C7.13127 3.71961 7.13872 4.05493 7.15363 4.39771V5.8955ZM19.3354 5.8955L21.8392 5.91786C22.0925 5.87315 22.2788 5.88805 22.398 5.96257C22.5322 6.03708 22.7036 6.15631 22.9122 6.32025C23.1209 6.48419 23.2252 6.71519 23.2252 7.01326C23.2252 7.16229 23.1954 7.31878 23.1358 7.48271C23.0911 7.64665 23.024 7.76588 22.9346 7.8404C22.8153 7.95962 22.6887 8.04904 22.5545 8.10866C22.4204 8.15337 22.2863 8.19062 22.1521 8.22043C22.0329 8.23533 21.9286 8.24279 21.8392 8.24279C21.7647 8.24279 21.7199 8.24279 21.705 8.24279H19.3354V10.836C19.3801 11.0893 19.3652 11.3501 19.2907 11.6184C19.2162 11.8718 19.0969 12.1028 18.933 12.3114C18.7691 12.5201 18.5381 12.6244 18.24 12.6244C18.091 12.6244 17.8972 12.602 17.6588 12.5573C17.4203 12.4977 17.2638 12.4232 17.1893 12.3338C17.0701 12.2145 16.9807 12.0655 16.9211 11.8867C16.8763 11.6929 16.8391 11.5066 16.8093 11.3278C16.7944 11.1489 16.7869 10.9999 16.7869 10.8807C16.7869 10.7466 16.7869 10.672 16.7869 10.6571L16.7646 8.26514H14.8867C14.7228 8.26514 14.5812 8.27259 14.462 8.2875C14.3577 8.2875 14.2533 8.28004 14.149 8.26514C14.0596 8.23533 13.9702 8.19808 13.8808 8.15337C13.7913 8.10866 13.687 8.03414 13.5678 7.92981C13.2548 7.70626 13.0983 7.43055 13.0983 7.10268C13.0983 6.89403 13.1579 6.69283 13.2772 6.49909C13.4113 6.29044 13.5976 6.14886 13.836 6.07434C13.9851 6.02963 14.1043 5.99237 14.1937 5.96257C14.2981 5.93276 14.3875 5.91041 14.462 5.8955C14.5514 5.8806 14.6408 5.87315 14.7303 5.87315C14.8346 5.85824 14.9687 5.85079 15.1326 5.85079L16.7646 5.87315V4.15181C16.7497 3.80903 16.7497 3.4588 16.7646 3.10112C16.7795 2.72853 16.8912 2.41556 17.0999 2.1622C17.2191 1.99827 17.3831 1.87159 17.5917 1.78217C17.8004 1.69275 17.9866 1.64804 18.1506 1.64804C18.3592 1.64804 18.5604 1.72255 18.7542 1.87159C18.9628 2.00572 19.1044 2.19201 19.1789 2.43046C19.2832 2.74344 19.3279 3.06386 19.313 3.39173C19.313 3.71961 19.3205 4.05493 19.3354 4.39771V5.8955ZM7.15363 18.8955L9.6574 18.9179C9.91075 18.8731 10.097 18.8881 10.2163 18.9626C10.3504 19.0371 10.5218 19.1563 10.7304 19.3202C10.9391 19.4842 11.0434 19.7152 11.0434 20.0133C11.0434 20.1623 11.0136 20.3188 10.954 20.4827C10.9093 20.6467 10.8422 20.7659 10.7528 20.8404C10.6336 20.9596 10.5069 21.049 10.3728 21.1087C10.2386 21.1534 10.1045 21.1906 9.97037 21.2204C9.85114 21.2353 9.74682 21.2428 9.6574 21.2428C9.58288 21.2428 9.53817 21.2428 9.52327 21.2428H7.15363V23.836C7.19834 24.0893 7.18343 24.3501 7.10892 24.6184C7.0344 24.8718 6.91517 25.1028 6.75123 25.3114C6.5873 25.5201 6.3563 25.6244 6.05823 25.6244C5.90919 25.6244 5.71545 25.602 5.477 25.5573C5.23854 25.4977 5.08206 25.4232 5.00754 25.3338C4.88831 25.2145 4.79889 25.0655 4.73928 24.8867C4.69457 24.6929 4.65731 24.5066 4.6275 24.3278C4.6126 24.1489 4.60515 23.9999 4.60515 23.8807C4.60515 23.7466 4.60515 23.672 4.60515 23.6571L4.58279 21.2651H2.70497C2.54103 21.2651 2.39945 21.2726 2.28022 21.2875C2.17589 21.2875 2.07157 21.28 1.96725 21.2651C1.87783 21.2353 1.78841 21.1981 1.69899 21.1534C1.60957 21.1087 1.50524 21.0341 1.38602 20.9298C1.07304 20.7063 0.916558 20.4306 0.916558 20.1027C0.916558 19.894 0.976172 19.6928 1.0954 19.4991C1.22953 19.2904 1.41582 19.1489 1.65428 19.0743C1.80331 19.0296 1.92254 18.9924 2.01196 18.9626C2.11628 18.9328 2.2057 18.9104 2.28022 18.8955C2.36964 18.8806 2.45906 18.8731 2.54848 18.8731C2.6528 18.8582 2.78693 18.8508 2.95087 18.8508L4.58279 18.8731V17.1518C4.56789 16.809 4.56789 16.4588 4.58279 16.1011C4.5977 15.7285 4.70947 15.4156 4.91812 15.1622C5.03735 14.9983 5.20128 14.8716 5.40993 14.7822C5.61858 14.6927 5.80487 14.648 5.96881 14.648C6.17745 14.648 6.37865 14.7226 6.57239 14.8716C6.78104 15.0057 6.92262 15.192 6.99714 15.4305C7.10146 15.7434 7.14617 16.0639 7.13127 16.3917C7.13127 16.7196 7.13872 17.0549 7.15363 17.3977V18.8955Z" fill="#FBD266"/>
</svg>
