<svg width="32" height="29" viewBox="0 0 32 29" fill="none" xmlns="http://www.w3.org/2000/svg">
<path d="M0.803711 2.15539C0.803711 1.2735 1.51862 0.558594 2.4005 0.558594H29.5905C30.4724 0.558594 31.1873 1.2735 31.1873 2.15539V19.2051C31.1873 20.087 30.4724 20.8019 29.5905 20.8019H9.14947C8.78928 20.8019 8.43967 20.9237 8.15743 21.1475L2.35701 25.7463C1.72904 26.2442 0.803711 25.797 0.803711 24.9956V20.8019V2.15539Z" fill="#FBD266"/>
<path d="M11.6976 14.4379C11.7061 14.5231 11.6976 14.604 11.672 14.6806C11.655 14.7317 11.6294 14.7743 11.5954 14.8084C11.5698 14.8424 11.5357 14.8765 11.4932 14.9106C11.4165 14.9617 11.3228 15.0085 11.2121 15.0511C11.144 15.0681 11.0759 15.0809 11.0077 15.0894C10.9481 15.1065 10.8843 15.1065 10.8161 15.0894C10.6799 15.0809 10.5606 15.0298 10.4584 14.9361C10.3137 14.8169 10.1944 14.6849 10.1008 14.5401C10.0582 14.472 10.0113 14.3953 9.96024 14.3102C9.90914 14.225 9.86231 14.1356 9.81972 14.0419L8.40177 11.3465C8.33364 11.3465 8.26551 11.3508 8.19738 11.3593C8.12925 11.3593 8.06112 11.3636 7.99299 11.3721C7.81415 11.3891 7.64383 11.3934 7.48202 11.3849C7.32873 11.3763 7.16692 11.3763 6.9966 11.3849H6.75388V13.697C6.75388 13.7651 6.74963 13.829 6.74111 13.8886C6.74111 13.9482 6.74111 14.0121 6.74111 14.0802C6.74111 14.1228 6.73685 14.1782 6.72834 14.2463C6.72834 14.3144 6.72408 14.3783 6.71556 14.4379C6.69853 14.5316 6.66021 14.6295 6.60059 14.7317C6.54098 14.8254 6.46007 14.9063 6.35788 14.9745C6.17904 15.0852 5.96188 15.115 5.70639 15.0639C5.59568 15.0383 5.48923 14.9957 5.38703 14.9361C5.35297 14.9106 5.32316 14.8808 5.29761 14.8467C5.27206 14.8041 5.25077 14.7615 5.23374 14.719C5.21671 14.6764 5.19967 14.6338 5.18264 14.5912C5.17413 14.5401 5.16135 14.4933 5.14432 14.4507C5.11877 14.3655 5.106 14.2846 5.106 14.208V6.95217C5.106 6.90107 5.106 6.84998 5.106 6.79888C5.11451 6.73927 5.12303 6.68817 5.13154 6.64559C5.14006 6.55191 5.16987 6.45823 5.22096 6.36455C5.24651 6.26236 5.28909 6.18997 5.34871 6.14739C5.39981 6.09629 5.47645 6.05371 5.57865 6.01965C5.68936 5.97706 5.84691 5.96003 6.0513 5.96855C6.43453 5.97706 6.8135 5.98132 7.18821 5.98132C7.56293 5.98132 7.93764 5.98984 8.31235 6.00687C8.55932 6.0239 8.81907 6.05371 9.09159 6.09629C9.37262 6.13036 9.63237 6.19423 9.87082 6.28791C10.0241 6.34752 10.1646 6.40713 10.2924 6.46675C10.4542 6.56043 10.5819 6.64985 10.6756 6.73501C10.9737 7.00753 11.1994 7.3354 11.3526 7.71863C11.5059 8.10186 11.5826 8.48935 11.5826 8.88109C11.5826 9.34097 11.4719 9.76252 11.2504 10.1458C11.0375 10.529 10.6926 10.8143 10.2157 11.0016C10.1987 11.0187 10.1731 11.0314 10.1391 11.04C10.1135 11.04 10.0922 11.0442 10.0752 11.0527L11.2504 13.416L11.3654 13.6204C11.3825 13.6544 11.4037 13.6928 11.4293 13.7353C11.4548 13.7779 11.4761 13.8205 11.4932 13.8631C11.5187 13.9057 11.54 13.9525 11.557 14.0036C11.5826 14.0547 11.6081 14.1015 11.6337 14.1441C11.6592 14.2633 11.6805 14.3613 11.6976 14.4379ZM8.50397 9.89027C8.65726 9.89027 8.80204 9.86472 8.93829 9.81362C9.08307 9.75401 9.21081 9.67736 9.32152 9.58368C9.44075 9.49 9.53869 9.38355 9.61533 9.26432C9.69198 9.13658 9.73456 9.00032 9.74308 8.85555C9.77714 8.42974 9.66643 8.11464 9.41095 7.91025C9.15546 7.69734 8.81907 7.58237 8.40177 7.56534C8.1548 7.54831 7.88228 7.53979 7.58422 7.53979C7.29466 7.53979 7.01789 7.53979 6.75388 7.53979C6.7624 7.88896 6.7624 8.24664 6.75388 8.61283C6.75388 8.97052 6.75388 9.39633 6.75388 9.89027H8.50397ZM19.4858 11.9597C19.4858 12.2152 19.473 12.4749 19.4475 12.7389C19.4219 12.9944 19.3708 13.2457 19.2942 13.4926C19.2175 13.7311 19.1026 13.961 18.9493 14.1824C18.796 14.3953 18.5873 14.5827 18.3233 14.7445C18.1956 14.8297 18.0423 14.9021 17.8635 14.9617C17.6931 15.0128 17.51 15.0554 17.3142 15.0894C17.1268 15.132 16.9395 15.1576 16.7521 15.1661C16.5647 15.1831 16.3902 15.1874 16.2283 15.1788C15.4619 15.1533 14.8402 14.9702 14.3633 14.6295C13.8949 14.2804 13.533 13.8503 13.2775 13.3393C13.0305 12.8284 12.8687 12.2748 12.7921 11.6787C12.7239 11.074 12.7111 10.4992 12.7537 9.95414C12.7793 9.63052 12.8346 9.28136 12.9198 8.90664C13.0135 8.53193 13.1455 8.16999 13.3158 7.82083C13.4946 7.47166 13.7118 7.15656 13.9673 6.87552C14.2313 6.59449 14.5421 6.38158 14.8998 6.23681C15.2319 6.10055 15.5939 6.01539 15.9856 5.98132C16.3859 5.93874 16.7776 5.95152 17.1609 6.01965C17.5526 6.08777 17.9146 6.21126 18.2467 6.3901C18.5873 6.56894 18.8556 6.8074 19.0515 7.10546C19.1877 7.32688 19.2942 7.59515 19.3708 7.91025C19.4475 8.22535 19.4603 8.52767 19.4092 8.81722C19.3666 9.07271 19.2772 9.25155 19.1409 9.35375C19.0046 9.44742 18.8556 9.48575 18.6938 9.46871C18.532 9.44317 18.3744 9.37504 18.2211 9.26432C18.0764 9.1451 17.9784 8.99606 17.9273 8.81722C17.8677 8.62135 17.7953 8.44251 17.7102 8.2807C17.625 8.11038 17.493 7.96986 17.3142 7.85915C17.1098 7.73141 16.8926 7.65902 16.6627 7.64198C16.4413 7.62495 16.2241 7.6505 16.0112 7.71863C15.8068 7.78676 15.6109 7.89321 15.4236 8.03799C15.2447 8.18277 15.0957 8.34883 14.9765 8.53619C14.8317 8.74909 14.721 8.98329 14.6443 9.23878C14.5677 9.48575 14.5123 9.74549 14.4783 10.018C14.4442 10.282 14.4314 10.5503 14.4399 10.8228C14.457 11.0868 14.491 11.3423 14.5421 11.5893C14.6358 12.0065 14.7806 12.3983 14.9765 12.7645C15.0531 12.9008 15.1553 13.0242 15.283 13.1349C15.4193 13.2371 15.5683 13.3223 15.7301 13.3904C15.892 13.45 16.0623 13.4884 16.2411 13.5054C16.42 13.5224 16.5903 13.5097 16.7521 13.4671C16.982 13.4075 17.1694 13.3308 17.3142 13.2371C17.4589 13.1349 17.5739 13.0157 17.6591 12.8795C17.7442 12.7432 17.7996 12.5942 17.8251 12.4324C17.8592 12.2706 17.8762 12.1002 17.8762 11.9214V11.9086C17.7655 11.9086 17.6676 11.9086 17.5824 11.9086C17.4973 11.9001 17.4334 11.8958 17.3908 11.8958C17.2035 11.8958 17.0204 11.8618 16.8415 11.7936C16.6882 11.7425 16.5733 11.6616 16.4966 11.5509C16.4114 11.4573 16.3689 11.3423 16.3689 11.206C16.3689 11.1549 16.3689 11.1081 16.3689 11.0655C16.3774 11.0144 16.3859 10.9633 16.3944 10.9122C16.42 10.8441 16.4753 10.7589 16.5605 10.6567C16.6116 10.6141 16.6925 10.5801 16.8032 10.5545C16.8543 10.5375 16.9054 10.5247 16.9565 10.5162C17.0076 10.4992 17.0672 10.4864 17.1353 10.4779C17.1864 10.4694 17.2418 10.4651 17.3014 10.4651C17.361 10.4651 17.4206 10.4651 17.4802 10.4651H18.6427C18.7364 10.4566 18.8428 10.4694 18.9621 10.5034C19.0898 10.529 19.1877 10.5716 19.2559 10.6312C19.2814 10.6652 19.307 10.6993 19.3325 10.7334C19.3581 10.7674 19.3793 10.8058 19.3964 10.8483C19.4304 10.942 19.4517 11.0357 19.4603 11.1294C19.4688 11.1805 19.473 11.2358 19.473 11.2954C19.4815 11.3465 19.4858 11.3934 19.4858 11.436V11.9597ZM25.5456 10.2863C25.7926 10.4481 26.0012 10.6397 26.1716 10.8611C26.3504 11.074 26.4909 11.338 26.5931 11.6531C26.7038 12.0023 26.7592 12.3557 26.7592 12.7134C26.7677 13.0626 26.7038 13.3904 26.5676 13.697C26.4398 13.9951 26.2312 14.2591 25.9416 14.489C25.6606 14.7104 25.2901 14.868 24.8303 14.9617C24.5833 15.0213 24.2937 15.0681 23.9616 15.1022C23.6295 15.1363 23.3314 15.1533 23.0674 15.1533C22.7353 15.1618 22.3904 15.1618 22.0327 15.1533C21.6835 15.1533 21.3429 15.1192 21.0107 15.0511C20.866 15.0085 20.7595 14.9361 20.6914 14.8339C20.6318 14.7232 20.5892 14.5997 20.5636 14.4635C20.5296 14.3868 20.5125 14.3102 20.5125 14.2335V6.97772C20.5125 6.73927 20.5594 6.55617 20.6531 6.42842C20.7552 6.29216 20.8873 6.19423 21.0491 6.13461C21.2109 6.06648 21.394 6.02816 21.5984 6.01965C21.8027 6.00261 22.0157 5.9941 22.2371 5.9941C22.4074 5.9941 22.5777 5.9941 22.748 5.9941C22.9269 5.98558 23.1057 5.98558 23.2846 5.9941C23.5656 6.00261 23.8552 6.02816 24.1532 6.07074C24.4598 6.10481 24.7494 6.17294 25.0219 6.27513C25.1496 6.31771 25.2859 6.37733 25.4307 6.45397C25.5754 6.5221 25.6904 6.60726 25.7756 6.70946C26.0481 6.95643 26.2482 7.24598 26.376 7.57811C26.5122 7.90173 26.5718 8.23386 26.5548 8.57451C26.5378 8.90664 26.4441 9.226 26.2738 9.53259C26.112 9.83917 25.8692 10.0904 25.5456 10.2863ZM23.3101 13.6715C23.5741 13.6544 23.8424 13.6246 24.1149 13.582C24.3874 13.5395 24.5748 13.4586 24.677 13.3393C24.7877 13.2031 24.8643 13.0455 24.9069 12.8667C24.958 12.6793 24.9708 12.492 24.9452 12.3046C24.9282 12.1087 24.8728 11.9256 24.7792 11.7553C24.694 11.5765 24.579 11.436 24.4343 11.3338C24.2384 11.1805 24.0127 11.0825 23.7572 11.04C23.5017 10.9889 23.2505 10.9633 23.0035 10.9633C22.8843 10.9633 22.7736 10.9676 22.6714 10.9761C22.5777 10.9761 22.4926 10.9889 22.4159 11.0144C22.3478 11.0314 22.2967 11.0698 22.2626 11.1294C22.2286 11.189 22.2115 11.2784 22.2115 11.3976C22.2286 11.6191 22.2286 11.8405 22.2115 12.0619C22.1945 12.2833 22.186 12.4962 22.186 12.7006C22.186 12.8198 22.1817 12.9518 22.1732 13.0966C22.1732 13.2329 22.22 13.3479 22.3137 13.4415C22.4074 13.5352 22.5437 13.5991 22.7225 13.6331C22.9013 13.6672 23.0972 13.68 23.3101 13.6715ZM23.5656 7.53979C23.3016 7.53127 23.0802 7.52702 22.9013 7.52702C22.731 7.5185 22.5948 7.53127 22.4926 7.56534C22.3989 7.59089 22.3308 7.65476 22.2882 7.75695C22.2541 7.85063 22.2413 7.99541 22.2498 8.19128C22.2498 8.35309 22.2456 8.5149 22.2371 8.67671C22.2371 8.83 22.2371 8.98329 22.2371 9.13658C22.2371 9.30691 22.2924 9.43465 22.4031 9.51981C22.5138 9.59646 22.6501 9.6433 22.8119 9.66033C22.9822 9.67736 23.1568 9.67736 23.3357 9.66033C23.523 9.6433 23.6848 9.62201 23.8211 9.59646C24.1277 9.54536 24.3619 9.44317 24.5237 9.28987C24.694 9.12807 24.7919 8.89387 24.8175 8.58729C24.8516 8.20406 24.7494 7.94005 24.5109 7.79528C24.281 7.64199 23.9659 7.55682 23.5656 7.53979Z" fill="white"/>
</svg>
