<svg width="162" height="113" viewBox="0 0 162 113" fill="none" xmlns="http://www.w3.org/2000/svg">
<path d="M1.04492 0.947266V26.6577C1.04492 40.2567 12.0691 51.2809 25.6681 51.2809H133.111C146.71 51.2809 157.734 62.305 157.734 75.9041V109.956" stroke="url(#paint0_radial_1946_12271)" stroke-width="1.52038"/>
<path d="M158.471 110.049C158.251 110.855 157.107 110.855 156.887 110.049L155.014 103.178C154.871 102.656 155.264 102.141 155.806 102.141L159.552 102.141C160.094 102.141 160.487 102.656 160.344 103.178L158.471 110.049Z" fill="#B3B3B3"/>
<rect x="28.2891" y="40" width="104.25" height="22.139" rx="8.11116" fill="#E1E1E1"/>
<path d="M38.4342 54.0703V47.4208H39.2771V54.0703H38.4342ZM44.9785 54.0703H44.1544V51.3356C44.1544 50.8174 44.0732 50.4396 43.9109 50.2024C43.7548 49.9588 43.5144 49.8371 43.1897 49.8371C42.9649 49.8371 42.7402 49.8933 42.5154 50.0057C42.2969 50.1181 42.1002 50.271 41.9254 50.4646C41.7568 50.6519 41.635 50.8704 41.5601 51.1202V54.0703H40.7359V49.1815H41.4852V50.2304C41.6163 49.9994 41.7849 49.7996 41.9909 49.6311C42.197 49.4625 42.4311 49.3314 42.6933 49.2377C42.9556 49.144 43.2303 49.0972 43.5175 49.0972C43.7985 49.0972 44.0326 49.1503 44.2199 49.2564C44.4135 49.3563 44.5633 49.4999 44.6695 49.6872C44.7818 49.8683 44.8599 50.0837 44.9036 50.3335C44.9535 50.5832 44.9785 50.8548 44.9785 51.1483V54.0703ZM48.4236 54.164C48.0552 54.164 47.718 54.0984 47.4121 53.9673C47.1124 53.8299 46.8502 53.6426 46.6254 53.4054C46.4069 53.1681 46.2352 52.8965 46.1103 52.5906C45.9917 52.2846 45.9323 51.9599 45.9323 51.6165C45.9323 51.1545 46.0354 50.7331 46.2414 50.3522C46.4474 49.9713 46.7378 49.6685 47.1124 49.4437C47.487 49.2127 47.921 49.0972 48.4142 49.0972C48.895 49.0972 49.3133 49.2065 49.6692 49.425C50.0313 49.6373 50.2998 49.9245 50.4746 50.2866L49.6692 50.5395C49.5443 50.3085 49.3695 50.1306 49.1447 50.0057C48.9199 49.8746 48.6702 49.809 48.3955 49.809C48.0958 49.809 47.8211 49.887 47.5713 50.0431C47.3278 50.1992 47.1342 50.4146 46.9906 50.6894C46.847 50.9578 46.7752 51.2669 46.7752 51.6165C46.7752 51.9599 46.847 52.2721 46.9906 52.5531C47.1405 52.8278 47.3372 53.0463 47.5807 53.2087C47.8304 53.371 48.1051 53.4522 48.4048 53.4522C48.5984 53.4522 48.7826 53.4178 48.9574 53.3492C49.1385 53.2805 49.2946 53.19 49.4257 53.0776C49.563 52.9589 49.6567 52.8309 49.7066 52.6936L50.5121 52.9371C50.4122 53.1743 50.2592 53.3866 50.0532 53.5739C49.8534 53.755 49.613 53.8986 49.332 54.0048C49.0573 54.1109 48.7545 54.164 48.4236 54.164ZM54.0308 49.9027C53.6187 49.9089 53.2535 50.015 52.935 50.2211C52.6229 50.4209 52.4012 50.6987 52.2701 51.0546V54.0703H51.4459V49.1815H52.2139V50.3147C52.3825 49.9776 52.6041 49.706 52.8788 49.4999C53.1598 49.2877 53.4533 49.169 53.7592 49.144C53.8216 49.144 53.8747 49.144 53.9184 49.144C53.9621 49.144 53.9996 49.1472 54.0308 49.1534V49.9027ZM56.8928 54.164C56.5244 54.164 56.1872 54.0984 55.8813 53.9673C55.5816 53.8299 55.3194 53.6457 55.0946 53.4147C54.8761 53.1775 54.7044 52.9059 54.5795 52.5999C54.4609 52.294 54.4016 51.9693 54.4016 51.6259C54.4016 51.1639 54.5077 50.7424 54.72 50.3616C54.9323 49.9807 55.2257 49.6748 55.6003 49.4437C55.9812 49.2127 56.4151 49.0972 56.9021 49.0972C57.3954 49.0972 57.8231 49.2159 58.1852 49.4531C58.5536 49.6841 58.8377 49.9901 59.0375 50.3709C59.2435 50.7456 59.3465 51.1514 59.3465 51.5884C59.3465 51.6509 59.3434 51.7133 59.3372 51.7758C59.3372 51.832 59.3341 51.8757 59.3278 51.9069H55.2725C55.2975 52.2253 55.3849 52.5094 55.5348 52.7591C55.6909 53.0026 55.8907 53.1962 56.1342 53.3398C56.3777 53.4772 56.6399 53.5458 56.9209 53.5458C57.2206 53.5458 57.5015 53.4709 57.7638 53.3211C58.0323 53.1712 58.2164 52.9745 58.3163 52.731L59.0281 52.9277C58.922 53.165 58.7628 53.3773 58.5505 53.5646C58.3444 53.7519 58.0978 53.8986 57.8106 54.0048C57.5296 54.1109 57.2237 54.164 56.8928 54.164ZM55.2444 51.3356H58.5786C58.5536 51.0172 58.4631 50.7362 58.307 50.4927C58.1509 50.2492 57.9511 50.0587 57.7076 49.9214C57.4641 49.784 57.1956 49.7153 56.9021 49.7153C56.6149 49.7153 56.3496 49.784 56.1061 49.9214C55.8626 50.0587 55.6628 50.2492 55.5067 50.4927C55.3568 50.7362 55.2694 51.0172 55.2444 51.3356ZM59.8787 52.6561C59.8787 52.3439 59.9661 52.0755 60.1409 51.8507C60.322 51.6197 60.5686 51.4417 60.8808 51.3168C61.193 51.192 61.5551 51.1295 61.9672 51.1295C62.1857 51.1295 62.4168 51.1483 62.6603 51.1857C62.9038 51.217 63.1192 51.2669 63.3065 51.3356V50.9797C63.3065 50.6051 63.1941 50.3116 62.9693 50.0993C62.7445 49.8808 62.4261 49.7715 62.014 49.7715C61.7456 49.7715 61.4864 49.8215 61.2367 49.9214C60.9932 50.015 60.7341 50.1524 60.4594 50.3335L60.1597 49.7528C60.4781 49.5343 60.7965 49.3719 61.1149 49.2658C61.4334 49.1534 61.7643 49.0972 62.1077 49.0972C62.7321 49.0972 63.2253 49.272 63.5874 49.6217C63.9496 49.9651 64.1306 50.4459 64.1306 51.064V53.1338C64.1306 53.2337 64.1494 53.3086 64.1868 53.3585C64.2305 53.4022 64.2992 53.4272 64.3929 53.4335V54.0703C64.3117 54.0828 64.2399 54.0922 64.1775 54.0984C64.1213 54.1047 64.0745 54.1078 64.037 54.1078C63.8434 54.1078 63.6967 54.0547 63.5968 53.9486C63.5032 53.8424 63.4501 53.73 63.4376 53.6114L63.4189 53.3023C63.2066 53.5771 62.9287 53.7893 62.5853 53.9392C62.2419 54.089 61.9017 54.164 61.5645 54.164C61.2398 54.164 60.9495 54.0984 60.6935 53.9673C60.4375 53.8299 60.2377 53.6489 60.0941 53.4241C59.9505 53.1931 59.8787 52.9371 59.8787 52.6561ZM63.063 53.0026C63.1379 52.9152 63.1972 52.8278 63.2409 52.7404C63.2846 52.6468 63.3065 52.5687 63.3065 52.5063V51.8975C63.1129 51.8226 62.91 51.7664 62.6977 51.7289C62.4854 51.6852 62.2763 51.6634 62.0702 51.6634C61.6519 51.6634 61.3116 51.7477 61.0494 51.9162C60.7934 52.0786 60.6654 52.3034 60.6654 52.5906C60.6654 52.7467 60.706 52.8996 60.7872 53.0495C60.8746 53.1931 60.9994 53.3117 61.1618 53.4054C61.3304 53.499 61.5364 53.5458 61.7799 53.5458C62.0359 53.5458 62.2794 53.4959 62.5104 53.396C62.7414 53.2899 62.9256 53.1587 63.063 53.0026ZM67.1249 54.164C66.7191 54.164 66.3382 54.0984 65.9823 53.9673C65.6264 53.8299 65.3205 53.627 65.0645 53.3585L65.3829 52.7779C65.6639 53.0401 65.9448 53.2274 66.2258 53.3398C66.5068 53.4522 66.794 53.5084 67.0874 53.5084C67.4246 53.5084 67.6993 53.4459 67.9116 53.3211C68.1239 53.19 68.23 52.9995 68.23 52.7498C68.23 52.5687 68.1738 52.4345 68.0615 52.3471C67.9553 52.2596 67.8023 52.1878 67.6025 52.1316C67.4027 52.0692 67.1655 52.0005 66.8908 51.9256C66.5536 51.8257 66.2695 51.7196 66.0385 51.6072C65.8075 51.4948 65.6327 51.3543 65.514 51.1857C65.3954 51.0172 65.3361 50.8049 65.3361 50.5489C65.3361 50.2367 65.4173 49.9745 65.5796 49.7622C65.7419 49.5436 65.9636 49.3782 66.2445 49.2658C66.5318 49.1534 66.8564 49.0972 67.2186 49.0972C67.5807 49.0972 67.9085 49.1534 68.2019 49.2658C68.4954 49.3782 68.7483 49.5436 68.9605 49.7622L68.5859 50.3335C68.3924 50.1337 68.1801 49.9869 67.9491 49.8933C67.7181 49.7934 67.4589 49.7434 67.1717 49.7434C67.0031 49.7434 66.8377 49.7653 66.6754 49.809C66.513 49.8465 66.3788 49.9183 66.2726 50.0244C66.1665 50.1243 66.1134 50.2679 66.1134 50.4552C66.1134 50.6113 66.154 50.7362 66.2352 50.8298C66.3226 50.9173 66.4475 50.9922 66.6098 51.0546C66.7784 51.1171 66.9813 51.1857 67.2186 51.2607C67.5869 51.3668 67.9054 51.4729 68.1738 51.5791C68.4486 51.6852 68.6608 51.8226 68.8107 51.9912C68.9605 52.1597 69.0355 52.3939 69.0355 52.6936C69.0355 53.1556 68.8606 53.5177 68.511 53.78C68.1614 54.036 67.6993 54.164 67.1249 54.164ZM70.0215 54.0703V49.1815H70.8456V54.0703H70.0215ZM70.0215 48.2637V47.2335H70.8456V48.2637H70.0215ZM76.4225 54.0703H75.5984V51.3356C75.5984 50.8174 75.5172 50.4396 75.3549 50.2024C75.1988 49.9588 74.9584 49.8371 74.6337 49.8371C74.4089 49.8371 74.1842 49.8933 73.9594 50.0057C73.7409 50.1181 73.5442 50.271 73.3694 50.4646C73.2008 50.6519 73.079 50.8704 73.0041 51.1202V54.0703H72.1799V49.1815H72.9292V50.2304C73.0603 49.9994 73.2289 49.7996 73.4349 49.6311C73.641 49.4625 73.8751 49.3314 74.1373 49.2377C74.3996 49.144 74.6743 49.0972 74.9615 49.0972C75.2425 49.0972 75.4766 49.1503 75.6639 49.2564C75.8575 49.3563 76.0073 49.4999 76.1135 49.6872C76.2258 49.8683 76.3039 50.0837 76.3476 50.3335C76.3975 50.5832 76.4225 50.8548 76.4225 51.1483V54.0703ZM79.6522 54.1265C79.3212 54.1265 79.0153 54.0609 78.7343 53.9298C78.4596 53.7925 78.2224 53.6083 78.0226 53.3773C77.8228 53.14 77.6667 52.8715 77.5543 52.5718C77.4481 52.2721 77.3951 51.9599 77.3951 51.6353C77.3951 51.2919 77.4481 50.9672 77.5543 50.6613C77.6667 50.3553 77.8228 50.0868 78.0226 49.8558C78.2286 49.6186 78.469 49.4344 78.7437 49.3033C79.0184 49.1659 79.3244 49.0972 79.6615 49.0972C80.0674 49.0972 80.4201 49.1971 80.7198 49.3969C81.0258 49.5967 81.2818 49.8496 81.4878 50.1555V49.1815H82.2183V54.0141C82.2183 54.4762 82.1059 54.8664 81.8812 55.1848C81.6626 55.5032 81.3629 55.7436 80.9821 55.906C80.6074 56.0745 80.1891 56.1588 79.7271 56.1588C79.1776 56.1588 78.7281 56.062 78.3785 55.8685C78.0288 55.6749 77.7385 55.4127 77.5075 55.0818L77.9851 54.6603C78.1787 54.9475 78.4284 55.163 78.7343 55.3066C79.0465 55.4502 79.3774 55.522 79.7271 55.522C80.0268 55.522 80.3015 55.4658 80.5513 55.3534C80.8072 55.2472 81.0102 55.0818 81.16 54.857C81.3161 54.6322 81.3941 54.3513 81.3941 54.0141V53.1525C81.2131 53.4522 80.9633 53.6894 80.6449 53.8643C80.3327 54.0391 80.0018 54.1265 79.6522 54.1265ZM79.905 53.4522C80.0799 53.4522 80.2484 53.421 80.4108 53.3585C80.5731 53.2961 80.723 53.2149 80.8603 53.115C80.9977 53.0089 81.1132 52.8903 81.2068 52.7591C81.3005 52.628 81.3629 52.4938 81.3941 52.3564V50.9516C81.3067 50.7268 81.1819 50.5301 81.0195 50.3616C80.8572 50.1867 80.673 50.0525 80.467 49.9588C80.2609 49.859 80.0486 49.809 79.8301 49.809C79.5804 49.809 79.3556 49.8621 79.1558 49.9682C78.9622 50.0744 78.7968 50.218 78.6594 50.399C78.5221 50.5739 78.4159 50.7705 78.341 50.9891C78.2661 51.2076 78.2286 51.4292 78.2286 51.654C78.2286 51.8975 78.2723 52.1285 78.3597 52.3471C78.4471 52.5593 78.5658 52.7498 78.7156 52.9184C78.8655 53.0869 79.0434 53.2181 79.2494 53.3117C79.4555 53.4054 79.674 53.4522 79.905 53.4522ZM88.7925 54.1171C88.2618 54.1171 87.8153 54.0266 87.4532 53.8455C87.0911 53.6582 86.8007 53.4085 86.5822 53.0963C86.3637 52.7779 86.2045 52.4189 86.1046 52.0193C86.0047 51.6197 85.9547 51.2076 85.9547 50.783V47.4208H86.7976V50.783C86.7976 51.1077 86.8288 51.4261 86.8913 51.7383C86.96 52.0442 87.0692 52.319 87.2191 52.5625C87.3689 52.806 87.5718 52.9995 87.8278 53.1431C88.0838 53.2867 88.4022 53.3585 88.7831 53.3585C89.1702 53.3585 89.4918 53.2867 89.7478 53.1431C90.0037 52.9933 90.2067 52.7966 90.3565 52.5531C90.5064 52.3034 90.6125 52.0255 90.6749 51.7196C90.7436 51.4136 90.778 51.1014 90.778 50.783V47.4208H91.6209V50.783C91.6209 51.2326 91.5678 51.6603 91.4616 52.0661C91.3617 52.4657 91.1994 52.8185 90.9746 53.1244C90.7499 53.4303 90.4564 53.6738 90.0943 53.8549C89.7384 54.0297 89.3045 54.1171 88.7925 54.1171ZM94.5447 54.164C94.1388 54.164 93.758 54.0984 93.4021 53.9673C93.0462 53.8299 92.7402 53.627 92.4842 53.3585L92.8027 52.7779C93.0836 53.0401 93.3646 53.2274 93.6456 53.3398C93.9265 53.4522 94.2137 53.5084 94.5072 53.5084C94.8444 53.5084 95.1191 53.4459 95.3314 53.3211C95.5436 53.19 95.6498 52.9995 95.6498 52.7498C95.6498 52.5687 95.5936 52.4345 95.4812 52.3471C95.3751 52.2596 95.2221 52.1878 95.0223 52.1316C94.8225 52.0692 94.5852 52.0005 94.3105 51.9256C93.9734 51.8257 93.6893 51.7196 93.4583 51.6072C93.2272 51.4948 93.0524 51.3543 92.9338 51.1857C92.8152 51.0172 92.7558 50.8049 92.7558 50.5489C92.7558 50.2367 92.837 49.9745 92.9993 49.7622C93.1617 49.5436 93.3833 49.3782 93.6643 49.2658C93.9515 49.1534 94.2762 49.0972 94.6383 49.0972C95.0004 49.0972 95.3282 49.1534 95.6217 49.2658C95.9151 49.3782 96.168 49.5436 96.3803 49.7622L96.0057 50.3335C95.8121 50.1337 95.5998 49.9869 95.3688 49.8933C95.1378 49.7934 94.8787 49.7434 94.5915 49.7434C94.4229 49.7434 94.2574 49.7653 94.0951 49.809C93.9328 49.8465 93.7985 49.9183 93.6924 50.0244C93.5863 50.1243 93.5332 50.2679 93.5332 50.4552C93.5332 50.6113 93.5738 50.7362 93.6549 50.8298C93.7423 50.9173 93.8672 50.9922 94.0296 51.0546C94.1981 51.1171 94.4011 51.1857 94.6383 51.2607C95.0067 51.3668 95.3251 51.4729 95.5936 51.5791C95.8683 51.6852 96.0806 51.8226 96.2305 51.9912C96.3803 52.1597 96.4552 52.3939 96.4552 52.6936C96.4552 53.1556 96.2804 53.5177 95.9308 53.78C95.5811 54.036 95.1191 54.164 94.5447 54.164ZM97.0572 52.6561C97.0572 52.3439 97.1447 52.0755 97.3195 51.8507C97.5006 51.6197 97.7472 51.4417 98.0594 51.3168C98.3715 51.192 98.7337 51.1295 99.1458 51.1295C99.3643 51.1295 99.5953 51.1483 99.8388 51.1857C100.082 51.217 100.298 51.2669 100.485 51.3356V50.9797C100.485 50.6051 100.373 50.3116 100.148 50.0993C99.9231 49.8808 99.6047 49.7715 99.1926 49.7715C98.9241 49.7715 98.665 49.8215 98.4152 49.9214C98.1717 50.015 97.9126 50.1524 97.6379 50.3335L97.3382 49.7528C97.6566 49.5343 97.9751 49.3719 98.2935 49.2658C98.6119 49.1534 98.9428 49.0972 99.2862 49.0972C99.9106 49.0972 100.404 49.272 100.766 49.6217C101.128 49.9651 101.309 50.4459 101.309 51.064V53.1338C101.309 53.2337 101.328 53.3086 101.365 53.3585C101.409 53.4022 101.478 53.4272 101.571 53.4335V54.0703C101.49 54.0828 101.418 54.0922 101.356 54.0984C101.3 54.1047 101.253 54.1078 101.216 54.1078C101.022 54.1078 100.875 54.0547 100.775 53.9486C100.682 53.8424 100.629 53.73 100.616 53.6114L100.597 53.3023C100.385 53.5771 100.107 53.7893 99.7639 53.9392C99.4205 54.089 99.0802 54.164 98.743 54.164C98.4184 54.164 98.128 54.0984 97.872 53.9673C97.6161 53.8299 97.4163 53.6489 97.2727 53.4241C97.1291 53.1931 97.0572 52.9371 97.0572 52.6561ZM100.242 53.0026C100.316 52.9152 100.376 52.8278 100.419 52.7404C100.463 52.6468 100.485 52.5687 100.485 52.5063V51.8975C100.291 51.8226 100.089 51.7664 99.8763 51.7289C99.664 51.6852 99.4548 51.6634 99.2488 51.6634C98.8305 51.6634 98.4902 51.7477 98.2279 51.9162C97.9719 52.0786 97.844 52.3034 97.844 52.5906C97.844 52.7467 97.8845 52.8996 97.9657 53.0495C98.0531 53.1931 98.178 53.3117 98.3403 53.4054C98.5089 53.499 98.7149 53.5458 98.9584 53.5458C99.2144 53.5458 99.4579 53.4959 99.689 53.396C99.92 53.2899 100.104 53.1587 100.242 53.0026ZM105.137 54.164C104.756 54.164 104.41 54.0703 104.097 53.883C103.785 53.6957 103.539 53.4522 103.358 53.1525V54.0703H102.627V47.2335H103.451V50.1555C103.657 49.8371 103.91 49.5811 104.21 49.3876C104.509 49.194 104.859 49.0972 105.259 49.0972C105.596 49.0972 105.899 49.169 106.167 49.3126C106.436 49.45 106.664 49.6404 106.851 49.8839C107.044 50.1212 107.191 50.3928 107.291 50.6987C107.397 50.9984 107.45 51.3137 107.45 51.6446C107.45 51.988 107.391 52.3127 107.272 52.6187C107.16 52.9184 106.998 53.1868 106.785 53.4241C106.573 53.6551 106.326 53.8362 106.045 53.9673C105.771 54.0984 105.468 54.164 105.137 54.164ZM104.931 53.4522C105.174 53.4522 105.399 53.4022 105.605 53.3023C105.811 53.2024 105.989 53.0682 106.139 52.8996C106.289 52.731 106.404 52.5375 106.486 52.319C106.567 52.1004 106.607 51.8757 106.607 51.6446C106.607 51.3262 106.539 51.0265 106.401 50.7456C106.27 50.4646 106.083 50.2398 105.839 50.0712C105.602 49.8964 105.324 49.809 105.006 49.809C104.775 49.809 104.559 49.8621 104.36 49.9682C104.16 50.0744 103.982 50.2148 103.826 50.3897C103.676 50.5582 103.551 50.7456 103.451 50.9516V52.3658C103.482 52.5219 103.548 52.6655 103.648 52.7966C103.748 52.9277 103.87 53.0432 104.013 53.1431C104.157 53.2368 104.307 53.3117 104.463 53.3679C104.625 53.4241 104.781 53.4522 104.931 53.4522ZM108.462 54.0703V49.1815H109.286V54.0703H108.462ZM108.462 48.2637V47.2335H109.286V48.2637H108.462ZM110.639 47.2335H111.464V52.806C111.464 53.0744 111.501 53.2399 111.576 53.3023C111.651 53.3648 111.741 53.396 111.848 53.396C111.979 53.396 112.104 53.3835 112.222 53.3585C112.341 53.3273 112.441 53.2961 112.522 53.2649L112.653 53.9392C112.516 53.9954 112.353 54.0422 112.166 54.0797C111.979 54.1171 111.813 54.1359 111.67 54.1359C111.351 54.1359 111.098 54.0453 110.911 53.8643C110.73 53.6832 110.639 53.4303 110.639 53.1057V47.2335ZM113.3 54.0703V49.1815H114.125V54.0703H113.3ZM113.3 48.2637V47.2335H114.125V48.2637H113.3ZM117.988 53.8268C117.919 53.858 117.825 53.8986 117.707 53.9486C117.588 53.9985 117.451 54.0422 117.295 54.0797C117.138 54.1171 116.973 54.1359 116.798 54.1359C116.598 54.1359 116.414 54.1015 116.246 54.0329C116.077 53.9579 115.943 53.8455 115.843 53.6957C115.743 53.5396 115.693 53.346 115.693 53.115V49.8277H115.028V49.1815H115.693V47.5519H116.517V49.1815H117.613V49.8277H116.517V52.8622C116.53 53.037 116.589 53.1681 116.695 53.2555C116.801 53.3367 116.926 53.3773 117.07 53.3773C117.232 53.3773 117.382 53.3492 117.519 53.293C117.657 53.2368 117.747 53.1962 117.791 53.1712L117.988 53.8268ZM118.976 55.4002C119.057 55.4065 119.139 55.4127 119.22 55.4189C119.301 55.4314 119.363 55.4377 119.407 55.4377C119.507 55.4377 119.594 55.4033 119.669 55.3347C119.744 55.266 119.825 55.1317 119.913 54.9319C120.006 54.7384 120.125 54.4512 120.269 54.0703L118.199 49.1815H119.07L120.718 53.2368L122.207 49.1815H123.022L120.643 55.3534C120.587 55.497 120.503 55.6312 120.39 55.7561C120.284 55.8872 120.147 55.9902 119.978 56.0652C119.81 56.1401 119.607 56.1776 119.37 56.1776C119.313 56.1776 119.254 56.1744 119.192 56.1682C119.135 56.1619 119.064 56.1495 118.976 56.1307V55.4002Z" fill="#666666"/>
<defs>
<radialGradient id="paint0_radial_1946_12271" cx="0" cy="0" r="1" gradientUnits="userSpaceOnUse" gradientTransform="translate(82.2873 56.3941) rotate(-90.1392) scale(62.7974 233.973)">
<stop stop-color="#999999" stop-opacity="0"/>
<stop offset="1" stop-color="#999999"/>
</radialGradient>
</defs>
</svg>
