<svg width="161" height="113" viewBox="0 0 161 113" fill="none" xmlns="http://www.w3.org/2000/svg">
<path d="M160.087 0V25.7104C160.087 39.3094 149.063 50.3336 135.464 50.3336H28.0217C14.4226 50.3336 3.39846 61.3578 3.39846 74.9568V109.452" stroke="url(#paint0_radial_1946_12270)" stroke-width="1.52038"/>
<path d="M4.24089 109.102C4.021 109.908 2.87705 109.908 2.65715 109.102L0.78372 102.23C0.641364 101.708 1.03441 101.194 1.57559 101.194L5.32246 101.194C5.86363 101.194 6.25668 101.708 6.11432 102.23L4.24089 109.102Z" fill="#B3B3B3"/>
<rect x="25.5859" y="39" width="109.25" height="22.139" rx="8.11116" fill="#E1E1E1"/>
<path d="M35.7342 53.0703V46.4208H36.5771V53.0703H35.7342ZM42.2785 53.0703H41.4544V50.3356C41.4544 49.8174 41.3732 49.4396 41.2109 49.2024C41.0548 48.9588 40.8144 48.8371 40.4897 48.8371C40.2649 48.8371 40.0402 48.8933 39.8154 49.0057C39.5969 49.1181 39.4002 49.271 39.2254 49.4646C39.0568 49.6519 38.935 49.8704 38.8601 50.1202V53.0703H38.036V48.1815H38.7852V49.2304C38.9163 48.9994 39.0849 48.7996 39.2909 48.6311C39.497 48.4625 39.7311 48.3314 39.9933 48.2377C40.2556 48.144 40.5303 48.0972 40.8175 48.0972C41.0985 48.0972 41.3326 48.1503 41.5199 48.2564C41.7135 48.3563 41.8633 48.4999 41.9695 48.6872C42.0819 48.8683 42.1599 49.0837 42.2036 49.3335C42.2536 49.5832 42.2785 49.8548 42.2785 50.1483V53.0703ZM45.7236 53.164C45.3552 53.164 45.018 53.0984 44.7121 52.9673C44.4124 52.8299 44.1502 52.6426 43.9254 52.4054C43.7069 52.1681 43.5352 51.8965 43.4103 51.5906C43.2917 51.2846 43.2324 50.9599 43.2324 50.6165C43.2324 50.1545 43.3354 49.7331 43.5414 49.3522C43.7475 48.9713 44.0378 48.6685 44.4124 48.4437C44.787 48.2127 45.221 48.0972 45.7142 48.0972C46.195 48.0972 46.6133 48.2065 46.9692 48.425C47.3313 48.6373 47.5998 48.9245 47.7746 49.2866L46.9692 49.5395C46.8443 49.3085 46.6695 49.1306 46.4447 49.0057C46.22 48.8746 45.9702 48.809 45.6955 48.809C45.3958 48.809 45.1211 48.887 44.8713 49.0431C44.6278 49.1992 44.4343 49.4146 44.2907 49.6894C44.1471 49.9578 44.0753 50.2669 44.0753 50.6165C44.0753 50.9599 44.1471 51.2721 44.2907 51.5531C44.4405 51.8278 44.6372 52.0463 44.8807 52.2087C45.1304 52.371 45.4052 52.4522 45.7049 52.4522C45.8984 52.4522 46.0826 52.4178 46.2574 52.3492C46.4385 52.2805 46.5946 52.19 46.7257 52.0776C46.8631 51.9589 46.9567 51.8309 47.0067 51.6936L47.8121 51.9371C47.7122 52.1743 47.5592 52.3866 47.3532 52.5739C47.1534 52.755 46.913 52.8986 46.632 53.0048C46.3573 53.1109 46.0545 53.164 45.7236 53.164ZM51.3308 48.9027C50.9187 48.9089 50.5535 49.015 50.2351 49.2211C49.9229 49.4209 49.7012 49.6987 49.5701 50.0546V53.0703H48.7459V48.1815H49.5139V49.3147C49.6825 48.9776 49.9041 48.706 50.1789 48.4999C50.4598 48.2877 50.7533 48.169 51.0592 48.144C51.1217 48.144 51.1747 48.144 51.2184 48.144C51.2621 48.144 51.2996 48.1472 51.3308 48.1534V48.9027ZM54.1928 53.164C53.8244 53.164 53.4873 53.0984 53.1813 52.9673C52.8816 52.8299 52.6194 52.6457 52.3946 52.4147C52.1761 52.1775 52.0044 51.9059 51.8795 51.5999C51.7609 51.294 51.7016 50.9693 51.7016 50.6259C51.7016 50.1639 51.8077 49.7424 52.02 49.3616C52.2323 48.9807 52.5257 48.6748 52.9004 48.4437C53.2812 48.2127 53.7152 48.0972 54.2022 48.0972C54.6954 48.0972 55.1231 48.2159 55.4852 48.4531C55.8536 48.6841 56.1377 48.9901 56.3375 49.3709C56.5435 49.7456 56.6466 50.1514 56.6466 50.5884C56.6466 50.6509 56.6434 50.7133 56.6372 50.7758C56.6372 50.832 56.6341 50.8757 56.6278 50.9069H52.5726C52.5975 51.2253 52.6849 51.5094 52.8348 51.7591C52.9909 52.0026 53.1907 52.1962 53.4342 52.3398C53.6777 52.4772 53.9399 52.5458 54.2209 52.5458C54.5206 52.5458 54.8016 52.4709 55.0638 52.3211C55.3323 52.1712 55.5165 51.9745 55.6164 51.731L56.3281 51.9277C56.222 52.165 56.0628 52.3773 55.8505 52.5646C55.6444 52.7519 55.3978 52.8986 55.1106 53.0048C54.8296 53.1109 54.5237 53.164 54.1928 53.164ZM52.5445 50.3356H55.8786C55.8536 50.0172 55.7631 49.7362 55.607 49.4927C55.4509 49.2492 55.2511 49.0587 55.0076 48.9214C54.7641 48.784 54.4956 48.7153 54.2022 48.7153C53.9149 48.7153 53.6496 48.784 53.4061 48.9214C53.1626 49.0587 52.9628 49.2492 52.8067 49.4927C52.6568 49.7362 52.5694 50.0172 52.5445 50.3356ZM57.1787 51.6561C57.1787 51.3439 57.2661 51.0755 57.4409 50.8507C57.622 50.6197 57.8686 50.4417 58.1808 50.3168C58.493 50.192 58.8551 50.1295 59.2672 50.1295C59.4858 50.1295 59.7168 50.1483 59.9603 50.1857C60.2038 50.217 60.4192 50.2669 60.6065 50.3356V49.9797C60.6065 49.6051 60.4941 49.3116 60.2693 49.0993C60.0446 48.8808 59.7261 48.7715 59.3141 48.7715C59.0456 48.7715 58.7865 48.8215 58.5367 48.9214C58.2932 49.015 58.0341 49.1524 57.7594 49.3335L57.4597 48.7528C57.7781 48.5343 58.0965 48.3719 58.415 48.2658C58.7334 48.1534 59.0643 48.0972 59.4077 48.0972C60.0321 48.0972 60.5253 48.272 60.8875 48.6217C61.2496 48.9651 61.4307 49.4459 61.4307 50.064V52.1338C61.4307 52.2337 61.4494 52.3086 61.4869 52.3585C61.5306 52.4022 61.5992 52.4272 61.6929 52.4335V53.0703C61.6117 53.0828 61.5399 53.0922 61.4775 53.0984C61.4213 53.1047 61.3745 53.1078 61.337 53.1078C61.1434 53.1078 60.9967 53.0547 60.8968 52.9486C60.8032 52.8424 60.7501 52.73 60.7376 52.6114L60.7189 52.3023C60.5066 52.5771 60.2288 52.7893 59.8853 52.9392C59.5419 53.089 59.2017 53.164 58.8645 53.164C58.5398 53.164 58.2495 53.0984 57.9935 52.9673C57.7375 52.8299 57.5377 52.6489 57.3941 52.4241C57.2505 52.1931 57.1787 51.9371 57.1787 51.6561ZM60.363 52.0026C60.4379 51.9152 60.4972 51.8278 60.5409 51.7404C60.5846 51.6468 60.6065 51.5687 60.6065 51.5063V50.8975C60.4129 50.8226 60.21 50.7664 59.9977 50.7289C59.7854 50.6852 59.5763 50.6634 59.3702 50.6634C58.9519 50.6634 58.6116 50.7477 58.3494 50.9162C58.0934 51.0786 57.9654 51.3034 57.9654 51.5906C57.9654 51.7467 58.006 51.8996 58.0872 52.0495C58.1746 52.1931 58.2995 52.3117 58.4618 52.4054C58.6304 52.499 58.8364 52.5458 59.0799 52.5458C59.3359 52.5458 59.5794 52.4959 59.8104 52.396C60.0414 52.2899 60.2256 52.1587 60.363 52.0026ZM64.4249 53.164C64.0191 53.164 63.6382 53.0984 63.2823 52.9673C62.9264 52.8299 62.6205 52.627 62.3645 52.3585L62.6829 51.7779C62.9639 52.0401 63.2449 52.2274 63.5258 52.3398C63.8068 52.4522 64.094 52.5084 64.3875 52.5084C64.7246 52.5084 64.9993 52.4459 65.2116 52.3211C65.4239 52.19 65.53 51.9995 65.53 51.7498C65.53 51.5687 65.4739 51.4345 65.3615 51.3471C65.2553 51.2596 65.1024 51.1878 64.9026 51.1316C64.7028 51.0692 64.4655 51.0005 64.1908 50.9256C63.8536 50.8257 63.5695 50.7196 63.3385 50.6072C63.1075 50.4948 62.9327 50.3543 62.814 50.1857C62.6954 50.0172 62.6361 49.8049 62.6361 49.5489C62.6361 49.2367 62.7173 48.9745 62.8796 48.7622C63.0419 48.5436 63.2636 48.3782 63.5446 48.2658C63.8318 48.1534 64.1564 48.0972 64.5186 48.0972C64.8807 48.0972 65.2085 48.1534 65.502 48.2658C65.7954 48.3782 66.0483 48.5436 66.2606 48.7622L65.8859 49.3335C65.6924 49.1337 65.4801 48.9869 65.2491 48.8933C65.0181 48.7934 64.759 48.7434 64.4717 48.7434C64.3032 48.7434 64.1377 48.7653 63.9754 48.809C63.813 48.8465 63.6788 48.9183 63.5727 49.0244C63.4665 49.1243 63.4134 49.2679 63.4134 49.4552C63.4134 49.6113 63.454 49.7362 63.5352 49.8298C63.6226 49.9173 63.7475 49.9922 63.9098 50.0546C64.0784 50.1171 64.2813 50.1857 64.5186 50.2607C64.8869 50.3668 65.2054 50.4729 65.4739 50.5791C65.7486 50.6852 65.9609 50.8226 66.1107 50.9912C66.2606 51.1597 66.3355 51.3939 66.3355 51.6936C66.3355 52.1556 66.1607 52.5177 65.811 52.78C65.4614 53.036 64.9993 53.164 64.4249 53.164ZM67.3215 53.0703V48.1815H68.1457V53.0703H67.3215ZM67.3215 47.2637V46.2335H68.1457V47.2637H67.3215ZM73.7225 53.0703H72.8984V50.3356C72.8984 49.8174 72.8172 49.4396 72.6549 49.2024C72.4988 48.9588 72.2584 48.8371 71.9337 48.8371C71.7089 48.8371 71.4842 48.8933 71.2594 49.0057C71.0409 49.1181 70.8442 49.271 70.6694 49.4646C70.5008 49.6519 70.379 49.8704 70.3041 50.1202V53.0703H69.48V48.1815H70.2292V49.2304C70.3603 48.9994 70.5289 48.7996 70.7349 48.6311C70.941 48.4625 71.1751 48.3314 71.4373 48.2377C71.6996 48.144 71.9743 48.0972 72.2615 48.0972C72.5425 48.0972 72.7766 48.1503 72.9639 48.2564C73.1575 48.3563 73.3073 48.4999 73.4135 48.6872C73.5259 48.8683 73.6039 49.0837 73.6476 49.3335C73.6976 49.5832 73.7225 49.8548 73.7225 50.1483V53.0703ZM76.9522 53.1265C76.6213 53.1265 76.3153 53.0609 76.0344 52.9298C75.7596 52.7925 75.5224 52.6083 75.3226 52.3773C75.1228 52.14 74.9667 51.8715 74.8543 51.5718C74.7482 51.2721 74.6951 50.9599 74.6951 50.6353C74.6951 50.2919 74.7482 49.9672 74.8543 49.6613C74.9667 49.3553 75.1228 49.0868 75.3226 48.8558C75.5286 48.6186 75.769 48.4344 76.0437 48.3033C76.3184 48.1659 76.6244 48.0972 76.9615 48.0972C77.3674 48.0972 77.7201 48.1971 78.0198 48.3969C78.3258 48.5967 78.5818 48.8496 78.7878 49.1555V48.1815H79.5183V53.0141C79.5183 53.4762 79.4059 53.8664 79.1812 54.1848C78.9626 54.5032 78.6629 54.7436 78.2821 54.906C77.9075 55.0745 77.4891 55.1588 77.0271 55.1588C76.4777 55.1588 76.0281 55.062 75.6785 54.8685C75.3288 54.6749 75.0385 54.4127 74.8075 54.0818L75.2851 53.6603C75.4787 53.9475 75.7284 54.163 76.0344 54.3066C76.3465 54.4502 76.6775 54.522 77.0271 54.522C77.3268 54.522 77.6015 54.4658 77.8513 54.3534C78.1073 54.2472 78.3102 54.0818 78.46 53.857C78.6161 53.6322 78.6942 53.3513 78.6942 53.0141V52.1525C78.5131 52.4522 78.2633 52.6894 77.9449 52.8643C77.6327 53.0391 77.3018 53.1265 76.9522 53.1265ZM77.205 52.4522C77.3799 52.4522 77.5484 52.421 77.7108 52.3585C77.8731 52.2961 78.023 52.2149 78.1603 52.115C78.2977 52.0089 78.4132 51.8903 78.5069 51.7591C78.6005 51.628 78.6629 51.4938 78.6942 51.3564V49.9516C78.6068 49.7268 78.4819 49.5301 78.3195 49.3616C78.1572 49.1867 77.973 49.0525 77.767 48.9588C77.5609 48.859 77.3486 48.809 77.1301 48.809C76.8804 48.809 76.6556 48.8621 76.4558 48.9682C76.2622 49.0744 76.0968 49.218 75.9594 49.399C75.8221 49.5739 75.7159 49.7705 75.641 49.9891C75.5661 50.2076 75.5286 50.4292 75.5286 50.654C75.5286 50.8975 75.5723 51.1285 75.6597 51.3471C75.7471 51.5593 75.8658 51.7498 76.0156 51.9184C76.1655 52.0869 76.3434 52.2181 76.5495 52.3117C76.7555 52.4054 76.974 52.4522 77.205 52.4522ZM87.2538 47.8163C87.1789 47.7288 87.079 47.6446 86.9541 47.5634C86.8292 47.4822 86.6888 47.4104 86.5327 47.348C86.3766 47.2793 86.2049 47.2262 86.0176 47.1888C85.8365 47.1451 85.6461 47.1232 85.4463 47.1232C84.9343 47.1232 84.5565 47.22 84.313 47.4135C84.0695 47.6071 83.9478 47.8724 83.9478 48.2096C83.9478 48.4469 84.0102 48.6342 84.1351 48.7715C84.26 48.9089 84.4504 49.0213 84.7064 49.1087C84.9686 49.1961 85.2995 49.2866 85.6991 49.3803C86.1612 49.4802 86.5608 49.6019 86.8979 49.7456C87.2351 49.8892 87.4942 50.0827 87.6753 50.3262C87.8563 50.5635 87.9469 50.8819 87.9469 51.2815C87.9469 51.5999 87.8844 51.8778 87.7595 52.115C87.6409 52.346 87.4723 52.5396 87.2538 52.6957C87.0353 52.8455 86.7793 52.9579 86.4858 53.0329C86.1924 53.1015 85.874 53.1359 85.5306 53.1359C85.1934 53.1359 84.8625 53.1015 84.5378 53.0329C84.2194 52.9579 83.9166 52.8518 83.6294 52.7144C83.3421 52.5771 83.0737 52.4054 82.8239 52.1993L83.2266 51.4875C83.3265 51.5937 83.4545 51.6998 83.6106 51.806C83.773 51.9059 83.954 51.9995 84.1538 52.0869C84.3599 52.1743 84.5815 52.2461 84.8188 52.3023C85.056 52.3523 85.2995 52.3773 85.5493 52.3773C86.0238 52.3773 86.3922 52.293 86.6544 52.1244C86.9167 51.9496 87.0478 51.6967 87.0478 51.3658C87.0478 51.116 86.9728 50.9162 86.823 50.7664C86.6794 50.6165 86.464 50.4917 86.1768 50.3918C85.8896 50.2919 85.5399 50.192 85.1278 50.0921C84.6783 49.9797 84.3005 49.8579 83.9946 49.7268C83.6887 49.5895 83.4577 49.4115 83.3016 49.193C83.1517 48.9745 83.0768 48.6904 83.0768 48.3407C83.0768 47.9162 83.1798 47.5571 83.3858 47.2637C83.5919 46.9702 83.876 46.7486 84.2381 46.5987C84.6002 46.4489 85.0092 46.374 85.465 46.374C85.7647 46.374 86.0425 46.4052 86.2985 46.4676C86.5608 46.5301 86.8043 46.6175 87.029 46.7299C87.2538 46.8422 87.4599 46.9765 87.6472 47.1326L87.2538 47.8163ZM88.9244 53.0703V48.1815H89.7486V53.0703H88.9244ZM88.9244 47.2637V46.2335H89.7486V47.2637H88.9244ZM98.4535 53.0703H97.6293V50.3356C97.6293 49.8236 97.5451 49.4459 97.3765 49.2024C97.2141 48.9588 96.9706 48.8371 96.646 48.8371C96.315 48.8371 96.0154 48.9588 95.7469 49.2024C95.4784 49.4396 95.288 49.7487 95.1756 50.1295V53.0703H94.3514V50.3356C94.3514 49.8174 94.2702 49.4396 94.1079 49.2024C93.9456 48.9588 93.7021 48.8371 93.3774 48.8371C93.0527 48.8371 92.753 48.9557 92.4783 49.193C92.2098 49.424 92.0194 49.7331 91.907 50.1202V53.0703H91.0828V48.1815H91.8321V49.2304C92.0319 48.8683 92.291 48.5905 92.6094 48.3969C92.9279 48.1971 93.2869 48.0972 93.6865 48.0972C94.0923 48.0972 94.417 48.2096 94.6605 48.4344C94.904 48.6529 95.0538 48.937 95.11 49.2866C95.3285 48.8995 95.5939 48.6061 95.9061 48.4063C96.2183 48.2002 96.5742 48.0972 96.9738 48.0972C97.2547 48.0972 97.4889 48.1503 97.6762 48.2564C97.8697 48.3563 98.0227 48.4999 98.1351 48.6872C98.2475 48.8683 98.3286 49.0837 98.3786 49.3335C98.4285 49.5832 98.4535 49.8548 98.4535 50.1483V53.0703ZM102.367 53.164C101.967 53.164 101.611 53.0641 101.299 52.8643C100.987 52.6645 100.74 52.4116 100.559 52.1057V55.0652H99.735V48.1815H100.465V49.0993C100.659 48.7996 100.912 48.5593 101.224 48.3782C101.536 48.1909 101.877 48.0972 102.245 48.0972C102.582 48.0972 102.891 48.1659 103.172 48.3033C103.453 48.4406 103.697 48.6279 103.903 48.8652C104.109 49.1025 104.268 49.3741 104.38 49.68C104.499 49.9797 104.558 50.295 104.558 50.6259C104.558 51.0879 104.465 51.5125 104.277 51.8996C104.096 52.2867 103.84 52.5958 103.509 52.8268C103.178 53.0516 102.797 53.164 102.367 53.164ZM102.114 52.4522C102.357 52.4522 102.576 52.4022 102.769 52.3023C102.969 52.1962 103.138 52.0588 103.275 51.8903C103.419 51.7154 103.528 51.5188 103.603 51.3002C103.678 51.0817 103.715 50.8569 103.715 50.6259C103.715 50.3824 103.672 50.1514 103.584 49.9329C103.503 49.7143 103.384 49.5208 103.228 49.3522C103.078 49.1836 102.901 49.0525 102.694 48.9588C102.495 48.859 102.276 48.809 102.039 48.809C101.889 48.809 101.733 48.8371 101.571 48.8933C101.415 48.9495 101.265 49.0307 101.121 49.1368C100.977 49.2367 100.856 49.3522 100.756 49.4833C100.656 49.6144 100.59 49.7549 100.559 49.9048V51.3002C100.653 51.5125 100.778 51.7061 100.934 51.8809C101.09 52.0557 101.271 52.1962 101.477 52.3023C101.683 52.4022 101.895 52.4522 102.114 52.4522ZM105.589 46.2335H106.413V51.806C106.413 52.0744 106.45 52.2399 106.525 52.3023C106.6 52.3648 106.691 52.396 106.797 52.396C106.928 52.396 107.053 52.3835 107.172 52.3585C107.29 52.3273 107.39 52.2961 107.471 52.2649L107.602 52.9392C107.465 52.9954 107.303 53.0422 107.115 53.0797C106.928 53.1171 106.763 53.1359 106.619 53.1359C106.301 53.1359 106.048 53.0453 105.86 52.8643C105.679 52.6832 105.589 52.4303 105.589 52.1057V46.2335ZM108.25 53.0703V48.1815H109.074V53.0703H108.25ZM108.25 47.2637V46.2335H109.074V47.2637H108.25ZM112.572 53.164C112.203 53.164 111.866 53.0984 111.56 52.9673C111.261 52.8299 110.998 52.6426 110.774 52.4054C110.555 52.1681 110.383 51.8965 110.259 51.5906C110.14 51.2846 110.081 50.9599 110.081 50.6165C110.081 50.1545 110.184 49.7331 110.39 49.3522C110.596 48.9713 110.886 48.6685 111.261 48.4437C111.635 48.2127 112.069 48.0972 112.562 48.0972C113.043 48.0972 113.462 48.2065 113.817 48.425C114.18 48.6373 114.448 48.9245 114.623 49.2866L113.817 49.5395C113.693 49.3085 113.518 49.1306 113.293 49.0057C113.068 48.8746 112.818 48.809 112.544 48.809C112.244 48.809 111.969 48.887 111.72 49.0431C111.476 49.1992 111.282 49.4146 111.139 49.6894C110.995 49.9578 110.923 50.2669 110.923 50.6165C110.923 50.9599 110.995 51.2721 111.139 51.5531C111.289 51.8278 111.485 52.0463 111.729 52.2087C111.979 52.371 112.253 52.4522 112.553 52.4522C112.747 52.4522 112.931 52.4178 113.106 52.3492C113.287 52.2805 113.443 52.19 113.574 52.0776C113.711 51.9589 113.805 51.8309 113.855 51.6936L114.66 51.9371C114.56 52.1743 114.407 52.3866 114.201 52.5739C114.002 52.755 113.761 52.8986 113.48 53.0048C113.206 53.1109 112.903 53.164 112.572 53.164ZM115.594 53.0703V48.1815H116.418V53.0703H115.594ZM115.594 47.2637V46.2335H116.418V47.2637H115.594ZM120.281 52.8268C120.213 52.858 120.119 52.8986 120 52.9486C119.882 52.9985 119.744 53.0422 119.588 53.0797C119.432 53.1171 119.267 53.1359 119.092 53.1359C118.892 53.1359 118.708 53.1015 118.539 53.0329C118.371 52.9579 118.237 52.8455 118.137 52.6957C118.037 52.5396 117.987 52.346 117.987 52.115V48.8277H117.322V48.1815H117.987V46.5519H118.811V48.1815H119.907V48.8277H118.811V51.8622C118.823 52.037 118.883 52.1681 118.989 52.2555C119.095 52.3367 119.22 52.3773 119.363 52.3773C119.526 52.3773 119.676 52.3492 119.813 52.293C119.95 52.2368 120.041 52.1962 120.085 52.1712L120.281 52.8268ZM121.27 54.4002C121.351 54.4065 121.432 54.4127 121.513 54.4189C121.595 54.4314 121.657 54.4377 121.701 54.4377C121.801 54.4377 121.888 54.4033 121.963 54.3347C122.038 54.266 122.119 54.1317 122.207 53.9319C122.3 53.7384 122.419 53.4512 122.562 53.0703L120.493 48.1815H121.364L123.012 52.2368L124.501 48.1815H125.316L122.937 54.3534C122.881 54.497 122.797 54.6312 122.684 54.7561C122.578 54.8872 122.441 54.9902 122.272 55.0652C122.103 55.1401 121.901 55.1776 121.663 55.1776C121.607 55.1776 121.548 55.1744 121.485 55.1682C121.429 55.1619 121.357 55.1495 121.27 55.1307V54.4002Z" fill="#666666"/>
<defs>
<radialGradient id="paint0_radial_1946_12270" cx="0" cy="0" r="1" gradientUnits="userSpaceOnUse" gradientTransform="translate(78.8451 55.4469) rotate(-89.8608) scale(62.7974 233.973)">
<stop stop-color="#999999" stop-opacity="0"/>
<stop offset="1" stop-color="#999999"/>
</radialGradient>
</defs>
</svg>
