<svg width="497" height="164" viewBox="0 0 497 164" fill="none" xmlns="http://www.w3.org/2000/svg">
<path d="M1.93457 0.03125V24.9546C1.93457 51.7881 23.6875 73.541 50.521 73.541H437.917C464.75 73.541 486.503 95.2939 486.503 122.127V159.233" stroke="url(#paint0_radial_1925_12264)" stroke-width="3"/>
<path d="M487.744 161.178C487.12 162.258 485.562 162.258 484.939 161.178L478.627 150.246C478.004 149.166 478.783 147.817 480.03 147.817L492.653 147.817C493.899 147.817 494.679 149.166 494.055 150.246L487.744 161.178Z" fill="#B3B3B3"/>
<rect x="168" y="57" width="155" height="33" rx="16" fill="#E1E1E1"/>
<path d="M187.229 78V68.77H188.399V78H187.229ZM196.313 78H195.169V74.204C195.169 73.4847 195.056 72.9603 194.831 72.631C194.614 72.293 194.281 72.124 193.83 72.124C193.518 72.124 193.206 72.202 192.894 72.358C192.591 72.514 192.318 72.7263 192.075 72.995C191.841 73.255 191.672 73.5583 191.568 73.905V78H190.424V71.214H191.464V72.67C191.646 72.3493 191.88 72.072 192.166 71.838C192.452 71.604 192.777 71.422 193.141 71.292C193.505 71.162 193.886 71.097 194.285 71.097C194.675 71.097 195 71.1707 195.26 71.318C195.529 71.4567 195.737 71.656 195.884 71.916C196.04 72.1673 196.148 72.4663 196.209 72.813C196.278 73.1597 196.313 73.5367 196.313 73.944V78ZM201.095 78.13C200.584 78.13 200.116 78.039 199.691 77.857C199.275 77.6663 198.911 77.4063 198.599 77.077C198.296 76.7477 198.057 76.3707 197.884 75.946C197.719 75.5213 197.637 75.0707 197.637 74.594C197.637 73.9527 197.78 73.3677 198.066 72.839C198.352 72.3103 198.755 71.89 199.275 71.578C199.795 71.2573 200.397 71.097 201.082 71.097C201.749 71.097 202.33 71.2487 202.824 71.552C203.327 71.8467 203.699 72.2453 203.942 72.748L202.824 73.099C202.651 72.7783 202.408 72.5313 202.096 72.358C201.784 72.176 201.437 72.085 201.056 72.085C200.64 72.085 200.259 72.1933 199.912 72.41C199.574 72.6267 199.305 72.9257 199.106 73.307C198.907 73.6797 198.807 74.1087 198.807 74.594C198.807 75.0707 198.907 75.504 199.106 75.894C199.314 76.2753 199.587 76.5787 199.925 76.804C200.272 77.0293 200.653 77.142 201.069 77.142C201.338 77.142 201.593 77.0943 201.836 76.999C202.087 76.9037 202.304 76.778 202.486 76.622C202.677 76.4573 202.807 76.2797 202.876 76.089L203.994 76.427C203.855 76.7563 203.643 77.051 203.357 77.311C203.08 77.5623 202.746 77.7617 202.356 77.909C201.975 78.0563 201.554 78.13 201.095 78.13ZM208.878 72.215C208.306 72.2237 207.799 72.371 207.357 72.657C206.924 72.9343 206.616 73.32 206.434 73.814V78H205.29V71.214H206.356V72.787C206.59 72.319 206.898 71.942 207.279 71.656C207.669 71.3613 208.077 71.1967 208.501 71.162C208.588 71.162 208.662 71.162 208.722 71.162C208.783 71.162 208.835 71.1663 208.878 71.175V72.215ZM212.851 78.13C212.339 78.13 211.871 78.039 211.447 77.857C211.031 77.6663 210.667 77.4107 210.355 77.09C210.051 76.7607 209.813 76.3837 209.64 75.959C209.475 75.5343 209.393 75.0837 209.393 74.607C209.393 73.9657 209.54 73.3807 209.835 72.852C210.129 72.3233 210.537 71.8987 211.057 71.578C211.585 71.2573 212.188 71.097 212.864 71.097C213.548 71.097 214.142 71.2617 214.645 71.591C215.156 71.9117 215.55 72.3363 215.828 72.865C216.114 73.385 216.257 73.9483 216.257 74.555C216.257 74.6417 216.252 74.7283 216.244 74.815C216.244 74.893 216.239 74.9537 216.231 74.997H210.602C210.636 75.439 210.758 75.8333 210.966 76.18C211.182 76.518 211.46 76.7867 211.798 76.986C212.136 77.1767 212.5 77.272 212.89 77.272C213.306 77.272 213.696 77.168 214.06 76.96C214.432 76.752 214.688 76.479 214.827 76.141L215.815 76.414C215.667 76.7433 215.446 77.038 215.152 77.298C214.866 77.558 214.523 77.7617 214.125 77.909C213.735 78.0563 213.31 78.13 212.851 78.13ZM210.563 74.204H215.191C215.156 73.762 215.03 73.372 214.814 73.034C214.597 72.696 214.32 72.4317 213.982 72.241C213.644 72.0503 213.271 71.955 212.864 71.955C212.465 71.955 212.097 72.0503 211.759 72.241C211.421 72.4317 211.143 72.696 210.927 73.034C210.719 73.372 210.597 73.762 210.563 74.204ZM216.995 76.037C216.995 75.6037 217.117 75.231 217.359 74.919C217.611 74.5983 217.953 74.3513 218.386 74.178C218.82 74.0047 219.322 73.918 219.894 73.918C220.198 73.918 220.518 73.944 220.856 73.996C221.194 74.0393 221.493 74.1087 221.753 74.204V73.71C221.753 73.19 221.597 72.7827 221.285 72.488C220.973 72.1847 220.531 72.033 219.959 72.033C219.587 72.033 219.227 72.1023 218.88 72.241C218.542 72.371 218.183 72.5617 217.801 72.813L217.385 72.007C217.827 71.7037 218.269 71.4783 218.711 71.331C219.153 71.175 219.613 71.097 220.089 71.097C220.956 71.097 221.641 71.3397 222.143 71.825C222.646 72.3017 222.897 72.969 222.897 73.827V76.7C222.897 76.8387 222.923 76.9427 222.975 77.012C223.036 77.0727 223.131 77.1073 223.261 77.116V78C223.149 78.0173 223.049 78.0303 222.962 78.039C222.884 78.0477 222.819 78.052 222.767 78.052C222.499 78.052 222.295 77.9783 222.156 77.831C222.026 77.6837 221.953 77.5277 221.935 77.363L221.909 76.934C221.615 77.3153 221.229 77.61 220.752 77.818C220.276 78.026 219.803 78.13 219.335 78.13C218.885 78.13 218.482 78.039 218.126 77.857C217.771 77.6663 217.494 77.415 217.294 77.103C217.095 76.7823 216.995 76.427 216.995 76.037ZM221.415 76.518C221.519 76.3967 221.602 76.2753 221.662 76.154C221.723 76.024 221.753 75.9157 221.753 75.829V74.984C221.485 74.88 221.203 74.802 220.908 74.75C220.614 74.6893 220.323 74.659 220.037 74.659C219.457 74.659 218.984 74.776 218.62 75.01C218.265 75.2353 218.087 75.5473 218.087 75.946C218.087 76.1627 218.144 76.375 218.256 76.583C218.378 76.7823 218.551 76.947 218.776 77.077C219.01 77.207 219.296 77.272 219.634 77.272C219.99 77.272 220.328 77.2027 220.648 77.064C220.969 76.9167 221.225 76.7347 221.415 76.518ZM227.054 78.13C226.49 78.13 225.962 78.039 225.468 77.857C224.974 77.6663 224.549 77.3847 224.194 77.012L224.636 76.206C225.026 76.57 225.416 76.83 225.806 76.986C226.196 77.142 226.594 77.22 227.002 77.22C227.47 77.22 227.851 77.1333 228.146 76.96C228.44 76.778 228.588 76.5137 228.588 76.167C228.588 75.9157 228.51 75.7293 228.354 75.608C228.206 75.4867 227.994 75.387 227.717 75.309C227.439 75.2223 227.11 75.127 226.729 75.023C226.261 74.8843 225.866 74.737 225.546 74.581C225.225 74.425 224.982 74.23 224.818 73.996C224.653 73.762 224.571 73.4673 224.571 73.112C224.571 72.6787 224.683 72.3147 224.909 72.02C225.134 71.7167 225.442 71.487 225.832 71.331C226.23 71.175 226.681 71.097 227.184 71.097C227.686 71.097 228.141 71.175 228.549 71.331C228.956 71.487 229.307 71.7167 229.602 72.02L229.082 72.813C228.813 72.5357 228.518 72.332 228.198 72.202C227.877 72.0633 227.517 71.994 227.119 71.994C226.885 71.994 226.655 72.0243 226.43 72.085C226.204 72.137 226.018 72.2367 225.871 72.384C225.723 72.5227 225.65 72.722 225.65 72.982C225.65 73.1987 225.706 73.372 225.819 73.502C225.94 73.6233 226.113 73.7273 226.339 73.814C226.573 73.9007 226.854 73.996 227.184 74.1C227.695 74.2473 228.137 74.3947 228.51 74.542C228.891 74.6893 229.186 74.88 229.394 75.114C229.602 75.348 229.706 75.673 229.706 76.089C229.706 76.7303 229.463 77.233 228.978 77.597C228.492 77.9523 227.851 78.13 227.054 78.13ZM231.074 78V71.214H232.218V78H231.074ZM231.074 69.94V68.51H232.218V69.94H231.074ZM239.959 78H238.815V74.204C238.815 73.4847 238.703 72.9603 238.477 72.631C238.261 72.293 237.927 72.124 237.476 72.124C237.164 72.124 236.852 72.202 236.54 72.358C236.237 72.514 235.964 72.7263 235.721 72.995C235.487 73.255 235.318 73.5583 235.214 73.905V78H234.07V71.214H235.11V72.67C235.292 72.3493 235.526 72.072 235.812 71.838C236.098 71.604 236.423 71.422 236.787 71.292C237.151 71.162 237.533 71.097 237.931 71.097C238.321 71.097 238.646 71.1707 238.906 71.318C239.175 71.4567 239.383 71.656 239.53 71.916C239.686 72.1673 239.795 72.4663 239.855 72.813C239.925 73.1597 239.959 73.5367 239.959 73.944V78ZM244.442 78.078C243.983 78.078 243.558 77.987 243.168 77.805C242.787 77.6143 242.458 77.3587 242.18 77.038C241.903 76.7087 241.686 76.336 241.53 75.92C241.383 75.504 241.309 75.0707 241.309 74.62C241.309 74.1433 241.383 73.6927 241.53 73.268C241.686 72.8433 241.903 72.4707 242.18 72.15C242.466 71.8207 242.8 71.565 243.181 71.383C243.563 71.1923 243.987 71.097 244.455 71.097C245.019 71.097 245.508 71.2357 245.924 71.513C246.349 71.7903 246.704 72.1413 246.99 72.566V71.214H248.004V77.922C248.004 78.5633 247.848 79.105 247.536 79.547C247.233 79.989 246.817 80.3227 246.288 80.548C245.768 80.782 245.188 80.899 244.546 80.899C243.784 80.899 243.16 80.7647 242.674 80.496C242.189 80.2273 241.786 79.8633 241.465 79.404L242.128 78.819C242.397 79.2177 242.744 79.5167 243.168 79.716C243.602 79.9153 244.061 80.015 244.546 80.015C244.962 80.015 245.344 79.937 245.69 79.781C246.046 79.6337 246.327 79.404 246.535 79.092C246.752 78.78 246.86 78.39 246.86 77.922V76.726C246.609 77.142 246.262 77.4713 245.82 77.714C245.387 77.9567 244.928 78.078 244.442 78.078ZM244.793 77.142C245.036 77.142 245.27 77.0987 245.495 77.012C245.721 76.9253 245.929 76.8127 246.119 76.674C246.31 76.5267 246.47 76.362 246.6 76.18C246.73 75.998 246.817 75.8117 246.86 75.621V73.671C246.739 73.359 246.566 73.086 246.34 72.852C246.115 72.6093 245.859 72.423 245.573 72.293C245.287 72.1543 244.993 72.085 244.689 72.085C244.343 72.085 244.031 72.1587 243.753 72.306C243.485 72.4533 243.255 72.6527 243.064 72.904C242.874 73.1467 242.726 73.4197 242.622 73.723C242.518 74.0263 242.466 74.334 242.466 74.646C242.466 74.984 242.527 75.3047 242.648 75.608C242.77 75.9027 242.934 76.167 243.142 76.401C243.35 76.635 243.597 76.817 243.883 76.947C244.169 77.077 244.473 77.142 244.793 77.142ZM257.13 78.065C256.393 78.065 255.773 77.9393 255.271 77.688C254.768 77.428 254.365 77.0813 254.062 76.648C253.758 76.206 253.537 75.7077 253.399 75.153C253.26 74.5983 253.191 74.0263 253.191 73.437V68.77H254.361V73.437C254.361 73.8877 254.404 74.3297 254.491 74.763C254.586 75.1877 254.738 75.569 254.946 75.907C255.154 76.245 255.435 76.5137 255.791 76.713C256.146 76.9123 256.588 77.012 257.117 77.012C257.654 77.012 258.1 76.9123 258.456 76.713C258.811 76.505 259.093 76.232 259.301 75.894C259.509 75.5473 259.656 75.1617 259.743 74.737C259.838 74.3123 259.886 73.879 259.886 73.437V68.77H261.056V73.437C261.056 74.061 260.982 74.6547 260.835 75.218C260.696 75.7727 260.471 76.2623 260.159 76.687C259.847 77.1117 259.439 77.4497 258.937 77.701C258.443 77.9437 257.84 78.065 257.13 78.065ZM265.114 78.13C264.551 78.13 264.022 78.039 263.528 77.857C263.034 77.6663 262.61 77.3847 262.254 77.012L262.696 76.206C263.086 76.57 263.476 76.83 263.866 76.986C264.256 77.142 264.655 77.22 265.062 77.22C265.53 77.22 265.912 77.1333 266.206 76.96C266.501 76.778 266.648 76.5137 266.648 76.167C266.648 75.9157 266.57 75.7293 266.414 75.608C266.267 75.4867 266.055 75.387 265.777 75.309C265.5 75.2223 265.171 75.127 264.789 75.023C264.321 74.8843 263.927 74.737 263.606 74.581C263.286 74.425 263.043 74.23 262.878 73.996C262.714 73.762 262.631 73.4673 262.631 73.112C262.631 72.6787 262.744 72.3147 262.969 72.02C263.195 71.7167 263.502 71.487 263.892 71.331C264.291 71.175 264.742 71.097 265.244 71.097C265.747 71.097 266.202 71.175 266.609 71.331C267.017 71.487 267.368 71.7167 267.662 72.02L267.142 72.813C266.874 72.5357 266.579 72.332 266.258 72.202C265.938 72.0633 265.578 71.994 265.179 71.994C264.945 71.994 264.716 72.0243 264.49 72.085C264.265 72.137 264.079 72.2367 263.931 72.384C263.784 72.5227 263.71 72.722 263.71 72.982C263.71 73.1987 263.767 73.372 263.879 73.502C264.001 73.6233 264.174 73.7273 264.399 73.814C264.633 73.9007 264.915 73.996 265.244 74.1C265.756 74.2473 266.198 74.3947 266.57 74.542C266.952 74.6893 267.246 74.88 267.454 75.114C267.662 75.348 267.766 75.673 267.766 76.089C267.766 76.7303 267.524 77.233 267.038 77.597C266.553 77.9523 265.912 78.13 265.114 78.13ZM268.602 76.037C268.602 75.6037 268.723 75.231 268.966 74.919C269.217 74.5983 269.56 74.3513 269.993 74.178C270.426 74.0047 270.929 73.918 271.501 73.918C271.804 73.918 272.125 73.944 272.463 73.996C272.801 74.0393 273.1 74.1087 273.36 74.204V73.71C273.36 73.19 273.204 72.7827 272.892 72.488C272.58 72.1847 272.138 72.033 271.566 72.033C271.193 72.033 270.834 72.1023 270.487 72.241C270.149 72.371 269.789 72.5617 269.408 72.813L268.992 72.007C269.434 71.7037 269.876 71.4783 270.318 71.331C270.76 71.175 271.219 71.097 271.696 71.097C272.563 71.097 273.247 71.3397 273.75 71.825C274.253 72.3017 274.504 72.969 274.504 73.827V76.7C274.504 76.8387 274.53 76.9427 274.582 77.012C274.643 77.0727 274.738 77.1073 274.868 77.116V78C274.755 78.0173 274.656 78.0303 274.569 78.039C274.491 78.0477 274.426 78.052 274.374 78.052C274.105 78.052 273.902 77.9783 273.763 77.831C273.633 77.6837 273.559 77.5277 273.542 77.363L273.516 76.934C273.221 77.3153 272.836 77.61 272.359 77.818C271.882 78.026 271.41 78.13 270.942 78.13C270.491 78.13 270.088 78.039 269.733 77.857C269.378 77.6663 269.1 77.415 268.901 77.103C268.702 76.7823 268.602 76.427 268.602 76.037ZM273.022 76.518C273.126 76.3967 273.208 76.2753 273.269 76.154C273.33 76.024 273.36 75.9157 273.36 75.829V74.984C273.091 74.88 272.81 74.802 272.515 74.75C272.22 74.6893 271.93 74.659 271.644 74.659C271.063 74.659 270.591 74.776 270.227 75.01C269.872 75.2353 269.694 75.5473 269.694 75.946C269.694 76.1627 269.75 76.375 269.863 76.583C269.984 76.7823 270.158 76.947 270.383 77.077C270.617 77.207 270.903 77.272 271.241 77.272C271.596 77.272 271.934 77.2027 272.255 77.064C272.576 76.9167 272.831 76.7347 273.022 76.518ZM279.817 78.13C279.288 78.13 278.807 78 278.374 77.74C277.941 77.48 277.598 77.142 277.347 76.726V78H276.333V68.51H277.477V72.566C277.763 72.124 278.114 71.7687 278.53 71.5C278.946 71.2313 279.431 71.097 279.986 71.097C280.454 71.097 280.874 71.1967 281.247 71.396C281.62 71.5867 281.936 71.851 282.196 72.189C282.465 72.5183 282.668 72.8953 282.807 73.32C282.954 73.736 283.028 74.1737 283.028 74.633C283.028 75.1097 282.946 75.5603 282.781 75.985C282.625 76.401 282.4 76.7737 282.105 77.103C281.81 77.4237 281.468 77.675 281.078 77.857C280.697 78.039 280.276 78.13 279.817 78.13ZM279.531 77.142C279.869 77.142 280.181 77.0727 280.467 76.934C280.753 76.7953 281 76.609 281.208 76.375C281.416 76.141 281.576 75.8723 281.689 75.569C281.802 75.2657 281.858 74.9537 281.858 74.633C281.858 74.191 281.763 73.775 281.572 73.385C281.39 72.995 281.13 72.683 280.792 72.449C280.463 72.2063 280.077 72.085 279.635 72.085C279.314 72.085 279.015 72.1587 278.738 72.306C278.461 72.4533 278.214 72.6483 277.997 72.891C277.789 73.125 277.616 73.385 277.477 73.671V75.634C277.52 75.8507 277.611 76.05 277.75 76.232C277.889 76.414 278.058 76.5743 278.257 76.713C278.456 76.843 278.664 76.947 278.881 77.025C279.106 77.103 279.323 77.142 279.531 77.142ZM284.433 78V71.214H285.577V78H284.433ZM284.433 69.94V68.51H285.577V69.94H284.433ZM287.455 68.51H288.599V76.245C288.599 76.6177 288.651 76.8473 288.755 76.934C288.859 77.0207 288.985 77.064 289.132 77.064C289.314 77.064 289.487 77.0467 289.652 77.012C289.817 76.9687 289.955 76.9253 290.068 76.882L290.25 77.818C290.059 77.896 289.834 77.961 289.574 78.013C289.314 78.065 289.084 78.091 288.885 78.091C288.443 78.091 288.092 77.9653 287.832 77.714C287.581 77.4627 287.455 77.1117 287.455 76.661V68.51ZM291.149 78V71.214H292.293V78H291.149ZM291.149 69.94V68.51H292.293V69.94H291.149ZM297.655 77.662C297.559 77.7053 297.429 77.7617 297.265 77.831C297.1 77.9003 296.909 77.961 296.693 78.013C296.476 78.065 296.246 78.091 296.004 78.091C295.726 78.091 295.471 78.0433 295.237 77.948C295.003 77.844 294.816 77.688 294.678 77.48C294.539 77.2633 294.47 76.9947 294.47 76.674V72.111H293.547V71.214H294.47V68.952H295.614V71.214H297.135V72.111H295.614V76.323C295.631 76.5657 295.713 76.7477 295.861 76.869C296.008 76.9817 296.181 77.038 296.381 77.038C296.606 77.038 296.814 76.999 297.005 76.921C297.195 76.843 297.321 76.7867 297.382 76.752L297.655 77.662ZM299.027 79.846C299.14 79.8547 299.252 79.8633 299.365 79.872C299.478 79.8893 299.564 79.898 299.625 79.898C299.764 79.898 299.885 79.8503 299.989 79.755C300.093 79.6597 300.206 79.4733 300.327 79.196C300.457 78.9273 300.622 78.5287 300.821 78L297.948 71.214H299.157L301.445 76.843L303.512 71.214H304.643L301.341 79.781C301.263 79.9803 301.146 80.1667 300.99 80.34C300.843 80.522 300.652 80.665 300.418 80.769C300.184 80.873 299.902 80.925 299.573 80.925C299.495 80.925 299.413 80.9207 299.326 80.912C299.248 80.9033 299.148 80.886 299.027 80.86V79.846Z" fill="#666666"/>
<defs>
<radialGradient id="paint0_radial_1925_12264" cx="0" cy="0" r="1" gradientUnits="userSpaceOnUse" gradientTransform="translate(253.181 81.0087) rotate(-90.2947) scale(91.7134 723.566)">
<stop stop-color="#999999" stop-opacity="0"/>
<stop offset="1" stop-color="#999999"/>
</radialGradient>
</defs>
</svg>
