<svg width="498" height="164" viewBox="0 0 498 164" fill="none" xmlns="http://www.w3.org/2000/svg">
<path d="M495.503 0.408203V25.3315C495.503 52.1651 473.75 73.9179 446.917 73.9179H59.5206C32.6871 73.9179 10.9342 95.6708 10.9342 122.504V160.258" stroke="url(#paint0_radial_1925_12265)" stroke-width="3"/>
<path d="M12.499 161.555C11.8757 162.635 10.3173 162.635 9.6939 161.555L3.38234 150.623C2.75897 149.543 3.53818 148.194 4.78491 148.194L17.408 148.194C18.6548 148.194 19.434 149.543 18.8106 150.623L12.499 161.555Z" fill="#B3B3B3"/>
<rect x="175" y="58" width="162" height="33" rx="16" fill="#E1E1E1"/>
<path d="M194.263 79V69.77H195.433V79H194.263ZM203.347 79H202.203V75.204C202.203 74.4847 202.09 73.9603 201.865 73.631C201.648 73.293 201.315 73.124 200.864 73.124C200.552 73.124 200.24 73.202 199.928 73.358C199.625 73.514 199.352 73.7263 199.109 73.995C198.875 74.255 198.706 74.5583 198.602 74.905V79H197.458V72.214H198.498V73.67C198.68 73.3493 198.914 73.072 199.2 72.838C199.486 72.604 199.811 72.422 200.175 72.292C200.539 72.162 200.92 72.097 201.319 72.097C201.709 72.097 202.034 72.1707 202.294 72.318C202.563 72.4567 202.771 72.656 202.918 72.916C203.074 73.1673 203.182 73.4663 203.243 73.813C203.312 74.1597 203.347 74.5367 203.347 74.944V79ZM208.129 79.13C207.618 79.13 207.15 79.039 206.725 78.857C206.309 78.6663 205.945 78.4063 205.633 78.077C205.33 77.7477 205.091 77.3707 204.918 76.946C204.753 76.5213 204.671 76.0707 204.671 75.594C204.671 74.9527 204.814 74.3677 205.1 73.839C205.386 73.3103 205.789 72.89 206.309 72.578C206.829 72.2573 207.431 72.097 208.116 72.097C208.783 72.097 209.364 72.2487 209.858 72.552C210.361 72.8467 210.733 73.2453 210.976 73.748L209.858 74.099C209.685 73.7783 209.442 73.5313 209.13 73.358C208.818 73.176 208.471 73.085 208.09 73.085C207.674 73.085 207.293 73.1933 206.946 73.41C206.608 73.6267 206.339 73.9257 206.14 74.307C205.941 74.6797 205.841 75.1087 205.841 75.594C205.841 76.0707 205.941 76.504 206.14 76.894C206.348 77.2753 206.621 77.5787 206.959 77.804C207.306 78.0293 207.687 78.142 208.103 78.142C208.372 78.142 208.627 78.0943 208.87 77.999C209.121 77.9037 209.338 77.778 209.52 77.622C209.711 77.4573 209.841 77.2797 209.91 77.089L211.028 77.427C210.889 77.7563 210.677 78.051 210.391 78.311C210.114 78.5623 209.78 78.7617 209.39 78.909C209.009 79.0563 208.588 79.13 208.129 79.13ZM215.912 73.215C215.34 73.2237 214.833 73.371 214.391 73.657C213.958 73.9343 213.65 74.32 213.468 74.814V79H212.324V72.214H213.39V73.787C213.624 73.319 213.932 72.942 214.313 72.656C214.703 72.3613 215.111 72.1967 215.535 72.162C215.622 72.162 215.696 72.162 215.756 72.162C215.817 72.162 215.869 72.1663 215.912 72.175V73.215ZM219.885 79.13C219.374 79.13 218.906 79.039 218.481 78.857C218.065 78.6663 217.701 78.4107 217.389 78.09C217.086 77.7607 216.847 77.3837 216.674 76.959C216.509 76.5343 216.427 76.0837 216.427 75.607C216.427 74.9657 216.574 74.3807 216.869 73.852C217.164 73.3233 217.571 72.8987 218.091 72.578C218.62 72.2573 219.222 72.097 219.898 72.097C220.583 72.097 221.176 72.2617 221.679 72.591C222.19 72.9117 222.585 73.3363 222.862 73.865C223.148 74.385 223.291 74.9483 223.291 75.555C223.291 75.6417 223.287 75.7283 223.278 75.815C223.278 75.893 223.274 75.9537 223.265 75.997H217.636C217.671 76.439 217.792 76.8333 218 77.18C218.217 77.518 218.494 77.7867 218.832 77.986C219.17 78.1767 219.534 78.272 219.924 78.272C220.34 78.272 220.73 78.168 221.094 77.96C221.467 77.752 221.722 77.479 221.861 77.141L222.849 77.414C222.702 77.7433 222.481 78.038 222.186 78.298C221.9 78.558 221.558 78.7617 221.159 78.909C220.769 79.0563 220.344 79.13 219.885 79.13ZM217.597 75.204H222.225C222.19 74.762 222.065 74.372 221.848 74.034C221.631 73.696 221.354 73.4317 221.016 73.241C220.678 73.0503 220.305 72.955 219.898 72.955C219.499 72.955 219.131 73.0503 218.793 73.241C218.455 73.4317 218.178 73.696 217.961 74.034C217.753 74.372 217.632 74.762 217.597 75.204ZM224.03 77.037C224.03 76.6037 224.151 76.231 224.394 75.919C224.645 75.5983 224.987 75.3513 225.421 75.178C225.854 75.0047 226.357 74.918 226.929 74.918C227.232 74.918 227.553 74.944 227.891 74.996C228.229 75.0393 228.528 75.1087 228.788 75.204V74.71C228.788 74.19 228.632 73.7827 228.32 73.488C228.008 73.1847 227.566 73.033 226.994 73.033C226.621 73.033 226.261 73.1023 225.915 73.241C225.577 73.371 225.217 73.5617 224.836 73.813L224.42 73.007C224.862 72.7037 225.304 72.4783 225.746 72.331C226.188 72.175 226.647 72.097 227.124 72.097C227.99 72.097 228.675 72.3397 229.178 72.825C229.68 73.3017 229.932 73.969 229.932 74.827V77.7C229.932 77.8387 229.958 77.9427 230.01 78.012C230.07 78.0727 230.166 78.1073 230.296 78.116V79C230.183 79.0173 230.083 79.0303 229.997 79.039C229.919 79.0477 229.854 79.052 229.802 79.052C229.533 79.052 229.329 78.9783 229.191 78.831C229.061 78.6837 228.987 78.5277 228.97 78.363L228.944 77.934C228.649 78.3153 228.263 78.61 227.787 78.818C227.31 79.026 226.838 79.13 226.37 79.13C225.919 79.13 225.516 79.039 225.161 78.857C224.805 78.6663 224.528 78.415 224.329 78.103C224.129 77.7823 224.03 77.427 224.03 77.037ZM228.45 77.518C228.554 77.3967 228.636 77.2753 228.697 77.154C228.757 77.024 228.788 76.9157 228.788 76.829V75.984C228.519 75.88 228.237 75.802 227.943 75.75C227.648 75.6893 227.358 75.659 227.072 75.659C226.491 75.659 226.019 75.776 225.655 76.01C225.299 76.2353 225.122 76.5473 225.122 76.946C225.122 77.1627 225.178 77.375 225.291 77.583C225.412 77.7823 225.585 77.947 225.811 78.077C226.045 78.207 226.331 78.272 226.669 78.272C227.024 78.272 227.362 78.2027 227.683 78.064C228.003 77.9167 228.259 77.7347 228.45 77.518ZM234.088 79.13C233.525 79.13 232.996 79.039 232.502 78.857C232.008 78.6663 231.583 78.3847 231.228 78.012L231.67 77.206C232.06 77.57 232.45 77.83 232.84 77.986C233.23 78.142 233.629 78.22 234.036 78.22C234.504 78.22 234.885 78.1333 235.18 77.96C235.475 77.778 235.622 77.5137 235.622 77.167C235.622 76.9157 235.544 76.7293 235.388 76.608C235.241 76.4867 235.028 76.387 234.751 76.309C234.474 76.2223 234.144 76.127 233.763 76.023C233.295 75.8843 232.901 75.737 232.58 75.581C232.259 75.425 232.017 75.23 231.852 74.996C231.687 74.762 231.605 74.4673 231.605 74.112C231.605 73.6787 231.718 73.3147 231.943 73.02C232.168 72.7167 232.476 72.487 232.866 72.331C233.265 72.175 233.715 72.097 234.218 72.097C234.721 72.097 235.176 72.175 235.583 72.331C235.99 72.487 236.341 72.7167 236.636 73.02L236.116 73.813C235.847 73.5357 235.553 73.332 235.232 73.202C234.911 73.0633 234.552 72.994 234.153 72.994C233.919 72.994 233.689 73.0243 233.464 73.085C233.239 73.137 233.052 73.2367 232.905 73.384C232.758 73.5227 232.684 73.722 232.684 73.982C232.684 74.1987 232.74 74.372 232.853 74.502C232.974 74.6233 233.148 74.7273 233.373 74.814C233.607 74.9007 233.889 74.996 234.218 75.1C234.729 75.2473 235.171 75.3947 235.544 75.542C235.925 75.6893 236.22 75.88 236.428 76.114C236.636 76.348 236.74 76.673 236.74 77.089C236.74 77.7303 236.497 78.233 236.012 78.597C235.527 78.9523 234.885 79.13 234.088 79.13ZM238.109 79V72.214H239.253V79H238.109ZM238.109 70.94V69.51H239.253V70.94H238.109ZM246.994 79H245.85V75.204C245.85 74.4847 245.737 73.9603 245.512 73.631C245.295 73.293 244.961 73.124 244.511 73.124C244.199 73.124 243.887 73.202 243.575 73.358C243.271 73.514 242.998 73.7263 242.756 73.995C242.522 74.255 242.353 74.5583 242.249 74.905V79H241.105V72.214H242.145V73.67C242.327 73.3493 242.561 73.072 242.847 72.838C243.133 72.604 243.458 72.422 243.822 72.292C244.186 72.162 244.567 72.097 244.966 72.097C245.356 72.097 245.681 72.1707 245.941 72.318C246.209 72.4567 246.417 72.656 246.565 72.916C246.721 73.1673 246.829 73.4663 246.89 73.813C246.959 74.1597 246.994 74.5367 246.994 74.944V79ZM251.477 79.078C251.017 79.078 250.593 78.987 250.203 78.805C249.821 78.6143 249.492 78.3587 249.215 78.038C248.937 77.7087 248.721 77.336 248.565 76.92C248.417 76.504 248.344 76.0707 248.344 75.62C248.344 75.1433 248.417 74.6927 248.565 74.268C248.721 73.8433 248.937 73.4707 249.215 73.15C249.501 72.8207 249.834 72.565 250.216 72.383C250.597 72.1923 251.022 72.097 251.49 72.097C252.053 72.097 252.543 72.2357 252.959 72.513C253.383 72.7903 253.739 73.1413 254.025 73.566V72.214H255.039V78.922C255.039 79.5633 254.883 80.105 254.571 80.547C254.267 80.989 253.851 81.3227 253.323 81.548C252.803 81.782 252.222 81.899 251.581 81.899C250.818 81.899 250.194 81.7647 249.709 81.496C249.223 81.2273 248.82 80.8633 248.5 80.404L249.163 79.819C249.431 80.2177 249.778 80.5167 250.203 80.716C250.636 80.9153 251.095 81.015 251.581 81.015C251.997 81.015 252.378 80.937 252.725 80.781C253.08 80.6337 253.362 80.404 253.57 80.092C253.786 79.78 253.895 79.39 253.895 78.922V77.726C253.643 78.142 253.297 78.4713 252.855 78.714C252.421 78.9567 251.962 79.078 251.477 79.078ZM251.828 78.142C252.07 78.142 252.304 78.0987 252.53 78.012C252.755 77.9253 252.963 77.8127 253.154 77.674C253.344 77.5267 253.505 77.362 253.635 77.18C253.765 76.998 253.851 76.8117 253.895 76.621V74.671C253.773 74.359 253.6 74.086 253.375 73.852C253.149 73.6093 252.894 73.423 252.608 73.293C252.322 73.1543 252.027 73.085 251.724 73.085C251.377 73.085 251.065 73.1587 250.788 73.306C250.519 73.4533 250.289 73.6527 250.099 73.904C249.908 74.1467 249.761 74.4197 249.657 74.723C249.553 75.0263 249.501 75.334 249.501 75.646C249.501 75.984 249.561 76.3047 249.683 76.608C249.804 76.9027 249.969 77.167 250.177 77.401C250.385 77.635 250.632 77.817 250.918 77.947C251.204 78.077 251.507 78.142 251.828 78.142ZM265.776 71.707C265.672 71.5857 265.533 71.4687 265.36 71.356C265.187 71.2433 264.992 71.1437 264.775 71.057C264.558 70.9617 264.32 70.888 264.06 70.836C263.809 70.7753 263.544 70.745 263.267 70.745C262.556 70.745 262.032 70.8793 261.694 71.148C261.356 71.4167 261.187 71.785 261.187 72.253C261.187 72.5823 261.274 72.8423 261.447 73.033C261.62 73.2237 261.885 73.3797 262.24 73.501C262.604 73.6223 263.063 73.748 263.618 73.878C264.259 74.0167 264.814 74.1857 265.282 74.385C265.75 74.5843 266.11 74.853 266.361 75.191C266.612 75.5203 266.738 75.9623 266.738 76.517C266.738 76.959 266.651 77.3447 266.478 77.674C266.313 77.9947 266.079 78.2633 265.776 78.48C265.473 78.688 265.117 78.844 264.71 78.948C264.303 79.0433 263.861 79.091 263.384 79.091C262.916 79.091 262.457 79.0433 262.006 78.948C261.564 78.844 261.144 78.6967 260.745 78.506C260.346 78.3153 259.974 78.077 259.627 77.791L260.186 76.803C260.325 76.9503 260.502 77.0977 260.719 77.245C260.944 77.3837 261.196 77.5137 261.473 77.635C261.759 77.7563 262.067 77.856 262.396 77.934C262.725 78.0033 263.063 78.038 263.41 78.038C264.069 78.038 264.58 77.921 264.944 77.687C265.308 77.4443 265.49 77.0933 265.49 76.634C265.49 76.2873 265.386 76.01 265.178 75.802C264.979 75.594 264.68 75.4207 264.281 75.282C263.882 75.1433 263.397 75.0047 262.825 74.866C262.201 74.71 261.677 74.541 261.252 74.359C260.827 74.1683 260.507 73.9213 260.29 73.618C260.082 73.3147 259.978 72.9203 259.978 72.435C259.978 71.8457 260.121 71.3473 260.407 70.94C260.693 70.5327 261.087 70.225 261.59 70.017C262.093 69.809 262.66 69.705 263.293 69.705C263.709 69.705 264.095 69.7483 264.45 69.835C264.814 69.9217 265.152 70.043 265.464 70.199C265.776 70.355 266.062 70.5413 266.322 70.758L265.776 71.707ZM268.095 79V72.214H269.239V79H268.095ZM268.095 70.94V69.51H269.239V70.94H268.095ZM281.322 79H280.178V75.204C280.178 74.4933 280.061 73.969 279.827 73.631C279.602 73.293 279.264 73.124 278.813 73.124C278.354 73.124 277.938 73.293 277.565 73.631C277.192 73.9603 276.928 74.3893 276.772 74.918V79H275.628V75.204C275.628 74.4847 275.515 73.9603 275.29 73.631C275.065 73.293 274.727 73.124 274.276 73.124C273.825 73.124 273.409 73.2887 273.028 73.618C272.655 73.9387 272.391 74.3677 272.235 74.905V79H271.091V72.214H272.131V73.67C272.408 73.1673 272.768 72.7817 273.21 72.513C273.652 72.2357 274.15 72.097 274.705 72.097C275.268 72.097 275.719 72.253 276.057 72.565C276.395 72.8683 276.603 73.2627 276.681 73.748C276.984 73.2107 277.353 72.8033 277.786 72.526C278.219 72.24 278.713 72.097 279.268 72.097C279.658 72.097 279.983 72.1707 280.243 72.318C280.512 72.4567 280.724 72.656 280.88 72.916C281.036 73.1673 281.149 73.4663 281.218 73.813C281.287 74.1597 281.322 74.5367 281.322 74.944V79ZM286.754 79.13C286.199 79.13 285.705 78.9913 285.272 78.714C284.838 78.4367 284.496 78.0857 284.245 77.661V81.769H283.101V72.214H284.115V73.488C284.383 73.072 284.734 72.7383 285.168 72.487C285.601 72.227 286.073 72.097 286.585 72.097C287.053 72.097 287.482 72.1923 287.872 72.383C288.262 72.5737 288.6 72.8337 288.886 73.163C289.172 73.4923 289.393 73.8693 289.549 74.294C289.713 74.71 289.796 75.1477 289.796 75.607C289.796 76.2483 289.666 76.8377 289.406 77.375C289.154 77.9123 288.799 78.3413 288.34 78.662C287.88 78.974 287.352 79.13 286.754 79.13ZM286.403 78.142C286.741 78.142 287.044 78.0727 287.313 77.934C287.59 77.7867 287.824 77.596 288.015 77.362C288.214 77.1193 288.366 76.8463 288.47 76.543C288.574 76.2397 288.626 75.9277 288.626 75.607C288.626 75.269 288.565 74.9483 288.444 74.645C288.331 74.3417 288.166 74.073 287.95 73.839C287.742 73.605 287.495 73.423 287.209 73.293C286.931 73.1543 286.628 73.085 286.299 73.085C286.091 73.085 285.874 73.124 285.649 73.202C285.432 73.28 285.224 73.3927 285.025 73.54C284.825 73.6787 284.656 73.839 284.518 74.021C284.379 74.203 284.288 74.398 284.245 74.606V76.543C284.375 76.8377 284.548 77.1063 284.765 77.349C284.981 77.5917 285.233 77.7867 285.519 77.934C285.805 78.0727 286.099 78.142 286.403 78.142ZM291.226 69.51H292.37V77.245C292.37 77.6177 292.422 77.8473 292.526 77.934C292.63 78.0207 292.756 78.064 292.903 78.064C293.085 78.064 293.259 78.0467 293.423 78.012C293.588 77.9687 293.727 77.9253 293.839 77.882L294.021 78.818C293.831 78.896 293.605 78.961 293.345 79.013C293.085 79.065 292.856 79.091 292.656 79.091C292.214 79.091 291.863 78.9653 291.603 78.714C291.352 78.4627 291.226 78.1117 291.226 77.661V69.51ZM294.92 79V72.214H296.064V79H294.92ZM294.92 70.94V69.51H296.064V70.94H294.92ZM300.919 79.13C300.408 79.13 299.94 79.039 299.515 78.857C299.099 78.6663 298.735 78.4063 298.423 78.077C298.12 77.7477 297.881 77.3707 297.708 76.946C297.543 76.5213 297.461 76.0707 297.461 75.594C297.461 74.9527 297.604 74.3677 297.89 73.839C298.176 73.3103 298.579 72.89 299.099 72.578C299.619 72.2573 300.221 72.097 300.906 72.097C301.573 72.097 302.154 72.2487 302.648 72.552C303.151 72.8467 303.523 73.2453 303.766 73.748L302.648 74.099C302.475 73.7783 302.232 73.5313 301.92 73.358C301.608 73.176 301.261 73.085 300.88 73.085C300.464 73.085 300.083 73.1933 299.736 73.41C299.398 73.6267 299.129 73.9257 298.93 74.307C298.731 74.6797 298.631 75.1087 298.631 75.594C298.631 76.0707 298.731 76.504 298.93 76.894C299.138 77.2753 299.411 77.5787 299.749 77.804C300.096 78.0293 300.477 78.142 300.893 78.142C301.162 78.142 301.417 78.0943 301.66 77.999C301.911 77.9037 302.128 77.778 302.31 77.622C302.501 77.4573 302.631 77.2797 302.7 77.089L303.818 77.427C303.679 77.7563 303.467 78.051 303.181 78.311C302.904 78.5623 302.57 78.7617 302.18 78.909C301.799 79.0563 301.378 79.13 300.919 79.13ZM305.114 79V72.214H306.258V79H305.114ZM305.114 70.94V69.51H306.258V70.94H305.114ZM311.621 78.662C311.525 78.7053 311.395 78.7617 311.231 78.831C311.066 78.9003 310.875 78.961 310.659 79.013C310.442 79.065 310.212 79.091 309.97 79.091C309.692 79.091 309.437 79.0433 309.203 78.948C308.969 78.844 308.782 78.688 308.644 78.48C308.505 78.2633 308.436 77.9947 308.436 77.674V73.111H307.513V72.214H308.436V69.952H309.58V72.214H311.101V73.111H309.58V77.323C309.597 77.5657 309.679 77.7477 309.827 77.869C309.974 77.9817 310.147 78.038 310.347 78.038C310.572 78.038 310.78 77.999 310.971 77.921C311.161 77.843 311.287 77.7867 311.348 77.752L311.621 78.662ZM312.993 80.846C313.105 80.8547 313.218 80.8633 313.331 80.872C313.443 80.8893 313.53 80.898 313.591 80.898C313.729 80.898 313.851 80.8503 313.955 80.755C314.059 80.6597 314.171 80.4733 314.293 80.196C314.423 79.9273 314.587 79.5287 314.787 79L311.914 72.214H313.123L315.411 77.843L317.478 72.214H318.609L315.307 80.781C315.229 80.9803 315.112 81.1667 314.956 81.34C314.808 81.522 314.618 81.665 314.384 81.769C314.15 81.873 313.868 81.925 313.539 81.925C313.461 81.925 313.378 81.9207 313.292 81.912C313.214 81.9033 313.114 81.886 312.993 81.86V80.846Z" fill="#666666"/>
<defs>
<radialGradient id="paint0_radial_1925_12265" cx="0" cy="0" r="1" gradientUnits="userSpaceOnUse" gradientTransform="translate(244.257 81.3856) rotate(-89.7053) scale(91.7134 723.566)">
<stop stop-color="#999999" stop-opacity="0"/>
<stop offset="1" stop-color="#999999"/>
</radialGradient>
</defs>
</svg>
