<svg width="24" height="24" viewBox="0 0 24 24" fill="none" xmlns="http://www.w3.org/2000/svg">
<ellipse cx="11.6509" cy="11.9995" rx="11.6509" ry="11.4722" fill="#535353"/>
<path d="M10.0567 10.4118H11.3152C11.6375 10.4118 11.9009 10.3555 12.1055 10.243C12.3153 10.1253 12.4713 9.96163 12.5736 9.75189C12.6759 9.53703 12.7271 9.28381 12.7271 8.99221C12.7271 8.76712 12.6785 8.55994 12.5813 8.37066C12.4892 8.18138 12.346 8.03047 12.1516 7.91792C11.9572 7.80026 11.7091 7.74143 11.4073 7.74143C11.2026 7.74143 11.0031 7.78492 10.8087 7.87188C10.6143 7.95373 10.4532 8.07139 10.3253 8.22486C10.2025 8.37833 10.1411 8.56505 10.1411 8.78503H7.54749C7.54749 8.15069 7.72142 7.60843 8.06929 7.15825C8.42227 6.70295 8.88523 6.35509 9.45819 6.11465C10.0363 5.8691 10.6578 5.74632 11.3228 5.74632C12.1158 5.74632 12.8115 5.8691 13.41 6.11465C14.0086 6.35509 14.4741 6.71318 14.8066 7.18894C15.1443 7.65958 15.3131 8.24277 15.3131 8.9385C15.3131 9.32217 15.2235 9.68283 15.0445 10.0205C14.8654 10.3581 14.6148 10.6548 14.2925 10.9106C13.9702 11.1664 13.5916 11.3684 13.1568 11.5168C12.7271 11.66 12.2565 11.7317 11.7449 11.7317H10.0567V10.4118ZM10.0567 12.3379V11.0487H11.7449C12.3025 11.0487 12.8115 11.1127 13.2719 11.2405C13.7323 11.3633 14.1288 11.5475 14.4613 11.793C14.7938 12.0386 15.0496 12.343 15.2287 12.7062C15.4077 13.0643 15.4972 13.4761 15.4972 13.9416C15.4972 14.4634 15.3924 14.9289 15.1826 15.3382C14.9729 15.7474 14.6787 16.0928 14.3002 16.3741C13.9216 16.6555 13.4791 16.8703 12.9727 17.0187C12.4662 17.1619 11.9163 17.2335 11.3228 17.2335C10.8573 17.2335 10.3918 17.1722 9.92627 17.0494C9.46075 16.9215 9.03615 16.7271 8.65247 16.4662C8.2688 16.2002 7.9593 15.8625 7.72398 15.4533C7.49377 15.0389 7.37867 14.5453 7.37867 13.9723H9.97231C9.97231 14.2076 10.0363 14.4225 10.1642 14.6169C10.2972 14.8062 10.4736 14.9571 10.6936 15.0696C10.9136 15.1822 11.1515 15.2384 11.4073 15.2384C11.7244 15.2384 11.993 15.1796 12.213 15.0619C12.4381 14.9392 12.6094 14.7755 12.7271 14.5708C12.8448 14.3662 12.9036 14.1386 12.9036 13.8879C12.9036 13.5093 12.8396 13.2075 12.7118 12.9824C12.589 12.7573 12.4074 12.5936 12.1669 12.4913C11.9316 12.389 11.6477 12.3379 11.3152 12.3379H10.0567Z" fill="#DDDDDD"/>
</svg>
