<svg width="24" height="24" viewBox="0 0 24 24" fill="none" xmlns="http://www.w3.org/2000/svg">
<ellipse cx="11.9023" cy="11.6566" rx="11.9023" ry="11.6566" fill="#E1E1E1"/>
<path d="M10.2829 10.8398H11.5615C11.889 10.8398 12.1567 10.7826 12.3646 10.6683C12.5777 10.5487 12.7363 10.3824 12.8402 10.1693C12.9442 9.95095 12.9962 9.69365 12.9962 9.39737C12.9962 9.16866 12.9468 8.95815 12.848 8.76583C12.7545 8.57351 12.6089 8.42017 12.4114 8.30581C12.2139 8.18626 11.9618 8.12649 11.6551 8.12649C11.4472 8.12649 11.2445 8.17067 11.0469 8.25903C10.8494 8.3422 10.6857 8.46175 10.5557 8.61769C10.431 8.77362 10.3686 8.96335 10.3686 9.18686H7.7333C7.7333 8.54232 7.91002 7.99134 8.26348 7.53393C8.62213 7.07132 9.09254 6.71786 9.67471 6.47356C10.2621 6.22406 10.8936 6.09931 11.5693 6.09931C12.375 6.09931 13.0819 6.22406 13.6901 6.47356C14.2982 6.71786 14.7712 7.08171 15.1091 7.56512C15.4522 8.04332 15.6237 8.63588 15.6237 9.34279C15.6237 9.73264 15.5327 10.0991 15.3508 10.4421C15.1689 10.7852 14.9142 11.0867 14.5867 11.3466C14.2592 11.6065 13.8746 11.8118 13.4328 11.9625C12.9962 12.1081 12.518 12.1808 11.9982 12.1808H10.2829V10.8398ZM10.2829 12.7968V11.4869H11.9982C12.5647 11.4869 13.0819 11.5519 13.5497 11.6818C14.0175 11.8066 14.4204 11.9937 14.7582 12.2432C15.0961 12.4927 15.356 12.802 15.5379 13.171C15.7199 13.5349 15.8108 13.9533 15.8108 14.4263C15.8108 14.9565 15.7043 15.4295 15.4911 15.8454C15.278 16.2612 14.9792 16.612 14.5945 16.8979C14.2099 17.1838 13.7602 17.4021 13.2457 17.5529C12.7311 17.6984 12.1723 17.7712 11.5693 17.7712C11.0963 17.7712 10.6233 17.7088 10.1503 17.584C9.67731 17.4541 9.24588 17.2566 8.85604 16.9915C8.4662 16.7212 8.15173 16.3781 7.91262 15.9623C7.67872 15.5413 7.56177 15.0397 7.56177 14.4575H10.1971C10.1971 14.6966 10.2621 14.9149 10.392 15.1125C10.5272 15.3048 10.7065 15.4581 10.93 15.5725C11.1535 15.6868 11.3952 15.744 11.6551 15.744C11.9774 15.744 12.2503 15.6842 12.4738 15.5647C12.7025 15.4399 12.8766 15.2736 12.9962 15.0657C13.1157 14.8578 13.1755 14.6264 13.1755 14.3718C13.1755 13.9871 13.1105 13.6804 12.9806 13.4517C12.8558 13.223 12.6713 13.0567 12.427 12.9527C12.1879 12.8488 11.8994 12.7968 11.5615 12.7968H10.2829Z" fill="#666666"/>
</svg>
