<svg width="24" height="23" viewBox="0 0 24 23" fill="none" xmlns="http://www.w3.org/2000/svg">
<ellipse cx="11.6509" cy="11.4995" rx="11.6509" ry="11.4722" fill="#535353"/>
<path d="M15.4972 14.585V16.5801H7.70096V14.8919L11.2922 11.1165C11.6093 10.7533 11.8651 10.4285 12.0595 10.142C12.2539 9.85042 12.3946 9.58696 12.4815 9.35164C12.5736 9.11632 12.6197 8.90402 12.6197 8.71474C12.6197 8.39246 12.5711 8.12388 12.4739 7.90903C12.3818 7.68905 12.2437 7.52279 12.0595 7.41025C11.8805 7.2977 11.6579 7.24143 11.3919 7.24143C11.1259 7.24143 10.8931 7.31817 10.6936 7.47164C10.4941 7.62511 10.3381 7.83485 10.2255 8.10086C10.1181 8.36688 10.0644 8.66615 10.0644 8.99866H7.47075C7.47075 8.31316 7.63701 7.6865 7.96953 7.11866C8.30716 6.55082 8.77525 6.09808 9.37378 5.76045C9.97231 5.4177 10.6655 5.24632 11.4533 5.24632C12.2769 5.24632 12.9675 5.37421 13.5251 5.63C14.0827 5.88578 14.5022 6.25667 14.7836 6.74266C15.0701 7.22353 15.2133 7.80416 15.2133 8.48454C15.2133 8.87333 15.1519 9.24677 15.0291 9.60487C14.9064 9.96297 14.7299 10.3185 14.4997 10.6715C14.2695 11.0194 13.9881 11.3774 13.6556 11.7458C13.3282 12.1141 12.9547 12.5055 12.5353 12.9198L11.0926 14.585H15.4972Z" fill="#DDDDDD"/>
</svg>
