<svg width="24" height="23" viewBox="0 0 24 23" fill="none" xmlns="http://www.w3.org/2000/svg">
<circle cx="11.5899" cy="11.4722" r="11.4722" fill="#D1D1D1"/>
<path d="M9.97023 9.76953H11.2515C11.5796 9.76953 11.8478 9.71224 12.0562 9.59766C12.2697 9.47786 12.4286 9.3112 12.5327 9.09766C12.6369 8.87891 12.689 8.62109 12.689 8.32422C12.689 8.09505 12.6395 7.88411 12.5405 7.69141C12.4468 7.4987 12.301 7.34505 12.103 7.23047C11.9051 7.11068 11.6525 7.05078 11.3452 7.05078C11.1369 7.05078 10.9338 7.09505 10.7359 7.18359C10.5379 7.26693 10.3739 7.38672 10.2437 7.54297C10.1187 7.69922 10.0562 7.88932 10.0562 8.11328H7.41554C7.41554 7.46745 7.59262 6.91536 7.94679 6.45703C8.30616 5.99349 8.77752 5.63932 9.36085 5.39453C9.94939 5.14453 10.5822 5.01953 11.2593 5.01953C12.0666 5.01953 12.7749 5.14453 13.3843 5.39453C13.9937 5.63932 14.4676 6.00391 14.8062 6.48828C15.1499 6.96745 15.3218 7.5612 15.3218 8.26953C15.3218 8.66016 15.2306 9.02734 15.0484 9.37109C14.8661 9.71484 14.6109 10.0169 14.2827 10.2773C13.9546 10.5378 13.5692 10.7435 13.1265 10.8945C12.689 11.0404 12.2098 11.1133 11.689 11.1133H9.97023V9.76953ZM9.97023 11.7305V10.418H11.689C12.2567 10.418 12.7749 10.4831 13.2437 10.6133C13.7124 10.7383 14.1161 10.9258 14.4546 11.1758C14.7931 11.4258 15.0536 11.7357 15.2359 12.1055C15.4181 12.4701 15.5093 12.8893 15.5093 13.3633C15.5093 13.8945 15.4025 14.3685 15.189 14.7852C14.9754 15.2018 14.676 15.5534 14.2905 15.8398C13.9051 16.1263 13.4546 16.3451 12.939 16.4961C12.4234 16.6419 11.8635 16.7148 11.2593 16.7148C10.7853 16.7148 10.3114 16.6523 9.83741 16.5273C9.36345 16.3971 8.93116 16.1992 8.54054 15.9336C8.14991 15.6628 7.83481 15.319 7.59523 14.9023C7.36085 14.4805 7.24366 13.9779 7.24366 13.3945H9.88429C9.88429 13.6341 9.94939 13.8529 10.0796 14.0508C10.215 14.2435 10.3947 14.3971 10.6187 14.5117C10.8426 14.6263 11.0848 14.6836 11.3452 14.6836C11.6681 14.6836 11.9416 14.6237 12.1655 14.5039C12.3947 14.3789 12.5692 14.2122 12.689 14.0039C12.8088 13.7956 12.8687 13.5638 12.8687 13.3086C12.8687 12.9232 12.8036 12.6159 12.6734 12.3867C12.5484 12.1576 12.3635 11.9909 12.1187 11.8867C11.8791 11.7826 11.59 11.7305 11.2515 11.7305H9.97023Z" fill="white"/>
</svg>
