<svg width="24" height="23" viewBox="0 0 24 23" fill="none" xmlns="http://www.w3.org/2000/svg">
<circle cx="11.9912" cy="11.4722" r="11.4722" fill="#D1D1D1"/>
<path d="M15.9102 14.5273V16.5586H7.97267V14.8398L11.6289 10.9961C11.9518 10.6263 12.2123 10.2956 12.4102 10.0039C12.6081 9.70703 12.7513 9.4388 12.8399 9.19922C12.9336 8.95964 12.9805 8.74349 12.9805 8.55078C12.9805 8.22266 12.931 7.94922 12.832 7.73047C12.7383 7.50651 12.5977 7.33724 12.4102 7.22266C12.2279 7.10807 12.0013 7.05078 11.7305 7.05078C11.4596 7.05078 11.2227 7.12891 11.0195 7.28516C10.8164 7.44141 10.6576 7.65495 10.543 7.92578C10.4336 8.19661 10.3789 8.5013 10.3789 8.83984H7.73829C7.73829 8.14193 7.90756 7.50391 8.2461 6.92578C8.58985 6.34766 9.06642 5.88672 9.67579 5.54297C10.2852 5.19401 10.9909 5.01953 11.793 5.01953C12.6315 5.01953 13.3346 5.14974 13.9024 5.41016C14.4701 5.67057 14.8971 6.04818 15.1836 6.54297C15.4753 7.03255 15.6211 7.6237 15.6211 8.31641C15.6211 8.71224 15.5586 9.09245 15.4336 9.45703C15.3086 9.82161 15.1289 10.1836 14.8945 10.543C14.6602 10.8971 14.3737 11.2617 14.0352 11.6367C13.7018 12.0117 13.3216 12.4102 12.8945 12.832L11.4258 14.5273H15.9102Z" fill="white"/>
</svg>
