<svg width="24" height="24" viewBox="0 0 24 24" fill="none" xmlns="http://www.w3.org/2000/svg">
<ellipse cx="11.9023" cy="11.6566" rx="11.9023" ry="11.6566" fill="#E1E1E1"/>
<path d="M15.8098 15.5881V17.6152H7.88826V15.8999L11.5372 12.0639C11.8594 11.6948 12.1193 11.3648 12.3169 11.0737C12.5144 10.7774 12.6573 10.5097 12.7457 10.2706C12.8392 10.0315 12.886 9.8158 12.886 9.62348C12.886 9.29601 12.8366 9.02312 12.7379 8.80481C12.6443 8.5813 12.504 8.41237 12.3169 8.29802C12.1349 8.18366 11.9088 8.12649 11.6385 8.12649C11.3682 8.12649 11.1317 8.20446 10.929 8.36039C10.7263 8.51633 10.5678 8.72944 10.4534 8.99973C10.3443 9.27002 10.2897 9.5741 10.2897 9.91196H7.65435C7.65435 9.21545 7.82328 8.5787 8.16114 8.00174C8.50421 7.42477 8.97981 6.96476 9.58797 6.6217C10.1961 6.27344 10.9004 6.09931 11.7009 6.09931C12.5378 6.09931 13.2395 6.22926 13.8061 6.48915C14.3726 6.74905 14.7988 7.12589 15.0847 7.61969C15.3758 8.1083 15.5214 8.69826 15.5214 9.38957C15.5214 9.78461 15.459 10.1641 15.3342 10.5279C15.2095 10.8918 15.0302 11.253 14.7963 11.6117C14.5623 11.9651 14.2765 12.329 13.9386 12.7032C13.6059 13.0775 13.2265 13.4751 12.8003 13.8961L11.3345 15.5881H15.8098Z" fill="#666666"/>
</svg>
