<svg width="214" height="114" viewBox="0 0 214 114" fill="none" xmlns="http://www.w3.org/2000/svg">
<path d="M2.92969 27.752H11.1489C12.8341 27.752 14.2822 28.0042 15.4932 28.5088C16.7142 29.0133 17.6527 29.7601 18.3086 30.749C18.9645 31.738 19.2925 32.9539 19.2925 34.397C19.2925 35.5776 19.0907 36.5918 18.687 37.4395C18.2935 38.277 17.7334 38.9784 17.0068 39.5435C16.2904 40.0985 15.4478 40.5425 14.479 40.8755L13.041 41.6323H5.89648L5.86621 38.0903H11.1792C11.9764 38.0903 12.6374 37.9491 13.1621 37.6665C13.6868 37.384 14.0804 36.9904 14.3428 36.4858C14.6152 35.9813 14.7515 35.396 14.7515 34.73C14.7515 34.0236 14.6203 33.4131 14.3579 32.8984C14.0955 32.3838 13.6969 31.9902 13.1621 31.7178C12.6273 31.4453 11.9562 31.3091 11.1489 31.3091H7.4707V49.791H2.92969V27.752ZM15.251 49.791L10.2256 39.9673L15.0239 39.937L20.1099 49.5791V49.791H15.251ZM21.8203 41.7686V41.4507C21.8203 40.2498 21.9919 39.1449 22.335 38.1357C22.6781 37.1165 23.1776 36.2336 23.8335 35.4868C24.4894 34.7401 25.2967 34.1598 26.2554 33.7461C27.214 33.3223 28.314 33.1104 29.5552 33.1104C30.7964 33.1104 31.9014 33.3223 32.8701 33.7461C33.8389 34.1598 34.6512 34.7401 35.3071 35.4868C35.9731 36.2336 36.4777 37.1165 36.8208 38.1357C37.1639 39.1449 37.3354 40.2498 37.3354 41.4507V41.7686C37.3354 42.9593 37.1639 44.0643 36.8208 45.0835C36.4777 46.0926 35.9731 46.9756 35.3071 47.7324C34.6512 48.4792 33.8439 49.0594 32.8853 49.4731C31.9266 49.8869 30.8267 50.0938 29.5854 50.0938C28.3442 50.0938 27.2393 49.8869 26.2705 49.4731C25.3118 49.0594 24.4995 48.4792 23.8335 47.7324C23.1776 46.9756 22.6781 46.0926 22.335 45.0835C21.9919 44.0643 21.8203 42.9593 21.8203 41.7686ZM26.1797 41.4507V41.7686C26.1797 42.4548 26.2402 43.0955 26.3613 43.6909C26.4824 44.2863 26.6742 44.811 26.9365 45.2651C27.209 45.7091 27.5622 46.0573 27.9961 46.3096C28.43 46.5618 28.9598 46.688 29.5854 46.688C30.1909 46.688 30.7106 46.5618 31.1445 46.3096C31.5785 46.0573 31.9266 45.7091 32.189 45.2651C32.4513 44.811 32.6431 44.2863 32.7642 43.6909C32.8953 43.0955 32.9609 42.4548 32.9609 41.7686V41.4507C32.9609 40.7847 32.8953 40.159 32.7642 39.5737C32.6431 38.9784 32.4463 38.4536 32.1738 37.9995C31.9115 37.5353 31.5633 37.172 31.1294 36.9097C30.6955 36.6473 30.1707 36.5161 29.5552 36.5161C28.9396 36.5161 28.4149 36.6473 27.981 36.9097C27.5571 37.172 27.209 37.5353 26.9365 37.9995C26.6742 38.4536 26.4824 38.9784 26.3613 39.5737C26.2402 40.159 26.1797 40.7847 26.1797 41.4507ZM40.0146 26.541H44.374V46.0371L43.9351 49.791H40.0146V26.541ZM54.7427 41.4355V41.7534C54.7427 42.9744 54.6115 44.0946 54.3491 45.1138C54.0968 46.133 53.7033 47.016 53.1685 47.7627C52.6336 48.4993 51.9676 49.0745 51.1704 49.4883C50.3833 49.8919 49.4549 50.0938 48.3853 50.0938C47.3862 50.0938 46.5184 49.8919 45.7817 49.4883C45.0552 49.0846 44.4447 48.5145 43.9502 47.7778C43.4557 47.0412 43.0571 46.1784 42.7544 45.1895C42.4517 44.2005 42.2246 43.1208 42.0732 41.9502V41.2539C42.2246 40.0833 42.4517 39.0036 42.7544 38.0146C43.0571 37.0257 43.4557 36.1629 43.9502 35.4263C44.4447 34.6896 45.0552 34.1195 45.7817 33.7158C46.5083 33.3122 47.366 33.1104 48.355 33.1104C49.4347 33.1104 50.3732 33.3172 51.1704 33.731C51.9777 34.1346 52.6437 34.7098 53.1685 35.4565C53.7033 36.1932 54.0968 37.0711 54.3491 38.0903C54.6115 39.0994 54.7427 40.2145 54.7427 41.4355ZM50.3833 41.7534V41.4355C50.3833 40.7695 50.3328 40.1439 50.2319 39.5586C50.1411 38.9632 49.9797 38.4435 49.7476 37.9995C49.5155 37.5454 49.1976 37.1872 48.7939 36.9248C48.4004 36.6624 47.8908 36.5312 47.2651 36.5312C46.6698 36.5312 46.1652 36.6322 45.7515 36.834C45.3377 37.0358 44.9946 37.3184 44.7222 37.6816C44.4598 38.0449 44.263 38.4788 44.1318 38.9834C44.0007 39.4779 43.9199 40.0228 43.8896 40.6182V42.6011C43.9199 43.3983 44.0511 44.1047 44.2832 44.7202C44.5254 45.3257 44.8887 45.805 45.373 46.1582C45.8675 46.5013 46.5083 46.6729 47.2954 46.6729C47.911 46.6729 48.4206 46.5518 48.8242 46.3096C49.2279 46.0674 49.5407 45.7243 49.7627 45.2803C49.9948 44.8363 50.1562 44.3166 50.2471 43.7212C50.3379 43.1157 50.3833 42.4598 50.3833 41.7534ZM56.7559 41.7686V41.4507C56.7559 40.2498 56.9274 39.1449 57.2705 38.1357C57.6136 37.1165 58.1131 36.2336 58.769 35.4868C59.425 34.7401 60.2323 34.1598 61.1909 33.7461C62.1496 33.3223 63.2495 33.1104 64.4907 33.1104C65.7319 33.1104 66.8369 33.3223 67.8057 33.7461C68.7744 34.1598 69.5868 34.7401 70.2427 35.4868C70.9087 36.2336 71.4132 37.1165 71.7563 38.1357C72.0994 39.1449 72.271 40.2498 72.271 41.4507V41.7686C72.271 42.9593 72.0994 44.0643 71.7563 45.0835C71.4132 46.0926 70.9087 46.9756 70.2427 47.7324C69.5868 48.4792 68.7795 49.0594 67.8208 49.4731C66.8621 49.8869 65.7622 50.0938 64.521 50.0938C63.2798 50.0938 62.1748 49.8869 61.2061 49.4731C60.2474 49.0594 59.4351 48.4792 58.769 47.7324C58.1131 46.9756 57.6136 46.0926 57.2705 45.0835C56.9274 44.0643 56.7559 42.9593 56.7559 41.7686ZM61.1152 41.4507V41.7686C61.1152 42.4548 61.1758 43.0955 61.2969 43.6909C61.418 44.2863 61.6097 44.811 61.8721 45.2651C62.1445 45.7091 62.4977 46.0573 62.9316 46.3096C63.3656 46.5618 63.8953 46.688 64.521 46.688C65.1265 46.688 65.6462 46.5618 66.0801 46.3096C66.514 46.0573 66.8621 45.7091 67.1245 45.2651C67.3869 44.811 67.5786 44.2863 67.6997 43.6909C67.8309 43.0955 67.8965 42.4548 67.8965 41.7686V41.4507C67.8965 40.7847 67.8309 40.159 67.6997 39.5737C67.5786 38.9784 67.3818 38.4536 67.1094 37.9995C66.847 37.5353 66.4989 37.172 66.0649 36.9097C65.631 36.6473 65.1063 36.5161 64.4907 36.5161C63.8752 36.5161 63.3504 36.6473 62.9165 36.9097C62.4927 37.172 62.1445 37.5353 61.8721 37.9995C61.6097 38.4536 61.418 38.9784 61.2969 39.5737C61.1758 40.159 61.1152 40.7847 61.1152 41.4507ZM82.9727 33.4131V36.501H73.4365V33.4131H82.9727ZM75.7979 29.3716H80.1572V44.8564C80.1572 45.3307 80.2178 45.694 80.3389 45.9463C80.4701 46.1986 80.6618 46.3752 80.9141 46.4761C81.1663 46.5669 81.4842 46.6123 81.8677 46.6123C82.1401 46.6123 82.3823 46.6022 82.5942 46.582C82.8162 46.5518 83.0029 46.5215 83.1543 46.4912L83.1694 49.7002C82.7961 49.8213 82.3924 49.9172 81.9585 49.9878C81.5246 50.0584 81.0452 50.0938 80.5205 50.0938C79.5618 50.0938 78.7243 49.9373 78.0078 49.6245C77.3014 49.3016 76.7565 48.7869 76.373 48.0806C75.9896 47.3742 75.7979 46.4458 75.7979 45.2954V29.3716ZM84.3652 41.7686V41.4507C84.3652 40.2498 84.5368 39.1449 84.8799 38.1357C85.223 37.1165 85.7225 36.2336 86.3784 35.4868C87.0343 34.7401 87.8416 34.1598 88.8003 33.7461C89.759 33.3223 90.8589 33.1104 92.1001 33.1104C93.3413 33.1104 94.4463 33.3223 95.415 33.7461C96.3838 34.1598 97.1961 34.7401 97.8521 35.4868C98.5181 36.2336 99.0226 37.1165 99.3657 38.1357C99.7088 39.1449 99.8804 40.2498 99.8804 41.4507V41.7686C99.8804 42.9593 99.7088 44.0643 99.3657 45.0835C99.0226 46.0926 98.5181 46.9756 97.8521 47.7324C97.1961 48.4792 96.3888 49.0594 95.4302 49.4731C94.4715 49.8869 93.3716 50.0938 92.1304 50.0938C90.8892 50.0938 89.7842 49.8869 88.8154 49.4731C87.8568 49.0594 87.0444 48.4792 86.3784 47.7324C85.7225 46.9756 85.223 46.0926 84.8799 45.0835C84.5368 44.0643 84.3652 42.9593 84.3652 41.7686ZM88.7246 41.4507V41.7686C88.7246 42.4548 88.7852 43.0955 88.9062 43.6909C89.0273 44.2863 89.2191 44.811 89.4814 45.2651C89.7539 45.7091 90.1071 46.0573 90.541 46.3096C90.9749 46.5618 91.5047 46.688 92.1304 46.688C92.7358 46.688 93.2555 46.5618 93.6895 46.3096C94.1234 46.0573 94.4715 45.7091 94.7339 45.2651C94.9963 44.811 95.188 44.2863 95.3091 43.6909C95.4403 43.0955 95.5059 42.4548 95.5059 41.7686V41.4507C95.5059 40.7847 95.4403 40.159 95.3091 39.5737C95.188 38.9784 94.9912 38.4536 94.7188 37.9995C94.4564 37.5353 94.1082 37.172 93.6743 36.9097C93.2404 36.6473 92.7157 36.5161 92.1001 36.5161C91.4845 36.5161 90.9598 36.6473 90.5259 36.9097C90.1021 37.172 89.7539 37.5353 89.4814 37.9995C89.2191 38.4536 89.0273 38.9784 88.9062 39.5737C88.7852 40.159 88.7246 40.7847 88.7246 41.4507ZM119.18 40.1187H113.519L113.488 37.0005H118.241C119.079 37.0005 119.765 36.8945 120.3 36.6826C120.835 36.4606 121.233 36.1427 121.496 35.729C121.768 35.3052 121.904 34.7905 121.904 34.1851C121.904 33.4989 121.773 32.9438 121.511 32.52C121.258 32.0962 120.86 31.7884 120.315 31.5967C119.78 31.4049 119.089 31.3091 118.241 31.3091H115.093V49.791H110.552V27.752H118.241C119.523 27.752 120.668 27.873 121.677 28.1152C122.696 28.3574 123.559 28.7257 124.266 29.2202C124.972 29.7147 125.512 30.3403 125.885 31.0972C126.259 31.8439 126.445 32.7319 126.445 33.7612C126.445 34.6694 126.238 35.507 125.825 36.2739C125.421 37.0409 124.78 37.6665 123.902 38.1509C123.035 38.6353 121.899 38.9027 120.497 38.9531L119.18 40.1187ZM118.983 49.791H112.277L114.048 46.249H118.983C119.78 46.249 120.431 46.1229 120.936 45.8706C121.44 45.6082 121.813 45.255 122.056 44.811C122.298 44.367 122.419 43.8574 122.419 43.2822C122.419 42.6364 122.308 42.0763 122.086 41.6021C121.874 41.1278 121.531 40.7645 121.057 40.5122C120.582 40.2498 119.957 40.1187 119.18 40.1187H114.805L114.835 37.0005H120.285L121.329 38.2266C122.671 38.2064 123.751 38.4435 124.568 38.938C125.396 39.4224 125.996 40.0531 126.37 40.8301C126.753 41.6071 126.945 42.4396 126.945 43.3276C126.945 44.7404 126.637 45.9312 126.021 46.8999C125.406 47.8586 124.503 48.5801 123.312 49.0645C122.131 49.5488 120.688 49.791 118.983 49.791ZM129.382 41.7686V41.4507C129.382 40.2498 129.553 39.1449 129.896 38.1357C130.24 37.1165 130.739 36.2336 131.395 35.4868C132.051 34.7401 132.858 34.1598 133.817 33.7461C134.776 33.3223 135.875 33.1104 137.117 33.1104C138.358 33.1104 139.463 33.3223 140.432 33.7461C141.4 34.1598 142.213 34.7401 142.869 35.4868C143.535 36.2336 144.039 37.1165 144.382 38.1357C144.725 39.1449 144.897 40.2498 144.897 41.4507V41.7686C144.897 42.9593 144.725 44.0643 144.382 45.0835C144.039 46.0926 143.535 46.9756 142.869 47.7324C142.213 48.4792 141.405 49.0594 140.447 49.4731C139.488 49.8869 138.388 50.0938 137.147 50.0938C135.906 50.0938 134.801 49.8869 133.832 49.4731C132.873 49.0594 132.061 48.4792 131.395 47.7324C130.739 46.9756 130.24 46.0926 129.896 45.0835C129.553 44.0643 129.382 42.9593 129.382 41.7686ZM133.741 41.4507V41.7686C133.741 42.4548 133.802 43.0955 133.923 43.6909C134.044 44.2863 134.236 44.811 134.498 45.2651C134.771 45.7091 135.124 46.0573 135.558 46.3096C135.992 46.5618 136.521 46.688 137.147 46.688C137.752 46.688 138.272 46.5618 138.706 46.3096C139.14 46.0573 139.488 45.7091 139.75 45.2651C140.013 44.811 140.205 44.2863 140.326 43.6909C140.457 43.0955 140.522 42.4548 140.522 41.7686V41.4507C140.522 40.7847 140.457 40.159 140.326 39.5737C140.205 38.9784 140.008 38.4536 139.735 37.9995C139.473 37.5353 139.125 37.172 138.691 36.9097C138.257 36.6473 137.732 36.5161 137.117 36.5161C136.501 36.5161 135.976 36.6473 135.542 36.9097C135.119 37.172 134.771 37.5353 134.498 37.9995C134.236 38.4536 134.044 38.9784 133.923 39.5737C133.802 40.159 133.741 40.7847 133.741 41.4507ZM152.178 26.541V49.791H147.803V26.541H152.178ZM165.453 46.2188V26.541H169.842V49.791H165.892L165.453 46.2188ZM155.099 41.7988V41.481C155.099 40.2297 155.24 39.0944 155.523 38.0752C155.806 37.0459 156.219 36.1629 156.764 35.4263C157.309 34.6896 157.98 34.1195 158.777 33.7158C159.575 33.3122 160.483 33.1104 161.502 33.1104C162.461 33.1104 163.298 33.3122 164.015 33.7158C164.741 34.1195 165.357 34.6947 165.861 35.4414C166.376 36.1781 166.79 37.0509 167.103 38.0601C167.415 39.0591 167.642 40.154 167.784 41.3447V42.041C167.642 43.1813 167.415 44.2409 167.103 45.2197C166.79 46.1986 166.376 47.0563 165.861 47.793C165.357 48.5195 164.741 49.0846 164.015 49.4883C163.288 49.8919 162.44 50.0938 161.472 50.0938C160.452 50.0938 159.544 49.8869 158.747 49.4731C157.96 49.0594 157.294 48.4792 156.749 47.7324C156.214 46.9857 155.806 46.1077 155.523 45.0986C155.24 44.0895 155.099 42.9896 155.099 41.7988ZM159.458 41.481V41.7988C159.458 42.4749 159.509 43.1056 159.61 43.6909C159.721 44.2762 159.897 44.7959 160.14 45.25C160.392 45.694 160.715 46.0422 161.108 46.2944C161.512 46.5366 162.001 46.6577 162.577 46.6577C163.323 46.6577 163.939 46.4912 164.423 46.1582C164.908 45.8151 165.276 45.3459 165.528 44.7505C165.791 44.1551 165.942 43.4689 165.982 42.6919V40.709C165.952 40.0732 165.861 39.5031 165.71 38.9985C165.569 38.4839 165.357 38.0449 165.074 37.6816C164.802 37.3184 164.459 37.0358 164.045 36.834C163.641 36.6322 163.162 36.5312 162.607 36.5312C162.042 36.5312 161.557 36.6624 161.154 36.9248C160.75 37.1771 160.422 37.5252 160.17 37.9692C159.928 38.4132 159.746 38.938 159.625 39.5435C159.514 40.1388 159.458 40.7847 159.458 41.481Z" fill="#999999"/>
<path d="M3.52002 84.9277H10.8159C12.4709 84.9277 13.8685 85.18 15.0088 85.6846C16.1592 86.1891 17.0321 86.9359 17.6274 87.9248C18.2329 88.9036 18.5356 90.1095 18.5356 91.5425C18.5356 92.5516 18.3288 93.4749 17.915 94.3125C17.5114 95.14 16.9261 95.8464 16.1592 96.4316C15.4023 97.0068 14.4941 97.4357 13.4346 97.7183L12.6172 98.0361H5.76025L5.72998 95.6597H10.9067C11.9562 95.6597 12.8291 95.478 13.5254 95.1147C14.2217 94.7414 14.7464 94.2419 15.0996 93.6162C15.4528 92.9906 15.6294 92.2993 15.6294 91.5425C15.6294 90.6948 15.4629 89.9531 15.1299 89.3174C14.7969 88.6816 14.2721 88.1922 13.5557 87.8491C12.8493 87.4959 11.936 87.3193 10.8159 87.3193H6.44141V106.967H3.52002V84.9277ZM16.4014 106.967L11.043 96.9766L14.0854 96.9614L19.5195 106.785V106.967H16.4014ZM21.457 98.9595V98.6113C21.457 97.4307 21.6286 96.3358 21.9717 95.3267C22.3148 94.3075 22.8092 93.4245 23.4551 92.6777C24.1009 91.9209 24.883 91.3356 25.8013 90.9219C26.7196 90.498 27.7489 90.2861 28.8892 90.2861C30.0396 90.2861 31.0739 90.498 31.9922 90.9219C32.9206 91.3356 33.7077 91.9209 34.3535 92.6777C35.0094 93.4245 35.509 94.3075 35.8521 95.3267C36.1951 96.3358 36.3667 97.4307 36.3667 98.6113V98.9595C36.3667 100.14 36.1951 101.235 35.8521 102.244C35.509 103.253 35.0094 104.136 34.3535 104.893C33.7077 105.64 32.9256 106.225 32.0073 106.649C31.0991 107.063 30.0698 107.27 28.9194 107.27C27.769 107.27 26.7347 107.063 25.8164 106.649C24.8981 106.225 24.111 105.64 23.4551 104.893C22.8092 104.136 22.3148 103.253 21.9717 102.244C21.6286 101.235 21.457 100.14 21.457 98.9595ZM24.2573 98.6113V98.9595C24.2573 99.7769 24.3532 100.549 24.5449 101.275C24.7367 101.992 25.0243 102.628 25.4077 103.183C25.8013 103.738 26.2907 104.177 26.876 104.5C27.4613 104.812 28.1424 104.969 28.9194 104.969C29.6864 104.969 30.3574 104.812 30.9326 104.5C31.5179 104.177 32.0023 103.738 32.3857 103.183C32.7692 102.628 33.0568 101.992 33.2485 101.275C33.4504 100.549 33.5513 99.7769 33.5513 98.9595V98.6113C33.5513 97.804 33.4504 97.0422 33.2485 96.3257C33.0568 95.5991 32.7642 94.9583 32.3706 94.4033C31.9871 93.8382 31.5028 93.3942 30.9175 93.0713C30.3423 92.7484 29.6662 92.5869 28.8892 92.5869C28.1222 92.5869 27.4461 92.7484 26.8608 93.0713C26.2856 93.3942 25.8013 93.8382 25.4077 94.4033C25.0243 94.9583 24.7367 95.5991 24.5449 96.3257C24.3532 97.0422 24.2573 97.804 24.2573 98.6113ZM39.8633 83.7168H42.6787V103.788L42.4365 106.967H39.8633V83.7168ZM53.7437 98.6416V98.9595C53.7437 100.15 53.6024 101.255 53.3198 102.274C53.0373 103.284 52.6235 104.161 52.0786 104.908C51.5337 105.655 50.8677 106.235 50.0806 106.649C49.2935 107.063 48.3903 107.27 47.3711 107.27C46.3317 107.27 45.4185 107.093 44.6313 106.74C43.8543 106.376 43.1984 105.857 42.6636 105.181C42.1287 104.505 41.6999 103.687 41.377 102.729C41.0641 101.77 40.8472 100.69 40.7261 99.4893V98.0967C40.8472 96.8857 41.0641 95.8009 41.377 94.8423C41.6999 93.8836 42.1287 93.0662 42.6636 92.3901C43.1984 91.7039 43.8543 91.1842 44.6313 90.8311C45.4084 90.4678 46.3115 90.2861 47.3408 90.2861C48.3701 90.2861 49.2834 90.488 50.0806 90.8916C50.8778 91.2852 51.5438 91.8503 52.0786 92.5869C52.6235 93.3236 53.0373 94.2065 53.3198 95.2358C53.6024 96.255 53.7437 97.3903 53.7437 98.6416ZM50.9282 98.9595V98.6416C50.9282 97.8242 50.8525 97.0573 50.7012 96.3408C50.5498 95.6143 50.3076 94.9785 49.9746 94.4336C49.6416 93.8786 49.2026 93.4447 48.6577 93.1318C48.1128 92.8089 47.4417 92.6475 46.6445 92.6475C45.9382 92.6475 45.3226 92.7686 44.7979 93.0107C44.2832 93.2529 43.8442 93.5809 43.481 93.9946C43.1177 94.3983 42.82 94.8625 42.5879 95.3872C42.3659 95.9019 42.1994 96.4367 42.0884 96.9917V100.64C42.2498 101.346 42.5122 102.027 42.8755 102.683C43.2489 103.329 43.7433 103.859 44.3589 104.272C44.9845 104.686 45.7565 104.893 46.6748 104.893C47.4316 104.893 48.0775 104.742 48.6123 104.439C49.1572 104.126 49.5962 103.697 49.9292 103.152C50.2723 102.607 50.5246 101.977 50.686 101.26C50.8475 100.544 50.9282 99.7769 50.9282 98.9595ZM56.5439 98.9595V98.6113C56.5439 97.4307 56.7155 96.3358 57.0586 95.3267C57.4017 94.3075 57.8962 93.4245 58.542 92.6777C59.1878 91.9209 59.9699 91.3356 60.8882 90.9219C61.8065 90.498 62.8358 90.2861 63.9761 90.2861C65.1265 90.2861 66.1608 90.498 67.0791 90.9219C68.0075 91.3356 68.7946 91.9209 69.4404 92.6777C70.0964 93.4245 70.5959 94.3075 70.939 95.3267C71.2821 96.3358 71.4536 97.4307 71.4536 98.6113V98.9595C71.4536 100.14 71.2821 101.235 70.939 102.244C70.5959 103.253 70.0964 104.136 69.4404 104.893C68.7946 105.64 68.0125 106.225 67.0942 106.649C66.186 107.063 65.1567 107.27 64.0063 107.27C62.856 107.27 61.8216 107.063 60.9033 106.649C59.985 106.225 59.1979 105.64 58.542 104.893C57.8962 104.136 57.4017 103.253 57.0586 102.244C56.7155 101.235 56.5439 100.14 56.5439 98.9595ZM59.3442 98.6113V98.9595C59.3442 99.7769 59.4401 100.549 59.6318 101.275C59.8236 101.992 60.1112 102.628 60.4946 103.183C60.8882 103.738 61.3776 104.177 61.9629 104.5C62.5482 104.812 63.2293 104.969 64.0063 104.969C64.7733 104.969 65.4443 104.812 66.0195 104.5C66.6048 104.177 67.0892 103.738 67.4727 103.183C67.8561 102.628 68.1437 101.992 68.3354 101.275C68.5373 100.549 68.6382 99.7769 68.6382 98.9595V98.6113C68.6382 97.804 68.5373 97.0422 68.3354 96.3257C68.1437 95.5991 67.8511 94.9583 67.4575 94.4033C67.0741 93.8382 66.5897 93.3942 66.0044 93.0713C65.4292 92.7484 64.7531 92.5869 63.9761 92.5869C63.2091 92.5869 62.533 92.7484 61.9478 93.0713C61.3726 93.3942 60.8882 93.8382 60.4946 94.4033C60.1112 94.9583 59.8236 95.5991 59.6318 96.3257C59.4401 97.0422 59.3442 97.804 59.3442 98.6113ZM81.8223 90.5889V92.7383H72.9673V90.5889H81.8223ZM75.9644 86.6079H78.7646V102.91C78.7646 103.465 78.8504 103.884 79.022 104.167C79.1935 104.449 79.4155 104.636 79.688 104.727C79.9604 104.817 80.2531 104.863 80.5659 104.863C80.798 104.863 81.0402 104.843 81.2925 104.802C81.5549 104.752 81.7516 104.711 81.8828 104.681L81.8979 106.967C81.6759 107.037 81.3833 107.103 81.02 107.164C80.6668 107.234 80.238 107.27 79.7334 107.27C79.0472 107.27 78.4165 107.133 77.8413 106.861C77.2661 106.588 76.807 106.134 76.4639 105.499C76.1309 104.853 75.9644 103.985 75.9644 102.895V86.6079ZM84.0625 98.9595V98.6113C84.0625 97.4307 84.234 96.3358 84.5771 95.3267C84.9202 94.3075 85.4147 93.4245 86.0605 92.6777C86.7064 91.9209 87.4884 91.3356 88.4067 90.9219C89.325 90.498 90.3543 90.2861 91.4946 90.2861C92.645 90.2861 93.6794 90.498 94.5977 90.9219C95.526 91.3356 96.3132 91.9209 96.959 92.6777C97.6149 93.4245 98.1144 94.3075 98.4575 95.3267C98.8006 96.3358 98.9722 97.4307 98.9722 98.6113V98.9595C98.9722 100.14 98.8006 101.235 98.4575 102.244C98.1144 103.253 97.6149 104.136 96.959 104.893C96.3132 105.64 95.5311 106.225 94.6128 106.649C93.7046 107.063 92.6753 107.27 91.5249 107.27C90.3745 107.27 89.3402 107.063 88.4219 106.649C87.5036 106.225 86.7165 105.64 86.0605 104.893C85.4147 104.136 84.9202 103.253 84.5771 102.244C84.234 101.235 84.0625 100.14 84.0625 98.9595ZM86.8628 98.6113V98.9595C86.8628 99.7769 86.9587 100.549 87.1504 101.275C87.3421 101.992 87.6297 102.628 88.0132 103.183C88.4067 103.738 88.8962 104.177 89.4814 104.5C90.0667 104.812 90.7479 104.969 91.5249 104.969C92.2918 104.969 92.9629 104.812 93.5381 104.5C94.1234 104.177 94.6077 103.738 94.9912 103.183C95.3747 102.628 95.6623 101.992 95.854 101.275C96.0558 100.549 96.1567 99.7769 96.1567 98.9595V98.6113C96.1567 97.804 96.0558 97.0422 95.854 96.3257C95.6623 95.5991 95.3696 94.9583 94.9761 94.4033C94.5926 93.8382 94.1082 93.3942 93.5229 93.0713C92.9478 92.7484 92.2716 92.5869 91.4946 92.5869C90.7277 92.5869 90.0516 92.7484 89.4663 93.0713C88.8911 93.3942 88.4067 93.8382 88.0132 94.4033C87.6297 94.9583 87.3421 95.5991 87.1504 96.3257C86.9587 97.0422 86.8628 97.804 86.8628 98.6113ZM110.597 84.9277H117.893C119.548 84.9277 120.946 85.18 122.086 85.6846C123.236 86.1891 124.109 86.9359 124.705 87.9248C125.31 88.9036 125.613 90.1095 125.613 91.5425C125.613 92.5516 125.406 93.4749 124.992 94.3125C124.589 95.14 124.003 95.8464 123.236 96.4316C122.479 97.0068 121.571 97.4357 120.512 97.7183L119.694 98.0361H112.837L112.807 95.6597H117.984C119.033 95.6597 119.906 95.478 120.603 95.1147C121.299 94.7414 121.824 94.2419 122.177 93.6162C122.53 92.9906 122.707 92.2993 122.707 91.5425C122.707 90.6948 122.54 89.9531 122.207 89.3174C121.874 88.6816 121.349 88.1922 120.633 87.8491C119.926 87.4959 119.013 87.3193 117.893 87.3193H113.519V106.967H110.597V84.9277ZM123.479 106.967L118.12 96.9766L121.163 96.9614L126.597 106.785V106.967H123.479ZM136.072 107.27C134.932 107.27 133.898 107.078 132.969 106.694C132.051 106.301 131.259 105.751 130.593 105.044C129.937 104.338 129.432 103.5 129.079 102.532C128.726 101.563 128.549 100.503 128.549 99.353V98.7173C128.549 97.3853 128.746 96.1995 129.14 95.1602C129.533 94.1107 130.068 93.2227 130.744 92.4961C131.42 91.7695 132.187 91.2196 133.045 90.8462C133.903 90.4728 134.791 90.2861 135.709 90.2861C136.88 90.2861 137.889 90.488 138.736 90.8916C139.594 91.2952 140.295 91.8604 140.84 92.5869C141.385 93.3034 141.789 94.151 142.051 95.1299C142.314 96.0986 142.445 97.1582 142.445 98.3086V99.5649H130.214V97.2793H139.645V97.0674C139.604 96.3408 139.453 95.6344 139.19 94.9482C138.938 94.262 138.535 93.6969 137.979 93.2529C137.424 92.8089 136.668 92.5869 135.709 92.5869C135.073 92.5869 134.488 92.7231 133.953 92.9956C133.418 93.258 132.959 93.6515 132.576 94.1763C132.192 94.701 131.895 95.3418 131.683 96.0986C131.471 96.8555 131.365 97.7284 131.365 98.7173V99.353C131.365 100.13 131.471 100.862 131.683 101.548C131.905 102.224 132.222 102.819 132.636 103.334C133.06 103.849 133.57 104.252 134.165 104.545C134.771 104.838 135.457 104.984 136.224 104.984C137.213 104.984 138.05 104.782 138.736 104.378C139.423 103.975 140.023 103.435 140.538 102.759L142.233 104.106C141.88 104.641 141.431 105.15 140.886 105.635C140.341 106.119 139.67 106.513 138.873 106.815C138.085 107.118 137.152 107.27 136.072 107.27ZM156.325 90.5889H158.868V106.619C158.868 108.062 158.576 109.293 157.99 110.312C157.405 111.331 156.588 112.103 155.538 112.628C154.499 113.163 153.298 113.43 151.936 113.43C151.37 113.43 150.704 113.339 149.938 113.158C149.181 112.986 148.434 112.688 147.697 112.265C146.971 111.851 146.36 111.291 145.866 110.584L147.334 108.919C148.02 109.747 148.737 110.322 149.483 110.645C150.24 110.968 150.987 111.129 151.724 111.129C152.612 111.129 153.379 110.963 154.024 110.63C154.67 110.297 155.17 109.802 155.523 109.146C155.886 108.501 156.068 107.703 156.068 106.755V94.1914L156.325 90.5889ZM145.048 98.9595V98.6416C145.048 97.3903 145.195 96.255 145.487 95.2358C145.79 94.2065 146.219 93.3236 146.774 92.5869C147.339 91.8503 148.02 91.2852 148.817 90.8916C149.615 90.488 150.513 90.2861 151.512 90.2861C152.541 90.2861 153.439 90.4678 154.206 90.8311C154.983 91.1842 155.639 91.7039 156.174 92.3901C156.719 93.0662 157.148 93.8836 157.46 94.8423C157.773 95.8009 157.99 96.8857 158.111 98.0967V99.4893C158 100.69 157.783 101.77 157.46 102.729C157.148 103.687 156.719 104.505 156.174 105.181C155.639 105.857 154.983 106.376 154.206 106.74C153.429 107.093 152.521 107.27 151.481 107.27C150.503 107.27 149.615 107.063 148.817 106.649C148.03 106.235 147.354 105.655 146.789 104.908C146.224 104.161 145.79 103.284 145.487 102.274C145.195 101.255 145.048 100.15 145.048 98.9595ZM147.849 98.6416V98.9595C147.849 99.7769 147.929 100.544 148.091 101.26C148.262 101.977 148.52 102.607 148.863 103.152C149.216 103.697 149.665 104.126 150.21 104.439C150.755 104.742 151.406 104.893 152.163 104.893C153.091 104.893 153.858 104.696 154.463 104.303C155.069 103.909 155.548 103.389 155.901 102.744C156.265 102.098 156.547 101.396 156.749 100.64V96.9917C156.638 96.4367 156.466 95.9019 156.234 95.3872C156.012 94.8625 155.72 94.3983 155.356 93.9946C155.003 93.5809 154.564 93.2529 154.04 93.0107C153.515 92.7686 152.899 92.6475 152.193 92.6475C151.426 92.6475 150.765 92.8089 150.21 93.1318C149.665 93.4447 149.216 93.8786 148.863 94.4336C148.52 94.9785 148.262 95.6143 148.091 96.3408C147.929 97.0573 147.849 97.8242 147.849 98.6416ZM173.142 103.183V90.5889H175.958V106.967H173.278L173.142 103.183ZM173.672 99.7314L174.837 99.7012C174.837 100.791 174.721 101.8 174.489 102.729C174.267 103.647 173.904 104.444 173.399 105.12C172.895 105.796 172.234 106.326 171.417 106.709C170.599 107.083 169.605 107.27 168.435 107.27C167.637 107.27 166.906 107.153 166.24 106.921C165.584 106.689 165.019 106.331 164.544 105.847C164.07 105.362 163.702 104.732 163.439 103.955C163.187 103.178 163.061 102.244 163.061 101.154V90.5889H165.861V101.185C165.861 101.921 165.942 102.532 166.104 103.016C166.275 103.49 166.502 103.869 166.785 104.151C167.077 104.424 167.4 104.616 167.753 104.727C168.117 104.838 168.49 104.893 168.874 104.893C170.064 104.893 171.008 104.666 171.704 104.212C172.4 103.748 172.9 103.127 173.203 102.35C173.515 101.563 173.672 100.69 173.672 99.7314ZM183.269 83.7168V106.967H180.453V83.7168H183.269ZM197.421 104.167V95.7354C197.421 95.0895 197.29 94.5295 197.028 94.0552C196.776 93.5708 196.392 93.1974 195.877 92.9351C195.363 92.6727 194.727 92.5415 193.97 92.5415C193.264 92.5415 192.643 92.6626 192.108 92.9048C191.584 93.147 191.17 93.4648 190.867 93.8584C190.575 94.252 190.428 94.6758 190.428 95.1299H187.628C187.628 94.5446 187.779 93.9644 188.082 93.3892C188.385 92.814 188.819 92.2943 189.384 91.8301C189.959 91.3558 190.645 90.9824 191.442 90.71C192.25 90.4274 193.148 90.2861 194.137 90.2861C195.327 90.2861 196.377 90.488 197.285 90.8916C198.203 91.2952 198.92 91.9058 199.435 92.7231C199.959 93.5304 200.222 94.5446 200.222 95.7656V103.395C200.222 103.939 200.267 104.52 200.358 105.135C200.459 105.751 200.605 106.281 200.797 106.725V106.967H197.875C197.734 106.644 197.623 106.215 197.542 105.68C197.462 105.135 197.421 104.631 197.421 104.167ZM197.906 97.0371L197.936 99.0049H195.105C194.308 99.0049 193.597 99.0705 192.971 99.2017C192.346 99.3228 191.821 99.5094 191.397 99.7617C190.973 100.014 190.65 100.332 190.428 100.715C190.206 101.089 190.095 101.528 190.095 102.032C190.095 102.547 190.211 103.016 190.443 103.44C190.675 103.864 191.024 104.202 191.488 104.454C191.962 104.696 192.542 104.817 193.229 104.817C194.086 104.817 194.843 104.636 195.499 104.272C196.155 103.909 196.675 103.465 197.058 102.94C197.452 102.416 197.664 101.906 197.694 101.412L198.89 102.759C198.819 103.183 198.627 103.652 198.314 104.167C198.002 104.681 197.583 105.176 197.058 105.65C196.543 106.114 195.928 106.503 195.211 106.815C194.505 107.118 193.708 107.27 192.82 107.27C191.71 107.27 190.736 107.053 189.898 106.619C189.071 106.185 188.425 105.604 187.961 104.878C187.507 104.141 187.28 103.319 187.28 102.411C187.28 101.533 187.451 100.761 187.794 100.095C188.138 99.4186 188.632 98.8586 189.278 98.4146C189.924 97.9604 190.701 97.6174 191.609 97.3853C192.517 97.1532 193.531 97.0371 194.651 97.0371H197.906ZM207.427 93.1621V106.967H204.626V90.5889H207.351L207.427 93.1621ZM212.543 90.498L212.528 93.1016C212.296 93.0511 212.074 93.0208 211.862 93.0107C211.66 92.9906 211.428 92.9805 211.166 92.9805C210.52 92.9805 209.95 93.0814 209.455 93.2832C208.961 93.485 208.542 93.7676 208.199 94.1309C207.856 94.4941 207.583 94.9281 207.381 95.4326C207.19 95.9271 207.063 96.472 207.003 97.0674L206.216 97.5215C206.216 96.5326 206.312 95.6042 206.503 94.7363C206.705 93.8685 207.013 93.1016 207.427 92.4355C207.84 91.7594 208.365 91.2347 209.001 90.8613C209.647 90.4779 210.414 90.2861 211.302 90.2861C211.504 90.2861 211.736 90.3114 211.998 90.3618C212.26 90.4022 212.442 90.4476 212.543 90.498Z" fill="#999999"/>
<path d="M10.5779 7.04236H6.80191V16.8184H4.99391V7.04236H1.20191V5.45836H10.5779V7.04236ZM11.8773 16.8184V8.45036H13.6373V16.8184H11.8773ZM11.8773 7.07436V5.13836H13.6373V7.07436H11.8773ZM20.4083 16.3864C20.259 16.461 20.0723 16.541 19.8483 16.6264C19.6243 16.7117 19.3683 16.7864 19.0803 16.8504C18.803 16.9144 18.515 16.9464 18.2163 16.9464C17.8536 16.9464 17.5176 16.8824 17.2083 16.7544C16.899 16.6264 16.6483 16.4237 16.4563 16.1464C16.275 15.8584 16.1843 15.4904 16.1843 15.0424V9.81036H15.0803V8.45036H16.1843V5.69836H17.9443V8.45036H19.7683V9.81036H17.9443V14.4824C17.9656 14.7704 18.0563 14.9837 18.2163 15.1224C18.387 15.261 18.595 15.3304 18.8403 15.3304C19.0856 15.3304 19.3203 15.2877 19.5443 15.2024C19.7683 15.117 19.9336 15.0477 20.0403 14.9944L20.4083 16.3864ZM21.6433 5.13836H23.4033V14.4024C23.4033 14.829 23.4673 15.101 23.5953 15.2184C23.7233 15.3357 23.8833 15.3944 24.0753 15.3944C24.2886 15.3944 24.486 15.373 24.6673 15.3304C24.8593 15.2877 25.0246 15.2344 25.1633 15.1704L25.4193 16.5624C25.1633 16.669 24.8593 16.7597 24.5073 16.8344C24.1553 16.909 23.8406 16.9464 23.5633 16.9464C22.966 16.9464 22.4966 16.781 22.1553 16.4504C21.814 16.109 21.6433 15.6397 21.6433 15.0424V5.13836ZM30.2318 16.9784C29.5811 16.9784 28.9891 16.8664 28.4558 16.6424C27.9331 16.4077 27.4798 16.093 27.0958 15.6984C26.7118 15.293 26.4131 14.8344 26.1998 14.3224C25.9971 13.7997 25.8958 13.245 25.8958 12.6584C25.8958 11.869 26.0771 11.149 26.4398 10.4984C26.8025 9.83703 27.3091 9.30903 27.9598 8.91436C28.6105 8.50903 29.3731 8.30636 30.2478 8.30636C31.1225 8.30636 31.8745 8.50903 32.5038 8.91436C33.1438 9.30903 33.6398 9.83169 33.9918 10.4824C34.3438 11.133 34.5198 11.8317 34.5198 12.5784C34.5198 12.7064 34.5145 12.829 34.5038 12.9464C34.4931 13.053 34.4825 13.1437 34.4718 13.2184H27.7678C27.7998 13.709 27.9331 14.141 28.1678 14.5144C28.4131 14.877 28.7225 15.165 29.0958 15.3784C29.4691 15.581 29.8691 15.6824 30.2958 15.6824C30.7651 15.6824 31.2078 15.565 31.6238 15.3304C32.0505 15.0957 32.3385 14.7864 32.4878 14.4024L33.9918 14.8344C33.8105 15.2397 33.5331 15.6077 33.1598 15.9384C32.7971 16.2584 32.3651 16.5144 31.8638 16.7064C31.3625 16.8877 30.8185 16.9784 30.2318 16.9784ZM27.7198 12.0504H32.7758C32.7438 11.5704 32.6051 11.149 32.3598 10.7864C32.1251 10.413 31.8211 10.125 31.4478 9.92236C31.0851 9.70903 30.6798 9.60236 30.2318 9.60236C29.7945 9.60236 29.3891 9.70903 29.0158 9.92236C28.6531 10.125 28.3545 10.413 28.1198 10.7864C27.8851 11.149 27.7518 11.5704 27.7198 12.0504ZM39.3005 14.3704C39.3005 13.837 39.4499 13.373 39.7485 12.9784C40.0579 12.573 40.4792 12.2637 41.0125 12.0504C41.5459 11.8264 42.1645 11.7144 42.8685 11.7144C43.2419 11.7144 43.6205 11.741 44.0045 11.7944C44.3992 11.8477 44.7459 11.933 45.0445 12.0504V11.5224C45.0445 10.9357 44.8685 10.477 44.5165 10.1464C44.1645 9.81569 43.6579 9.65036 42.9965 9.65036C42.5272 9.65036 42.0845 9.73569 41.6685 9.90636C41.2525 10.0664 40.8099 10.2957 40.3405 10.5944L39.7485 9.41036C40.3032 9.03703 40.8579 8.75969 41.4125 8.57836C41.9779 8.39703 42.5699 8.30636 43.1885 8.30636C44.3085 8.30636 45.1885 8.60503 45.8285 9.20236C46.4792 9.78903 46.8045 10.6264 46.8045 11.7144V14.8344C46.8045 15.037 46.8365 15.181 46.9005 15.2664C46.9752 15.3517 47.0979 15.3997 47.2685 15.4104V16.8184C47.1085 16.8504 46.9645 16.8717 46.8365 16.8824C46.7085 16.893 46.6019 16.8984 46.5165 16.8984C46.1432 16.8984 45.8605 16.8077 45.6685 16.6264C45.4765 16.445 45.3645 16.2317 45.3325 15.9864L45.2845 15.5064C44.9219 15.9757 44.4579 16.3384 43.8925 16.5944C43.3272 16.8504 42.7565 16.9784 42.1805 16.9784C41.6259 16.9784 41.1299 16.8664 40.6925 16.6424C40.2552 16.4077 39.9139 16.093 39.6685 15.6984C39.4232 15.3037 39.3005 14.861 39.3005 14.3704ZM44.6285 14.8824C44.7565 14.7437 44.8579 14.605 44.9325 14.4664C45.0072 14.3277 45.0445 14.205 45.0445 14.0984V13.1384C44.7459 13.021 44.4312 12.9357 44.1005 12.8824C43.7699 12.8184 43.4445 12.7864 43.1245 12.7864C42.4845 12.7864 41.9619 12.9144 41.5565 13.1704C41.1619 13.4264 40.9645 13.7784 40.9645 14.2264C40.9645 14.4717 41.0285 14.7064 41.1565 14.9304C41.2952 15.1544 41.4872 15.3357 41.7325 15.4744C41.9885 15.613 42.3032 15.6824 42.6765 15.6824C43.0605 15.6824 43.4285 15.6077 43.7805 15.4584C44.1325 15.309 44.4152 15.117 44.6285 14.8824ZM56.4438 16.8184H54.6838V12.1304C54.6838 11.3517 54.5558 10.781 54.2998 10.4184C54.0545 10.0557 53.6865 9.87436 53.1958 9.87436C52.8545 9.87436 52.5131 9.95969 52.1718 10.1304C51.8411 10.301 51.5425 10.5357 51.2758 10.8344C51.0091 11.1224 50.8171 11.4584 50.6998 11.8424V16.8184H48.9398V8.45036H50.5398V10.1304C50.7531 9.75703 51.0305 9.43703 51.3718 9.17036C51.7238 8.89303 52.1185 8.67969 52.5558 8.53036C52.9931 8.38103 53.4571 8.30636 53.9478 8.30636C54.4491 8.30636 54.8598 8.39703 55.1798 8.57836C55.5105 8.75969 55.7665 9.01036 55.9478 9.33036C56.1398 9.63969 56.2678 10.0024 56.3318 10.4184C56.4065 10.8237 56.4438 11.2557 56.4438 11.7144V16.8184ZM57.9587 12.6424C57.9587 11.8424 58.1187 11.117 58.4387 10.4664C58.7693 9.80503 59.2173 9.28236 59.7827 8.89836C60.348 8.50369 60.9987 8.30636 61.7347 8.30636C62.3747 8.30636 62.9507 8.47169 63.4627 8.80236C63.9853 9.13303 64.3907 9.54369 64.6787 10.0344V5.13836H66.4387V14.8344C66.4387 15.037 66.476 15.181 66.5507 15.2664C66.6253 15.3517 66.748 15.3997 66.9187 15.4104V16.8184C66.588 16.8717 66.332 16.8984 66.1507 16.8984C65.82 16.8984 65.5373 16.8024 65.3027 16.6104C65.0787 16.4184 64.9613 16.189 64.9507 15.9224L64.9347 15.2984C64.6147 15.8317 64.1827 16.2477 63.6387 16.5464C63.0947 16.8344 62.5293 16.9784 61.9427 16.9784C61.3667 16.9784 60.8333 16.8664 60.3427 16.6424C59.8627 16.4184 59.4413 16.1037 59.0787 15.6984C58.7267 15.293 58.4493 14.829 58.2467 14.3064C58.0547 13.7837 57.9587 13.229 57.9587 12.6424ZM64.6787 13.8104V11.6184C64.5613 11.277 64.3693 10.973 64.1027 10.7064C63.8467 10.429 63.5533 10.2104 63.2227 10.0504C62.9027 9.89036 62.5827 9.81036 62.2627 9.81036C61.8893 9.81036 61.548 9.89036 61.2387 10.0504C60.94 10.2104 60.6787 10.4237 60.4547 10.6904C60.2413 10.957 60.076 11.261 59.9587 11.6024C59.8413 11.9437 59.7827 12.301 59.7827 12.6744C59.7827 13.0584 59.8467 13.421 59.9747 13.7624C60.1027 14.093 60.284 14.3917 60.5187 14.6584C60.764 14.9144 61.0413 15.117 61.3507 15.2664C61.6707 15.405 62.0173 15.4744 62.3907 15.4744C62.6253 15.4744 62.86 15.4317 63.0947 15.3464C63.34 15.261 63.5693 15.1437 63.7827 14.9944C64.0067 14.845 64.1933 14.669 64.3427 14.4664C64.5027 14.2637 64.6147 14.045 64.6787 13.8104ZM72.8513 16.8184V5.45836H74.6433V16.8184H72.8513ZM84.4907 16.8184H82.7307V12.1304C82.7307 11.3517 82.6027 10.781 82.3467 10.4184C82.1013 10.0557 81.7333 9.87436 81.2427 9.87436C80.9013 9.87436 80.56 9.95969 80.2187 10.1304C79.888 10.301 79.5893 10.5357 79.3227 10.8344C79.056 11.1224 78.864 11.4584 78.7467 11.8424V16.8184H76.9867V8.45036H78.5867V10.1304C78.8 9.75703 79.0773 9.43703 79.4187 9.17036C79.7707 8.89303 80.1653 8.67969 80.6027 8.53036C81.04 8.38103 81.504 8.30636 81.9947 8.30636C82.496 8.30636 82.9067 8.39703 83.2267 8.57836C83.5573 8.75969 83.8133 9.01036 83.9947 9.33036C84.1867 9.63969 84.3147 10.0024 84.3787 10.4184C84.4533 10.8237 84.4907 11.2557 84.4907 11.7144V16.8184ZM86.0055 12.6424C86.0055 11.8424 86.1655 11.117 86.4855 10.4664C86.8162 9.80503 87.2642 9.28236 87.8295 8.89836C88.3949 8.50369 89.0455 8.30636 89.7815 8.30636C90.4215 8.30636 90.9975 8.47169 91.5095 8.80236C92.0322 9.13303 92.4375 9.54369 92.7255 10.0344V5.13836H94.4855V14.8344C94.4855 15.037 94.5229 15.181 94.5975 15.2664C94.6722 15.3517 94.7949 15.3997 94.9655 15.4104V16.8184C94.6349 16.8717 94.3789 16.8984 94.1975 16.8984C93.8669 16.8984 93.5842 16.8024 93.3495 16.6104C93.1255 16.4184 93.0082 16.189 92.9975 15.9224L92.9815 15.2984C92.6615 15.8317 92.2295 16.2477 91.6855 16.5464C91.1415 16.8344 90.5762 16.9784 89.9895 16.9784C89.4135 16.9784 88.8802 16.8664 88.3895 16.6424C87.9095 16.4184 87.4882 16.1037 87.1255 15.6984C86.7735 15.293 86.4962 14.829 86.2935 14.3064C86.1015 13.7837 86.0055 13.229 86.0055 12.6424ZM92.7255 13.8104V11.6184C92.6082 11.277 92.4162 10.973 92.1495 10.7064C91.8935 10.429 91.6002 10.2104 91.2695 10.0504C90.9495 9.89036 90.6295 9.81036 90.3095 9.81036C89.9362 9.81036 89.5949 9.89036 89.2855 10.0504C88.9869 10.2104 88.7255 10.4237 88.5015 10.6904C88.2882 10.957 88.1229 11.261 88.0055 11.6024C87.8882 11.9437 87.8295 12.301 87.8295 12.6744C87.8295 13.0584 87.8935 13.421 88.0215 13.7624C88.1495 14.093 88.3309 14.3917 88.5655 14.6584C88.8109 14.9144 89.0882 15.117 89.3975 15.2664C89.7175 15.405 90.0642 15.4744 90.4375 15.4744C90.6722 15.4744 90.9069 15.4317 91.1415 15.3464C91.3869 15.261 91.6162 15.1437 91.8295 14.9944C92.0535 14.845 92.2402 14.669 92.3895 14.4664C92.5495 14.2637 92.6615 14.045 92.7255 13.8104ZM96.721 16.8184V8.45036H98.481V16.8184H96.721ZM96.721 7.07436V5.13836H98.481V7.07436H96.721ZM104.388 16.9784C103.737 16.9784 103.145 16.8664 102.612 16.6424C102.089 16.4077 101.636 16.0877 101.252 15.6824C100.868 15.277 100.569 14.813 100.356 14.2904C100.153 13.7677 100.052 13.213 100.052 12.6264C100.052 11.837 100.228 11.117 100.58 10.4664C100.943 9.81569 101.444 9.29303 102.084 8.89836C102.735 8.50369 103.503 8.30636 104.388 8.30636C105.241 8.30636 105.983 8.49836 106.612 8.88236C107.252 9.25569 107.721 9.75703 108.02 10.3864L106.308 10.9304C106.116 10.5784 105.844 10.3064 105.492 10.1144C105.151 9.91169 104.772 9.81036 104.356 9.81036C103.887 9.81036 103.46 9.93303 103.076 10.1784C102.703 10.413 102.404 10.7437 102.18 11.1704C101.967 11.5864 101.86 12.0717 101.86 12.6264C101.86 13.1597 101.972 13.645 102.196 14.0824C102.42 14.509 102.719 14.8504 103.092 15.1064C103.476 15.3517 103.903 15.4744 104.372 15.4744C104.66 15.4744 104.937 15.4264 105.204 15.3304C105.481 15.2237 105.721 15.085 105.924 14.9144C106.127 14.733 106.271 14.5357 106.356 14.3224L108.084 14.8344C107.903 15.2504 107.631 15.6184 107.268 15.9384C106.916 16.2584 106.495 16.5144 106.004 16.7064C105.524 16.8877 104.985 16.9784 104.388 16.9784ZM108.926 14.3704C108.926 13.837 109.075 13.373 109.374 12.9784C109.683 12.573 110.104 12.2637 110.638 12.0504C111.171 11.8264 111.79 11.7144 112.494 11.7144C112.867 11.7144 113.246 11.741 113.63 11.7944C114.024 11.8477 114.371 11.933 114.67 12.0504V11.5224C114.67 10.9357 114.494 10.477 114.142 10.1464C113.79 9.81569 113.283 9.65036 112.622 9.65036C112.152 9.65036 111.71 9.73569 111.294 9.90636C110.878 10.0664 110.435 10.2957 109.966 10.5944L109.374 9.41036C109.928 9.03703 110.483 8.75969 111.038 8.57836C111.603 8.39703 112.195 8.30636 112.814 8.30636C113.934 8.30636 114.814 8.60503 115.454 9.20236C116.104 9.78903 116.43 10.6264 116.43 11.7144V14.8344C116.43 15.037 116.462 15.181 116.526 15.2664C116.6 15.3517 116.723 15.3997 116.894 15.4104V16.8184C116.734 16.8504 116.59 16.8717 116.462 16.8824C116.334 16.893 116.227 16.8984 116.142 16.8984C115.768 16.8984 115.486 16.8077 115.294 16.6264C115.102 16.445 114.99 16.2317 114.958 15.9864L114.91 15.5064C114.547 15.9757 114.083 16.3384 113.518 16.5944C112.952 16.8504 112.382 16.9784 111.806 16.9784C111.251 16.9784 110.755 16.8664 110.318 16.6424C109.88 16.4077 109.539 16.093 109.294 15.6984C109.048 15.3037 108.926 14.861 108.926 14.3704ZM114.254 14.8824C114.382 14.7437 114.483 14.605 114.558 14.4664C114.632 14.3277 114.67 14.205 114.67 14.0984V13.1384C114.371 13.021 114.056 12.9357 113.726 12.8824C113.395 12.8184 113.07 12.7864 112.75 12.7864C112.11 12.7864 111.587 12.9144 111.182 13.1704C110.787 13.4264 110.59 13.7784 110.59 14.2264C110.59 14.4717 110.654 14.7064 110.782 14.9304C110.92 15.1544 111.112 15.3357 111.358 15.4744C111.614 15.613 111.928 15.6824 112.302 15.6824C112.686 15.6824 113.054 15.6077 113.406 15.4584C113.758 15.309 114.04 15.117 114.254 14.8824ZM123.158 16.3864C123.009 16.461 122.822 16.541 122.598 16.6264C122.374 16.7117 122.118 16.7864 121.83 16.8504C121.553 16.9144 121.265 16.9464 120.966 16.9464C120.604 16.9464 120.268 16.8824 119.958 16.7544C119.649 16.6264 119.398 16.4237 119.206 16.1464C119.025 15.8584 118.934 15.4904 118.934 15.0424V9.81036H117.83V8.45036H118.934V5.69836H120.694V8.45036H122.518V9.81036H120.694V14.4824C120.716 14.7704 120.806 14.9837 120.966 15.1224C121.137 15.261 121.345 15.3304 121.59 15.3304C121.836 15.3304 122.07 15.2877 122.294 15.2024C122.518 15.117 122.684 15.0477 122.79 14.9944L123.158 16.3864ZM124.377 16.8184V8.45036H126.137V16.8184H124.377ZM124.377 7.07436V5.13836H126.137V7.07436H124.377ZM132.012 16.9784C131.351 16.9784 130.759 16.8664 130.236 16.6424C129.714 16.4077 129.26 16.0877 128.876 15.6824C128.503 15.277 128.215 14.8184 128.012 14.3064C127.81 13.7837 127.708 13.229 127.708 12.6424C127.708 12.0557 127.81 11.501 128.012 10.9784C128.215 10.4557 128.503 9.99703 128.876 9.60236C129.26 9.19703 129.714 8.88236 130.236 8.65836C130.77 8.42369 131.362 8.30636 132.012 8.30636C132.663 8.30636 133.25 8.42369 133.772 8.65836C134.306 8.88236 134.759 9.19703 135.132 9.60236C135.516 9.99703 135.81 10.4557 136.012 10.9784C136.215 11.501 136.316 12.0557 136.316 12.6424C136.316 13.229 136.215 13.7837 136.012 14.3064C135.81 14.8184 135.516 15.277 135.132 15.6824C134.759 16.0877 134.306 16.4077 133.772 16.6424C133.25 16.8664 132.663 16.9784 132.012 16.9784ZM129.516 12.6584C129.516 13.1917 129.628 13.6717 129.852 14.0984C130.076 14.525 130.375 14.861 130.748 15.1064C131.122 15.3517 131.543 15.4744 132.012 15.4744C132.471 15.4744 132.887 15.3517 133.26 15.1064C133.644 14.8504 133.948 14.509 134.172 14.0824C134.396 13.645 134.508 13.165 134.508 12.6424C134.508 12.109 134.396 11.629 134.172 11.2024C133.948 10.7757 133.644 10.4397 133.26 10.1944C132.887 9.93836 132.471 9.81036 132.012 9.81036C131.543 9.81036 131.122 9.93836 130.748 10.1944C130.375 10.4504 130.076 10.7917 129.852 11.2184C129.628 11.6344 129.516 12.1144 129.516 12.6584ZM145.381 16.8184H143.621V12.1304C143.621 11.3517 143.493 10.781 143.237 10.4184C142.992 10.0557 142.624 9.87436 142.133 9.87436C141.792 9.87436 141.451 9.95969 141.109 10.1304C140.779 10.301 140.48 10.5357 140.213 10.8344C139.947 11.1224 139.755 11.4584 139.637 11.8424V16.8184H137.877V8.45036H139.477V10.1304C139.691 9.75703 139.968 9.43703 140.309 9.17036C140.661 8.89303 141.056 8.67969 141.493 8.53036C141.931 8.38103 142.395 8.30636 142.885 8.30636C143.387 8.30636 143.797 8.39703 144.117 8.57836C144.448 8.75969 144.704 9.01036 144.885 9.33036C145.077 9.63969 145.205 10.0024 145.269 10.4184C145.344 10.8237 145.381 11.2557 145.381 11.7144V16.8184Z" fill="#999999"/>
<path d="M10.5312 65.3882C10.4246 65.2708 10.2699 65.1482 10.0673 65.0202C9.86458 64.8815 9.62458 64.7535 9.34725 64.6362C9.06992 64.5188 8.77125 64.4228 8.45125 64.3482C8.13125 64.2735 7.80058 64.2362 7.45925 64.2362C6.71258 64.2362 6.15792 64.3748 5.79525 64.6522C5.43258 64.9295 5.25125 65.3135 5.25125 65.8042C5.25125 66.1668 5.35258 66.4548 5.55525 66.6682C5.75792 66.8708 6.06725 67.0415 6.48325 67.1802C6.89925 67.3188 7.42192 67.4682 8.05125 67.6282C8.81925 67.8095 9.48592 68.0282 10.0513 68.2842C10.6166 68.5295 11.0486 68.8602 11.3472 69.2762C11.6459 69.6922 11.7953 70.2415 11.7953 70.9242C11.7953 71.5002 11.6886 71.9962 11.4753 72.4122C11.2619 72.8282 10.9633 73.1695 10.5793 73.4362C10.1953 73.6922 9.75258 73.8842 9.25125 74.0122C8.74992 74.1295 8.21125 74.1882 7.63525 74.1882C7.06992 74.1882 6.50458 74.1295 5.93925 74.0122C5.38458 73.8948 4.85125 73.7242 4.33925 73.5002C3.83792 73.2655 3.37392 72.9828 2.94725 72.6522L3.76325 71.1162C3.90192 71.2548 4.09925 71.4095 4.35525 71.5802C4.62192 71.7402 4.92592 71.8948 5.26725 72.0442C5.61925 72.1935 5.99792 72.3215 6.40325 72.4282C6.81925 72.5242 7.24058 72.5722 7.66725 72.5722C8.38192 72.5722 8.92592 72.4495 9.29925 72.2042C9.68325 71.9482 9.87525 71.5855 9.87525 71.1162C9.87525 70.7322 9.75258 70.4282 9.50725 70.2042C9.26192 69.9695 8.90458 69.7722 8.43525 69.6122C7.96592 69.4522 7.40592 69.2922 6.75525 69.1322C6.00858 68.9295 5.38458 68.7108 4.88325 68.4762C4.38192 68.2308 4.00325 67.9215 3.74725 67.5482C3.50192 67.1642 3.37925 66.6788 3.37925 66.0922C3.37925 65.3455 3.56058 64.7162 3.92325 64.2042C4.28592 63.6815 4.77658 63.2922 5.39525 63.0362C6.02458 62.7695 6.72858 62.6362 7.50725 62.6362C8.01925 62.6362 8.50458 62.6948 8.96325 62.8122C9.42192 62.9188 9.84858 63.0682 10.2433 63.2602C10.6486 63.4522 11.0166 63.6708 11.3472 63.9162L10.5312 65.3882ZM17.1605 74.2362C16.5098 74.2362 15.9178 74.1242 15.3845 73.9002C14.8618 73.6655 14.4085 73.3508 14.0245 72.9562C13.6405 72.5508 13.3418 72.0922 13.1285 71.5802C12.9258 71.0575 12.8245 70.5028 12.8245 69.9162C12.8245 69.1268 13.0058 68.4068 13.3685 67.7562C13.7312 67.0948 14.2378 66.5668 14.8885 66.1722C15.5392 65.7668 16.3018 65.5642 17.1765 65.5642C18.0512 65.5642 18.8032 65.7668 19.4325 66.1722C20.0725 66.5668 20.5685 67.0895 20.9205 67.7402C21.2725 68.3908 21.4485 69.0895 21.4485 69.8362C21.4485 69.9642 21.4432 70.0868 21.4325 70.2042C21.4218 70.3108 21.4112 70.4015 21.4005 70.4762H14.6965C14.7285 70.9668 14.8618 71.3988 15.0965 71.7722C15.3418 72.1348 15.6512 72.4228 16.0245 72.6362C16.3978 72.8388 16.7978 72.9402 17.2245 72.9402C17.6938 72.9402 18.1365 72.8228 18.5525 72.5882C18.9792 72.3535 19.2672 72.0442 19.4165 71.6602L20.9205 72.0922C20.7392 72.4975 20.4618 72.8655 20.0885 73.1962C19.7258 73.5162 19.2938 73.7722 18.7925 73.9642C18.2912 74.1455 17.7472 74.2362 17.1605 74.2362ZM14.6485 69.3082H19.7045C19.6725 68.8282 19.5338 68.4068 19.2885 68.0442C19.0538 67.6708 18.7498 67.3828 18.3765 67.1802C18.0138 66.9668 17.6085 66.8602 17.1605 66.8602C16.7232 66.8602 16.3178 66.9668 15.9445 67.1802C15.5818 67.3828 15.2832 67.6708 15.0485 68.0442C14.8138 68.4068 14.6805 68.8282 14.6485 69.3082ZM26.6761 74.2362C26.0255 74.2362 25.4335 74.1242 24.9001 73.9002C24.3775 73.6655 23.9241 73.3455 23.5401 72.9402C23.1561 72.5348 22.8575 72.0708 22.6441 71.5482C22.4415 71.0255 22.3401 70.4708 22.3401 69.8842C22.3401 69.0948 22.5161 68.3748 22.8681 67.7242C23.2308 67.0735 23.7321 66.5508 24.3721 66.1562C25.0228 65.7615 25.7908 65.5642 26.6761 65.5642C27.5295 65.5642 28.2708 65.7562 28.9001 66.1402C29.5401 66.5135 30.0095 67.0148 30.3081 67.6442L28.5961 68.1882C28.4041 67.8362 28.1321 67.5642 27.7801 67.3722C27.4388 67.1695 27.0601 67.0682 26.6441 67.0682C26.1748 67.0682 25.7481 67.1908 25.3641 67.4362C24.9908 67.6708 24.6921 68.0015 24.4681 68.4282C24.2548 68.8442 24.1481 69.3295 24.1481 69.8842C24.1481 70.4175 24.2601 70.9028 24.4841 71.3402C24.7081 71.7668 25.0068 72.1082 25.3801 72.3642C25.7641 72.6095 26.1908 72.7322 26.6601 72.7322C26.9481 72.7322 27.2255 72.6842 27.4921 72.5882C27.7695 72.4815 28.0095 72.3428 28.2121 72.1722C28.4148 71.9908 28.5588 71.7935 28.6441 71.5802L30.3721 72.0922C30.1908 72.5082 29.9188 72.8762 29.5561 73.1962C29.2041 73.5162 28.7828 73.7722 28.2921 73.9642C27.8121 74.1455 27.2735 74.2362 26.6761 74.2362ZM35.5035 74.2362C34.8422 74.2362 34.2502 74.1242 33.7275 73.9002C33.2048 73.6655 32.7515 73.3455 32.3675 72.9402C31.9942 72.5348 31.7062 72.0762 31.5035 71.5642C31.3008 71.0415 31.1995 70.4868 31.1995 69.9002C31.1995 69.3135 31.3008 68.7588 31.5035 68.2362C31.7062 67.7135 31.9942 67.2548 32.3675 66.8602C32.7515 66.4548 33.2048 66.1402 33.7275 65.9162C34.2608 65.6815 34.8528 65.5642 35.5035 65.5642C36.1542 65.5642 36.7408 65.6815 37.2635 65.9162C37.7968 66.1402 38.2502 66.4548 38.6235 66.8602C39.0075 67.2548 39.3008 67.7135 39.5035 68.2362C39.7062 68.7588 39.8075 69.3135 39.8075 69.9002C39.8075 70.4868 39.7062 71.0415 39.5035 71.5642C39.3008 72.0762 39.0075 72.5348 38.6235 72.9402C38.2502 73.3455 37.7968 73.6655 37.2635 73.9002C36.7408 74.1242 36.1542 74.2362 35.5035 74.2362ZM33.0075 69.9162C33.0075 70.4495 33.1195 70.9295 33.3435 71.3562C33.5675 71.7828 33.8662 72.1188 34.2395 72.3642C34.6128 72.6095 35.0342 72.7322 35.5035 72.7322C35.9622 72.7322 36.3782 72.6095 36.7515 72.3642C37.1355 72.1082 37.4395 71.7668 37.6635 71.3402C37.8875 70.9028 37.9995 70.4228 37.9995 69.9002C37.9995 69.3668 37.8875 68.8868 37.6635 68.4602C37.4395 68.0335 37.1355 67.6975 36.7515 67.4522C36.3782 67.1962 35.9622 67.0682 35.5035 67.0682C35.0342 67.0682 34.6128 67.1962 34.2395 67.4522C33.8662 67.7082 33.5675 68.0495 33.3435 68.4762C33.1195 68.8922 33.0075 69.3722 33.0075 69.9162ZM48.8725 74.0762H47.1125V69.3882C47.1125 68.6095 46.9845 68.0388 46.7285 67.6762C46.4832 67.3135 46.1152 67.1322 45.6245 67.1322C45.2832 67.1322 44.9418 67.2175 44.6005 67.3882C44.2698 67.5588 43.9712 67.7935 43.7045 68.0922C43.4378 68.3802 43.2458 68.7162 43.1285 69.1002V74.0762H41.3685V65.7082H42.9685V67.3882C43.1818 67.0148 43.4592 66.6948 43.8005 66.4282C44.1525 66.1508 44.5472 65.9375 44.9845 65.7882C45.4218 65.6388 45.8858 65.5642 46.3765 65.5642C46.8778 65.5642 47.2885 65.6548 47.6085 65.8362C47.9392 66.0175 48.1952 66.2682 48.3765 66.5882C48.5685 66.8975 48.6965 67.2602 48.7605 67.6762C48.8352 68.0815 48.8725 68.5135 48.8725 68.9722V74.0762ZM50.3874 69.9002C50.3874 69.1002 50.5474 68.3748 50.8674 67.7242C51.198 67.0628 51.646 66.5402 52.2114 66.1562C52.7767 65.7615 53.4274 65.5642 54.1634 65.5642C54.8034 65.5642 55.3794 65.7295 55.8914 66.0602C56.414 66.3908 56.8194 66.8015 57.1074 67.2922V62.3962H58.8674V72.0922C58.8674 72.2948 58.9047 72.4388 58.9794 72.5242C59.054 72.6095 59.1767 72.6575 59.3474 72.6682V74.0762C59.0167 74.1295 58.7607 74.1562 58.5794 74.1562C58.2487 74.1562 57.966 74.0602 57.7314 73.8682C57.5074 73.6762 57.39 73.4468 57.3794 73.1802L57.3634 72.5562C57.0434 73.0895 56.6114 73.5055 56.0674 73.8042C55.5234 74.0922 54.958 74.2362 54.3714 74.2362C53.7954 74.2362 53.262 74.1242 52.7714 73.9002C52.2914 73.6762 51.87 73.3615 51.5074 72.9562C51.1554 72.5508 50.878 72.0868 50.6754 71.5642C50.4834 71.0415 50.3874 70.4868 50.3874 69.9002ZM57.1074 71.0682V68.8762C56.99 68.5348 56.798 68.2308 56.5314 67.9642C56.2754 67.6868 55.982 67.4682 55.6514 67.3082C55.3314 67.1482 55.0114 67.0682 54.6914 67.0682C54.318 67.0682 53.9767 67.1482 53.6674 67.3082C53.3687 67.4682 53.1074 67.6815 52.8834 67.9482C52.67 68.2148 52.5047 68.5188 52.3874 68.8602C52.27 69.2015 52.2114 69.5588 52.2114 69.9322C52.2114 70.3162 52.2754 70.6788 52.4034 71.0202C52.5314 71.3508 52.7127 71.6495 52.9474 71.9162C53.1927 72.1722 53.47 72.3748 53.7794 72.5242C54.0994 72.6628 54.446 72.7322 54.8194 72.7322C55.054 72.7322 55.2887 72.6895 55.5234 72.6042C55.7687 72.5188 55.998 72.4015 56.2114 72.2522C56.4354 72.1028 56.622 71.9268 56.7714 71.7242C56.9314 71.5215 57.0434 71.3028 57.1074 71.0682ZM60.4949 71.6282C60.4949 71.0948 60.6442 70.6308 60.9429 70.2362C61.2522 69.8308 61.6735 69.5215 62.2069 69.3082C62.7402 69.0842 63.3589 68.9722 64.0629 68.9722C64.4362 68.9722 64.8149 68.9988 65.1989 69.0522C65.5935 69.1055 65.9402 69.1908 66.2389 69.3082V68.7802C66.2389 68.1935 66.0629 67.7348 65.7109 67.4042C65.3589 67.0735 64.8522 66.9082 64.1909 66.9082C63.7215 66.9082 63.2789 66.9935 62.8629 67.1642C62.4469 67.3242 62.0042 67.5535 61.5349 67.8522L60.9429 66.6682C61.4975 66.2948 62.0522 66.0175 62.6069 65.8362C63.1722 65.6548 63.7642 65.5642 64.3829 65.5642C65.5029 65.5642 66.3829 65.8628 67.0229 66.4602C67.6735 67.0468 67.9989 67.8842 67.9989 68.9722V72.0922C67.9989 72.2948 68.0309 72.4388 68.0949 72.5242C68.1695 72.6095 68.2922 72.6575 68.4629 72.6682V74.0762C68.3029 74.1082 68.1589 74.1295 68.0309 74.1402C67.9029 74.1508 67.7962 74.1562 67.7109 74.1562C67.3375 74.1562 67.0549 74.0655 66.8629 73.8842C66.6709 73.7028 66.5589 73.4895 66.5269 73.2442L66.4789 72.7642C66.1162 73.2335 65.6522 73.5962 65.0869 73.8522C64.5215 74.1082 63.9509 74.2362 63.3749 74.2362C62.8202 74.2362 62.3242 74.1242 61.8869 73.9002C61.4495 73.6655 61.1082 73.3508 60.8629 72.9562C60.6175 72.5615 60.4949 72.1188 60.4949 71.6282ZM65.8229 72.1402C65.9509 72.0015 66.0522 71.8628 66.1269 71.7242C66.2015 71.5855 66.2389 71.4628 66.2389 71.3562V70.3962C65.9402 70.2788 65.6255 70.1935 65.2949 70.1402C64.9642 70.0762 64.6389 70.0442 64.3189 70.0442C63.6789 70.0442 63.1562 70.1722 62.7509 70.4282C62.3562 70.6842 62.1589 71.0362 62.1589 71.4842C62.1589 71.7295 62.2229 71.9642 62.3509 72.1882C62.4895 72.4122 62.6815 72.5935 62.9269 72.7322C63.1829 72.8708 63.4975 72.9402 63.8709 72.9402C64.2549 72.9402 64.6229 72.8655 64.9749 72.7162C65.3269 72.5668 65.6095 72.3748 65.8229 72.1402ZM74.8381 67.2282C74.1555 67.2388 73.5475 67.3935 73.0141 67.6922C72.4915 67.9908 72.1181 68.4122 71.8941 68.9562V74.0762H70.1341V65.7082H71.7661V67.5802C72.0541 67.0042 72.4328 66.5455 72.9021 66.2042C73.3715 65.8522 73.8675 65.6602 74.3901 65.6282C74.4968 65.6282 74.5821 65.6282 74.6461 65.6282C74.7208 65.6282 74.7848 65.6335 74.8381 65.6442V67.2282ZM76.4065 76.0442C76.5665 76.0655 76.7212 76.0868 76.8705 76.1082C77.0305 76.1402 77.1585 76.1562 77.2545 76.1562C77.4358 76.1562 77.5905 76.0975 77.7185 75.9802C77.8572 75.8735 77.9958 75.6708 78.1345 75.3722C78.2732 75.0735 78.4438 74.6415 78.6465 74.0762L75.2065 65.7082H77.0465L79.6065 72.2842L81.8785 65.7082H83.5745L79.7825 76.0122C79.6652 76.3215 79.4945 76.6042 79.2705 76.8602C79.0465 77.1268 78.7692 77.3348 78.4385 77.4842C78.1078 77.6335 77.7185 77.7082 77.2705 77.7082C77.1425 77.7082 77.0092 77.6975 76.8705 77.6762C76.7318 77.6548 76.5772 77.6228 76.4065 77.5802V76.0442Z" fill="#999999"/>
</svg>
