<svg width="46" height="40" viewBox="0 0 46 40" fill="none" xmlns="http://www.w3.org/2000/svg">
<path d="M45 39.281L33.64 39.281L33.64 34.577C33.64 34.0864 33.7413 33.6384 33.944 33.233C34.1467 32.817 34.424 32.4597 34.776 32.161C35.1173 31.8624 35.5013 31.6277 35.928 31.457C36.344 31.2864 36.7707 31.201 37.208 31.201C37.8267 31.201 38.4133 31.3397 38.968 31.617C39.512 31.8837 39.9547 32.2624 40.296 32.753C40.6373 33.2437 40.808 33.8197 40.808 34.481L40.808 38.161L45 38.161L45 39.281ZM39.816 38.161L39.816 34.529C39.816 34.081 39.6933 33.6917 39.448 33.361C39.2027 33.0304 38.8827 32.7744 38.488 32.593C38.0933 32.4117 37.6667 32.321 37.208 32.321C36.7387 32.321 36.3067 32.4277 35.912 32.641C35.5173 32.8544 35.208 33.137 34.984 33.489C34.7493 33.8304 34.632 34.209 34.632 34.625L34.632 38.161L39.816 38.161ZM45 29.3279L33.64 29.3279L33.64 24.5279C33.64 24.0372 33.7413 23.5892 33.944 23.1839C34.1467 22.7786 34.424 22.4266 34.776 22.1279C35.1173 21.8186 35.5013 21.5839 35.928 21.4239C36.344 21.2532 36.7707 21.1679 37.208 21.1679C37.752 21.1679 38.264 21.2746 38.744 21.4879C39.224 21.6906 39.6293 21.9839 39.96 22.3679C40.2907 22.7412 40.5093 23.1839 40.616 23.6959L45 20.9119L45 22.1759L40.808 24.8479L40.808 28.2079L45 28.2079L45 29.3279ZM39.816 28.2079L39.816 24.4959C39.816 24.0479 39.6933 23.6586 39.448 23.3279C39.2027 22.9972 38.8827 22.7412 38.488 22.5599C38.0827 22.3786 37.656 22.2879 37.208 22.2879C36.7493 22.2879 36.328 22.3946 35.944 22.6079C35.5493 22.8106 35.2347 23.0879 35 23.4399C34.7547 23.7812 34.632 24.1652 34.632 24.5919L34.632 28.2079L39.816 28.2079ZM45.08 14.2988C45.08 15.0988 44.92 15.8241 44.6 16.4748C44.28 17.1254 43.848 17.6854 43.304 18.1548C42.7493 18.6241 42.1307 18.9868 41.448 19.2428C40.7547 19.4988 40.0453 19.6268 39.32 19.6268C38.5627 19.6268 37.8427 19.4934 37.16 19.2268C36.4667 18.9601 35.8533 18.5868 35.32 18.1068C34.776 17.6161 34.3493 17.0454 34.04 16.3948C33.72 15.7441 33.56 15.0401 33.56 14.2828C33.56 13.4828 33.7253 12.7574 34.056 12.1068C34.3867 11.4561 34.8293 10.9014 35.384 10.4428C35.9387 9.97345 36.5573 9.61078 37.24 9.35478C37.9227 9.09878 38.6213 8.97078 39.336 8.97078C40.0933 8.97078 40.8187 9.10411 41.512 9.37078C42.1947 9.63745 42.808 10.0108 43.352 10.4908C43.8853 10.9708 44.3067 11.5361 44.616 12.1868C44.9253 12.8374 45.08 13.5414 45.08 14.2988ZM39.32 18.5068C39.9387 18.5068 40.536 18.4054 41.112 18.2028C41.6773 18.0001 42.184 17.7121 42.632 17.3388C43.0693 16.9654 43.4213 16.5228 43.688 16.0108C43.944 15.4881 44.072 14.9174 44.072 14.2988C44.072 13.6481 43.9387 13.0668 43.672 12.5548C43.3947 12.0321 43.032 11.5894 42.584 11.2268C42.1253 10.8534 41.6133 10.5708 41.048 10.3788C40.4827 10.1868 39.9067 10.0908 39.32 10.0908C38.7013 10.0908 38.1093 10.1921 37.544 10.3948C36.9787 10.5974 36.472 10.8908 36.024 11.2748C35.576 11.6481 35.224 12.0908 34.968 12.6028C34.712 13.1148 34.584 13.6801 34.584 14.2988C34.584 14.9388 34.7173 15.5201 34.984 16.0428C35.2507 16.5548 35.6133 16.9974 36.072 17.3708C36.52 17.7334 37.0267 18.0161 37.592 18.2188C38.1573 18.4108 38.7333 18.5068 39.32 18.5068ZM45.16 4.34716C45.16 5.02982 45.048 5.66449 44.824 6.25116C44.6 6.83782 44.2587 7.34449 43.8 7.77116L43.032 7.32316C43.4693 6.85382 43.7893 6.38449 43.992 5.91516C44.184 5.43516 44.28 4.92849 44.28 4.39516C44.28 3.74449 44.152 3.21649 43.896 2.81116C43.6293 2.40582 43.2507 2.20316 42.76 2.20316C42.4293 2.20316 42.1787 2.30449 42.008 2.50716C41.8267 2.69916 41.6827 2.98182 41.576 3.35516C41.4587 3.71782 41.336 4.15516 41.208 4.66716C41.048 5.24316 40.8827 5.72849 40.712 6.12316C40.5307 6.50716 40.3067 6.80049 40.04 7.00316C39.7627 7.19516 39.4053 7.29116 38.968 7.29116C38.424 7.29116 37.976 7.15782 37.624 6.89116C37.2613 6.61382 36.9893 6.24049 36.808 5.77116C36.616 5.29116 36.52 4.75782 36.52 4.17116C36.52 3.53116 36.6213 2.96582 36.824 2.47516C37.0267 1.98449 37.3093 1.58449 37.672 1.27516L38.408 1.80316C38.0667 2.10182 37.816 2.45916 37.656 2.87516C37.4853 3.28049 37.4 3.73382 37.4 4.23516C37.4 4.57649 37.448 4.90182 37.544 5.21116C37.6293 5.52049 37.7787 5.77649 37.992 5.97916C38.1947 6.17116 38.4773 6.26716 38.84 6.26716C39.1387 6.26716 39.3733 6.19249 39.544 6.04316C39.704 5.89382 39.8427 5.66982 39.96 5.37116C40.0667 5.07249 40.184 4.70449 40.312 4.26716C40.4827 3.63782 40.6587 3.08849 40.84 2.61916C41.0107 2.14982 41.2347 1.78716 41.512 1.53116C41.7893 1.27516 42.1787 1.14716 42.68 1.14716C43.4587 1.14716 44.0667 1.44049 44.504 2.02716C44.9413 2.61382 45.16 3.38716 45.16 4.34716Z" fill="#666666"/>
<ellipse cx="12.0497" cy="21.2736" rx="12.0497" ry="11.801" fill="#E1E1E1"/>
<path d="M6.04443 21.1172L10.7653 25.5234" stroke="#5ECE84" stroke-width="3.14306" stroke-linecap="round"/>
<path d="M18.001 18.2812L10.7612 25.5211" stroke="#5ECE84" stroke-width="3.14306" stroke-linecap="round"/>
</svg>
