<svg width="46" height="43" viewBox="0 0 46 43" fill="none" xmlns="http://www.w3.org/2000/svg">
<path d="M39.24 42.6112C38.5467 42.6112 37.8693 42.4938 37.208 42.2592C36.536 42.0138 35.928 41.6618 35.384 41.2032C34.8293 40.7445 34.392 40.1792 34.072 39.5072C33.7413 38.8352 33.576 38.0725 33.576 37.2192C33.576 36.2058 33.8107 35.3418 34.28 34.6272C34.7387 33.9018 35.3307 33.3685 36.056 33.0272L36.6 33.9072C36.0987 34.1525 35.704 34.4618 35.416 34.8352C35.1173 35.2085 34.904 35.6085 34.776 36.0352C34.648 36.4512 34.584 36.8672 34.584 37.2832C34.584 37.9658 34.7227 38.5685 35 39.0912C35.2667 39.6138 35.6293 40.0565 36.088 40.4192C36.536 40.7712 37.0427 41.0378 37.608 41.2192C38.1627 41.4005 38.728 41.4912 39.304 41.4912C39.9333 41.4912 40.536 41.3845 41.112 41.1712C41.688 40.9578 42.2 40.6592 42.648 40.2752C43.0853 39.8912 43.4373 39.4432 43.704 38.9312C43.96 38.4085 44.088 37.8432 44.088 37.2352C44.088 36.8085 44.0133 36.3712 43.864 35.9232C43.7147 35.4752 43.4853 35.0592 43.176 34.6752C42.8667 34.2805 42.4667 33.9658 41.976 33.7312L42.456 32.8032C43.0213 33.0378 43.5013 33.4005 43.896 33.8912C44.2907 34.3818 44.5893 34.9312 44.792 35.5392C44.9947 36.1365 45.096 36.7232 45.096 37.2992C45.096 38.0778 44.9307 38.7925 44.6 39.4432C44.2587 40.0938 43.8107 40.6592 43.256 41.1392C42.6907 41.6085 42.0613 41.9712 41.368 42.2272C40.664 42.4832 39.9547 42.6112 39.24 42.6112ZM45.08 26.4394C45.08 27.2394 44.92 27.9647 44.6 28.6154C44.28 29.2661 43.848 29.8261 43.304 30.2954C42.7493 30.7647 42.1307 31.1274 41.448 31.3834C40.7547 31.6394 40.0453 31.7674 39.32 31.7674C38.5627 31.7674 37.8427 31.6341 37.16 31.3674C36.4667 31.1007 35.8533 30.7274 35.32 30.2474C34.776 29.7567 34.3493 29.1861 34.04 28.5354C33.72 27.8847 33.56 27.1807 33.56 26.4234C33.56 25.6234 33.7253 24.8981 34.056 24.2474C34.3867 23.5967 34.8293 23.0421 35.384 22.5834C35.9387 22.1141 36.5573 21.7514 37.24 21.4954C37.9227 21.2394 38.6213 21.1114 39.336 21.1114C40.0933 21.1114 40.8187 21.2447 41.512 21.5114C42.1947 21.7781 42.808 22.1514 43.352 22.6314C43.8853 23.1114 44.3067 23.6767 44.616 24.3274C44.9253 24.9781 45.08 25.6821 45.08 26.4394ZM39.32 30.6474C39.9387 30.6474 40.536 30.5461 41.112 30.3434C41.6773 30.1407 42.184 29.8527 42.632 29.4794C43.0693 29.1061 43.4213 28.6634 43.688 28.1514C43.944 27.6287 44.072 27.0581 44.072 26.4394C44.072 25.7887 43.9387 25.2074 43.672 24.6954C43.3947 24.1727 43.032 23.7301 42.584 23.3674C42.1253 22.9941 41.6133 22.7114 41.048 22.5194C40.4827 22.3274 39.9067 22.2314 39.32 22.2314C38.7013 22.2314 38.1093 22.3327 37.544 22.5354C36.9787 22.7381 36.472 23.0314 36.024 23.4154C35.576 23.7887 35.224 24.2314 34.968 24.7434C34.712 25.2554 34.584 25.8207 34.584 26.4394C34.584 27.0794 34.7173 27.6607 34.984 28.1834C35.2507 28.6954 35.6133 29.1381 36.072 29.5114C36.52 29.8741 37.0267 30.1567 37.592 30.3594C38.1573 30.5514 38.7333 30.6474 39.32 30.6474ZM35.704 17.8798L45 17.8798L45 18.9998L33.64 18.9998L33.64 18.0718L43.112 10.6158L33.656 10.6158L33.656 9.49578L45 9.49578L45 10.5358L35.704 17.8798ZM45.16 4.20653C45.16 4.8892 45.048 5.52386 44.824 6.11053C44.6 6.6972 44.2587 7.20386 43.8 7.63053L43.032 7.18253C43.4693 6.7132 43.7893 6.24386 43.992 5.77453C44.184 5.29453 44.28 4.78786 44.28 4.25453C44.28 3.60386 44.152 3.07586 43.896 2.67053C43.6293 2.2652 43.2507 2.06253 42.76 2.06253C42.4293 2.06253 42.1787 2.16386 42.008 2.36653C41.8267 2.55853 41.6827 2.8412 41.576 3.21453C41.4587 3.5772 41.336 4.01453 41.208 4.52653C41.048 5.10253 40.8827 5.58786 40.712 5.98253C40.5307 6.36653 40.3067 6.65986 40.04 6.86253C39.7627 7.05453 39.4053 7.15053 38.968 7.15053C38.424 7.15053 37.976 7.0172 37.624 6.75053C37.2613 6.4732 36.9893 6.09986 36.808 5.63053C36.616 5.15053 36.52 4.6172 36.52 4.03053C36.52 3.39053 36.6213 2.8252 36.824 2.33453C37.0267 1.84386 37.3093 1.44386 37.672 1.13453L38.408 1.66253C38.0667 1.9612 37.816 2.31853 37.656 2.73453C37.4853 3.13986 37.4 3.5932 37.4 4.09453C37.4 4.43586 37.448 4.7612 37.544 5.07053C37.6293 5.37986 37.7787 5.63586 37.992 5.83853C38.1947 6.03053 38.4773 6.12653 38.84 6.12653C39.1387 6.12653 39.3733 6.05186 39.544 5.90253C39.704 5.7532 39.8427 5.5292 39.96 5.23053C40.0667 4.93186 40.184 4.56386 40.312 4.12653C40.4827 3.4972 40.6587 2.94786 40.84 2.47853C41.0107 2.0092 41.2347 1.64653 41.512 1.39053C41.7893 1.13453 42.1787 1.00653 42.68 1.00653C43.4587 1.00653 44.0667 1.29986 44.504 1.88653C44.9413 2.4732 45.16 3.24653 45.16 4.20653Z" fill="#666666"/>
<ellipse cx="12.0497" cy="18.9533" rx="12.0497" ry="11.801" fill="#E1E1E1"/>
<path d="M7.06934 14.3906L16.7105 23.8328" stroke="#F08686" stroke-width="3.14306" stroke-linecap="round"/>
<path d="M16.7075 14.3906L7.06635 23.8328" stroke="#F08686" stroke-width="3.14306" stroke-linecap="round"/>
</svg>
