<svg width="17" height="61" viewBox="0 0 17 61" fill="none" xmlns="http://www.w3.org/2000/svg">
<path d="M11 41.8271L5.32 41.8271L5.32 39.4751C5.32 39.2297 5.37067 39.0057 5.472 38.8031C5.57333 38.5951 5.712 38.4164 5.888 38.2671C6.05867 38.1177 6.25067 38.0004 6.464 37.9151C6.672 37.8297 6.88533 37.7871 7.104 37.7871C7.41333 37.7871 7.70667 37.8564 7.984 37.9951C8.256 38.1284 8.47733 38.3177 8.648 38.5631C8.81867 38.8084 8.904 39.0964 8.904 39.4271L8.904 41.2671L11 41.2671L11 41.8271ZM8.408 41.2671L8.408 39.4511C8.408 39.2271 8.34667 39.0324 8.224 38.8671C8.10133 38.7017 7.94133 38.5737 7.744 38.4831C7.54667 38.3924 7.33333 38.3471 7.104 38.3471C6.86933 38.3471 6.65333 38.4004 6.456 38.5071C6.25867 38.6137 6.104 38.7551 5.992 38.9311C5.87467 39.1017 5.816 39.2911 5.816 39.4991L5.816 41.2671L8.408 41.2671ZM11 36.8505L5.32 36.8505L5.32 34.4505C5.32 34.2052 5.37067 33.9812 5.472 33.7785C5.57333 33.5758 5.712 33.3998 5.888 33.2505C6.05867 33.0958 6.25067 32.9785 6.464 32.8985C6.672 32.8132 6.88533 32.7705 7.104 32.7705C7.376 32.7705 7.632 32.8238 7.872 32.9305C8.112 33.0318 8.31467 33.1785 8.48 33.3705C8.64533 33.5572 8.75467 33.7785 8.808 34.0345L11 32.6425L11 33.2745L8.904 34.6105L8.904 36.2905L11 36.2905L11 36.8505ZM8.408 36.2905L8.408 34.4345C8.408 34.2105 8.34667 34.0158 8.224 33.8505C8.10133 33.6852 7.94133 33.5572 7.744 33.4665C7.54133 33.3758 7.328 33.3305 7.104 33.3305C6.87467 33.3305 6.664 33.3838 6.472 33.4905C6.27467 33.5918 6.11733 33.7305 6 33.9065C5.87733 34.0772 5.816 34.2692 5.816 34.4825L5.816 36.2905L8.408 36.2905ZM11.04 29.3359C11.04 29.7359 10.96 30.0986 10.8 30.4239C10.64 30.7493 10.424 31.0293 10.152 31.2639C9.87467 31.4986 9.56533 31.6799 9.224 31.8079C8.87733 31.9359 8.52267 31.9999 8.16 31.9999C7.78133 31.9999 7.42133 31.9333 7.08 31.7999C6.73333 31.6666 6.42667 31.4799 6.16 31.2399C5.888 30.9946 5.67467 30.7093 5.52 30.3839C5.36 30.0586 5.28 29.7066 5.28 29.3279C5.28 28.9279 5.36267 28.5653 5.528 28.2399C5.69333 27.9146 5.91467 27.6373 6.192 27.4079C6.46933 27.1733 6.77867 26.9919 7.12 26.8639C7.46133 26.7359 7.81067 26.6719 8.168 26.6719C8.54667 26.6719 8.90933 26.7386 9.256 26.8719C9.59733 27.0053 9.904 27.1919 10.176 27.4319C10.4427 27.6719 10.6533 27.9546 10.808 28.2799C10.9627 28.6053 11.04 28.9573 11.04 29.3359ZM8.16 31.4399C8.46933 31.4399 8.768 31.3893 9.056 31.2879C9.33867 31.1866 9.592 31.0426 9.816 30.8559C10.0347 30.6693 10.2107 30.4479 10.344 30.1919C10.472 29.9306 10.536 29.6453 10.536 29.3359C10.536 29.0106 10.4693 28.7199 10.336 28.4639C10.1973 28.2026 10.016 27.9813 9.792 27.7999C9.56267 27.6133 9.30667 27.4719 9.024 27.3759C8.74133 27.2799 8.45333 27.2319 8.16 27.2319C7.85067 27.2319 7.55467 27.2826 7.272 27.3839C6.98933 27.4853 6.736 27.6319 6.512 27.8239C6.288 28.0106 6.112 28.2319 5.984 28.4879C5.856 28.7439 5.792 29.0266 5.792 29.3359C5.792 29.6559 5.85867 29.9466 5.992 30.2079C6.12533 30.4639 6.30667 30.6853 6.536 30.8719C6.76 31.0533 7.01333 31.1946 7.296 31.2959C7.57867 31.3919 7.86667 31.4399 8.16 31.4399ZM11.08 24.3601C11.08 24.7015 11.024 25.0188 10.912 25.3121C10.8 25.6055 10.6293 25.8588 10.4 26.0721L10.016 25.8481C10.2347 25.6135 10.3947 25.3788 10.496 25.1441C10.592 24.9041 10.64 24.6508 10.64 24.3841C10.64 24.0588 10.576 23.7948 10.448 23.5921C10.3147 23.3895 10.1253 23.2881 9.88 23.2881C9.71467 23.2881 9.58933 23.3388 9.504 23.4401C9.41333 23.5361 9.34133 23.6775 9.288 23.8641C9.22933 24.0455 9.168 24.2641 9.104 24.5201C9.024 24.8081 8.94133 25.0508 8.856 25.2481C8.76533 25.4401 8.65333 25.5868 8.52 25.6881C8.38133 25.7841 8.20267 25.8321 7.984 25.8321C7.712 25.8321 7.488 25.7655 7.312 25.6321C7.13067 25.4935 6.99467 25.3068 6.904 25.0721C6.808 24.8321 6.76 24.5655 6.76 24.2721C6.76 23.9521 6.81067 23.6695 6.912 23.4241C7.01333 23.1788 7.15467 22.9788 7.336 22.8241L7.704 23.0881C7.53333 23.2375 7.408 23.4161 7.328 23.6241C7.24267 23.8268 7.2 24.0535 7.2 24.3041C7.2 24.4748 7.224 24.6375 7.272 24.7921C7.31467 24.9468 7.38933 25.0748 7.496 25.1761C7.59733 25.2721 7.73867 25.3201 7.92 25.3201C8.06933 25.3201 8.18667 25.2828 8.272 25.2081C8.352 25.1335 8.42133 25.0215 8.48 24.8721C8.53333 24.7228 8.592 24.5388 8.656 24.3201C8.74133 24.0055 8.82933 23.7308 8.92 23.4961C9.00533 23.2615 9.11733 23.0801 9.256 22.9521C9.39467 22.8241 9.58933 22.7601 9.84 22.7601C10.2293 22.7601 10.5333 22.9068 10.752 23.2001C10.9707 23.4935 11.08 23.8801 11.08 24.3601Z" fill="#666666"/>
<ellipse cx="8.07715" cy="6.93107" rx="7.07715" ry="6.93107" fill="#E1E1E1"/>
<path d="M4.54883 6.84375L7.32462 9.43449" stroke="#5ECE84" stroke-width="1.08098" stroke-linecap="round"/>
<path d="M11.5684 5.16797L7.31619 9.42014" stroke="#5ECE84" stroke-width="1.08098" stroke-linecap="round"/>
</svg>
