<svg width="17" height="61" viewBox="0 0 17 61" fill="none" xmlns="http://www.w3.org/2000/svg">
<path d="M8.12 42.8827C7.77333 42.8827 7.43467 42.8241 7.104 42.7067C6.768 42.5841 6.464 42.4081 6.192 42.1787C5.91467 41.9494 5.696 41.6667 5.536 41.3307C5.37067 40.9947 5.288 40.6134 5.288 40.1867C5.288 39.6801 5.40533 39.2481 5.64 38.8907C5.86933 38.5281 6.16533 38.2614 6.528 38.0907L6.8 38.5307C6.54933 38.6534 6.352 38.8081 6.208 38.9947C6.05867 39.1814 5.952 39.3814 5.888 39.5947C5.824 39.8027 5.792 40.0107 5.792 40.2187C5.792 40.5601 5.86133 40.8614 6 41.1227C6.13333 41.3841 6.31467 41.6054 6.544 41.7867C6.768 41.9627 7.02133 42.0961 7.304 42.1867C7.58133 42.2774 7.864 42.3227 8.152 42.3227C8.46667 42.3227 8.768 42.2694 9.056 42.1627C9.344 42.0561 9.6 41.9067 9.824 41.7147C10.0427 41.5227 10.2187 41.2987 10.352 41.0427C10.48 40.7814 10.544 40.4987 10.544 40.1947C10.544 39.9814 10.5067 39.7627 10.432 39.5387C10.3573 39.3147 10.2427 39.1067 10.088 38.9147C9.93333 38.7174 9.73333 38.5601 9.488 38.4427L9.728 37.9787C10.0107 38.0961 10.2507 38.2774 10.448 38.5227C10.6453 38.7681 10.7947 39.0427 10.896 39.3467C10.9973 39.6454 11.048 39.9387 11.048 40.2267C11.048 40.6161 10.9653 40.9734 10.8 41.2987C10.6293 41.6241 10.4053 41.9067 10.128 42.1467C9.84533 42.3814 9.53067 42.5627 9.184 42.6907C8.832 42.8187 8.47733 42.8827 8.12 42.8827ZM11.04 34.7969C11.04 35.1969 10.96 35.5595 10.8 35.8849C10.64 36.2102 10.424 36.4902 10.152 36.7249C9.87467 36.9595 9.56533 37.1409 9.224 37.2689C8.87733 37.3969 8.52267 37.4609 8.16 37.4609C7.78133 37.4609 7.42133 37.3942 7.08 37.2609C6.73333 37.1275 6.42667 36.9409 6.16 36.7009C5.888 36.4555 5.67467 36.1702 5.52 35.8449C5.36 35.5195 5.28 35.1675 5.28 34.7889C5.28 34.3889 5.36267 34.0262 5.528 33.7009C5.69333 33.3755 5.91467 33.0982 6.192 32.8689C6.46933 32.6342 6.77867 32.4529 7.12 32.3249C7.46133 32.1969 7.81067 32.1329 8.168 32.1329C8.54667 32.1329 8.90933 32.1995 9.256 32.3329C9.59733 32.4662 9.904 32.6529 10.176 32.8929C10.4427 33.1329 10.6533 33.4155 10.808 33.7409C10.9627 34.0662 11.04 34.4182 11.04 34.7969ZM8.16 36.9009C8.46933 36.9009 8.768 36.8502 9.056 36.7489C9.33867 36.6475 9.592 36.5035 9.816 36.3169C10.0347 36.1302 10.2107 35.9089 10.344 35.6529C10.472 35.3915 10.536 35.1062 10.536 34.7969C10.536 34.4715 10.4693 34.1809 10.336 33.9249C10.1973 33.6635 10.016 33.4422 9.792 33.2609C9.56267 33.0742 9.30667 32.9329 9.024 32.8369C8.74133 32.7409 8.45333 32.6929 8.16 32.6929C7.85067 32.6929 7.55467 32.7435 7.272 32.8449C6.98933 32.9462 6.736 33.0929 6.512 33.2849C6.288 33.4715 6.112 33.6929 5.984 33.9489C5.856 34.2049 5.792 34.4875 5.792 34.7969C5.792 35.1169 5.85867 35.4075 5.992 35.6689C6.12533 35.9249 6.30667 36.1462 6.536 36.3329C6.76 36.5142 7.01333 36.6555 7.296 36.7569C7.57867 36.8529 7.86667 36.9009 8.16 36.9009ZM6.352 30.5171L11 30.5171L11 31.0771L5.32 31.0771L5.32 30.6131L10.056 26.8851L5.328 26.8851L5.328 26.3251L11 26.3251L11 26.8451L6.352 30.5171ZM11.08 23.6804C11.08 24.0218 11.024 24.3391 10.912 24.6324C10.8 24.9258 10.6293 25.1791 10.4 25.3924L10.016 25.1684C10.2347 24.9338 10.3947 24.6991 10.496 24.4644C10.592 24.2244 10.64 23.9711 10.64 23.7044C10.64 23.3791 10.576 23.1151 10.448 22.9124C10.3147 22.7098 10.1253 22.6084 9.88 22.6084C9.71467 22.6084 9.58933 22.6591 9.504 22.7604C9.41333 22.8564 9.34133 22.9978 9.288 23.1844C9.22933 23.3658 9.168 23.5844 9.104 23.8404C9.024 24.1284 8.94133 24.3711 8.856 24.5684C8.76533 24.7604 8.65333 24.9071 8.52 25.0084C8.38133 25.1044 8.20267 25.1524 7.984 25.1524C7.712 25.1524 7.488 25.0858 7.312 24.9524C7.13067 24.8138 6.99467 24.6271 6.904 24.3924C6.808 24.1524 6.76 23.8858 6.76 23.5924C6.76 23.2724 6.81067 22.9898 6.912 22.7444C7.01333 22.4991 7.15467 22.2991 7.336 22.1444L7.704 22.4084C7.53333 22.5578 7.408 22.7364 7.328 22.9444C7.24267 23.1471 7.2 23.3738 7.2 23.6244C7.2 23.7951 7.224 23.9578 7.272 24.1124C7.31467 24.2671 7.38933 24.3951 7.496 24.4964C7.59733 24.5924 7.73867 24.6404 7.92 24.6404C8.06933 24.6404 8.18667 24.6031 8.272 24.5284C8.352 24.4538 8.42133 24.3418 8.48 24.1924C8.53333 24.0431 8.592 23.8591 8.656 23.6404C8.74133 23.3258 8.82933 23.0511 8.92 22.8164C9.00533 22.5818 9.11733 22.4004 9.256 22.2724C9.39467 22.1444 9.58933 22.0804 9.84 22.0804C10.2293 22.0804 10.5333 22.2271 10.752 22.5204C10.9707 22.8138 11.08 23.2004 11.08 23.6804Z" fill="#666666"/>
<ellipse cx="8.11163" cy="6.96484" rx="7.11163" ry="6.96484" fill="#E1E1E1"/>
<path d="M5.17285 4.26953L10.863 9.84224" stroke="#F08686" stroke-width="1.08098" stroke-linecap="round"/>
<path d="M10.8608 4.26953L5.17068 9.84224" stroke="#F08686" stroke-width="1.08098" stroke-linecap="round"/>
</svg>
