<svg width="364" height="18" viewBox="0 0 364 18" fill="none" xmlns="http://www.w3.org/2000/svg">
<path d="M361.56 10.6067C362.428 10.6067 363.131 9.90309 363.131 9.03516C363.131 8.16722 362.428 7.46362 361.56 7.46362V10.6067ZM17.2891 9.03516C17.2891 4.40618 13.5366 0.653652 8.90759 0.653652C4.27862 0.653652 0.526089 4.40618 0.526089 9.03516C0.526089 13.6641 4.27862 17.4167 8.90759 17.4167C13.5366 17.4167 17.2891 13.6641 17.2891 9.03516ZM355.262 7.46362C354.394 7.46362 353.691 8.16722 353.691 9.03516C353.691 9.90309 354.394 10.6067 355.262 10.6067V7.46362ZM342.667 10.6067C343.535 10.6067 344.239 9.90309 344.239 9.03516C344.239 8.16722 343.535 7.46362 342.667 7.46362V10.6067ZM330.073 7.46362C329.205 7.46362 328.501 8.16722 328.501 9.03516C328.501 9.90309 329.205 10.6067 330.073 10.6067V7.46362ZM317.478 10.6067C318.346 10.6067 319.05 9.90309 319.05 9.03516C319.05 8.16722 318.346 7.46362 317.478 7.46362V10.6067ZM304.883 7.46362C304.015 7.46362 303.312 8.16722 303.312 9.03516C303.312 9.90309 304.015 10.6067 304.883 10.6067V7.46362ZM292.289 10.6067C293.157 10.6067 293.86 9.90309 293.86 9.03516C293.86 8.16722 293.157 7.46362 292.289 7.46362V10.6067ZM279.694 7.46362C278.826 7.46362 278.122 8.16722 278.122 9.03516C278.122 9.90309 278.826 10.6067 279.694 10.6067V7.46362ZM267.099 10.6067C267.967 10.6067 268.671 9.90309 268.671 9.03516C268.671 8.16722 267.967 7.46362 267.099 7.46362V10.6067ZM254.505 7.46362C253.637 7.46362 252.933 8.16722 252.933 9.03516C252.933 9.90309 253.637 10.6067 254.505 10.6067V7.46362ZM241.91 10.6067C242.778 10.6067 243.481 9.90309 243.481 9.03516C243.481 8.16722 242.778 7.46362 241.91 7.46362V10.6067ZM229.315 7.46362C228.447 7.46362 227.744 8.16722 227.744 9.03516C227.744 9.90309 228.447 10.6067 229.315 10.6067V7.46362ZM216.72 10.6067C217.588 10.6067 218.292 9.90309 218.292 9.03516C218.292 8.16722 217.588 7.46362 216.72 7.46362V10.6067ZM204.126 7.46362C203.258 7.46362 202.554 8.16722 202.554 9.03516C202.554 9.90309 203.258 10.6067 204.126 10.6067V7.46362ZM191.531 10.6067C192.399 10.6067 193.102 9.90309 193.102 9.03516C193.102 8.16722 192.399 7.46362 191.531 7.46362V10.6067ZM178.936 7.46362C178.068 7.46362 177.365 8.16722 177.365 9.03516C177.365 9.90309 178.068 10.6067 178.936 10.6067V7.46362ZM166.342 10.6067C167.209 10.6067 167.913 9.90309 167.913 9.03516C167.913 8.16722 167.209 7.46362 166.342 7.46362V10.6067ZM153.747 7.46362C152.879 7.46362 152.175 8.16722 152.175 9.03516C152.175 9.90309 152.879 10.6067 153.747 10.6067V7.46362ZM141.152 10.6067C142.02 10.6067 142.724 9.90309 142.724 9.03516C142.724 8.16722 142.02 7.46362 141.152 7.46362V10.6067ZM128.557 7.46362C127.689 7.46362 126.986 8.16722 126.986 9.03516C126.986 9.90309 127.689 10.6067 128.557 10.6067V7.46362ZM115.963 10.6067C116.831 10.6067 117.534 9.90309 117.534 9.03516C117.534 8.16722 116.831 7.46362 115.963 7.46362V10.6067ZM103.368 7.46362C102.5 7.46362 101.796 8.16722 101.796 9.03516C101.796 9.90309 102.5 10.6067 103.368 10.6067V7.46362ZM90.7733 10.6067C91.6412 10.6067 92.3448 9.90309 92.3448 9.03516C92.3448 8.16722 91.6412 7.46362 90.7733 7.46362V10.6067ZM78.1785 7.46362C77.3106 7.46362 76.607 8.16722 76.607 9.03516C76.607 9.90309 77.3106 10.6067 78.1785 10.6067V7.46362ZM65.5838 10.6067C66.4517 10.6067 67.1553 9.90309 67.1553 9.03516C67.1553 8.16722 66.4517 7.46362 65.5838 7.46362V10.6067ZM52.9891 7.46362C52.1211 7.46362 51.4175 8.16722 51.4175 9.03516C51.4175 9.90309 52.1211 10.6067 52.9891 10.6067V7.46362ZM40.3943 10.6067C41.2623 10.6067 41.9659 9.90309 41.9659 9.03516C41.9659 8.16722 41.2623 7.46362 40.3943 7.46362V10.6067ZM27.7996 7.46362C26.9317 7.46362 26.2281 8.16722 26.2281 9.03516C26.2281 9.90309 26.9317 10.6067 27.7996 10.6067V7.46362ZM15.2049 10.6067C16.0728 10.6067 16.7764 9.90309 16.7764 9.03516C16.7764 8.16722 16.0728 7.46362 15.2049 7.46362V10.6067ZM361.56 7.46362L355.262 7.46362V10.6067H361.56V7.46362ZM342.667 7.46362L330.073 7.46362V10.6067L342.667 10.6067V7.46362ZM317.478 7.46362L304.883 7.46362V10.6067L317.478 10.6067V7.46362ZM292.289 7.46362L279.694 7.46362V10.6067L292.289 10.6067V7.46362ZM267.099 7.46362L254.505 7.46362V10.6067L267.099 10.6067V7.46362ZM241.91 7.46362L229.315 7.46362V10.6067L241.91 10.6067V7.46362ZM216.72 7.46362L204.126 7.46362V10.6067L216.72 10.6067V7.46362ZM191.531 7.46362L178.936 7.46362V10.6067L191.531 10.6067V7.46362ZM166.342 7.46362L153.747 7.46362V10.6067H166.342V7.46362ZM141.152 7.46362L128.557 7.46362V10.6067L141.152 10.6067V7.46362ZM115.963 7.46362L103.368 7.46362V10.6067L115.963 10.6067V7.46362ZM90.7733 7.46362L78.1785 7.46362V10.6067L90.7733 10.6067V7.46362ZM65.5838 7.46362L52.9891 7.46362V10.6067L65.5838 10.6067V7.46362ZM40.3943 7.46362L27.7996 7.46362V10.6067L40.3943 10.6067V7.46362ZM15.2049 7.46362H8.90759V10.6067H15.2049V7.46362Z" fill="white" fill-opacity="0.85"/>
</svg>
