<svg width="222" height="18" viewBox="0 0 222 18" fill="none" xmlns="http://www.w3.org/2000/svg">
<path d="M1.63818 7.62769C0.77025 7.62769 0.0666516 8.33129 0.0666516 9.19922C0.0666516 10.0672 0.77025 10.7708 1.63818 10.7708L1.63818 7.62769ZM205.099 9.19922C205.099 13.8282 208.852 17.5807 213.481 17.5807C218.11 17.5807 221.862 13.8282 221.862 9.19922C221.862 4.57024 218.11 0.817714 213.481 0.817715C208.852 0.817715 205.099 4.57024 205.099 9.19922ZM8.25827 10.7708C9.1262 10.7708 9.8298 10.0672 9.8298 9.19922C9.8298 8.33129 9.1262 7.62769 8.25827 7.62769L8.25827 10.7708ZM21.4984 7.62769C20.6305 7.62769 19.9269 8.33129 19.9269 9.19922C19.9269 10.0672 20.6305 10.7708 21.4984 10.7708L21.4984 7.62769ZM34.7386 10.7708C35.6065 10.7708 36.3101 10.0672 36.3101 9.19922C36.3101 8.33129 35.6065 7.62769 34.7386 7.62769L34.7386 10.7708ZM47.9788 7.62769C47.1108 7.62769 46.4072 8.33129 46.4072 9.19922C46.4072 10.0672 47.1108 10.7708 47.9788 10.7708L47.9788 7.62769ZM61.2189 10.7708C62.0869 10.7708 62.7904 10.0672 62.7904 9.19922C62.7904 8.33129 62.0869 7.62769 61.2189 7.62769L61.2189 10.7708ZM74.4591 7.62769C73.5911 7.62769 72.8875 8.33129 72.8875 9.19922C72.8875 10.0672 73.5911 10.7708 74.4591 10.7708L74.4591 7.62769ZM87.6992 10.7708C88.5672 10.7708 89.2708 10.0672 89.2708 9.19922C89.2708 8.33129 88.5672 7.62769 87.6992 7.62769L87.6992 10.7708ZM100.939 7.62769C100.071 7.62769 99.3679 8.33129 99.3679 9.19922C99.3679 10.0672 100.071 10.7708 100.939 10.7708L100.939 7.62769ZM114.18 10.7708C115.048 10.7708 115.751 10.0672 115.751 9.19922C115.751 8.33129 115.048 7.62769 114.18 7.62769L114.18 10.7708ZM127.42 7.62769C126.552 7.62769 125.848 8.33129 125.848 9.19922C125.848 10.0672 126.552 10.7708 127.42 10.7708L127.42 7.62769ZM140.66 10.7708C141.528 10.7708 142.231 10.0672 142.231 9.19922C142.231 8.33129 141.528 7.62769 140.66 7.62769L140.66 10.7708ZM153.9 7.62769C153.032 7.62769 152.329 8.33129 152.329 9.19922C152.329 10.0672 153.032 10.7708 153.9 10.7708L153.9 7.62769ZM167.14 10.7708C168.008 10.7708 168.712 10.0672 168.712 9.19922C168.712 8.33129 168.008 7.62769 167.14 7.62769L167.14 10.7708ZM180.38 7.62769C179.512 7.62769 178.809 8.33129 178.809 9.19922C178.809 10.0672 179.512 10.7708 180.38 10.7708L180.38 7.62769ZM193.621 10.7708C194.488 10.7708 195.192 10.0672 195.192 9.19922C195.192 8.33129 194.488 7.62769 193.621 7.62769L193.621 10.7708ZM206.861 7.62769C205.993 7.62769 205.289 8.33129 205.289 9.19922C205.289 10.0672 205.993 10.7708 206.861 10.7708L206.861 7.62769ZM1.63818 10.7708L8.25827 10.7708L8.25827 7.62769L1.63818 7.62769L1.63818 10.7708ZM21.4984 10.7708L34.7386 10.7708L34.7386 7.62769L21.4984 7.62769L21.4984 10.7708ZM47.9788 10.7708L61.2189 10.7708L61.2189 7.62769L47.9788 7.62769L47.9788 10.7708ZM74.4591 10.7708L87.6992 10.7708L87.6992 7.62769L74.4591 7.62769L74.4591 10.7708ZM100.939 10.7708L114.18 10.7708L114.18 7.62769L100.939 7.62769L100.939 10.7708ZM127.42 10.7708L140.66 10.7708L140.66 7.62769L127.42 7.62769L127.42 10.7708ZM153.9 10.7708L167.14 10.7708L167.14 7.62769L153.9 7.62769L153.9 10.7708ZM180.38 10.7708L193.621 10.7708L193.621 7.62769L180.38 7.62769L180.38 10.7708ZM206.861 10.7708L213.481 10.7708L213.481 7.62769L206.861 7.62769L206.861 10.7708Z" fill="white" fill-opacity="0.85"/>
</svg>
