<svg width="183" height="17" viewBox="0 0 183 17" fill="none" xmlns="http://www.w3.org/2000/svg">
<path d="M180.56 9.9895C181.428 9.9895 182.131 9.2859 182.131 8.41797C182.131 7.55004 181.428 6.84644 180.56 6.84644V9.9895ZM17.0154 8.41797C17.0154 3.78899 13.2629 0.0364647 8.63391 0.0364647C4.00493 0.0364647 0.252403 3.78899 0.252403 8.41797C0.252403 13.0469 4.00493 16.7995 8.63391 16.7995C13.2629 16.7995 17.0154 13.0469 17.0154 8.41797ZM174.419 6.84644C173.551 6.84644 172.848 7.55004 172.848 8.41797C172.848 9.2859 173.551 9.9895 174.419 9.9895V6.84644ZM162.139 9.9895C163.007 9.9895 163.71 9.2859 163.71 8.41797C163.71 7.55004 163.007 6.84644 162.139 6.84644V9.9895ZM149.859 6.84644C148.991 6.84644 148.287 7.55004 148.287 8.41797C148.287 9.2859 148.991 9.9895 149.859 9.9895V6.84644ZM137.578 9.9895C138.446 9.9895 139.15 9.2859 139.15 8.41797C139.15 7.55004 138.446 6.84644 137.578 6.84644V9.9895ZM125.298 6.84644C124.43 6.84644 123.726 7.55004 123.726 8.41797C123.726 9.2859 124.43 9.9895 125.298 9.9895V6.84644ZM113.017 9.9895C113.885 9.9895 114.589 9.2859 114.589 8.41797C114.589 7.55004 113.885 6.84644 113.017 6.84644V9.9895ZM100.737 6.84644C99.869 6.84644 99.1654 7.55004 99.1654 8.41797C99.1654 9.2859 99.869 9.9895 100.737 9.9895V6.84644ZM88.4565 9.9895C89.3245 9.9895 90.0281 9.2859 90.0281 8.41797C90.0281 7.55004 89.3245 6.84644 88.4565 6.84644V9.9895ZM76.1761 6.84644C75.3082 6.84644 74.6046 7.55004 74.6046 8.41797C74.6046 9.2859 75.3082 9.9895 76.1761 9.9895V6.84644ZM63.8957 9.9895C64.7637 9.9895 65.4673 9.2859 65.4673 8.41797C65.4673 7.55004 64.7637 6.84644 63.8957 6.84644V9.9895ZM51.6153 6.84644C50.7474 6.84644 50.0438 7.55004 50.0438 8.41797C50.0438 9.2859 50.7474 9.9895 51.6153 9.9895V6.84644ZM39.3349 9.9895C40.2028 9.9895 40.9064 9.2859 40.9064 8.41797C40.9064 7.55004 40.2028 6.84644 39.3349 6.84644V9.9895ZM27.0545 6.84644C26.1866 6.84644 25.483 7.55004 25.483 8.41797C25.483 9.2859 26.1866 9.9895 27.0545 9.9895V6.84644ZM14.7741 9.9895C15.642 9.9895 16.3456 9.2859 16.3456 8.41797C16.3456 7.55004 15.642 6.84644 14.7741 6.84644V9.9895ZM180.56 6.84644L174.419 6.84644V9.9895H180.56V6.84644ZM162.139 6.84644L149.859 6.84644V9.9895L162.139 9.9895V6.84644ZM137.578 6.84644L125.298 6.84644V9.9895L137.578 9.9895V6.84644ZM113.017 6.84644L100.737 6.84644V9.9895L113.017 9.9895V6.84644ZM88.4565 6.84644L76.1761 6.84644V9.9895L88.4565 9.9895V6.84644ZM63.8957 6.84644L51.6153 6.84644V9.9895L63.8957 9.9895V6.84644ZM39.3349 6.84644L27.0545 6.84644V9.9895L39.3349 9.9895V6.84644ZM14.7741 6.84644L8.63391 6.84644V9.9895L14.7741 9.9895V6.84644Z" fill="white" fill-opacity="0.85"/>
</svg>
