<svg width="441" height="18" viewBox="0 0 441 18" fill="none" xmlns="http://www.w3.org/2000/svg">
<path d="M438.56 10.7454C439.428 10.7454 440.131 10.0418 440.131 9.17383C440.131 8.30589 439.428 7.6023 438.56 7.6023V10.7454ZM16.9697 9.17383C16.9697 4.54485 13.2171 0.792324 8.58816 0.792324C3.95918 0.792324 0.206653 4.54485 0.206653 9.17383C0.206653 13.8028 3.95918 17.5553 8.58816 17.5553C13.2171 17.5553 16.9697 13.8028 16.9697 9.17383ZM432.236 7.6023C431.369 7.6023 430.665 8.30589 430.665 9.17383C430.665 10.0418 431.369 10.7454 432.236 10.7454V7.6023ZM419.59 10.7454C420.458 10.7454 421.162 10.0418 421.162 9.17383C421.162 8.30589 420.458 7.6023 419.59 7.6023V10.7454ZM406.944 7.6023C406.076 7.6023 405.372 8.30589 405.372 9.17383C405.372 10.0418 406.076 10.7454 406.944 10.7454V7.6023ZM394.298 10.7454C395.166 10.7454 395.869 10.0418 395.869 9.17383C395.869 8.30589 395.166 7.6023 394.298 7.6023V10.7454ZM381.652 7.6023C380.784 7.6023 380.08 8.30589 380.08 9.17383C380.08 10.0418 380.784 10.7454 381.652 10.7454V7.6023ZM369.005 10.7454C369.873 10.7454 370.577 10.0418 370.577 9.17383C370.577 8.30589 369.873 7.6023 369.005 7.6023V10.7454ZM356.359 7.6023C355.491 7.6023 354.788 8.30589 354.788 9.17383C354.788 10.0418 355.491 10.7454 356.359 10.7454V7.6023ZM343.713 10.7454C344.581 10.7454 345.284 10.0418 345.284 9.17383C345.284 8.30589 344.581 7.6023 343.713 7.6023V10.7454ZM331.067 7.6023C330.199 7.6023 329.495 8.30589 329.495 9.17383C329.495 10.0418 330.199 10.7454 331.067 10.7454V7.6023ZM318.42 10.7454C319.288 10.7454 319.992 10.0418 319.992 9.17383C319.992 8.30589 319.288 7.6023 318.42 7.6023V10.7454ZM305.774 7.6023C304.906 7.6023 304.203 8.30589 304.203 9.17383C304.203 10.0418 304.906 10.7454 305.774 10.7454V7.6023ZM293.128 10.7454C293.996 10.7454 294.7 10.0418 294.7 9.17383C294.7 8.30589 293.996 7.6023 293.128 7.6023V10.7454ZM280.482 7.6023C279.614 7.6023 278.91 8.30589 278.91 9.17383C278.91 10.0418 279.614 10.7454 280.482 10.7454V7.6023ZM267.836 10.7454C268.704 10.7454 269.407 10.0418 269.407 9.17383C269.407 8.30589 268.704 7.6023 267.836 7.6023V10.7454ZM255.189 7.6023C254.322 7.6023 253.618 8.30589 253.618 9.17383C253.618 10.0418 254.322 10.7454 255.189 10.7454V7.6023ZM242.543 10.7454C243.411 10.7454 244.115 10.0418 244.115 9.17383C244.115 8.30589 243.411 7.6023 242.543 7.6023V10.7454ZM229.897 7.6023C229.029 7.6023 228.325 8.30589 228.325 9.17383C228.325 10.0418 229.029 10.7454 229.897 10.7454V7.6023ZM217.251 10.7454C218.119 10.7454 218.822 10.0418 218.822 9.17383C218.822 8.30589 218.119 7.6023 217.251 7.6023V10.7454ZM204.605 7.6023C203.737 7.6023 203.033 8.30589 203.033 9.17383C203.033 10.0418 203.737 10.7454 204.605 10.7454V7.6023ZM191.958 10.7454C192.826 10.7454 193.53 10.0418 193.53 9.17383C193.53 8.30589 192.826 7.6023 191.958 7.6023V10.7454ZM179.312 7.6023C178.444 7.6023 177.741 8.30589 177.741 9.17383C177.741 10.0418 178.444 10.7454 179.312 10.7454V7.6023ZM166.666 10.7454C167.534 10.7454 168.238 10.0418 168.238 9.17383C168.238 8.30589 167.534 7.6023 166.666 7.6023V10.7454ZM154.02 7.6023C153.152 7.6023 152.448 8.30589 152.448 9.17383C152.448 10.0418 153.152 10.7454 154.02 10.7454V7.6023ZM141.374 10.7454C142.241 10.7454 142.945 10.0418 142.945 9.17383C142.945 8.30589 142.241 7.6023 141.374 7.6023V10.7454ZM128.727 7.6023C127.859 7.6023 127.156 8.30589 127.156 9.17383C127.156 10.0418 127.859 10.7454 128.727 10.7454V7.6023ZM116.081 10.7454C116.949 10.7454 117.653 10.0418 117.653 9.17383C117.653 8.30589 116.949 7.6023 116.081 7.6023V10.7454ZM103.435 7.6023C102.567 7.6023 101.863 8.30589 101.863 9.17383C101.863 10.0418 102.567 10.7454 103.435 10.7454V7.6023ZM90.7887 10.7454C91.6567 10.7454 92.3603 10.0418 92.3603 9.17383C92.3603 8.30589 91.6567 7.6023 90.7887 7.6023V10.7454ZM78.1425 7.6023C77.2746 7.6023 76.571 8.30589 76.571 9.17383C76.571 10.0418 77.2746 10.7454 78.1425 10.7454V7.6023ZM65.4963 10.7454C66.3642 10.7454 67.0678 10.0418 67.0678 9.17383C67.0678 8.30589 66.3642 7.6023 65.4963 7.6023V10.7454ZM52.8501 7.6023C51.9822 7.6023 51.2786 8.30589 51.2786 9.17383C51.2786 10.0418 51.9822 10.7454 52.8501 10.7454V7.6023ZM40.2039 10.7454C41.0718 10.7454 41.7754 10.0418 41.7754 9.17383C41.7754 8.30589 41.0718 7.6023 40.2039 7.6023V10.7454ZM27.5577 7.6023C26.6897 7.6023 25.9861 8.30589 25.9861 9.17383C25.9861 10.0418 26.6897 10.7454 27.5577 10.7454V7.6023ZM14.9115 10.7454C15.7794 10.7454 16.483 10.0418 16.483 9.17383C16.483 8.30589 15.7794 7.6023 14.9115 7.6023V10.7454ZM438.56 7.6023L432.236 7.6023V10.7454H438.56V7.6023ZM419.59 7.6023L406.944 7.6023V10.7454L419.59 10.7454V7.6023ZM394.298 7.6023L381.652 7.6023V10.7454L394.298 10.7454V7.6023ZM369.005 7.6023L356.359 7.6023V10.7454L369.005 10.7454V7.6023ZM343.713 7.6023L331.067 7.6023V10.7454L343.713 10.7454V7.6023ZM318.42 7.6023L305.774 7.6023V10.7454L318.42 10.7454V7.6023ZM293.128 7.6023L280.482 7.6023V10.7454L293.128 10.7454V7.6023ZM267.836 7.6023L255.189 7.6023V10.7454L267.836 10.7454V7.6023ZM242.543 7.6023L229.897 7.6023V10.7454H242.543V7.6023ZM217.251 7.6023L204.605 7.6023V10.7454L217.251 10.7454V7.6023ZM191.958 7.6023L179.312 7.6023V10.7454L191.958 10.7454V7.6023ZM166.666 7.6023L154.02 7.6023V10.7454L166.666 10.7454V7.6023ZM141.374 7.6023L128.727 7.6023V10.7454L141.374 10.7454V7.6023ZM116.081 7.6023L103.435 7.6023V10.7454L116.081 10.7454V7.6023ZM90.7887 7.6023L78.1425 7.6023V10.7454L90.7887 10.7454V7.6023ZM65.4963 7.6023L52.8501 7.6023V10.7454L65.4963 10.7454V7.6023ZM40.2039 7.6023L27.5577 7.6023V10.7454H40.2039V7.6023ZM14.9115 7.6023L8.58816 7.6023V10.7454L14.9115 10.7454V7.6023Z" fill="white" fill-opacity="0.85"/>
</svg>
