<svg width="132" height="18" viewBox="0 0 132 18" fill="none" xmlns="http://www.w3.org/2000/svg">
<path d="M129.56 10.675C130.428 10.675 131.131 9.97145 131.131 9.10352C131.131 8.23558 130.428 7.53198 129.56 7.53198L129.56 10.675ZM16.9331 9.10353C16.9331 4.47455 13.1805 0.722022 8.55156 0.722022C3.92259 0.722023 0.17006 4.47455 0.170061 9.10353C0.170061 13.7325 3.92259 17.485 8.55157 17.485C13.1805 17.485 16.9331 13.7325 16.9331 9.10353ZM123.509 7.53198C122.641 7.53198 121.938 8.23558 121.938 9.10352C121.938 9.97145 122.641 10.675 123.509 10.675L123.509 7.53198ZM111.408 10.675C112.276 10.675 112.98 9.97145 112.98 9.10352C112.98 8.23558 112.276 7.53199 111.408 7.53199L111.408 10.675ZM99.3076 7.53199C98.4396 7.53199 97.736 8.23559 97.736 9.10352C97.736 9.97145 98.4396 10.6751 99.3076 10.6751L99.3076 7.53199ZM87.2068 10.6751C88.0747 10.6751 88.7783 9.97145 88.7783 9.10352C88.7783 8.23559 88.0747 7.53199 87.2068 7.53199L87.2068 10.6751ZM75.106 7.53199C74.238 7.53199 73.5344 8.23559 73.5344 9.10352C73.5344 9.97145 74.238 10.6751 75.106 10.6751L75.106 7.53199ZM63.0052 10.6751C63.8731 10.6751 64.5767 9.97145 64.5767 9.10352C64.5767 8.23559 63.8731 7.53199 63.0052 7.53199L63.0052 10.6751ZM50.9044 7.53199C50.0364 7.53199 49.3328 8.23559 49.3328 9.10352C49.3328 9.97146 50.0364 10.6751 50.9044 10.6751L50.9044 7.53199ZM38.8036 10.6751C39.6715 10.6751 40.3751 9.97146 40.3751 9.10352C40.3751 8.23559 39.6715 7.53199 38.8036 7.53199L38.8036 10.6751ZM26.7028 7.53199C25.8348 7.53199 25.1312 8.23559 25.1312 9.10352C25.1312 9.97146 25.8348 10.6751 26.7028 10.6751L26.7028 7.53199ZM14.602 10.6751C15.4699 10.6751 16.1735 9.97146 16.1735 9.10353C16.1735 8.23559 15.4699 7.53199 14.602 7.53199L14.602 10.6751ZM129.56 7.53198L123.509 7.53198L123.509 10.675L129.56 10.675L129.56 7.53198ZM111.408 7.53199L99.3076 7.53199L99.3076 10.6751L111.408 10.675L111.408 7.53199ZM87.2068 7.53199L75.106 7.53199L75.106 10.6751L87.2068 10.6751L87.2068 7.53199ZM63.0052 7.53199L50.9044 7.53199L50.9044 10.6751L63.0052 10.6751L63.0052 7.53199ZM38.8036 7.53199L26.7028 7.53199L26.7028 10.6751L38.8036 10.6751L38.8036 7.53199ZM14.602 7.53199L8.55156 7.53199L8.55157 10.6751L14.602 10.6751L14.602 7.53199Z" fill="white" fill-opacity="0.85"/>
</svg>
