<svg width="344" height="18" viewBox="0 0 344 18" fill="none" xmlns="http://www.w3.org/2000/svg">
<path d="M1.63818 7.55542C0.77025 7.55542 0.0666515 8.25902 0.0666516 9.12695C0.0666517 9.99489 0.770251 10.6985 1.63818 10.6985L1.63818 7.55542ZM326.422 9.12692C326.422 13.7559 330.174 17.5084 334.803 17.5084C339.432 17.5084 343.185 13.7559 343.185 9.12692C343.185 4.49795 339.432 0.74542 334.803 0.74542C330.174 0.74542 326.422 4.49795 326.422 9.12692ZM8.0452 10.6985C8.91313 10.6985 9.61673 9.99489 9.61673 9.12695C9.61673 8.25902 8.91313 7.55542 8.0452 7.55542L8.0452 10.6985ZM20.8592 7.55542C19.9913 7.55542 19.2877 8.25902 19.2877 9.12695C19.2877 9.99488 19.9913 10.6985 20.8592 10.6985L20.8592 7.55542ZM33.6733 10.6985C34.5412 10.6985 35.2448 9.99488 35.2448 9.12695C35.2448 8.25902 34.5412 7.55542 33.6733 7.55542L33.6733 10.6985ZM46.4873 7.55542C45.6194 7.55542 44.9158 8.25902 44.9158 9.12695C44.9158 9.99488 45.6194 10.6985 46.4873 10.6985L46.4873 7.55542ZM59.3013 10.6985C60.1693 10.6985 60.8729 9.99488 60.8729 9.12695C60.8729 8.25901 60.1693 7.55542 59.3013 7.55542L59.3013 10.6985ZM72.1154 7.55541C71.2474 7.55542 70.5438 8.25901 70.5438 9.12695C70.5438 9.99488 71.2474 10.6985 72.1154 10.6985L72.1154 7.55541ZM84.9294 10.6985C85.7973 10.6985 86.5009 9.99488 86.5009 9.12695C86.5009 8.25901 85.7973 7.55541 84.9294 7.55541L84.9294 10.6985ZM97.7434 7.55541C96.8755 7.55541 96.1719 8.25901 96.1719 9.12694C96.1719 9.99488 96.8755 10.6985 97.7434 10.6985L97.7434 7.55541ZM110.557 10.6985C111.425 10.6985 112.129 9.99488 112.129 9.12694C112.129 8.25901 111.425 7.55541 110.557 7.55541L110.557 10.6985ZM123.372 7.55541C122.504 7.55541 121.8 8.25901 121.8 9.12694C121.8 9.99488 122.504 10.6985 123.372 10.6985L123.372 7.55541ZM136.186 10.6985C137.053 10.6985 137.757 9.99487 137.757 9.12694C137.757 8.25901 137.053 7.55541 136.186 7.55541L136.186 10.6985ZM149 7.55541C148.132 7.55541 147.428 8.25901 147.428 9.12694C147.428 9.99487 148.132 10.6985 149 10.6985L149 7.55541ZM161.814 10.6985C162.682 10.6985 163.385 9.99487 163.385 9.12694C163.385 8.25901 162.682 7.55541 161.814 7.55541L161.814 10.6985ZM174.628 7.55541C173.76 7.55541 173.056 8.259 173.056 9.12694C173.056 9.99487 173.76 10.6985 174.628 10.6985L174.628 7.55541ZM187.442 10.6985C188.31 10.6985 189.013 9.99487 189.013 9.12694C189.013 8.259 188.31 7.5554 187.442 7.5554L187.442 10.6985ZM200.256 7.5554C199.388 7.5554 198.684 8.259 198.684 9.12694C198.684 9.99487 199.388 10.6985 200.256 10.6985L200.256 7.5554ZM213.07 10.6985C213.938 10.6985 214.641 9.99487 214.641 9.12693C214.641 8.259 213.938 7.5554 213.07 7.5554L213.07 10.6985ZM225.884 7.5554C225.016 7.5554 224.312 8.259 224.312 9.12693C224.312 9.99487 225.016 10.6985 225.884 10.6985L225.884 7.5554ZM238.698 10.6985C239.566 10.6985 240.269 9.99487 240.269 9.12693C240.269 8.259 239.566 7.5554 238.698 7.5554L238.698 10.6985ZM251.512 7.5554C250.644 7.5554 249.94 8.259 249.94 9.12693C249.94 9.99486 250.644 10.6985 251.512 10.6985L251.512 7.5554ZM264.326 10.6985C265.194 10.6985 265.897 9.99486 265.897 9.12693C265.897 8.259 265.194 7.5554 264.326 7.5554L264.326 10.6985ZM277.14 7.5554C276.272 7.5554 275.568 8.259 275.568 9.12693C275.568 9.99486 276.272 10.6985 277.14 10.6985L277.14 7.5554ZM289.954 10.6985C290.822 10.6985 291.526 9.99486 291.526 9.12693C291.526 8.25899 290.822 7.5554 289.954 7.5554L289.954 10.6985ZM302.768 7.55539C301.9 7.55539 301.197 8.25899 301.197 9.12693C301.197 9.99486 301.9 10.6985 302.768 10.6985L302.768 7.55539ZM315.582 10.6985C316.45 10.6985 317.154 9.99486 317.154 9.12693C317.154 8.25899 316.45 7.55539 315.582 7.55539L315.582 10.6985ZM328.396 7.55539C327.528 7.55539 326.825 8.25899 326.825 9.12692C326.825 9.99486 327.528 10.6985 328.396 10.6985L328.396 7.55539ZM1.63818 10.6985L8.0452 10.6985L8.0452 7.55542L1.63818 7.55542L1.63818 10.6985ZM20.8592 10.6985L33.6733 10.6985L33.6733 7.55542L20.8592 7.55542L20.8592 10.6985ZM46.4873 10.6985L59.3013 10.6985L59.3013 7.55542L46.4873 7.55542L46.4873 10.6985ZM72.1154 10.6985L84.9294 10.6985L84.9294 7.55541L72.1154 7.55541L72.1154 10.6985ZM97.7434 10.6985L110.557 10.6985L110.557 7.55541L97.7434 7.55541L97.7434 10.6985ZM123.372 10.6985L136.186 10.6985L136.186 7.55541L123.372 7.55541L123.372 10.6985ZM149 10.6985L161.814 10.6985L161.814 7.55541L149 7.55541L149 10.6985ZM174.628 10.6985L187.442 10.6985L187.442 7.5554L174.628 7.55541L174.628 10.6985ZM200.256 10.6985L213.07 10.6985L213.07 7.5554L200.256 7.5554L200.256 10.6985ZM225.884 10.6985L238.698 10.6985L238.698 7.5554L225.884 7.5554L225.884 10.6985ZM251.512 10.6985L264.326 10.6985L264.326 7.5554L251.512 7.5554L251.512 10.6985ZM277.14 10.6985L289.954 10.6985L289.954 7.5554L277.14 7.5554L277.14 10.6985ZM302.768 10.6985L315.582 10.6985L315.582 7.55539L302.768 7.55539L302.768 10.6985ZM328.396 10.6985L334.803 10.6985L334.803 7.55539L328.396 7.55539L328.396 10.6985Z" fill="white" fill-opacity="0.85"/>
</svg>
