<svg width="9" height="8" viewBox="0 0 9 8" fill="none" xmlns="http://www.w3.org/2000/svg">
<path d="M4.13051 1.10645C3.8618 1.59014 3.63339 2.07383 3.44529 2.55751C3.27062 3.02777 3.12283 3.50474 3.00191 3.98842C2.89442 4.47211 2.81381 4.97595 2.76006 5.49995C2.70632 6.01051 2.67945 6.54794 2.67945 7.11224C2.59883 7.13911 2.52494 7.16598 2.45776 7.19285C2.40402 7.20629 2.33684 7.21973 2.25622 7.23316C2.17561 7.23316 2.09499 7.23988 2.01438 7.25332C1.93376 7.25332 1.84643 7.25332 1.75238 7.25332C1.37618 7.25332 1.06044 7.18614 0.805159 7.05178C0.549879 6.90399 0.42224 6.61512 0.42224 6.18517C0.435675 5.67461 0.489418 5.17077 0.583469 4.67365C0.677519 4.16309 0.798441 3.68612 0.946235 3.24274C1.10746 2.78592 1.28885 2.36941 1.49038 1.99321C1.70536 1.61701 1.92705 1.30127 2.15545 1.04599C2.2495 0.951941 2.35027 0.884762 2.45776 0.844454C2.56524 0.804147 2.71976 0.783993 2.92129 0.783993C3.01534 0.783993 3.11611 0.790711 3.2236 0.804148C3.33108 0.804148 3.43185 0.824301 3.5259 0.864608C3.63339 0.89148 3.73416 0.925069 3.82821 0.965376C3.93569 1.00568 4.03646 1.05271 4.13051 1.10645ZM8.56431 1.10645C8.30904 1.59014 8.08734 2.07383 7.89924 2.55751C7.72458 3.02777 7.57679 3.50474 7.45586 3.98842C7.33494 4.47211 7.24761 4.97595 7.19387 5.49995C7.14012 6.01051 7.11325 6.54794 7.11325 7.11224C7.04607 7.13911 6.97889 7.16598 6.91172 7.19285C6.85797 7.20629 6.79079 7.21973 6.71018 7.23316C6.62956 7.23316 6.54895 7.23988 6.46833 7.25332C6.38772 7.25332 6.30039 7.25332 6.20634 7.25332C5.83014 7.25332 5.5144 7.18614 5.25912 7.05178C5.00384 6.90399 4.8762 6.61512 4.8762 6.18517C4.8762 5.67461 4.92322 5.17077 5.01727 4.67365C5.11132 4.16309 5.23896 3.68612 5.40019 3.24274C5.56142 2.78592 5.7428 2.36941 5.94434 1.99321C6.15931 1.61701 6.381 1.30127 6.60941 1.04599C6.69003 0.951941 6.78408 0.884762 6.89156 0.844454C7.01248 0.804147 7.16699 0.783993 7.3551 0.783993C7.46258 0.783993 7.56335 0.790711 7.6574 0.804148C7.76489 0.804148 7.86565 0.824301 7.95971 0.864608C8.06719 0.89148 8.17468 0.925069 8.28216 0.965376C8.38965 1.00568 8.4837 1.05271 8.56431 1.10645Z" fill="#BDBDBD"/>
</svg>
