<svg width="9" height="8" viewBox="0 0 9 8" fill="none" xmlns="http://www.w3.org/2000/svg">
<path d="M3.94391 1.22C3.67724 1.7 3.45057 2.18 3.26391 2.66C3.09057 3.12667 2.94391 3.6 2.82391 4.08C2.71724 4.56 2.63724 5.06 2.58391 5.58C2.53057 6.08667 2.50391 6.62 2.50391 7.18C2.42391 7.20667 2.35057 7.23333 2.28391 7.26C2.23057 7.27333 2.16391 7.28667 2.08391 7.3C2.00391 7.3 1.92391 7.30667 1.84391 7.32C1.76391 7.32 1.67724 7.32 1.58391 7.32C1.21057 7.32 0.89724 7.25333 0.643906 7.12C0.390573 6.97333 0.263906 6.68667 0.263906 6.26C0.27724 5.75333 0.330573 5.25333 0.423906 4.76C0.51724 4.25333 0.63724 3.78 0.783907 3.34C0.943906 2.88667 1.12391 2.47333 1.32391 2.1C1.53724 1.72667 1.75724 1.41333 1.98391 1.16C2.07724 1.06667 2.17724 1 2.28391 0.959999C2.39057 0.919999 2.54391 0.899999 2.74391 0.899999C2.83724 0.899999 2.93724 0.906666 3.04391 0.92C3.15057 0.92 3.25057 0.94 3.34391 0.979999C3.45057 1.00667 3.55057 1.04 3.64391 1.08C3.75057 1.12 3.85057 1.16667 3.94391 1.22ZM8.34391 1.22C8.09057 1.7 7.87057 2.18 7.68391 2.66C7.51057 3.12667 7.36391 3.6 7.24391 4.08C7.12391 4.56 7.03724 5.06 6.98391 5.58C6.93057 6.08667 6.90391 6.62 6.90391 7.18C6.83724 7.20667 6.77057 7.23333 6.70391 7.26C6.65057 7.27333 6.58391 7.28667 6.50391 7.3C6.42391 7.3 6.34391 7.30667 6.26391 7.32C6.18391 7.32 6.09724 7.32 6.00391 7.32C5.63057 7.32 5.31724 7.25333 5.06391 7.12C4.81057 6.97333 4.68391 6.68667 4.68391 6.26C4.68391 5.75333 4.73057 5.25333 4.82391 4.76C4.91724 4.25333 5.04391 3.78 5.20391 3.34C5.36391 2.88667 5.54391 2.47333 5.74391 2.1C5.95724 1.72667 6.17724 1.41333 6.40391 1.16C6.48391 1.06667 6.57724 1 6.68391 0.959999C6.80391 0.919999 6.95724 0.899999 7.14391 0.899999C7.25057 0.899999 7.35057 0.906666 7.44391 0.92C7.55057 0.92 7.65057 0.94 7.74391 0.979999C7.85057 1.00667 7.95724 1.04 8.06391 1.08C8.17057 1.12 8.26391 1.16667 8.34391 1.22Z" fill="#BDBDBD"/>
</svg>
