<svg width="9" height="8" viewBox="0 0 9 8" fill="none" xmlns="http://www.w3.org/2000/svg">
<path d="M5.02473 6.93086C5.29345 6.44717 5.51514 5.9702 5.6898 5.49995C5.86447 5.01626 6.01226 4.53257 6.13318 4.04888C6.25411 3.5652 6.34144 3.06807 6.39518 2.55751C6.44892 2.03352 6.4758 1.48937 6.4758 0.925069C6.54298 0.898197 6.61015 0.878043 6.67733 0.864608C6.74451 0.837737 6.81169 0.824301 6.87887 0.824301C6.95948 0.810865 7.0401 0.804148 7.12071 0.804148C7.20133 0.790711 7.29538 0.783993 7.40286 0.783993C7.76563 0.783993 8.07465 0.85789 8.32993 1.00568C8.58521 1.14004 8.71285 1.41547 8.71285 1.83198C8.71285 2.35598 8.66583 2.87326 8.57178 3.38381C8.47773 3.88094 8.35009 4.35791 8.18886 4.81472C8.02763 5.2581 7.83953 5.66789 7.62455 6.0441C7.42302 6.4203 7.21476 6.73604 6.99979 6.99132C6.90574 7.08537 6.79826 7.15255 6.67733 7.19285C6.56985 7.23316 6.42205 7.25332 6.23395 7.25332C6.12647 7.25332 6.01898 7.25332 5.91149 7.25332C5.81744 7.23988 5.71668 7.21973 5.60919 7.19285C5.51514 7.15255 5.41437 7.11224 5.30688 7.07193C5.21283 7.03163 5.11878 6.9846 5.02473 6.93086ZM0.570777 6.93086C0.839492 6.44717 1.06118 5.9702 1.23585 5.49995C1.42395 5.01626 1.57174 4.53257 1.67923 4.04888C1.80015 3.5652 1.88748 3.06807 1.94122 2.55751C1.99497 2.03352 2.02184 1.48937 2.02184 0.925069C2.10245 0.898197 2.16963 0.878043 2.22338 0.864608C2.29056 0.837737 2.35773 0.824301 2.42491 0.824301C2.50553 0.810865 2.58614 0.804148 2.66676 0.804148C2.74737 0.790711 2.84142 0.783993 2.94891 0.783993C3.32511 0.783993 3.63413 0.85789 3.87598 1.00568C4.13126 1.14004 4.2589 1.41547 4.2589 1.83198C4.2589 2.35598 4.21187 2.87326 4.11782 3.38381C4.02377 3.88094 3.89613 4.35791 3.7349 4.81472C3.58711 5.2581 3.40572 5.66789 3.19075 6.0441C2.98921 6.4203 2.77424 6.73604 2.54583 6.99132C2.45178 7.08537 2.3443 7.15255 2.22338 7.19285C2.11589 7.23316 1.9681 7.25332 1.78 7.25332C1.68595 7.25332 1.58518 7.25332 1.47769 7.25332C1.3702 7.23988 1.26272 7.21973 1.15523 7.19285C1.06118 7.15255 0.960414 7.11224 0.852928 7.07193C0.758877 7.03163 0.664827 6.9846 0.570777 6.93086Z" fill="#BDBDBD"/>
</svg>
