<svg width="9" height="8" viewBox="0 0 9 8" fill="none" xmlns="http://www.w3.org/2000/svg">
<path d="M4.46391 7C4.73057 6.52 4.95057 6.04667 5.12391 5.58C5.29724 5.1 5.44391 4.62 5.56391 4.14C5.68391 3.66 5.77057 3.16667 5.82391 2.66C5.87724 2.14 5.90391 1.6 5.90391 1.04C5.97057 1.01333 6.03724 0.993332 6.10391 0.979999C6.17057 0.953333 6.23724 0.94 6.30391 0.94C6.38391 0.926666 6.46391 0.92 6.54391 0.92C6.62391 0.906666 6.71724 0.899999 6.82391 0.899999C7.18391 0.899999 7.49057 0.973332 7.74391 1.12C7.99724 1.25333 8.12391 1.52667 8.12391 1.94C8.12391 2.46 8.07724 2.97333 7.98391 3.48C7.89057 3.97333 7.76391 4.44667 7.60391 4.9C7.44391 5.34 7.25724 5.74667 7.04391 6.12C6.84391 6.49333 6.63724 6.80667 6.42391 7.06C6.33057 7.15333 6.22391 7.22 6.10391 7.26C5.99724 7.3 5.85057 7.32 5.66391 7.32C5.55724 7.32 5.45057 7.32 5.34391 7.32C5.25057 7.30667 5.15057 7.28667 5.04391 7.26C4.95057 7.22 4.85057 7.18 4.74391 7.14C4.65057 7.1 4.55724 7.05333 4.46391 7ZM0.0439064 7C0.310573 6.52 0.530573 6.04667 0.703906 5.58C0.890573 5.1 1.03724 4.62 1.14391 4.14C1.26391 3.66 1.35057 3.16667 1.40391 2.66C1.45724 2.14 1.48391 1.6 1.48391 1.04C1.56391 1.01333 1.63057 0.993332 1.68391 0.979999C1.75057 0.953333 1.81724 0.94 1.88391 0.94C1.96391 0.926666 2.04391 0.92 2.12391 0.92C2.20391 0.906666 2.29724 0.899999 2.40391 0.899999C2.77724 0.899999 3.08391 0.973332 3.32391 1.12C3.57724 1.25333 3.70391 1.52667 3.70391 1.94C3.70391 2.46 3.65724 2.97333 3.56391 3.48C3.47057 3.97333 3.34391 4.44667 3.18391 4.9C3.03724 5.34 2.85724 5.74667 2.64391 6.12C2.44391 6.49333 2.23057 6.80667 2.00391 7.06C1.91057 7.15333 1.80391 7.22 1.68391 7.26C1.57724 7.3 1.43057 7.32 1.24391 7.32C1.15057 7.32 1.05057 7.32 0.943906 7.32C0.83724 7.30667 0.730573 7.28667 0.623906 7.26C0.530573 7.22 0.430573 7.18 0.323906 7.14C0.230573 7.1 0.13724 7.05333 0.0439064 7Z" fill="#BDBDBD"/>
</svg>
